<svg xmlns="http://www.w3.org/2000/svg" viewBox="0 0 349.7224 358.1598"><defs><style>.cls-1{fill:#fff;}</style></defs><title>Asset 1</title><g id="Layer_2" data-name="Layer 2"><g id="Layer_1-2" data-name="Layer 1"><path class="cls-1" d="M167.5234,6.0367a65.6451,65.6451,0,0,1-17.3716,5.3446c-2.85.47-1.6412,4.8075,1.1963,4.3393a69.7956,69.7956,0,0,0,18.4466-5.7982c2.6186-1.2318.3369-5.1125-2.2712-3.8856Z"/><path class="cls-1" d="M134.6484,17.3024c-8.269,1.943-15.969,5.3018-23.82,8.4614-2.6528,1.0677-1.4943,5.4221,1.1963,4.3393,7.8509-3.16,15.5509-6.5185,23.82-8.4614,2.818-.6621,1.6251-5.0022-1.1963-4.3393Z"/><path class="cls-1" d="M87.1327,30.8137,59.9144,38.4264c-2.7848.7789-1.6018,5.1218,1.1963,4.3393L88.329,35.153c2.7848-.7789,1.6018-5.1218-1.1963-4.3393Z"/><path class="cls-1" d="M38.94,45.8953A33.8361,33.8361,0,0,0,19.054,51.9824c-2.3605,1.6427-.1136,5.5452,2.2712,3.8856A29.6394,29.6394,0,0,1,38.94,50.3953c2.8965.0287,2.8988-4.4712,0-4.5Z"/><path class="cls-1" d="M6.1194,66.899A48.3041,48.3041,0,0,0,.01,86.7466c-.25,2.8847,4.2514,2.8679,4.5,0A42.8473,42.8473,0,0,1,10.005,69.17c1.428-2.524-2.458-4.7945-3.8856-2.2712Z"/><path class="cls-1" d="M1.9339,100.8421a82.3182,82.3182,0,0,0,3.6874,27.89c.8584,2.756,5.2039,1.58,4.3393-1.1963a78.5193,78.5193,0,0,1-3.5266-26.6932c.1134-2.896-4.3868-2.891-4.5,0Z"/><path class="cls-1" d="M9.2352,145.6778a137.8593,137.8593,0,0,1,4.1531,20.9075c.3344,2.8415,4.8383,2.8753,4.5,0a145.5136,145.5136,0,0,0-4.3138-22.1038c-.7758-2.7858-5.1187-1.6026-4.3393,1.1963Z"/><path class="cls-1" d="M15.9072,190.7694a43.0043,43.0043,0,0,1,2.988,15.296c.0311,2.8939,4.5312,2.9013,4.5,0a46.512,46.512,0,0,0-3.1488-16.4923c-1.0377-2.67-5.3907-1.5092-4.3393,1.1963Z"/><path class="cls-1" d="M20.0769,219.8739a63.29,63.29,0,0,0-.4021,15.1872c.2525,2.8623,4.7548,2.8889,4.5,0a58.6651,58.6651,0,0,1,.2414-13.9909c.4283-2.833-3.9071-4.0547-4.3393-1.1963Z"/><path class="cls-1" d="M22.4393,248.18c-1.1326,8.8343,6.4885,14.4183,13.1648,18.4414,2.4867,1.4985,4.7515-2.391,2.2712-3.8856-5.3862-3.2457-11.8587-7.3592-10.936-14.5557.3672-2.8644-4.1362-2.8376-4.5,0Z"/><path class="cls-1" d="M71.4413,292.2466a91.1294,91.1294,0,0,1,16.1732,8.7426c2.4073,1.6239,4.6619-2.273,2.2712-3.8856a96.6959,96.6959,0,0,0-17.2482-9.1963c-2.6741-1.1047-3.84,3.2472-1.1963,4.3393Z"/><path class="cls-1" d="M122.0062,325.93a44.0448,44.0448,0,0,0,12.6679,11.5514c2.4873,1.4975,4.7521-2.392,2.2712-3.8856a38.4149,38.4149,0,0,1-11.0536-9.937c-1.7111-2.2952-5.6192-.0541-3.8856,2.2712Z"/><path class="cls-1" d="M235.1875,327.9563l14.0028-8.6024c2.4634-1.5134.2055-5.4072-2.2712-3.8856l-14.0028,8.6024c-2.4634,1.5134-.2055,5.4072,2.2712,3.8856Z"/><path class="cls-1" d="M261.8648,310.3112l16.8651-8.546c2.5838-1.3093.3087-5.1929-2.2712-3.8856l-16.8651,8.546c-2.5838,1.3093-.3087,5.1929,2.2712,3.8856Z"/><path class="cls-1" d="M292.7712,290.6446l14.1021-9.38c2.4-1.5965.1492-5.4957-2.2712-3.8856L290.5,286.759c-2.4,1.5965-.1492,5.4957,2.2712,3.8856Z"/><path class="cls-1" d="M322.3821,270.4148a54.9719,54.9719,0,0,0,14.0809-11.0917c1.9058-2.167-1.2649-5.3618-3.182-3.182a51.0778,51.0778,0,0,1-13.17,10.3881c-2.5291,1.4116-.2626,5.3,2.2712,3.8856Z"/><path class="cls-1" d="M346.1176,246.6671a40.15,40.15,0,0,0,3.5922-13.3737c.2806-2.88-4.2213-2.861-4.5,0a33.684,33.684,0,0,1-2.9779,11.1025c-1.2261,2.6055,2.6521,4.8925,3.8856,2.2712Z"/><path class="cls-1" d="M346.9,216.8119l-2.2182-15.12c-.4188-2.8548-4.7555-1.6411-4.3393,1.1963l2.2182,15.12c.4188,2.8548,4.7555,1.6411,4.3393-1.1963Z"/><path class="cls-1" d="M335.9032,76.9843l2.087-15.003c.394-2.8322-3.9413-4.0568-4.3393-1.1963l-2.087,15.003c-.394,2.8322,3.9413,4.0568,4.3393,1.1963Z"/><path class="cls-1" d="M332.6237,48.0963c-3.1-5.1494-8.8236-7.1482-14.4689-8.1285-2.8323-.4918-4.0487,3.8439-1.1963,4.3393,4.4.7641,9.3193,1.9736,11.78,6.06,1.4919,2.4783,5.3845.2186,3.8856-2.2712Z"/><path class="cls-1" d="M282.2294,26.323l-13.0828-2.2811c-2.8322-.4938-4.0484,3.842-1.1963,4.3393l13.0828,2.2811c2.8322.4938,4.0484-3.842,1.1963-4.3393Z"/><path class="cls-1" d="M256.2465,21.222c-5.6209-.0661-11.0191-1.4019-16.4019-2.92-2.792-.7872-3.9837,3.5533-1.1963,4.3393,5.7608,1.6243,11.5844,3.01,17.5981,3.08,2.8966.0341,2.8985-4.4659,0-4.5Z"/><path class="cls-1" d="M223.5954,13.4138,212.3571,9.5519c-2.7446-.9431-3.9234,3.4021-1.1963,4.3393l11.2383,3.8619c2.7446.9431,3.9234-3.4021,1.1963-4.3393Z"/><path class="cls-1" d="M196.8375,5.881A28.0568,28.0568,0,0,0,180.802,0c-2.8968-.0477-2.8975,4.4522,0,4.5A23.273,23.273,0,0,1,193.6555,9.063c2.2326,1.8041,5.4358-1.3607,3.182-3.182Z"/><path class="cls-1" d="M334.4419,126.2852a24.631,24.631,0,0,1,1.8162,15.2386c-.554,2.8289,3.7823,4.04,4.3393,1.1963a29.8612,29.8612,0,0,0-2.27-18.7061c-1.2139-2.6259-5.0939-.3427-3.8856,2.2712Z"/><path class="cls-1" d="M342.9965,179.972v-16c0-2.8955-4.5-2.9-4.5,0v16c0,2.8955,4.5,2.9,4.5,0Z"/><path class="cls-1" d="M333.5646,91.9784a55.7743,55.7743,0,0,0,1.6772,18.6841c.732,2.7994,5.0737,1.6124,4.3393-1.1963a52.0126,52.0126,0,0,1-1.5164-17.4878c.23-2.8871-4.2708-2.8721-4.5,0Z"/><path class="cls-1" d="M46.4551,275.2394A63.5316,63.5316,0,0,1,57.5427,282.07c2.2616,1.7525,5.4691-1.41,3.182-3.182a68.7986,68.7986,0,0,0-11.9983-7.5342c-2.5924-1.265-4.8763,2.6144-2.2712,3.8856Z"/><path class="cls-1" d="M99.697,309.7862l11.9855,8.0217c2.4134,1.6152,4.6687-2.2811,2.2712-3.8856l-11.9855-8.0217c-2.4134-1.6152-4.6687,2.2811-2.2712,3.8856Z"/><path class="cls-1" d="M144.488,349.1288l15.1642,8.7142c2.5152,1.4454,4.7843-2.4415,2.2712-3.8856l-15.1642-8.7142c-2.5152-1.4454-4.7843,2.4415-2.2712,3.8856Z"/><path class="cls-1" d="M178.2325,352.7208l14.81-6.4373c2.6491-1.1515.3606-5.03-2.2712-3.8856l-14.81,6.4373c-2.6491,1.1515-.3606,5.03,2.2712,3.8856Z"/><path class="cls-1" d="M209.1107,341.8885a30.539,30.539,0,0,1,12.6161-8.0845c2.7339-.911,1.5621-5.2584-1.1963-4.3393a35.2963,35.2963,0,0,0-14.6018,9.2417c-1.9919,2.1013,1.1847,5.289,3.182,3.182Z"/><path class="cls-1" d="M293.4751,35.186c4.1377,1.242,8.1336,2.9352,12.1733,4.4556,2.7134,1.0213,3.8858-3.327,1.1963-4.3393-4.04-1.52-8.0356-3.2136-12.1733-4.4556-2.78-.8344-3.9675,3.5074-1.1963,4.3393Z"/><path class="cls-1" d="M144.4018,132.2756c7.4463-13.5167,22.71-20.512,37.7277-16.1344,15.4792,4.5121,25.0082,21.0654,29.286,35.6881,1.9331,6.6078,2.8861,14.2809-2.1746,19.7371-4.861,5.241-12.7181,7.3586-18.79,10.8091-15.2933,8.69-26.28,23.7113-23.8274,41.78.6544,4.8213,6.8342,7.45,11.0711,6.286,5.201-1.4293,6.9424-6.2347,6.286-11.0711-1.7494-12.8883,14.4393-20.9916,23.668-25.5318,14.2508-7.0109,24.4261-18.3754,23.2238-35.1591-1.1179-15.6061-9.2237-31.5522-19.0252-43.5046a50.1409,50.1409,0,0,0-82.9875,8.0159c-5.5932,10.1529,9.9456,19.2445,15.5425,9.0849Z"/><path class="cls-1" d="M175.2754,271.7022c11.5821,0,11.6013-18,0-18-11.5821,0-11.6013,18,0,18Z"/></g></g></svg>