<svg id="Laag_1" data-name="Laag 1" xmlns="http://www.w3.org/2000/svg" viewBox="0 0 2880 141.8"><defs><style>.cls-1{fill:#fff;}</style></defs><title>bies-en</title><path class="cls-1" d="M166.4,106.2,169,46.3,120.7,28.7,71.4,36.4c-5.8.8-11.8,3.9-11.5,10.4l3.9,57.4,40.1,37.6,56.4-25C163.8,114.8,166.1,113.4,166.4,106.2ZM150.3,62.5c.1-3,.2-6.1.2-9.1,2.5-.7,4.9-1.4,7.3-2.1l7.1-2.1c-.1,2.9-.2,5.9-.3,8.8l-.3,8.7c-2.3.8-4.7,1.6-7,2.4s-4.8,1.6-7.3,2.4Zm-26.9,57.9c0,3-.1,6-.1,9-2.7,1.2-5.5,2.5-8.3,3.7s-5.7,2.6-8.6,3.9V118.3c2.9-1.2,5.9-2.4,8.7-3.5s5.6-2.3,8.4-3.4c0,2.9-.1,5.9-.1,9Zm.3-24.5c0,3.1-.1,6.2-.1,9.2l-8.4,3.3c-2.9,1.1-5.8,2.3-8.8,3.4V92.5c3-1,5.9-2.1,8.8-3.1s5.7-2,8.5-3v9.5Zm.2-22a9.18,9.18,0,0,1-5.7,8.2c-3.9,1.3-7.8,2.6-11.8,4V72.9c0-3.7,2.7-7.5,6-8.4,3.9-1.1,7.8-2.3,11.6-3.4,0,4.3-.1,8.6-.1,12.8Zm20.3,37.6c-.1,2.9-.1,5.7-.2,8.6-2.5,1.1-5,2.2-7.5,3.4s-5.2,2.3-7.8,3.5c0-2.9.1-5.9.1-8.9s.1-6,.1-9c2.7-1.1,5.3-2.2,7.9-3.2s5.1-2.1,7.6-3.1c-.1,2.9-.1,5.8-.2,8.7Zm.5-20.5c-.1,3.3-2.4,6.8-5.2,7.9-3.4,1.3-6.9,2.7-10.5,4.1.1-4.1.1-8.1.2-12.2,0-3.4,2.5-7,5.4-8,3.5-1.2,6.9-2.4,10.3-3.6-.1,3.9-.1,7.9-.2,11.8ZM163,106.1c-.1,3-2.2,6.4-4.7,7.5-3.1,1.4-6.2,2.8-9.4,4.2l.3-11.4c.1-3.2,2.3-6.6,4.9-7.7,3.1-1.3,6.2-2.5,9.3-3.8-.1,3.9-.2,7.5-.4,11.2Zm-6.4-13.9c-2.4.9-4.8,1.9-7.2,2.8.1-2.9.1-5.8.2-8.7s.1-5.9.2-8.8c2.4-.9,4.9-1.7,7.2-2.5s4.7-1.6,7-2.4c-.1,2.9-.2,5.7-.3,8.6s-.2,5.7-.3,8.5A64.28,64.28,0,0,0,156.6,92.2Z"/><polygon class="cls-1" points="0 112.5 0 126.2 82.8 126.2 68.2 112.5 0 112.5"/><path class="cls-1" d="M2880,112.5H168.4c0,.1,0,.1-.1.2-.2.5-.4,1-.6,1.4h0c-1.4,2.8-3.6,4.1-5.8,5.4l-.3.2-12.5,5.5L2880,125Z"/><path class="cls-1" d="M202.4,99.5a1,1,0,0,0,.9-.4,3.08,3.08,0,0,0,.3-1.3V95.1h1.7a2.77,2.77,0,0,0,1.3-.3.81.81,0,0,0,.4-.9,1.09,1.09,0,0,0-.4-.9,3.08,3.08,0,0,0-1.3-.3h-1.7V90.8h2a2.77,2.77,0,0,0,1.3-.3.74.74,0,0,0,.4-.8,1.09,1.09,0,0,0-.4-.9,3.08,3.08,0,0,0-1.3-.3h-2.8a1.39,1.39,0,0,0-1.7,1.1.85.85,0,0,0,0,.7v7.5a2.77,2.77,0,0,0,.3,1.3A1.43,1.43,0,0,0,202.4,99.5Z"/><path class="cls-1" d="M214.6,91.4a1,1,0,0,0-.5.6,1.56,1.56,0,0,0-.8-.6,3.59,3.59,0,0,0-1.1-.2,3.22,3.22,0,0,0-2.6,1.2,4.62,4.62,0,0,0-1.1,3,4.53,4.53,0,0,0,1,3,3.22,3.22,0,0,0,2.6,1.2,3.59,3.59,0,0,0,1.1-.2,5.5,5.5,0,0,0,.9-.7,1.47,1.47,0,0,0,.5.6,1.45,1.45,0,0,0,.7.2,1,1,0,0,0,.9-.4,3.08,3.08,0,0,0,.3-1.3V93a2.77,2.77,0,0,0-.3-1.3,1,1,0,0,0-.9-.4A.59.59,0,0,0,214.6,91.4Zm-1,5.3a1.53,1.53,0,0,1-2,.3c-.1-.1-.2-.2-.3-.2a1.79,1.79,0,0,1-.4-1.4,2.3,2.3,0,0,1,.4-1.4,1.43,1.43,0,0,1,2-.2c.1.1.2.1.2.2a1.79,1.79,0,0,1,.4,1.4A1.31,1.31,0,0,1,213.6,96.7Z"/><path class="cls-1" d="M218.4,95.3a4.55,4.55,0,0,0,1.1,3.1,3.85,3.85,0,0,0,2.9,1.2,3.51,3.51,0,0,0,2-.5,1.17,1.17,0,0,0,.8-1.1,1,1,0,0,0-1-1,1.85,1.85,0,0,0-.7.2,2.92,2.92,0,0,1-.9.2,1.9,1.9,0,0,1-1.3-.5,2.46,2.46,0,0,1-.5-1.5,2.26,2.26,0,0,1,.5-1.5,1.43,1.43,0,0,1,1.2-.6,2.92,2.92,0,0,1,.9.2,1.88,1.88,0,0,0,.8.2.91.91,0,0,0,.7-.3,1.08,1.08,0,0,0,.3-.7,1.23,1.23,0,0,0-.7-1.1,3.28,3.28,0,0,0-1.9-.4,4.23,4.23,0,0,0-3,1.2A3.85,3.85,0,0,0,218.4,95.3Z"/><path class="cls-1" d="M229,91.6a1.21,1.21,0,0,0-1.8,0,3.08,3.08,0,0,0-.3,1.3v3.2a3.46,3.46,0,0,0,.9,2.6,4.5,4.5,0,0,0,5.4,0,3.11,3.11,0,0,0,.9-2.6V92.9a2.77,2.77,0,0,0-.3-1.3,1.21,1.21,0,0,0-1.8,0,3.08,3.08,0,0,0-.3,1.3v2.7a3.53,3.53,0,0,1-.3,1.4,1.39,1.39,0,0,1-1.9,0h0a3.19,3.19,0,0,1-.3-1.4V92.9A1.91,1.91,0,0,0,229,91.6Z"/><path class="cls-1" d="M236.9,88.2a3.08,3.08,0,0,0-.3,1.3v8.2a2.77,2.77,0,0,0,.3,1.3.81.81,0,0,0,.9.4,1.09,1.09,0,0,0,.9-.4,3.08,3.08,0,0,0,.3-1.3V89.5a2.77,2.77,0,0,0-.3-1.3,1.21,1.21,0,0,0-1.8,0Z"/><path class="cls-1" d="M241.9,93.5h0l.1,4.2a2.77,2.77,0,0,0,.3,1.3.87.87,0,0,0,.9.4,1,1,0,0,0,.9-.4,3.08,3.08,0,0,0,.3-1.3V93.5h.2a2,2,0,0,0,1.1-.3,1,1,0,0,0,0-1.6,2,2,0,0,0-1.1-.3h-.2V90.2a2.77,2.77,0,0,0-.3-1.3.81.81,0,0,0-.9-.4,1,1,0,0,0-.9.4,3.08,3.08,0,0,0-.3,1.3v1.1a2,2,0,0,0-1.1.3,1,1,0,0,0-.1,1.4.1.1,0,0,0,.1.1A1.28,1.28,0,0,0,241.9,93.5Z"/><path class="cls-1" d="M247.9,101.2c0,.1-.1.3-.1.4a1.14,1.14,0,0,0,.3.8,1.4,1.4,0,0,0,.9.3,1.42,1.42,0,0,0,.6-.2,2.18,2.18,0,0,0,.5-.8l3.7-8.7a.75.75,0,0,0,.1-.5.6.6,0,0,1,.1-.4,1.14,1.14,0,0,0-.3-.8,1.22,1.22,0,0,0-.9-.3,1.07,1.07,0,0,0-.6.2,1.27,1.27,0,0,0-.4.7l-1.5,3.8-1.4-3.6a2.62,2.62,0,0,0-.5-.9.62.62,0,0,0-.7-.2,1,1,0,0,0-1.1,1.1v.4a.37.37,0,0,0,.1.3l2.4,5.6-1,2.1C248,100.9,248,101.1,247.9,101.2Z"/><path class="cls-1" d="M262.6,99.5a1,1,0,0,0,.9-.4,3.08,3.08,0,0,0,.3-1.3V90.2a2.77,2.77,0,0,0-.3-1.3,1.25,1.25,0,0,0-1.7-.2c-.1,0-.1.1-.2.2a3.08,3.08,0,0,0-.3,1.3v7.6a2.77,2.77,0,0,0,.3,1.3A1.16,1.16,0,0,0,262.6,99.5Z"/><path class="cls-1" d="M271.7,99a1.13,1.13,0,0,0,1.6.2l.2-.2a3.08,3.08,0,0,0,.3-1.3V94.3a3.07,3.07,0,0,0-.8-2.4,2.65,2.65,0,0,0-2.2-.8,5,5,0,0,0-1.2.2,2.36,2.36,0,0,0-.9.6,2.65,2.65,0,0,0-.5-.6,1.42,1.42,0,0,0-.6-.2,1,1,0,0,0-.9.4,3.08,3.08,0,0,0-.3,1.3v4.8a2.77,2.77,0,0,0,.3,1.3,1.13,1.13,0,0,0,1.6.2l.2-.2a3.08,3.08,0,0,0,.3-1.3V95a3.19,3.19,0,0,1,.3-1.4,1,1,0,0,1,1-.4,1.16,1.16,0,0,1,1,.4,3.19,3.19,0,0,1,.3,1.4v2.7A2.77,2.77,0,0,0,271.7,99Z"/><path class="cls-1" d="M281.6,88.2a3.08,3.08,0,0,0-.3,1.3v2.2a2.62,2.62,0,0,0-.9-.5,3.55,3.55,0,0,0-1-.2,3.22,3.22,0,0,0-2.6,1.2,4.64,4.64,0,0,0,0,6,3.22,3.22,0,0,0,2.6,1.2,4.25,4.25,0,0,0,1.1-.2,2.36,2.36,0,0,0,.9-.6,2.65,2.65,0,0,0,.5.6,1.42,1.42,0,0,0,.6.2,1,1,0,0,0,.9-.4,3.08,3.08,0,0,0,.3-1.3V89.5a2.77,2.77,0,0,0-.3-1.3,1.21,1.21,0,0,0-1.8,0Zm-.7,8.5a1.55,1.55,0,0,1-2,.3l-.3-.3a1.79,1.79,0,0,1-.4-1.4,2.82,2.82,0,0,1,.4-1.5,1.55,1.55,0,0,1,2-.3l.3.3a1.91,1.91,0,0,1,.4,1.5A2.3,2.3,0,0,1,280.9,96.7Z"/><path class="cls-1" d="M286.4,91.6a3.08,3.08,0,0,0-.3,1.3v3.2a3.46,3.46,0,0,0,.9,2.6,4.5,4.5,0,0,0,5.4,0,3.11,3.11,0,0,0,.9-2.6V92.9a2.77,2.77,0,0,0-.3-1.3,1.21,1.21,0,0,0-1.8,0,3.08,3.08,0,0,0-.3,1.3v2.7a3.53,3.53,0,0,1-.3,1.4,1.39,1.39,0,0,1-1.9,0h0a3.19,3.19,0,0,1-.3-1.4V92.9a2.77,2.77,0,0,0-.3-1.3,1,1,0,0,0-.9-.4A.74.74,0,0,0,286.4,91.6Z"/><path class="cls-1" d="M298.2,97.4a3.54,3.54,0,0,1-1.1-.3,2,2,0,0,0-1.1-.3.6.6,0,0,0-.6.3,1.14,1.14,0,0,0-.3.8,1.56,1.56,0,0,0,.8,1.3,3.84,3.84,0,0,0,2.1.5,3.24,3.24,0,0,0,2.3-.8,2.52,2.52,0,0,0,.9-2,1.66,1.66,0,0,0-.5-1.3,7,7,0,0,0-2.2-1.3c-.6-.2-1-.5-1-.7s.1-.2.1-.3a.6.6,0,0,1,.4-.1,1.93,1.93,0,0,1,1,.3l.9.3a1,1,0,0,0,1-1,1.48,1.48,0,0,0-.8-1.2,4.55,4.55,0,0,0-2-.5,3.41,3.41,0,0,0-2.2.7,2.65,2.65,0,0,0-.9,1.9,2.39,2.39,0,0,0,.5,1.4,4.18,4.18,0,0,0,1.8,1.1.1.1,0,0,1,.1.1c.8.3,1.2.6,1.2.8s-.1.3-.2.3Z"/><path class="cls-1" d="M303.9,99.1a.87.87,0,0,0,.9.4,1,1,0,0,0,.9-.4,3.08,3.08,0,0,0,.3-1.3V93.5h.2a2,2,0,0,0,1.1-.3,1,1,0,0,0,0-1.6,2,2,0,0,0-1.1-.3H306V90.2a2.77,2.77,0,0,0-.3-1.3.81.81,0,0,0-.9-.4,1,1,0,0,0-.9.4,3.08,3.08,0,0,0-.3,1.3v1.1a2,2,0,0,0-1.1.3,1,1,0,0,0-.1,1.4.1.1,0,0,0,.1.1,1.69,1.69,0,0,0,1,.3h.1v4.2A3.65,3.65,0,0,0,303.9,99.1Z"/><path class="cls-1" d="M310.2,91.2a1,1,0,0,0-.9.4,3.08,3.08,0,0,0-.3,1.3v4.8a2.77,2.77,0,0,0,.3,1.3,1.24,1.24,0,0,0,1.7.2c.1,0,.1-.1.2-.2a3.08,3.08,0,0,0,.3-1.3V95.2a2.77,2.77,0,0,1,.1-.9,1.47,1.47,0,0,1,.6-.5c.2-.1.5-.2.7-.3.9-.3,1.3-.7,1.3-1.2a.91.91,0,0,0-.4-.8,1.27,1.27,0,0,0-.9-.4,1.88,1.88,0,0,0-.8.2,5.55,5.55,0,0,0-.8.6,2.65,2.65,0,0,0-.5-.6A1.27,1.27,0,0,0,310.2,91.2Z"/><path class="cls-1" d="M316.8,90.5a1.28,1.28,0,0,0,1-.4,1.52,1.52,0,0,0,0-2,1.28,1.28,0,0,0-1-.4,1.37,1.37,0,0,0-1.4,1.4,1.28,1.28,0,0,0,.4,1A1.16,1.16,0,0,0,316.8,90.5Z"/><path class="cls-1" d="M316.8,91.2a1,1,0,0,0-.9.4,3.08,3.08,0,0,0-.3,1.3v4.8a2.77,2.77,0,0,0,.3,1.3.81.81,0,0,0,.9.4,1.09,1.09,0,0,0,.9-.4,3.08,3.08,0,0,0,.3-1.3V92.9a2.77,2.77,0,0,0-.3-1.3A.87.87,0,0,0,316.8,91.2Z"/><path class="cls-1" d="M323.6,99.5a3.59,3.59,0,0,0,1.1-.2,5.5,5.5,0,0,0,.9-.7,1.47,1.47,0,0,0,.5.6,1.45,1.45,0,0,0,.7.2,1,1,0,0,0,.9-.4,3.08,3.08,0,0,0,.3-1.3V92.9a2.77,2.77,0,0,0-.3-1.3,1,1,0,0,0-.9-.4,1.07,1.07,0,0,0-.6.2,1,1,0,0,0-.5.6,1.56,1.56,0,0,0-.8-.6,3.59,3.59,0,0,0-1.1-.2,3.22,3.22,0,0,0-2.6,1.2,4.62,4.62,0,0,0-1.1,3,4.53,4.53,0,0,0,1,3A3.25,3.25,0,0,0,323.6,99.5Zm-.7-5.6a1.43,1.43,0,0,1,2-.2c.1.1.2.1.2.2a1.79,1.79,0,0,1,.4,1.4,2.3,2.3,0,0,1-.4,1.4,1.27,1.27,0,0,1-1.1.5,1.61,1.61,0,0,1-1.1-.5,1.79,1.79,0,0,1-.4-1.4,2.3,2.3,0,0,1,.4-1.4Z"/><path class="cls-1" d="M330.8,88.2a3.08,3.08,0,0,0-.3,1.3v8.2a2.77,2.77,0,0,0,.3,1.3.87.87,0,0,0,.9.4,1.09,1.09,0,0,0,.9-.4,3.08,3.08,0,0,0,.3-1.3V89.5a2.77,2.77,0,0,0-.3-1.3,1.21,1.21,0,0,0-1.8,0Z"/><path class="cls-1" d="M342.9,88.6a2,2,0,0,0-1.3.4,2.3,2.3,0,0,0-.4,1.4v7.5a1.37,1.37,0,0,0,.4,1.2,1.59,1.59,0,0,0,1.3.3h2.3a5.34,5.34,0,0,0,3.9-1.5,5.48,5.48,0,0,0,1.4-4,5.83,5.83,0,0,0-.6-2.6,5.19,5.19,0,0,0-1.7-1.9,3.51,3.51,0,0,0-1.4-.6,11,11,0,0,0-1.8-.2Zm4.1,3a3.49,3.49,0,0,1,.8,2.2,3.41,3.41,0,0,1-.7,2.4,2.65,2.65,0,0,1-2.2.8h-1.1V90.8h1.1A2.93,2.93,0,0,1,347,91.6Z"/><path class="cls-1" d="M359.7,95.8a.78.78,0,0,0,.2-.8,4.11,4.11,0,0,0-1.1-2.8,3.25,3.25,0,0,0-2.8-1.1,4,4,0,0,0-2.9,1.2,3.86,3.86,0,0,0-1.1,3.1,4.23,4.23,0,0,0,1.2,3,4.07,4.07,0,0,0,3,1.2,5.14,5.14,0,0,0,2.5-.6c.7-.4,1.1-.9,1.1-1.4a1,1,0,0,0-1-1,3,3,0,0,0-1,.4,4.19,4.19,0,0,1-1.5.4A2.2,2.2,0,0,1,355,97a2.07,2.07,0,0,1-.6-1h4.3A3,3,0,0,0,359.7,95.8Zm-5.2-1.4a1.7,1.7,0,0,1,.6-1,1.66,1.66,0,0,1,2.1,0,1.39,1.39,0,0,1,.5,1Z"/><path class="cls-1" d="M364.2,93.1a1.93,1.93,0,0,1,1,.3l.9.3a1,1,0,0,0,1-1,1.48,1.48,0,0,0-.8-1.2,4.55,4.55,0,0,0-2-.5,3.41,3.41,0,0,0-2.2.7,2.65,2.65,0,0,0-.9,1.9,2.39,2.39,0,0,0,.5,1.4,4.18,4.18,0,0,0,1.8,1.1.1.1,0,0,1,.1.1c.8.3,1.2.6,1.2.8s-.1.3-.2.3a.75.75,0,0,1-.5.1,3.54,3.54,0,0,1-1.1-.3,2,2,0,0,0-1.1-.3.6.6,0,0,0-.6.3,1.14,1.14,0,0,0-.3.8,1.56,1.56,0,0,0,.8,1.3,3.84,3.84,0,0,0,2.1.5,3.24,3.24,0,0,0,2.3-.8,2.52,2.52,0,0,0,.9-2,1.66,1.66,0,0,0-.5-1.3,7,7,0,0,0-2.2-1.3c-.6-.2-1-.5-1-.7s.1-.2.1-.3C363.9,93.2,364.1,93.1,364.2,93.1Z"/><path class="cls-1" d="M370.4,90.5a1.4,1.4,0,1,0,0-2.8,1.37,1.37,0,0,0-1.4,1.4,1.43,1.43,0,0,0,1.4,1.4Z"/><path class="cls-1" d="M370.5,91.2a1,1,0,0,0-.9.4,3.08,3.08,0,0,0-.3,1.3v4.8a2.77,2.77,0,0,0,.3,1.3,1.13,1.13,0,0,0,1.6.2l.2-.2a3.08,3.08,0,0,0,.3-1.3V92.9a2.77,2.77,0,0,0-.3-1.3C371.1,91.3,370.8,91.1,370.5,91.2Z"/><path class="cls-1" d="M377.5,100.7a4,4,0,0,1-1.5-.3,1.93,1.93,0,0,0-1-.3.91.91,0,0,0-.7.3,1.14,1.14,0,0,0-.3.8c0,.5.3.9,1,1.3a5.59,5.59,0,0,0,2.5.5,4.19,4.19,0,0,0,2.2-.5,3.53,3.53,0,0,0,1.4-1.3,2.84,2.84,0,0,0,.4-1.2,14.77,14.77,0,0,0,.1-2.1V93.1a2.77,2.77,0,0,0-.3-1.3.87.87,0,0,0-.9-.4,1.42,1.42,0,0,0-.6.2,1,1,0,0,0-.5.6,1.56,1.56,0,0,0-.8-.6,3.59,3.59,0,0,0-1.1-.2,3.22,3.22,0,0,0-2.6,1.2,4.62,4.62,0,0,0-1.1,3,4.72,4.72,0,0,0,1,3,3,3,0,0,0,2.5,1.2,2.56,2.56,0,0,0,2.1-1.1v.2a2.1,2.1,0,0,1-.5,1.5A4.15,4.15,0,0,1,377.5,100.7Zm1.4-3.9a1.55,1.55,0,0,1-2,.3l-.3-.3a1.79,1.79,0,0,1-.4-1.4,2.3,2.3,0,0,1,.4-1.4,1.43,1.43,0,0,1,2-.2c.1.1.2.1.2.2a1.79,1.79,0,0,1,.4,1.4A1.9,1.9,0,0,1,378.9,96.8Z"/><path class="cls-1" d="M385.9,91.4a1.42,1.42,0,0,0-.6-.2,1,1,0,0,0-.9.4,3.08,3.08,0,0,0-.3,1.3v4.8a2.77,2.77,0,0,0,.3,1.3,1.13,1.13,0,0,0,1.6.2l.2-.2a3.08,3.08,0,0,0,.3-1.3V95a3.19,3.19,0,0,1,.3-1.4,1,1,0,0,1,1-.4,1.16,1.16,0,0,1,1,.4,3.19,3.19,0,0,1,.3,1.4v2.7a2.77,2.77,0,0,0,.3,1.3,1.13,1.13,0,0,0,1.6.2l.2-.2a3.08,3.08,0,0,0,.3-1.3V94.3a3.41,3.41,0,0,0-.7-2.4,2.65,2.65,0,0,0-2.2-.8,5,5,0,0,0-1.2.2,2.36,2.36,0,0,0-.9.6A2.65,2.65,0,0,0,385.9,91.4Z"/><path class="cls-1" d="M404.1,90.8a2.77,2.77,0,0,0,1.3-.3.74.74,0,0,0,.4-.8,1.09,1.09,0,0,0-.4-.9,2.77,2.77,0,0,0-1.3-.3h-2.8a1.4,1.4,0,0,0-1.7,1,.85.85,0,0,0,0,.7v7.5a1.37,1.37,0,0,0,.4,1.2,1.59,1.59,0,0,0,1.3.3h2.9a2.77,2.77,0,0,0,1.3-.3,1,1,0,0,0,.2-1.5c-.1-.1-.1-.2-.2-.2a3.08,3.08,0,0,0-1.3-.3h-2.1v-2h1.7a2.77,2.77,0,0,0,1.3-.3.81.81,0,0,0,.4-.9,1.09,1.09,0,0,0-.4-.9,3.08,3.08,0,0,0-1.3-.3h-1.7V90.6h2Z"/><path class="cls-1" d="M408.3,91.6a3.08,3.08,0,0,0-.3,1.3v4.8a2.77,2.77,0,0,0,.3,1.3,1.13,1.13,0,0,0,1.6.2l.2-.2a3.08,3.08,0,0,0,.3-1.3V95a3.19,3.19,0,0,1,.3-1.4,1,1,0,0,1,1-.4,1.16,1.16,0,0,1,1,.4A3.19,3.19,0,0,1,413,95v2.7a2.77,2.77,0,0,0,.3,1.3,1.13,1.13,0,0,0,1.6.2l.2-.2a3.08,3.08,0,0,0,.3-1.3V94.3a3.41,3.41,0,0,0-.7-2.4,2.65,2.65,0,0,0-2.2-.8,5,5,0,0,0-1.2.2,2.36,2.36,0,0,0-.9.6,2.65,2.65,0,0,0-.5-.6,1.42,1.42,0,0,0-.6-.2A1.1,1.1,0,0,0,408.3,91.6Z"/><path class="cls-1" d="M421,100.7a4,4,0,0,1-1.5-.3,1.93,1.93,0,0,0-1-.3.91.91,0,0,0-.7.3,1.14,1.14,0,0,0-.3.8c0,.5.3.9,1,1.3a5.59,5.59,0,0,0,2.5.5,4.19,4.19,0,0,0,2.2-.5,4.71,4.71,0,0,0,1.5-1.3,2.84,2.84,0,0,0,.4-1.2,14.77,14.77,0,0,0,.1-2.1V93.1a2.77,2.77,0,0,0-.3-1.3.87.87,0,0,0-.9-.4,1.42,1.42,0,0,0-.6.2,1,1,0,0,0-.5.6,1.56,1.56,0,0,0-.8-.6,3.59,3.59,0,0,0-1.1-.2,3.22,3.22,0,0,0-2.6,1.2,4.62,4.62,0,0,0-1.1,3,4.72,4.72,0,0,0,1,3,3,3,0,0,0,2.5,1.2,2.56,2.56,0,0,0,2.1-1.1v.2a2.1,2.1,0,0,1-.5,1.5A5.77,5.77,0,0,1,421,100.7Zm1.4-3.9a1.38,1.38,0,0,1-1.1.6,1.25,1.25,0,0,1-1.1-.6,1.79,1.79,0,0,1-.4-1.4,2.3,2.3,0,0,1,.4-1.4,1.07,1.07,0,0,1,1.1-.5,1.43,1.43,0,0,1,1.1.5,1.79,1.79,0,0,1,.4,1.4A2,2,0,0,1,422.4,96.8Z"/><path class="cls-1" d="M428.8,91.2a1,1,0,0,0-.9.4,3.08,3.08,0,0,0-.3,1.3v4.8a2.77,2.77,0,0,0,.3,1.3,1.13,1.13,0,0,0,1.6.2l.2-.2a3.08,3.08,0,0,0,.3-1.3V92.9a2.77,2.77,0,0,0-.3-1.3A.81.81,0,0,0,428.8,91.2Z"/><path class="cls-1" d="M427.8,88.2a1.52,1.52,0,0,0,0,2,1.45,1.45,0,0,0,2,0,1.52,1.52,0,0,0,0-2,1.28,1.28,0,0,0-1-.4A1,1,0,0,0,427.8,88.2Z"/><path class="cls-1" d="M433.7,99.5a1,1,0,0,0,.9-.4,3.08,3.08,0,0,0,.3-1.3V95a3.19,3.19,0,0,1,.3-1.4,1,1,0,0,1,1-.4,1.16,1.16,0,0,1,1,.4,3.19,3.19,0,0,1,.3,1.4v2.7a2.77,2.77,0,0,0,.3,1.3,1.13,1.13,0,0,0,1.6.2l.2-.2a3.08,3.08,0,0,0,.3-1.3V94.3a3.41,3.41,0,0,0-.7-2.4,2.65,2.65,0,0,0-2.2-.8,5,5,0,0,0-1.2.2,2.36,2.36,0,0,0-.9.6,2.65,2.65,0,0,0-.5-.6,1.42,1.42,0,0,0-.6-.2,1,1,0,0,0-.9.4,3.08,3.08,0,0,0-.3,1.3v4.8a2.77,2.77,0,0,0,.3,1.3A.84.84,0,0,0,433.7,99.5Z"/><path class="cls-1" d="M445.9,99.6a5.14,5.14,0,0,0,2.5-.6c.7-.4,1.1-.9,1.1-1.4a1,1,0,0,0-1-1,3,3,0,0,0-1,.4,4.19,4.19,0,0,1-1.5.4,2.2,2.2,0,0,1-1.3-.4,2.07,2.07,0,0,1-.6-1h4.3a1.34,1.34,0,0,0,.9-.2.78.78,0,0,0,.2-.8,4.11,4.11,0,0,0-1.1-2.8,3.25,3.25,0,0,0-2.8-1.1,4,4,0,0,0-2.9,1.2,4.3,4.3,0,0,0-1.2,3.1,4.23,4.23,0,0,0,1.2,3A5.32,5.32,0,0,0,445.9,99.6Zm-1.1-6.2a1.43,1.43,0,0,1,1-.4,1.5,1.5,0,0,1,1.1.4,1.39,1.39,0,0,1,.5,1h-3.1a1.23,1.23,0,0,1,.5-1Z"/><path class="cls-1" d="M458.8,95.8a.78.78,0,0,0,.2-.8,4.11,4.11,0,0,0-1.1-2.8,3.25,3.25,0,0,0-2.8-1.1,4,4,0,0,0-2.9,1.2,4.3,4.3,0,0,0-1.2,3.1,4.23,4.23,0,0,0,1.2,3,4.07,4.07,0,0,0,3,1.2,5.14,5.14,0,0,0,2.5-.6c.7-.4,1.1-.9,1.1-1.4a1,1,0,0,0-1-1,3,3,0,0,0-1,.4,4.19,4.19,0,0,1-1.5.4A2.2,2.2,0,0,1,454,97a2.07,2.07,0,0,1-.6-1h4.3A3.09,3.09,0,0,0,458.8,95.8Zm-5.3-1.4a1.7,1.7,0,0,1,.6-1,1.66,1.66,0,0,1,2.1,0,1.39,1.39,0,0,1,.5,1Z"/><path class="cls-1" d="M462.7,91.4a1.42,1.42,0,0,0-.6-.2,1,1,0,0,0-.9.4,3.08,3.08,0,0,0-.3,1.3v4.8a2.77,2.77,0,0,0,.3,1.3,1.13,1.13,0,0,0,1.6.2c.1,0,.1-.1.2-.2a3.08,3.08,0,0,0,.3-1.3V95.2a2.77,2.77,0,0,1,.1-.9,1.47,1.47,0,0,1,.6-.5c.2-.1.5-.2.7-.3.9-.3,1.3-.7,1.3-1.2a.91.91,0,0,0-.4-.8,1.27,1.27,0,0,0-.9-.4,1.88,1.88,0,0,0-.8.2,5.55,5.55,0,0,0-.8.6A.66.66,0,0,0,462.7,91.4Z"/><path class="cls-1" d="M468.7,91.2a1,1,0,0,0-.9.4,3.08,3.08,0,0,0-.3,1.3v4.8a2.77,2.77,0,0,0,.3,1.3.81.81,0,0,0,.9.4,1.09,1.09,0,0,0,.9-.4,3.08,3.08,0,0,0,.3-1.3V92.9a2.77,2.77,0,0,0-.3-1.3A.87.87,0,0,0,468.7,91.2Z"/><path class="cls-1" d="M468.7,90.5a1.28,1.28,0,0,0,1-.4,1.52,1.52,0,0,0,0-2h0a1.45,1.45,0,0,0-2,0,1.39,1.39,0,0,0,0,1.9,1,1,0,0,0,1,.5Z"/><path class="cls-1" d="M477.7,99a1.13,1.13,0,0,0,1.6.2l.2-.2a3.08,3.08,0,0,0,.3-1.3V94.3a3.41,3.41,0,0,0-.7-2.4,2.65,2.65,0,0,0-2.2-.8,5,5,0,0,0-1.2.2,2.36,2.36,0,0,0-.9.6,2.65,2.65,0,0,0-.5-.6,1.42,1.42,0,0,0-.6-.2,1,1,0,0,0-.9.4,3.08,3.08,0,0,0-.3,1.3v4.8a2.77,2.77,0,0,0,.3,1.3,1.13,1.13,0,0,0,1.6.2l.2-.2a3.08,3.08,0,0,0,.3-1.3V95a3.19,3.19,0,0,1,.3-1.4,1,1,0,0,1,1-.4,1.16,1.16,0,0,1,1,.4,3.19,3.19,0,0,1,.3,1.4v2.7A1.23,1.23,0,0,0,477.7,99Z"/><path class="cls-1" d="M485.1,99.5a2.56,2.56,0,0,0,2.1-1.1v.2a2.1,2.1,0,0,1-.5,1.5,1.55,1.55,0,0,1-1.4.5,4,4,0,0,1-1.5-.3,1.93,1.93,0,0,0-1-.3.91.91,0,0,0-.7.3,1.14,1.14,0,0,0-.3.8c0,.5.3.9,1,1.3a5.59,5.59,0,0,0,2.5.5,4.19,4.19,0,0,0,2.2-.5,4.71,4.71,0,0,0,1.5-1.3,2.84,2.84,0,0,0,.4-1.2,14.77,14.77,0,0,0,.1-2.1V93a2.77,2.77,0,0,0-.3-1.3.87.87,0,0,0-.9-.4,1.42,1.42,0,0,0-.6.2,1,1,0,0,0-.5.6,1.56,1.56,0,0,0-.8-.6,3.59,3.59,0,0,0-1.1-.2,3.22,3.22,0,0,0-2.6,1.2,4.62,4.62,0,0,0-1.1,3,4.72,4.72,0,0,0,1,3A4.59,4.59,0,0,0,485.1,99.5Zm-.5-5.6a1.43,1.43,0,0,1,2-.2c.1.1.2.1.2.2a1.79,1.79,0,0,1,.4,1.4,2.3,2.3,0,0,1-.4,1.4,1.55,1.55,0,0,1-2,.3l-.3-.3a1.79,1.79,0,0,1-.4-1.4,2.39,2.39,0,0,1,.5-1.4Z"/><path class="cls-1" d="M559.1,52.7a2.77,2.77,0,0,0-2.4,1.1,6.23,6.23,0,0,0-.8,3.5V70.1a6.23,6.23,0,0,0,.8,3.5,2.45,2.45,0,0,0,2.4,1.1,2.89,2.89,0,0,0,2.4-1.1,6.23,6.23,0,0,0,.8-3.5V57.3a6.23,6.23,0,0,0-.8-3.5A2.9,2.9,0,0,0,559.1,52.7Z"/><path class="cls-1" d="M559.1,51.1a3.7,3.7,0,0,0,0-7.4,3.69,3.69,0,0,0-3.7,3.7,3.76,3.76,0,0,0,3.7,3.7Z"/><path class="cls-1" d="M571.2,74.7a3.63,3.63,0,0,0,2.6-1.1,3.74,3.74,0,0,0,0-5.2,3.62,3.62,0,0,0-5.2,0,3.74,3.74,0,0,0,0,5.2A3.09,3.09,0,0,0,571.2,74.7Z"/><path class="cls-1" d="M588.5,74.9a7.17,7.17,0,0,0,2.9-.6,7.33,7.33,0,0,0,2.3-1.6,4.71,4.71,0,0,0,1.3,1.5,3.37,3.37,0,0,0,1.7.5,2.59,2.59,0,0,0,2.3-1.1,7.19,7.19,0,0,0,.8-3.5V48.4a6.23,6.23,0,0,0-.8-3.5,2.68,2.68,0,0,0-2.3-1.2,2.77,2.77,0,0,0-2.4,1.1,6.23,6.23,0,0,0-.8,3.5v5.8a7.89,7.89,0,0,0-2.3-1.4,6.35,6.35,0,0,0-2.7-.4,9,9,0,0,0-6.9,3.2,12.65,12.65,0,0,0,0,16A8.92,8.92,0,0,0,588.5,74.9Zm-2.1-15.2a3.75,3.75,0,0,1,6,0,6.67,6.67,0,0,1,1.2,3.9,5.27,5.27,0,0,1-1.2,3.8,3.84,3.84,0,0,1-3,1.5,3.56,3.56,0,0,1-3-1.5,6.58,6.58,0,0,1-1.2-3.8,6.89,6.89,0,0,1,1.2-3.9Z"/><path class="cls-1" d="M332.4,73.3a8.61,8.61,0,0,0,4.9,1.3,7,7,0,0,0,5.6-3.2h.1V73a1.66,1.66,0,0,0,.5,1.2,1.29,1.29,0,0,0,1.2.4,1.85,1.85,0,0,0,1.2-.5,2.39,2.39,0,0,0,.5-1.4V54.5a1.54,1.54,0,0,0-.5-1.3,1.69,1.69,0,0,0-2.3,0,1.9,1.9,0,0,0-.5,1.3v1.2H343a9.34,9.34,0,0,0-2.7-2.2,7.54,7.54,0,0,0-3.3-.7,8.21,8.21,0,0,0-4.3,1.2,9.56,9.56,0,0,0-3.5,3.7,11.9,11.9,0,0,0-1.4,6.1,12.53,12.53,0,0,0,1.3,5.7A7.63,7.63,0,0,0,332.4,73.3Zm.4-15.2a5.36,5.36,0,0,1,4.3-2.3h.1a4.72,4.72,0,0,1,3,1,6.29,6.29,0,0,1,2,2.8,10,10,0,0,1,.7,4.2,10,10,0,0,1-1.4,5.6,4.85,4.85,0,0,1-4.6,2.3,5.1,5.1,0,0,1-3.1-1.1,7,7,0,0,1-1.9-2.9,12.72,12.72,0,0,1-.6-3.9A9.41,9.41,0,0,1,332.8,58.1Z"/><path class="cls-1" d="M359.1,74.7a10.36,10.36,0,0,0,4.3-.9,5.82,5.82,0,0,0,2.6-2.3,5.61,5.61,0,0,0,.9-3.1,5.28,5.28,0,0,0-1-3.2,8.92,8.92,0,0,0-3.4-2.3,16.71,16.71,0,0,0-1.9-.7q-1.35-.45-2.4-.9a9.91,9.91,0,0,1-1.7-1.1,2.59,2.59,0,0,1-.9-1.7,2.28,2.28,0,0,1,1-1.9,4.7,4.7,0,0,1,2.9-.8,4,4,0,0,1,1.5.3c.4.2,1,.5,1.9,1a7.22,7.22,0,0,0,2,.9,1.72,1.72,0,0,0,1.6-1.6,3.81,3.81,0,0,0-.8-1.7,7.2,7.2,0,0,0-2.7-1.5,12.17,12.17,0,0,0-3.8-.7,7.4,7.4,0,0,0-3.6.9,6.41,6.41,0,0,0-2.5,2.1,5.12,5.12,0,0,0,0,5.8,7.87,7.87,0,0,0,2.2,1.8c.8.4,2,.9,3.5,1.5a29.17,29.17,0,0,1,3.1,1.4,2.6,2.6,0,0,1,1.6,2.4,2.48,2.48,0,0,1-1.3,2.2,6.3,6.3,0,0,1-3,.7,6.41,6.41,0,0,1-3-.8,6.73,6.73,0,0,1-1.1-.7,5.67,5.67,0,0,0-1.3-.8,1.93,1.93,0,0,0-1-.3,1.61,1.61,0,0,0-1.1.5,1.5,1.5,0,0,0-.4,1.1,2.33,2.33,0,0,0,1,1.7A8.82,8.82,0,0,0,359.1,74.7Z"/><path class="cls-1" d="M378.5,74.7a11.17,11.17,0,0,0,4.4-.9,5.82,5.82,0,0,0,2.6-2.3,5.61,5.61,0,0,0,.9-3.1,5.28,5.28,0,0,0-1-3.2,8.92,8.92,0,0,0-3.4-2.3,16.71,16.71,0,0,0-1.9-.7q-1.35-.45-2.4-.9a9.91,9.91,0,0,1-1.7-1.1,2.59,2.59,0,0,1-.9-1.7,2.28,2.28,0,0,1,1-1.9,4.7,4.7,0,0,1,2.9-.8,4,4,0,0,1,1.5.3c.4.2,1,.5,1.9,1a7.22,7.22,0,0,0,2,.9,1.72,1.72,0,0,0,1.6-1.6,3.81,3.81,0,0,0-.8-1.7,7.2,7.2,0,0,0-2.7-1.5,12.17,12.17,0,0,0-3.8-.7,7.4,7.4,0,0,0-3.6.9,6.41,6.41,0,0,0-2.5,2.1,5.12,5.12,0,0,0,0,5.8,7.87,7.87,0,0,0,2.2,1.8c.8.4,2,.9,3.4,1.5a29.17,29.17,0,0,1,3.1,1.4,2.6,2.6,0,0,1,1.6,2.4,2.48,2.48,0,0,1-1.3,2.2,6.3,6.3,0,0,1-3,.7,6.41,6.41,0,0,1-3-.8,6.73,6.73,0,0,1-1.1-.7,5.67,5.67,0,0,0-1.3-.8,1.93,1.93,0,0,0-1-.3,1.61,1.61,0,0,0-1.1.5,1.5,1.5,0,0,0-.4,1.1,2.06,2.06,0,0,0,1,1.7A8.82,8.82,0,0,0,378.5,74.7Z"/><path class="cls-1" d="M394.9,73.2a9.08,9.08,0,0,0,10,0,9.9,9.9,0,0,0,3.3-4,11.55,11.55,0,0,0,1.1-5.5,14.08,14.08,0,0,0-1.1-5.4,9.9,9.9,0,0,0-3.3-4,8.92,8.92,0,0,0-9.9-.1,9.85,9.85,0,0,0-3.4,3.9,13.88,13.88,0,0,0-1.2,5.7,15,15,0,0,0,1.1,5.5A10.58,10.58,0,0,0,394.9,73.2Zm-.2-13.5a6.29,6.29,0,0,1,2-2.8,4.55,4.55,0,0,1,3.2-1,4.63,4.63,0,0,1,3.2,1.1,7.22,7.22,0,0,1,2,2.9,10.88,10.88,0,0,1,.7,4,11.25,11.25,0,0,1-.7,4,7.22,7.22,0,0,1-2,2.9,5.46,5.46,0,0,1-3.3,1.1,4.71,4.71,0,0,1-4.4-2.4,10.38,10.38,0,0,1-1.4-5.4,11.61,11.61,0,0,1,.7-4.4Z"/><path class="cls-1" d="M418.1,73.3a8.39,8.39,0,0,0,5.1,1.4,12.09,12.09,0,0,0,3.8-.6,2.26,2.26,0,0,0,1.8-2.2,1.5,1.5,0,0,0-.4-1.1,1.16,1.16,0,0,0-1-.4,2.92,2.92,0,0,0-.9.2,3.39,3.39,0,0,1-.8.3,1.6,1.6,0,0,1-.8.3,2.35,2.35,0,0,1-.8.2,3.08,3.08,0,0,1-1,.1,1.27,1.27,0,0,0-.6-.1,5.21,5.21,0,0,1-4.3-2.8,11.24,11.24,0,0,1-1.2-5.4,9.46,9.46,0,0,1,.8-3.7,5.81,5.81,0,0,1,2.1-2.8,5.46,5.46,0,0,1,3.3-1.1,5.85,5.85,0,0,1,1.3.2c.4.1,1,.3,1.7.5s1.1.4,1.2.4a1.61,1.61,0,0,0,1.1-.5,1.28,1.28,0,0,0,.4-1,2.35,2.35,0,0,0-.2-.8,3.52,3.52,0,0,0-2-1.4,11.93,11.93,0,0,0-3.7-.6,10.82,10.82,0,0,0-4.3,1,9.13,9.13,0,0,0-3,2.5,9.93,9.93,0,0,0-1.7,3.6,15.93,15.93,0,0,0-.6,4.3,12.42,12.42,0,0,0,1.2,5.3A9.78,9.78,0,0,0,418.1,73.3Z"/><path class="cls-1" d="M437.7,50a1.8,1.8,0,0,0,1.5-.7,2.43,2.43,0,0,0,0-3.2,2.13,2.13,0,0,0-1.5-.7,2,2,0,0,0-1.6.7,2.12,2.12,0,0,0,0,3.1h0A2.25,2.25,0,0,0,437.7,50Z"/><path class="cls-1" d="M437.7,52.7a1.66,1.66,0,0,0-1.2.5,1.87,1.87,0,0,0-.5,1.4V72.8a1.9,1.9,0,0,0,.5,1.3,1.85,1.85,0,0,0,1.2.5,2.11,2.11,0,0,0,1.3-.5,1.66,1.66,0,0,0,.5-1.3V54.5a1.9,1.9,0,0,0-.5-1.3A2.11,2.11,0,0,0,437.7,52.7Z"/><path class="cls-1" d="M449.5,73.3a8.61,8.61,0,0,0,4.9,1.3,7,7,0,0,0,5.6-3.2h.1V73a1.66,1.66,0,0,0,.5,1.2,1.29,1.29,0,0,0,1.2.4,1.85,1.85,0,0,0,1.2-.5,2.39,2.39,0,0,0,.5-1.4V54.5a1.54,1.54,0,0,0-.5-1.3,1.69,1.69,0,0,0-2.3,0,1.9,1.9,0,0,0-.5,1.3v1.2H460a9.34,9.34,0,0,0-2.7-2.2,7.54,7.54,0,0,0-3.3-.7,8.21,8.21,0,0,0-4.3,1.2,9.56,9.56,0,0,0-3.5,3.7,11.9,11.9,0,0,0-1.4,6.1,12.53,12.53,0,0,0,1.3,5.7A8.35,8.35,0,0,0,449.5,73.3Zm.3-15.2a5.36,5.36,0,0,1,4.3-2.3h.1a4.72,4.72,0,0,1,3,1,6.29,6.29,0,0,1,2,2.8,10,10,0,0,1,.7,4.2,10,10,0,0,1-1.4,5.6,5.41,5.41,0,0,1-7.7,1.2,7,7,0,0,1-1.9-2.9,12.72,12.72,0,0,1-.6-3.9A11,11,0,0,1,449.8,58.1Z"/><path class="cls-1" d="M471.3,56h1.6V72.8a1.54,1.54,0,0,0,.5,1.3,1.66,1.66,0,0,0,1.2.5,2.39,2.39,0,0,0,1.4-.5,1.61,1.61,0,0,0,.6-1.3V56h1.7a1.38,1.38,0,0,0,1.5-1.5,1.92,1.92,0,0,0-.4-1.2,1.37,1.37,0,0,0-1.2-.4h-1.6V48.2a1.9,1.9,0,0,0-.5-1.3,1.57,1.57,0,0,0-1.3-.4,1.59,1.59,0,0,0-1.2.4,1.85,1.85,0,0,0-.5,1.2V53h-1.6a1.5,1.5,0,0,0-1.7,1.4v.2a1.61,1.61,0,0,0,.5,1.1A1,1,0,0,0,471.3,56Z"/><path class="cls-1" d="M486.9,52.7a1.66,1.66,0,0,0-1.2.5,1.87,1.87,0,0,0-.5,1.4V72.8a1.9,1.9,0,0,0,.5,1.3,1.85,1.85,0,0,0,1.2.5,1.71,1.71,0,0,0,1.7-1.8V54.5a1.9,1.9,0,0,0-.5-1.3A1.85,1.85,0,0,0,486.9,52.7Z"/><path class="cls-1" d="M486.9,50a1.8,1.8,0,0,0,1.5-.7,2.23,2.23,0,0,0,0-3.2,2.13,2.13,0,0,0-1.5-.7,2,2,0,0,0-1.6.7,2.12,2.12,0,0,0,0,3.1A2.09,2.09,0,0,0,486.9,50Z"/><path class="cls-1" d="M498.3,73.2a9.08,9.08,0,0,0,10,0,9.9,9.9,0,0,0,3.3-4,11.55,11.55,0,0,0,1.1-5.5,14.08,14.08,0,0,0-1.1-5.4,9.9,9.9,0,0,0-3.3-4,8.92,8.92,0,0,0-9.9-.1,9.85,9.85,0,0,0-3.4,3.9,13.88,13.88,0,0,0-1.2,5.7,15,15,0,0,0,1.1,5.5A11.57,11.57,0,0,0,498.3,73.2Zm-.2-13.5a6.29,6.29,0,0,1,2-2.8,4.55,4.55,0,0,1,3.2-1,4.63,4.63,0,0,1,3.2,1.1,7.22,7.22,0,0,1,2,2.9,10.88,10.88,0,0,1,.7,4,11.25,11.25,0,0,1-.7,4,7.22,7.22,0,0,1-2,2.9,5.46,5.46,0,0,1-3.3,1.1,4.71,4.71,0,0,1-4.4-2.4,11.43,11.43,0,0,1-1.4-5.4,14,14,0,0,1,.7-4.4Z"/><path class="cls-1" d="M519.7,74.7a1.66,1.66,0,0,0,1.2-.5,2.39,2.39,0,0,0,.5-1.4V61.1a5.3,5.3,0,0,1,.7-2.8,4.45,4.45,0,0,1,1.8-1.8,5.42,5.42,0,0,1,2.5-.6,5,5,0,0,1,3.5,1.4,5.37,5.37,0,0,1,1.5,3.8V73a2.11,2.11,0,0,0,.5,1.3,1.85,1.85,0,0,0,1.2.5,1.66,1.66,0,0,0,1.3-.5,1.54,1.54,0,0,0,.5-1.3V61a9.88,9.88,0,0,0-1-4.5,6.86,6.86,0,0,0-2.8-2.8,8.08,8.08,0,0,0-3.7-.9,7.2,7.2,0,0,0-5.9,2.8l-.1-.1v-.8a2.39,2.39,0,0,0-.5-1.4,1.9,1.9,0,0,0-1.3-.5,1.66,1.66,0,0,0-1.2.5,1.87,1.87,0,0,0-.5,1.4V72.9a2.39,2.39,0,0,0,.5,1.4A1.68,1.68,0,0,0,519.7,74.7Z"/><path class="cls-1" d="M211.8,69.1a13.44,13.44,0,0,1-4-.7,11.56,11.56,0,0,0-3.1-.7,4.07,4.07,0,0,0-2.4.8,3.1,3.1,0,0,0-.9,2.2c0,1.3.9,2.4,2.8,3.3a14.18,14.18,0,0,0,6.7,1.4,12.56,12.56,0,0,0,8.3-2.7,8.93,8.93,0,0,0,3.1-7.2,7.63,7.63,0,0,0-1.9-5.4,14.31,14.31,0,0,0-6.2-3.6,8.4,8.4,0,0,0-1.4-.4q-3.9-1.2-3.9-3a2.14,2.14,0,0,1,.9-1.8,4,4,0,0,1,2.4-.7,12.82,12.82,0,0,1,2.7.5,10.89,10.89,0,0,0,2.6.5,3,3,0,0,0,2.2-.8,2.78,2.78,0,0,0,.8-2.1,3.68,3.68,0,0,0-2.3-3.1,11.66,11.66,0,0,0-5.8-1.2,11.26,11.26,0,0,0-7.7,2.6,8.94,8.94,0,0,0-3,6.7,7.26,7.26,0,0,0,1.8,5.1c1.2,1.3,3.4,2.3,6.5,3.3a13,13,0,0,1,4.2,1.8,3,3,0,0,1,.2,4.2c0,.1-.1.1-.2.2A3.85,3.85,0,0,1,211.8,69.1Z"/><path class="cls-1" d="M227.7,58.6h.2V70.2a6.56,6.56,0,0,0,.8,3.6,3,3,0,0,0,2.5,1.2,2.53,2.53,0,0,0,2.4-1.2,6.37,6.37,0,0,0,.8-3.6V58.6h.5a5.47,5.47,0,0,0,3.1-.7,2.28,2.28,0,0,0,1-2.1,2.61,2.61,0,0,0-1.1-2.1,5.42,5.42,0,0,0-3-.8h-.6V50a6.56,6.56,0,0,0-.8-3.6,3,3,0,0,0-2.4-1.2,2.79,2.79,0,0,0-2.5,1.2,6.37,6.37,0,0,0-.8,3.6v2.9a5.74,5.74,0,0,0-2.9.8,2.51,2.51,0,0,0-1,2.1,2.22,2.22,0,0,0,1,2A6,6,0,0,0,227.7,58.6Z"/><path class="cls-1" d="M251.4,75.2c3.2,0,5.6-.8,7.3-2.5s2.5-4,2.5-7.1V57a6.56,6.56,0,0,0-.8-3.6,3,3,0,0,0-2.4-1.2,2.79,2.79,0,0,0-2.5,1.2,6.37,6.37,0,0,0-.8,3.6v7.4a6.71,6.71,0,0,1-.8,3.7,3.72,3.72,0,0,1-5.1.1l-.1-.1a6.71,6.71,0,0,1-.8-3.7V57a6.56,6.56,0,0,0-.8-3.6,3,3,0,0,0-2.4-1.2,2.79,2.79,0,0,0-2.5,1.2,6.37,6.37,0,0,0-.8,3.6v8.7c0,3.1.8,5.5,2.5,7.1A11.07,11.07,0,0,0,251.4,75.2Z"/><path class="cls-1" d="M275.7,75a7.17,7.17,0,0,0,2.9-.6,6.6,6.6,0,0,0,2.4-1.7,4.28,4.28,0,0,0,1.4,1.6,2.73,2.73,0,0,0,1.8.5,2.53,2.53,0,0,0,2.4-1.2,6.37,6.37,0,0,0,.8-3.6V47.8a6.56,6.56,0,0,0-.8-3.6,2.85,2.85,0,0,0-2.4-1.2,2.79,2.79,0,0,0-2.5,1.2,6.37,6.37,0,0,0-.8,3.6v6a7.22,7.22,0,0,0-2.4-1.4,8.68,8.68,0,0,0-2.8-.5,9.07,9.07,0,0,0-7.1,3.3,11.81,11.81,0,0,0-2.9,8.2,11.73,11.73,0,0,0,3,8.2A9.12,9.12,0,0,0,275.7,75Zm-2.1-15.6a3.83,3.83,0,0,1,5.4-.7,4.62,4.62,0,0,1,.7.7,7.21,7.21,0,0,1,1.2,4,6,6,0,0,1-1.2,3.9,4,4,0,0,1-6.2,0,6,6,0,0,1-1.2-3.9,6.6,6.6,0,0,1,1.3-4Z"/><path class="cls-1" d="M291.2,57.3l6.6,15.3-2.7,5.8a4.87,4.87,0,0,0-.4,1.1,4.1,4.1,0,0,0-.1,1.1,3.17,3.17,0,0,0,.9,2.3,3,3,0,0,0,2.4.8,2.45,2.45,0,0,0,1.6-.6,5.71,5.71,0,0,0,1.3-2.1l9.9-23.6a5.64,5.64,0,0,0,.4-1.2,3.4,3.4,0,0,0,.1-1,3.34,3.34,0,0,0-.9-2.3,2.86,2.86,0,0,0-2.3-.8,2.72,2.72,0,0,0-1.7.6,5.1,5.1,0,0,0-1.2,2l-4,10.4-3.7-9.8a7.68,7.68,0,0,0-1.4-2.5,2.64,2.64,0,0,0-1.9-.7,2.94,2.94,0,0,0-2.2.9,3.17,3.17,0,0,0-.9,2.3,3.4,3.4,0,0,0,.1,1A2.51,2.51,0,0,0,291.2,57.3Z"/></svg>