<svg id="Laag_1" data-name="Laag 1" xmlns="http://www.w3.org/2000/svg" viewBox="0 0 1920 141.7873"><defs><style>.cls-1{fill:#fff;}</style></defs><title>bies</title><path class="cls-1" d="M166.3727,106.1964l2.5611-59.9144-48.2875-17.64L71.38,36.3457c-5.766.7784-11.7749,3.9107-11.4529,10.39l3.8918,57.4377L103.94,141.7873l56.44-24.9685C163.8271,114.78,166.1031,113.4314,166.3727,106.1964ZM150.27,62.4612c.0769-3.0133.1526-6.0513.224-9.0957q3.7164-1.0742,7.3271-2.1326,3.5765-1.0441,7.0858-2.0612c-.0981,2.9488-.1927,5.8876-.2885,8.7994-.0969,2.9032-.1948,5.8061-.2874,8.6925q-3.4777,1.161-7.0242,2.3542c-2.3821.7984-4.8107,1.6158-7.2573,2.432C150.1212,68.4767,150.1935,65.47,150.27,62.4612Zm-26.866,57.9109c-.0278,3.001-.0577,6.0055-.0835,8.9832q-4.1075,1.8408-8.3139,3.73c-2.8384,1.2751-5.7247,2.5679-8.6279,3.8763q0-4.63-.0011-9.2993,0-4.6852-.0011-9.4218c2.9353-1.1873,5.852-2.3775,8.7182-3.5436q4.2511-1.7337,8.4051-3.4152Q123.4584,115.8387,123.4044,120.3721Zm.2518-24.46c-.03,3.0936-.0625,6.187-.0969,9.2448-2.7739,1.0881-5.5879,2.2017-8.4309,3.3173-2.8774,1.1337-5.81,2.2817-8.7515,3.4387q-.0017-4.767-.0011-9.5887c-.0009-3.2026-.0009-6.45-.0032-9.6948,2.98-1.04,5.9441-2.0769,8.85-3.0925q4.3076-1.5134,8.5221-2.9876Q123.7024,91.2536,123.6561,95.9126Zm.2128-21.99a9.2349,9.2349,0,0,1-5.7261,8.2315q-5.7844,1.9393-11.77,3.9543-.0017-6.5677-.0011-13.1991c0-3.667,2.7171-7.4831,6.0267-8.443q5.9031-1.7173,11.5945-3.3821C123.9535,65.3976,123.9134,69.6648,123.8689,73.9229Zm20.3469,37.5407q-.0917,4.32-.1859,8.6044c-2.48,1.1081-4.99,2.24-7.5321,3.3718q-3.8519,1.7358-7.8062,3.5066c.0356-2.9431.0734-5.914.1113-8.8906.039-2.9832.0858-5.9722.117-8.9887q4-1.6235,7.89-3.21,3.8369-1.56,7.6012-3.09Q144.3089,107.1348,144.2159,111.4637Zm.4511-20.44c-.0714,3.2606-2.3764,6.78-5.1815,7.8817q-5.158,2.018-10.4852,4.12c.0545-4.0558.11-8.1246.1624-12.2271.0413-3.3919,2.5057-7.0265,5.4433-8.0432q5.25-1.8425,10.3238-3.62Q144.7993,85.1123,144.667,91.0241Zm18.3694,15.1011c-.1,3.0389-2.2206,6.4041-4.7327,7.53q-4.6271,2.0847-9.4074,4.2227.1385-5.6544.2794-11.37c.0846-3.15,2.3207-6.6267,4.9466-7.6981q4.7037-1.9041,9.2781-3.7748Q163.215,100.6092,163.0364,106.1253ZM156.6378,92.161c-2.3552.9275-4.755,1.873-7.1736,2.8117.0757-2.8941.15-5.815.2228-8.7381q.105-4.4047.2137-8.8373c2.4386-.8609,4.8608-1.7082,7.2415-2.5378q3.5327-1.2411,7.0021-2.45-.1471,4.3011-.2828,8.5554c-.0958,2.8263-.1815,5.6536-.2762,8.4653Q160.1412,90.7769,156.6378,92.161Z"/><polygon class="cls-1" points="0 112.483 0 126.227 82.814 126.227 68.155 112.483 0 112.483"/><path class="cls-1" d="M1920,112.4826H168.4494c-.0189.0545-.0344.119-.0534.1724a12.6383,12.6383,0,0,1-.606,1.411c-.0089.0144-.0178.0312-.0267.049-1.4308,2.7682-3.5789,4.0556-5.8084,5.3751l-.3261.18-12.5111,5.5334L1920,124.9634Z"/><path class="cls-1" d="M202.45,99.51a1.065,1.065,0,0,0,.9275-.4322,2.3147,2.3147,0,0,0,.3051-1.3207v-2.7h1.7394a2.4594,2.4594,0,0,0,1.3252-.2817.9492.9492,0,0,0,.4376-.8586.96.96,0,0,0-.4376-.8641,2.4806,2.4806,0,0,0-1.3252-.2817h-1.7394V90.84h2.0144a2.471,2.471,0,0,0,1.32-.2817.95.95,0,0,0,.4356-.85.9661.9661,0,0,0-.44-.87,2.42,2.42,0,0,0-1.3152-.2851h-2.7794a1.4155,1.4155,0,0,0-1.6993,1.7225v7.48a2.2984,2.2984,0,0,0,.3049,1.3207A1.0622,1.0622,0,0,0,202.45,99.51Z"/><path class="cls-1" d="M214.6169,91.3592a1.538,1.538,0,0,0-.4967.5681,2.2662,2.2662,0,0,0-.8352-.64,2.5838,2.5838,0,0,0-1.0758-.2094A3.3865,3.3865,0,0,0,209.5745,92.3a4.384,4.384,0,0,0-1.0789,3.0133,4.4414,4.4414,0,0,0,1.0456,3.0156A3.29,3.29,0,0,0,212.12,99.54a2.6151,2.6151,0,0,0,1.1214-.2395,2.3447,2.3447,0,0,0,.8787-.6814,1.5074,1.5074,0,0,0,.4666.6324,1.0931,1.0931,0,0,0,.6792.2071,1.0063,1.0063,0,0,0,.8887-.4331,2.4011,2.4011,0,0,0,.2962-1.3241V92.8972a2.3531,2.3531,0,0,0-.2919-1.3107,1.0144,1.0144,0,0,0-.8931-.42A1.1425,1.1425,0,0,0,214.6169,91.3592Zm-.9978,5.3174a1.3948,1.3948,0,0,1-2.206.0089,2.2038,2.2038,0,0,1-.4256-1.4153,2.1172,2.1172,0,0,1,.43-1.3786,1.405,1.405,0,0,1,2.1971.0046,2.1167,2.1167,0,0,1,.431,1.3741A2.2055,2.2055,0,0,1,213.6191,96.6766Z"/><path class="cls-1" d="M218.4353,95.3135a4.3156,4.3156,0,0,0,1.1045,3.0758,3.7484,3.7484,0,0,0,2.8731,1.1793,3.9277,3.9277,0,0,0,2.0078-.4712,1.3361,1.3361,0,0,0,.8117-1.1314,1.0781,1.0781,0,0,0-.2693-.7394.8514.8514,0,0,0-.6616-.2985,3.0559,3.0559,0,0,0-.7127.1783,3.2069,3.2069,0,0,1-.941.1781,1.6234,1.6234,0,0,1-1.2817-.5389,2.1923,2.1923,0,0,1-.4675-1.48,2.231,2.231,0,0,1,.4563-1.4632,1.4856,1.4856,0,0,1,1.2016-.5578,3.2675,3.2675,0,0,1,.9387.1781,3.2325,3.2325,0,0,0,.754.18.9546.9546,0,0,0,.7138-.2894,1.01,1.01,0,0,0,.2839-.7293,1.26,1.26,0,0,0-.7451-1.1093,3.8557,3.8557,0,0,0-1.9408-.4265,3.9543,3.9543,0,0,0-2.9889,1.1827A4.2607,4.2607,0,0,0,218.4353,95.3135Z"/><path class="cls-1" d="M228.97,91.5909a1.0175,1.0175,0,0,0-.8986-.4242,1.0426,1.0426,0,0,0-.9131.4242,2.3057,2.3057,0,0,0-.2962,1.3084v3.1848a3.4629,3.4629,0,0,0,.9321,2.6092,4.4509,4.4509,0,0,0,5.3808,0,3.476,3.476,0,0,0,.93-2.6092V92.8992a2.3457,2.3457,0,0,0-.29-1.3107.9988.9988,0,0,0-.8862-.4219,1.0237,1.0237,0,0,0-.9077.4242,2.3385,2.3385,0,0,0-.2905,1.3084v2.6961a2.3549,2.3549,0,0,1-.2908,1.3508,1.3229,1.3229,0,0,1-1.884,0,2.3561,2.3561,0,0,1-.29-1.3508V92.8992A2.315,2.315,0,0,0,228.97,91.5909Z"/><path class="cls-1" d="M236.867,88.1834a2.3487,2.3487,0,0,0-.2962,1.3207v8.2281a2.3534,2.3534,0,0,0,.2962,1.3173,1.0217,1.0217,0,0,0,.9031.43,1.0038,1.0038,0,0,0,.8876-.4253,2.4038,2.4038,0,0,0,.2883-1.3218V89.5041a2.3751,2.3751,0,0,0-.2928-1.3164.99.99,0,0,0-.883-.4354A1.02,1.02,0,0,0,236.867,88.1834Z"/><path class="cls-1" d="M241.8646,93.4828h.0915v4.2494a2.3535,2.3535,0,0,0,.296,1.3173,1.04,1.04,0,0,0,.9131.43,1.017,1.017,0,0,0,.9008-.4253,2.377,2.377,0,0,0,.2942-1.3218V93.4828h.1925a2.0285,2.0285,0,0,0,1.1437-.265.8774.8774,0,0,0,.3852-.7752.9041.9041,0,0,0-.4018-.785,1.87,1.87,0,0,0-1.1113-.2817H244.36V90.3226a2.329,2.329,0,0,0-.2974-1.31,1.0085,1.0085,0,0,0-.8976-.43,1.0349,1.0349,0,0,0-.9131.43,2.3205,2.3205,0,0,0-.296,1.31V91.376a2.0089,2.0089,0,0,0-1.0915.3017.9766.9766,0,0,0,0,1.5212A1.5621,1.5621,0,0,0,241.8646,93.4828Z"/><path class="cls-1" d="M247.9346,101.2111a1.6689,1.6689,0,0,0-.0511.4064,1.133,1.133,0,0,0,.3184.8463,1.1989,1.1989,0,0,0,.871.3129.8382.8382,0,0,0,.58-.2139,2.168,2.168,0,0,0,.4664-.7606l3.66-8.6612a4.678,4.678,0,0,0,.1494-.4532,1.7336,1.7336,0,0,0,.0534-.3777,1.0952,1.0952,0,0,0-.3229-.8352,1.1792,1.1792,0,0,0-.8541-.3083.8931.8931,0,0,0-.63.2294,1.83,1.83,0,0,0-.44.7271l-1.471,3.8184-1.3551-3.6168a2.3045,2.3045,0,0,0-.5168-.912,1.0075,1.0075,0,0,0-.7015-.2461,1.1033,1.1033,0,0,0-.8251.3419,1.1528,1.1528,0,0,0-.3364.8452,2.06,2.06,0,0,0,.0312.3752,1.2009,1.2009,0,0,0,.0892.294l2.4231,5.6358-.9889,2.136A2.35,2.35,0,0,0,247.9346,101.2111Z"/><path class="cls-1" d="M262.558,99.51a1.0661,1.0661,0,0,0,.9289-.4322,2.2876,2.2876,0,0,0,.3051-1.3138V90.1566a2.3008,2.3008,0,0,0-.3051-1.3161,1.2055,1.2055,0,0,0-1.8553,0,2.2906,2.2906,0,0,0-.304,1.3161v7.6069a2.2775,2.2775,0,0,0,.304,1.3138A1.0631,1.0631,0,0,0,262.558,99.51Z"/><path class="cls-1" d="M271.69,99.0463a1.1629,1.1629,0,0,0,1.8108,0,2.3423,2.3423,0,0,0,.2983-1.3141V94.2867a3.384,3.384,0,0,0-.7505-2.3663,2.7794,2.7794,0,0,0-2.159-.8128,3.3264,3.3264,0,0,0-1.2206.197,2.2691,2.2691,0,0,0-.8876.6258,1.6625,1.6625,0,0,0-.4988-.5733,1.1374,1.1374,0,0,0-.647-.19,1.0211,1.0211,0,0,0-.9054.4265,2.3244,2.3244,0,0,0-.2928,1.31v4.83a2.3465,2.3465,0,0,0,.2928,1.3141,1.1653,1.1653,0,0,0,1.8131,0,2.3234,2.3234,0,0,0,.2983-1.3141V94.9839a2.4558,2.4558,0,0,1,.3074-1.3864,1.0977,1.0977,0,0,1,.961-.4422,1.1119,1.1119,0,0,1,.9832.4276,2.5653,2.5653,0,0,1,.3017,1.43v2.7194A2.3447,2.3447,0,0,0,271.69,99.0463Z"/><path class="cls-1" d="M281.5733,88.1834a2.3952,2.3952,0,0,0-.2917,1.325V91.701a2.8245,2.8245,0,0,0-.8664-.5166,3.0266,3.0266,0,0,0-1.0178-.166,3.3652,3.3652,0,0,0-2.6156,1.2217,4.3727,4.3727,0,0,0-1.0792,3.0022,4.4241,4.4241,0,0,0,1.0935,3.0245,3.3608,3.3608,0,0,0,2.6012,1.2427,2.7613,2.7613,0,0,0,1.08-.2094,2.4353,2.4353,0,0,0,.8641-.6069,1.5991,1.5991,0,0,0,.4956.5745,1.1262,1.1262,0,0,0,.6447.1993.993.993,0,0,0,.8862-.43,2.3558,2.3558,0,0,0,.2908-1.3118v-8.217a2.3864,2.3864,0,0,0-.2951-1.3207.99.99,0,0,0-.8819-.4354A1.0212,1.0212,0,0,0,281.5733,88.1834Zm-.6981,8.5454a1.4279,1.4279,0,0,1-2.2628-.0021,2.2358,2.2358,0,0,1-.4477-1.4489,2.3177,2.3177,0,0,1,.4431-1.47,1.4273,1.4273,0,0,1,2.2717-.0011,2.3359,2.3359,0,0,1,.4333,1.471A2.2712,2.2712,0,0,1,280.8752,96.7288Z"/><path class="cls-1" d="M286.355,91.5909a2.2964,2.2964,0,0,0-.2962,1.3084v3.1848a3.4633,3.4633,0,0,0,.9309,2.6092,4.4526,4.4526,0,0,0,5.382,0,3.4791,3.4791,0,0,0,.9287-2.6092V92.8992a2.3277,2.3277,0,0,0-.2905-1.3107.9922.9922,0,0,0-.8853-.4219,1.0237,1.0237,0,0,0-.9077.4242,2.3376,2.3376,0,0,0-.2917,1.3084v2.6961a2.3689,2.3689,0,0,1-.2883,1.3508,1.3232,1.3232,0,0,1-1.8842,0,2.3469,2.3469,0,0,1-.29-1.3508V92.8992a2.2949,2.2949,0,0,0-.2983-1.3084,1.01,1.01,0,0,0-.8954-.4242A1.0421,1.0421,0,0,0,286.355,91.5909Z"/><path class="cls-1" d="M298.1577,97.4294a2.9192,2.9192,0,0,1-1.1068-.3487,2.9258,2.9258,0,0,0-1.11-.3462.8194.8194,0,0,0-.647.3118,1.1371,1.1371,0,0,0-.2671.766,1.4733,1.4733,0,0,0,.844,1.2685,3.9746,3.9746,0,0,0,2.1235.5177,3.45,3.45,0,0,0,2.32-.785,2.4722,2.4722,0,0,0,.9166-1.9565,1.94,1.94,0,0,0-.4566-1.3052,4.3383,4.3383,0,0,0-1.5335-1.0244c-.1747-.078-.4087-.1758-.7093-.2851-.6338-.2449-.9533-.4778-.9533-.6992a.3673.3673,0,0,1,.1492-.3029.6364.6364,0,0,1,.3966-.1138,2.7581,2.7581,0,0,1,1.0009.2908,2.8511,2.8511,0,0,0,.9366.2885.9521.9521,0,0,0,.7049-.2931.9811.9811,0,0,0,.2851-.717,1.4073,1.4073,0,0,0-.8208-1.177,3.73,3.73,0,0,0-1.9889-.5,3.172,3.172,0,0,0-2.1581.7385,2.35,2.35,0,0,0-.85,1.8507,1.9761,1.9761,0,0,0,.4833,1.3674,5.0707,5.0707,0,0,0,1.8028,1.09c.029.0089.0791.0312.1494.06q1.1556.4577,1.1569.8151a.4226.4226,0,0,1-.1872.35A.7908.7908,0,0,1,298.1577,97.4294Z"/><path class="cls-1" d="M303.8827,99.05a1.0415,1.0415,0,0,0,.9141.43,1.02,1.02,0,0,0,.9011-.4253,2.3791,2.3791,0,0,0,.294-1.3218V93.4828h.1913a2.0311,2.0311,0,0,0,1.1437-.265.8725.8725,0,0,0,.3854-.7752.9038.9038,0,0,0-.4021-.785,1.8652,1.8652,0,0,0-1.11-.2817h-.2082V90.3226a2.3281,2.3281,0,0,0-.2985-1.31,1.0075,1.0075,0,0,0-.8965-.43,1.0365,1.0365,0,0,0-.9141.43,2.311,2.311,0,0,0-.2962,1.31V91.376a1.9984,1.9984,0,0,0-1.09.3017.9786.9786,0,0,0,0,1.5212,1.5591,1.5591,0,0,0,1.0012.2839h.0892v4.2494A2.3438,2.3438,0,0,0,303.8827,99.05Z"/><path class="cls-1" d="M310.162,91.1667a1.0249,1.0249,0,0,0-.9077.4265,2.3453,2.3453,0,0,0-.2905,1.31v4.83a2.387,2.387,0,0,0,.2905,1.3173,1.1729,1.1729,0,0,0,1.8151,0,2.3594,2.3594,0,0,0,.2985-1.3173V95.2266a2.0636,2.0636,0,0,1,.1469-.9476,1.28,1.28,0,0,1,.6014-.4787,6.948,6.948,0,0,1,.715-.2842q1.3246-.4909,1.3262-1.2137a1.1418,1.1418,0,0,0-.3619-.8395,1.1848,1.1848,0,0,0-.8607-.3553,1.8625,1.8625,0,0,0-.8409.2082,2.7205,2.7205,0,0,0-.7861.6146,1.6756,1.6756,0,0,0-.4988-.5733A1.1405,1.1405,0,0,0,310.162,91.1667Z"/><path class="cls-1" d="M316.7689,90.5131a1.3131,1.3131,0,0,0,.97-.4,1.3875,1.3875,0,0,0-.0032-1.9545,1.3125,1.3125,0,0,0-.9665-.4064,1.3895,1.3895,0,0,0-1.39,1.3852,1.3269,1.3269,0,0,0,.4.9756A1.3442,1.3442,0,0,0,316.7689,90.5131Z"/><path class="cls-1" d="M316.7856,91.1667a1.02,1.02,0,0,0-.9077.4265,2.3444,2.3444,0,0,0-.2917,1.31v4.83a2.3438,2.3438,0,0,0,.2962,1.3173,1.0188,1.0188,0,0,0,.9031.43,1,1,0,0,0,.8853-.4253,2.4018,2.4018,0,0,0,.2905-1.3218v-4.83a2.3649,2.3649,0,0,0-.2905-1.31A.99.99,0,0,0,316.7856,91.1667Z"/><path class="cls-1" d="M323.644,99.54A2.6159,2.6159,0,0,0,324.763,99.3a2.3519,2.3519,0,0,0,.8787-.6814,1.5119,1.5119,0,0,0,.4687.6324,1.096,1.096,0,0,0,.6794.2071,1.0069,1.0069,0,0,0,.8876-.4331,2.4048,2.4048,0,0,0,.2917-1.3241V92.8972a2.3347,2.3347,0,0,0-.2908-1.3107,1.0035,1.0035,0,0,0-.8885-.42,1.1473,1.1473,0,0,0-.65.1925,1.5624,1.5624,0,0,0-.4976.5681,2.2765,2.2765,0,0,0-.8331-.64,2.5966,2.5966,0,0,0-1.0778-.2094A3.3833,3.3833,0,0,0,321.0984,92.3a4.3842,4.3842,0,0,0-1.0792,3.0133,4.4376,4.4376,0,0,0,1.0468,3.0156A3.28,3.28,0,0,0,323.644,99.54Zm-.7049-5.6481a1.405,1.405,0,0,1,2.1971.0046,2.0989,2.0989,0,0,1,.431,1.3741,2.1988,2.1988,0,0,1-.4267,1.4064,1.3315,1.3315,0,0,1-1.0945.5455,1.3473,1.3473,0,0,1-1.1113-.5366,2.2161,2.2161,0,0,1-.4265-1.4153A2.1176,2.1176,0,0,1,322.939,93.8915Z"/><path class="cls-1" d="M330.7831,88.1834a2.3874,2.3874,0,0,0-.294,1.3207v8.2281a2.3922,2.3922,0,0,0,.294,1.3173,1.0312,1.0312,0,0,0,.9063.43,1.0031,1.0031,0,0,0,.8865-.4253,2.38,2.38,0,0,0,.2905-1.3218V89.5041a2.4273,2.4273,0,0,0-.2905-1.3164,1.0055,1.0055,0,0,0-.8865-.4354A1.0293,1.0293,0,0,0,330.7831,88.1834Z"/><path class="cls-1" d="M342.9332,88.5543a1.8551,1.8551,0,0,0-1.3184.37,1.8836,1.8836,0,0,0-.382,1.3528V97.8a1.6678,1.6678,0,0,0,.3565,1.2327,2.0035,2.0035,0,0,0,1.3161.3273h2.2516a5.0977,5.0977,0,0,0,3.8663-1.4831,5.5952,5.5952,0,0,0,1.4142-4.0312,5.7776,5.7776,0,0,0-.6091-2.6448,4.752,4.752,0,0,0-1.6858-1.89,4.4538,4.4538,0,0,0-1.401-.57,7.9352,7.9352,0,0,0-1.8217-.187Zm4.0845,3.0288a3.0181,3.0181,0,0,1,.7505,2.2416,3.5479,3.5479,0,0,1-.7339,2.4421,2.8367,2.8367,0,0,1-2.2138.8085h-1.1191V90.84h1.078A3.0511,3.0511,0,0,1,347.0177,91.5831Z"/><path class="cls-1" d="M359.6991,95.7634a.9759.9759,0,0,0,.25-.7594,3.882,3.882,0,0,0-1.1191-2.8095,3.7453,3.7453,0,0,0-2.7828-1.146,3.7983,3.7983,0,0,0-2.8763,1.2226,4.2838,4.2838,0,0,0-1.1483,3.0569,4.15,4.15,0,0,0,1.185,3.03,3.9605,3.9605,0,0,0,2.9577,1.2105,4.9861,4.9861,0,0,0,2.5267-.62c.7182-.4144,1.0767-.8764,1.0767-1.3909a.8923.8923,0,0,0-.2673-.6691.949.949,0,0,0-.6892-.2584,3.9089,3.9089,0,0,0-1.0178.3875,3.6689,3.6689,0,0,1-1.5034.3831,1.9553,1.9553,0,0,1-1.2516-.3754,1.5222,1.5222,0,0,1-.5535-1.0488h4.2683A1.4908,1.4908,0,0,0,359.6991,95.7634Zm-5.2438-1.36a1.7563,1.7563,0,0,1,.5622-1.0178,1.602,1.602,0,0,1,2.097.0223,1.4334,1.4334,0,0,1,.4876.9955Z"/><path class="cls-1" d="M364.2156,93.1264a2.728,2.728,0,0,1,.9989.2908,2.8821,2.8821,0,0,0,.9366.2885.9453.9453,0,0,0,.7026-.2931.9757.9757,0,0,0,.2883-.717,1.4055,1.4055,0,0,0-.8194-1.177,3.7381,3.7381,0,0,0-1.9912-.5,3.172,3.172,0,0,0-2.1581.7385,2.357,2.357,0,0,0-.85,1.8507,1.9869,1.9869,0,0,0,.4833,1.3674,5.1221,5.1221,0,0,0,1.8005,1.09c.0312.0089.0791.0312.1494.06q1.1573.4577,1.1569.8151a.42.42,0,0,1-.185.35.7889.7889,0,0,1-.481.1393,2.9522,2.9522,0,0,1-1.1079-.3487,2.9275,2.9275,0,0,0-1.1093-.3462.8162.8162,0,0,0-.647.3118,1.1356,1.1356,0,0,0-.265.766,1.4687,1.4687,0,0,0,.842,1.2685,3.9636,3.9636,0,0,0,2.1235.5177,3.4357,3.4357,0,0,0,2.3173-.785,2.4744,2.4744,0,0,0,.9188-1.9565,1.93,1.93,0,0,0-.4589-1.3052,4.2836,4.2836,0,0,0-1.5289-1.0244c-.1726-.078-.4087-.1758-.7095-.2851-.6379-.2449-.9553-.4778-.9553-.6992a.3735.3735,0,0,1,.1492-.3029A.6342.6342,0,0,1,364.2156,93.1264Z"/><path class="cls-1" d="M370.4427,90.5131a1.31,1.31,0,0,0,.97-.4,1.33,1.33,0,0,0,.3986-.9756,1.3465,1.3465,0,0,0-.4-.9788,1.3049,1.3049,0,0,0-.9688-.4064,1.38,1.38,0,1,0,0,2.7607Z"/><path class="cls-1" d="M370.4594,91.1667a1.0178,1.0178,0,0,0-.9052.4265,2.3389,2.3389,0,0,0-.2962,1.31v4.83a2.3615,2.3615,0,0,0,.2983,1.3173,1.1536,1.1536,0,0,0,1.793.0046,2.4445,2.4445,0,0,0,.2862-1.3218v-4.83a2.4068,2.4068,0,0,0-.2862-1.31A1.001,1.001,0,0,0,370.4594,91.1667Z"/><path class="cls-1" d="M377.4649,100.6687a4.2248,4.2248,0,0,1-1.53-.3275,4.0129,4.0129,0,0,0-1.03-.3252,1.0029,1.0029,0,0,0-.7394.2942,1.0432,1.0432,0,0,0-.2917.7583c0,.5054.3252.9287.9777,1.2639a5.5382,5.5382,0,0,0,2.53.5,4.8845,4.8845,0,0,0,2.1948-.46,3.4153,3.4153,0,0,0,1.4486-1.3405A3.4758,3.4758,0,0,0,381.46,99.79a12.8689,12.8689,0,0,0,.13-2.0813V92.9072a2.3572,2.3572,0,0,0-.294-1.3141,1.028,1.028,0,0,0-.9143-.4265,1.0015,1.0015,0,0,0-.5836.2048,1.6111,1.6111,0,0,0-.4787.5613,2.2841,2.2841,0,0,0-.834-.6459,2.6157,2.6157,0,0,0-1.0746-.2094,3.3874,3.3874,0,0,0-2.637,1.2249,4.393,4.393,0,0,0-1.0789,3.0133,4.4778,4.4778,0,0,0,1,2.9677,3.1049,3.1049,0,0,0,2.4564,1.1959,2.6442,2.6442,0,0,0,1.2327-.2817,2.61,2.61,0,0,0,.9355-.8463c0,.0356.0023.0835.0078.1469.0023.0668.0089.1124.0089.1414a2.1426,2.1426,0,0,1-.49,1.4979A1.8028,1.8028,0,0,1,377.4649,100.6687Zm1.3964-3.913a1.4105,1.4105,0,0,1-2.24.0043,2.2978,2.2978,0,0,1-.4333-1.4466,2.198,2.198,0,0,1,.4333-1.4076,1.43,1.43,0,0,1,2.24,0,2.147,2.147,0,0,1,.4465,1.4076A2.2353,2.2353,0,0,1,378.8613,96.7557Z"/><path class="cls-1" d="M385.8812,91.3571a1.1194,1.1194,0,0,0-.647-.19,1.0163,1.0163,0,0,0-.9029.4265,2.3389,2.3389,0,0,0-.2962,1.31v4.83a2.3612,2.3612,0,0,0,.2962,1.3141,1.1639,1.1639,0,0,0,1.8117,0,2.3343,2.3343,0,0,0,.2962-1.3141V94.9839a2.455,2.455,0,0,1,.3106-1.3864,1.0931,1.0931,0,0,1,.96-.4422,1.1151,1.1151,0,0,1,.9843.4276,2.5664,2.5664,0,0,1,.3008,1.43v2.7194a2.3067,2.3067,0,0,0,.2983,1.3141,1.157,1.157,0,0,0,1.8051,0,2.3131,2.3131,0,0,0,.3-1.3141V94.2867a3.3831,3.3831,0,0,0-.7462-2.3663,2.7846,2.7846,0,0,0-2.1613-.8128,3.3306,3.3306,0,0,0-1.2206.197,2.2361,2.2361,0,0,0-.8874.6258A1.6464,1.6464,0,0,0,385.8812,91.3571Z"/><path class="cls-1" d="M404.078,90.84a2.4129,2.4129,0,0,0,1.304-.2817.9479.9479,0,0,0,.4365-.85.9672.9672,0,0,0-.4388-.87,2.375,2.375,0,0,0-1.3018-.2851h-2.767a1.4141,1.4141,0,0,0-1.6972,1.7225V97.8a1.64,1.64,0,0,0,.3542,1.2327,1.9959,1.9959,0,0,0,1.3161.3273h2.8642a2.4723,2.4723,0,0,0,1.3262-.2828,1.0739,1.0739,0,0,0,0-1.72,2.4628,2.4628,0,0,0-1.3262-.2817h-2.0746v-2.019h1.725a2.4231,2.4231,0,0,0,1.3173-.2817.9494.9494,0,0,0,.4322-.8586.96.96,0,0,0-.4322-.8641,2.4439,2.4439,0,0,0-1.3173-.2817h-1.725V90.84Z"/><path class="cls-1" d="M408.2517,91.5931a2.3426,2.3426,0,0,0-.294,1.31v4.83a2.3649,2.3649,0,0,0,.294,1.3141,1.1641,1.1641,0,0,0,1.8119,0,2.344,2.344,0,0,0,.296-1.3141V94.9839a2.416,2.416,0,0,1,.3129-1.3864,1.0934,1.0934,0,0,1,.9578-.4422,1.1077,1.1077,0,0,1,.9843.4276,2.5593,2.5593,0,0,1,.2985,1.43v2.7194a2.3033,2.3033,0,0,0,.3006,1.3141,1.157,1.157,0,0,0,1.8051,0,2.3139,2.3139,0,0,0,.2985-1.3141V94.2867a3.388,3.388,0,0,0-.7439-2.3663,2.7885,2.7885,0,0,0-2.1615-.8128,3.33,3.33,0,0,0-1.2226.197,2.2766,2.2766,0,0,0-.8853.6258,1.6256,1.6256,0,0,0-.5033-.5733,1.1177,1.1177,0,0,0-.6447-.19A1.0152,1.0152,0,0,0,408.2517,91.5931Z"/><path class="cls-1" d="M420.9942,100.6687a4.2017,4.2017,0,0,1-1.53-.3275,4.0224,4.0224,0,0,0-1.0345-.3252.993.993,0,0,0-.735.2942,1.0465,1.0465,0,0,0-.296.7583c0,.5054.3273.9287.982,1.2639a5.52,5.52,0,0,0,2.5278.5,4.8625,4.8625,0,0,0,2.1928-.46,3.3977,3.3977,0,0,0,1.4509-1.3405A3.48,3.48,0,0,0,424.99,99.79a13.2027,13.2027,0,0,0,.1259-2.0813V92.9072a2.3569,2.3569,0,0,0-.2919-1.3141,1.0223,1.0223,0,0,0-.912-.4265.9859.9859,0,0,0-.5845.2048,1.6315,1.6315,0,0,0-.4823.5613,2.2546,2.2546,0,0,0-.834-.6459,2.6014,2.6014,0,0,0-1.0712-.2094,3.3838,3.3838,0,0,0-2.6359,1.2249,4.3864,4.3864,0,0,0-1.0846,3.0133,4.4589,4.4589,0,0,0,1.0057,2.9677,3.1,3.1,0,0,0,2.4521,1.1959,2.6615,2.6615,0,0,0,1.237-.2817,2.5613,2.5613,0,0,0,.9309-.8463c0,.0356.0057.0835.008.1469.0066.0668.0089.1124.0089.1414a2.1154,2.1154,0,0,1-.4878,1.4979A1.7976,1.7976,0,0,1,420.9942,100.6687Zm1.3964-3.913a1.3762,1.3762,0,0,1-1.1234.5556,1.35,1.35,0,0,1-1.1148-.5512,2.2787,2.2787,0,0,1-.4376-1.4466,2.18,2.18,0,0,1,.4376-1.4076,1.3507,1.3507,0,0,1,1.1148-.5412,1.3847,1.3847,0,0,1,1.1234.5412,2.1645,2.1645,0,0,1,.4433,1.4076A2.2537,2.2537,0,0,1,422.3906,96.7557Z"/><path class="cls-1" d="M428.8217,91.1667a1.018,1.018,0,0,0-.9054.4265,2.3389,2.3389,0,0,0-.2962,1.31v4.83a2.3594,2.3594,0,0,0,.2985,1.3173,1.1533,1.1533,0,0,0,1.7928.0046,2.4456,2.4456,0,0,0,.2851-1.3218v-4.83a2.4079,2.4079,0,0,0-.2851-1.31A1.0006,1.0006,0,0,0,428.8217,91.1667Z"/><path class="cls-1" d="M427.8228,88.1588a1.3823,1.3823,0,0,0-.008,1.9545,1.3551,1.3551,0,0,0,.99.4,1.31,1.31,0,0,0,.97-.4,1.3943,1.3943,0,0,0-.0023-1.9545,1.3006,1.3006,0,0,0-.9677-.4064A1.3447,1.3447,0,0,0,427.8228,88.1588Z"/><path class="cls-1" d="M433.729,99.4794a1.0311,1.0311,0,0,0,.91-.4331,2.34,2.34,0,0,0,.2985-1.3141V94.9839a2.4578,2.4578,0,0,1,.3051-1.3864,1.1052,1.1052,0,0,1,.9622-.4422,1.1235,1.1235,0,0,1,.9877.4276,2.6229,2.6229,0,0,1,.296,1.43v2.7194a2.3055,2.3055,0,0,0,.2974,1.3141,1.1629,1.1629,0,0,0,1.8108,0,2.3251,2.3251,0,0,0,.296-1.3141V94.2867a3.3676,3.3676,0,0,0-.7494-2.3663,2.7774,2.7774,0,0,0-2.16-.8128,3.3177,3.3177,0,0,0-1.2183.197,2.2876,2.2876,0,0,0-.8887.6258,1.5676,1.5676,0,0,0-.5-.5733,1.1348,1.1348,0,0,0-.647-.19,1.017,1.017,0,0,0-.9031.4265,2.3244,2.3244,0,0,0-.2928,1.31v4.83a2.3465,2.3465,0,0,0,.2928,1.3141A1.0144,1.0144,0,0,0,433.729,99.4794Z"/><path class="cls-1" d="M445.94,99.5686a4.9917,4.9917,0,0,0,2.5289-.62c.717-.4144,1.0758-.8764,1.0758-1.3909a.8915.8915,0,0,0-.265-.6691.9594.9594,0,0,0-.6949-.2584,3.9242,3.9242,0,0,0-1.0178.3875,3.6544,3.6544,0,0,1-1.4967.3831,1.9633,1.9633,0,0,1-1.255-.3754,1.5027,1.5027,0,0,1-.5556-1.0488h4.2715a1.4918,1.4918,0,0,0,.9421-.2128.9793.9793,0,0,0,.2495-.7594,3.871,3.871,0,0,0-1.1214-2.8095,3.7293,3.7293,0,0,0-2.78-1.146,3.7781,3.7781,0,0,0-2.8717,1.2226,4.2888,4.2888,0,0,0-1.1549,3.0569,4.143,4.143,0,0,0,1.187,3.03A3.9712,3.9712,0,0,0,445.94,99.5686Zm-1.148-6.1827a1.53,1.53,0,0,1,1.0422-.38,1.507,1.507,0,0,1,1.0511.4021,1.4125,1.4125,0,0,1,.489.9955h-3.1436A1.7187,1.7187,0,0,1,444.7924,93.3859Z"/><path class="cls-1" d="M458.78,95.7634a1.0008,1.0008,0,0,0,.2449-.7594,3.8866,3.8866,0,0,0-1.1191-2.8095,3.7357,3.7357,0,0,0-2.7839-1.146,3.781,3.781,0,0,0-2.8708,1.2226,4.2939,4.2939,0,0,0-1.1537,3.0569,4.15,4.15,0,0,0,1.185,3.03,3.9754,3.9754,0,0,0,2.96,1.2105,4.9915,4.9915,0,0,0,2.5312-.62c.715-.4144,1.0712-.8764,1.0712-1.3909a.8872.8872,0,0,0-.265-.6691.9511.9511,0,0,0-.6871-.2584,3.8427,3.8427,0,0,0-1.0233.3875,3.6416,3.6416,0,0,1-1.4967.3831,1.9765,1.9765,0,0,1-1.2559-.3754,1.5138,1.5138,0,0,1-.5546-1.0488h4.2727A1.5144,1.5144,0,0,0,458.78,95.7634Zm-5.2495-1.36a1.7517,1.7517,0,0,1,.5635-1.0178,1.6017,1.6017,0,0,1,2.0968.0223,1.4132,1.4132,0,0,1,.4855.9955Z"/><path class="cls-1" d="M462.7219,91.3571a1.14,1.14,0,0,0-.647-.19,1.02,1.02,0,0,0-.9054.4265,2.3426,2.3426,0,0,0-.294,1.31v4.83a2.3843,2.3843,0,0,0,.294,1.3173,1.17,1.17,0,0,0,1.8119,0,2.3321,2.3321,0,0,0,.2994-1.3173V95.2266a2.0881,2.0881,0,0,1,.1492-.9476,1.268,1.268,0,0,1,.6014-.4787,7.3933,7.3933,0,0,1,.7115-.2842c.8819-.3273,1.3264-.7316,1.3264-1.2137a1.13,1.13,0,0,0-.3587-.8395,1.1909,1.1909,0,0,0-.8584-.3553,1.8594,1.8594,0,0,0-.8429.2082,2.67,2.67,0,0,0-.7886.6146A1.6291,1.6291,0,0,0,462.7219,91.3571Z"/><path class="cls-1" d="M468.6984,91.1667a1.0167,1.0167,0,0,0-.9074.4265,2.3423,2.3423,0,0,0-.2919,1.31v4.83a2.3647,2.3647,0,0,0,.294,1.3173,1.0311,1.0311,0,0,0,.9054.43,1.0038,1.0038,0,0,0,.8876-.4253,2.42,2.42,0,0,0,.2905-1.3218v-4.83a2.3827,2.3827,0,0,0-.2905-1.31A.9944.9944,0,0,0,468.6984,91.1667Z"/><path class="cls-1" d="M468.6829,90.5131a1.31,1.31,0,0,0,.9677-.4,1.3809,1.3809,0,0,0-.0023-1.9545,1.3045,1.3045,0,0,0-.9654-.4064,1.3459,1.3459,0,0,0-.9834.4064,1.3745,1.3745,0,0,0,.9834,2.3542Z"/><path class="cls-1" d="M477.6581,99.0463a1.1663,1.1663,0,0,0,1.814,0,2.3422,2.3422,0,0,0,.2985-1.3141V94.2867a3.3792,3.3792,0,0,0-.7483-2.3663,2.7786,2.7786,0,0,0-2.1593-.8128,3.337,3.337,0,0,0-1.2217.197,2.2639,2.2639,0,0,0-.8885.6258,1.6306,1.6306,0,0,0-.5-.5733,1.1234,1.1234,0,0,0-.6459-.19,1.0212,1.0212,0,0,0-.9063.4265,2.3407,2.3407,0,0,0-.294,1.31v4.83a2.363,2.363,0,0,0,.294,1.3141,1.1639,1.1639,0,0,0,1.8117,0,2.3031,2.3031,0,0,0,.3008-1.3141V94.9839a2.4569,2.4569,0,0,1,.3083-1.3864,1.0943,1.0943,0,0,1,.9576-.4422,1.1252,1.1252,0,0,1,.9889.4276,2.5891,2.5891,0,0,1,.2985,1.43v2.7194A2.3845,2.3845,0,0,0,477.6581,99.0463Z"/><path class="cls-1" d="M485.13,99.4794a2.6442,2.6442,0,0,0,1.2327-.2817,2.6,2.6,0,0,0,.9344-.8463,1.4376,1.4376,0,0,0,.0089.1469c.0023.0668.0078.1124.0078.1414a2.128,2.128,0,0,1-.491,1.4979,1.7976,1.7976,0,0,1-1.38.5311,4.2239,4.2239,0,0,1-1.53-.3275,4.0156,4.0156,0,0,0-1.03-.3252,1.0029,1.0029,0,0,0-.7394.2942,1.0441,1.0441,0,0,0-.2928.7583c0,.5054.3273.9287.9788,1.2639a5.5383,5.5383,0,0,0,2.5321.5,4.8856,4.8856,0,0,0,2.1928-.46,3.4341,3.4341,0,0,0,1.4509-1.3405,3.4935,3.4935,0,0,0,.4331-1.2418,12.838,12.838,0,0,0,.13-2.0813V92.9072a2.3362,2.3362,0,0,0-.2962-1.3141,1.0241,1.0241,0,0,0-.912-.4265,1.0021,1.0021,0,0,0-.5847.2048,1.6328,1.6328,0,0,0-.4787.5613,2.2813,2.2813,0,0,0-.8331-.6459,2.6155,2.6155,0,0,0-1.0755-.2094,3.3851,3.3851,0,0,0-2.6359,1.2249,4.3939,4.3939,0,0,0-1.08,3.0133,4.48,4.48,0,0,0,1.0009,2.9677A3.1025,3.1025,0,0,0,485.13,99.4794Zm-.5311-5.5735a1.43,1.43,0,0,1,2.24,0,2.1527,2.1527,0,0,1,.4454,1.4076,2.2413,2.2413,0,0,1-.4454,1.4422,1.4105,1.4105,0,0,1-2.24.0043,2.297,2.297,0,0,1-.431-1.4466A2.1971,2.1971,0,0,1,484.5991,93.9059Z"/><path class="cls-1" d="M559.1368,52.7185a2.7156,2.7156,0,0,0-2.4042,1.1325,6.2408,6.2408,0,0,0-.7728,3.4731V70.1134a6.2284,6.2284,0,0,0,.7873,3.4877,2.7036,2.7036,0,0,0,2.39,1.1449,2.6414,2.6414,0,0,0,2.3508-1.1337,6.3263,6.3263,0,0,0,.7684-3.4989V57.3241a6.254,6.254,0,0,0-.7684-3.4731A2.6381,2.6381,0,0,0,559.1368,52.7185Z"/><path class="cls-1" d="M559.11,51.0571a3.4551,3.4551,0,0,0,2.5634-1.068,3.5407,3.5407,0,0,0,1.0534-2.6024,3.5977,3.5977,0,0,0-1.0612-2.6081,3.4543,3.4543,0,0,0-2.5556-1.0835,3.6811,3.6811,0,1,0,0,7.362Z"/><path class="cls-1" d="M571.2424,74.746a3.4866,3.4866,0,0,0,2.57-1.0614,3.7013,3.7013,0,0,0-.0145-5.1735,3.4735,3.4735,0,0,0-2.5556-1.0691,3.5711,3.5711,0,0,0-2.6,1.0691,3.66,3.66,0,0,0-.0189,5.1735A3.5612,3.5612,0,0,0,571.2424,74.746Z"/><path class="cls-1" d="M588.486,74.8639a7.32,7.32,0,0,0,2.86-.5533,6.5534,6.5534,0,0,0,2.2863-1.6169,4.2765,4.2765,0,0,0,1.3161,1.5278,2.95,2.95,0,0,0,1.7082.5245,2.64,2.64,0,0,0,2.35-1.136,6.3691,6.3691,0,0,0,.7649-3.4986V48.3544a6.3824,6.3824,0,0,0-.7727-3.5043,2.632,2.632,0,0,0-2.3419-1.1549,2.7061,2.7061,0,0,0-2.4065,1.1437,6.3921,6.3921,0,0,0-.7749,3.5155v5.815a7.4512,7.4512,0,0,0-2.3007-1.3652,7.8231,7.8231,0,0,0-2.6881-.4422,8.9339,8.9339,0,0,0-6.932,3.2373,12.5067,12.5067,0,0,0,.0434,15.9684A8.88,8.88,0,0,0,588.486,74.8639Zm-2.089-15.131a3.6519,3.6519,0,0,1,3.0133-1.4922,3.6089,3.6089,0,0,1,2.9965,1.4833,6.19,6.19,0,0,1,1.1526,3.8964,5.9836,5.9836,0,0,1-1.167,3.8428,3.6271,3.6271,0,0,1-2.9821,1.4632,3.6922,3.6922,0,0,1-3.0056-1.4721,5.9456,5.9456,0,0,1-1.177-3.8339A6.126,6.126,0,0,1,586.397,59.7329Z"/><path class="cls-1" d="M332.4267,73.3428a9.3772,9.3772,0,0,0,4.9286,1.343,6.9522,6.9522,0,0,0,5.5925-3.2482h.0778v1.5857a1.5634,1.5634,0,0,0,.4933,1.2171,1.6669,1.6669,0,0,0,1.16.4454,1.6333,1.6333,0,0,0,1.1782-.4589,1.8186,1.8186,0,0,0,.47-1.3629V54.5391a1.8094,1.8094,0,0,0-.4766-1.3373,1.6576,1.6576,0,0,0-2.3351-.0046,1.6871,1.6871,0,0,0-.49,1.263v1.177h-.0778a9.034,9.034,0,0,0-2.7239-2.2361,7.4026,7.4026,0,0,0-3.3205-.6826,8.6111,8.6111,0,0,0-4.3062,1.2194,9.3333,9.3333,0,0,0-3.5189,3.7281,12.54,12.54,0,0,0-1.3886,6.1391,12.4486,12.4486,0,0,0,1.26,5.7115A9.2154,9.2154,0,0,0,332.4267,73.3428Zm.3362-15.2535a5.0937,5.0937,0,0,1,4.3151-2.2829h.0791a5.0221,5.0221,0,0,1,3.0165.9521,6.0672,6.0672,0,0,1,2.048,2.7538,11.2543,11.2543,0,0,1,.7261,4.2047,10.5089,10.5089,0,0,1-1.4055,5.5735,4.9884,4.9884,0,0,1-4.63,2.3073,4.5971,4.5971,0,0,1-3.1137-1.109,6.6864,6.6864,0,0,1-1.9141-2.9052,11.5193,11.5193,0,0,1-.63-3.8665A10.234,10.234,0,0,1,332.7629,58.0893Z"/><path class="cls-1" d="M359.1212,74.6858a9.9815,9.9815,0,0,0,4.3438-.9243,6.2832,6.2832,0,0,0,2.6425-2.305,6.0015,6.0015,0,0,0,.9289-3.0567,4.9043,4.9043,0,0,0-1.0413-3.1737,8.3875,8.3875,0,0,0-3.4175-2.2651c-.3519-.1637-.9966-.4064-1.9255-.7227s-1.7237-.6247-2.3784-.9232a6.4006,6.4006,0,0,1-1.7417-1.148,2.938,2.938,0,0,1-.93-1.6726,2.5691,2.5691,0,0,1,1.0356-1.912,4.4592,4.4592,0,0,1,2.85-.7761,3.9538,3.9538,0,0,1,1.53.3284c.4064.195,1.04.54,1.9063,1.0379a8.8351,8.8351,0,0,0,1.9811.922,1.7267,1.7267,0,0,0,1.1136-.5223,1.4677,1.4677,0,0,0,.46-1.0523,2.48,2.48,0,0,0-.8418-1.66,7.9957,7.9957,0,0,0-2.7128-1.4755,11.1022,11.1022,0,0,0-3.8026-.6659,8.8694,8.8694,0,0,0-3.6437.89,6.1856,6.1856,0,0,0-2.4722,2.1426,5.2731,5.2731,0,0,0-.8684,2.9242,4.3621,4.3621,0,0,0,.9387,2.8542,6.9488,6.9488,0,0,0,2.1558,1.77q1.2209.6216,3.4542,1.5123a20.6483,20.6483,0,0,1,3.09,1.4411,2.7534,2.7534,0,0,1,1.637,2.4074,2.36,2.36,0,0,1-1.3264,2.23,6.4017,6.4017,0,0,1-3.0444.7072,6.8052,6.8052,0,0,1-2.9778-.805,7.07,7.07,0,0,1-1.08-.6938,12.0762,12.0762,0,0,0-1.2705-.8308,2.0832,2.0832,0,0,0-1.0212-.2862,1.4356,1.4356,0,0,0-1.0947.4677,1.5684,1.5684,0,0,0-.4354,1.109,2.3675,2.3675,0,0,0,.9677,1.7374A10.3822,10.3822,0,0,0,359.1212,74.6858Z"/><path class="cls-1" d="M378.5051,74.6858a9.9991,9.9991,0,0,0,4.3507-.9243,6.3312,6.3312,0,0,0,2.6446-2.305,6.0756,6.0756,0,0,0,.9277-3.0567,4.9176,4.9176,0,0,0-1.0422-3.1737,8.3662,8.3662,0,0,0-3.4177-2.2651c-.3519-.1637-.9943-.4064-1.923-.7227q-1.3981-.4762-2.3853-.9232a6.42,6.42,0,0,1-1.7394-1.148,2.9479,2.9479,0,0,1-.9277-1.6726,2.5766,2.5766,0,0,1,1.03-1.912,4.4789,4.4789,0,0,1,2.8551-.7761,3.9528,3.9528,0,0,1,1.53.3284c.4043.195,1.0425.54,1.902,1.0379a8.7608,8.7608,0,0,0,1.9878.922,1.6994,1.6994,0,0,0,1.1047-.5223,1.4584,1.4584,0,0,0,.4666-1.0523,2.4726,2.4726,0,0,0-.8452-1.66,7.9755,7.9755,0,0,0-2.7073-1.4755,11.161,11.161,0,0,0-3.8049-.6659,8.9326,8.9326,0,0,0-3.65.89,6.1939,6.1939,0,0,0-2.4653,2.1426,5.2715,5.2715,0,0,0-.8687,2.9242,4.3387,4.3387,0,0,0,.9387,2.8542,6.8481,6.8481,0,0,0,2.1593,1.77q1.2161.6216,3.4464,1.5123a20.6387,20.6387,0,0,1,3.0968,1.4411,2.7669,2.7669,0,0,1,1.6347,2.4074,2.3549,2.3549,0,0,1-1.3284,2.23,6.4033,6.4033,0,0,1-3.0478.7072,6.7828,6.7828,0,0,1-2.9721-.805,7.1836,7.1836,0,0,1-1.08-.6938,12.5433,12.5433,0,0,0-1.2705-.8308,2.0891,2.0891,0,0,0-1.0212-.2862,1.4266,1.4266,0,0,0-1.0945.4677,1.5726,1.5726,0,0,0-.4356,1.109,2.3426,2.3426,0,0,0,.9679,1.7374A10.3661,10.3661,0,0,0,378.5051,74.6858Z"/><path class="cls-1" d="M394.8888,73.1913a9.1545,9.1545,0,0,0,10.0033.0146,9.5424,9.5424,0,0,0,3.29-4,13.1784,13.1784,0,0,0,1.1335-5.4889,12.97,12.97,0,0,0-1.1414-5.4319,9.8184,9.8184,0,0,0-3.2893-4.0177,8.9335,8.9335,0,0,0-9.8551-.1325,9.54,9.54,0,0,0-3.38,3.9308,12.834,12.834,0,0,0-1.2083,5.6513,13.0583,13.0583,0,0,0,1.1437,5.4554A9.61,9.61,0,0,0,394.8888,73.1913Zm-.2094-13.53a6.2988,6.2988,0,0,1,2.0179-2.8307,5.124,5.124,0,0,1,3.2-1.0244,4.9289,4.9289,0,0,1,3.206,1.0746,6.5109,6.5109,0,0,1,1.9832,2.8763,11.3282,11.3282,0,0,1,.6694,3.96,12.8379,12.8379,0,0,1-.6794,3.9655,6.2361,6.2361,0,0,1-1.9643,2.8519,5.1238,5.1238,0,0,1-3.2939,1.0634,4.7374,4.7374,0,0,1-4.4077-2.4332,10.6487,10.6487,0,0,1-1.4119-5.4476A11.4854,11.4854,0,0,1,394.6794,59.6615Z"/><path class="cls-1" d="M418.0945,73.2716a9.1707,9.1707,0,0,0,5.0946,1.4142,11.8837,11.8837,0,0,0,3.7739-.61,2.2442,2.2442,0,0,0,1.834-2.1691,1.5491,1.5491,0,0,0-.3752-1.0691,1.222,1.222,0,0,0-.951-.423,2.16,2.16,0,0,0-.8954.2461c-.1749.0812-.4333.1948-.774.3441-.3419.1514-.6146.2671-.8263.3462a5.692,5.692,0,0,1-.8151.2217,7.1894,7.1894,0,0,1-.9633.1314,1.7147,1.7147,0,0,0-.6012-.0791,5.0587,5.0587,0,0,1-4.2606-2.806,11.729,11.729,0,0,1-1.2484-5.3742,10.8686,10.8686,0,0,1,.78-3.6558,6.9168,6.9168,0,0,1,2.0523-2.8307,5.0466,5.0466,0,0,1,3.2783-1.0913,5.25,5.25,0,0,1,1.31.1658c.442.1124.9909.2817,1.668.51.6737.2306,1.078.3676,1.2105.4021a1.79,1.79,0,0,0,1.138-.4643,1.3418,1.3418,0,0,0,.431-1.019,2.7717,2.7717,0,0,0-.1571-.7649,3.8257,3.8257,0,0,0-2.0211-1.382,10.4566,10.4566,0,0,0-3.7383-.5957,9.6952,9.6952,0,0,0-4.2615,1.0078,8.3282,8.3282,0,0,0-2.9889,2.5445,11.0794,11.0794,0,0,0-1.707,3.6337,16.2968,16.2968,0,0,0-.5578,4.3028,12.3767,12.3767,0,0,0,1.22,5.2538A9.3056,9.3056,0,0,0,418.0945,73.2716Z"/><path class="cls-1" d="M437.7166,49.9868a2.0543,2.0543,0,0,0,1.528-.6792,2.2389,2.2389,0,0,0,.647-1.5814,2.1852,2.1852,0,0,0-.6449-1.5791,2.05,2.05,0,0,0-1.53-.6714,2.0824,2.0824,0,0,0-1.5622.6794,2.2205,2.2205,0,0,0,.0078,3.1458A2.0942,2.0942,0,0,0,437.7166,49.9868Z"/><path class="cls-1" d="M437.7166,52.7185a1.6529,1.6529,0,0,0-1.22.5067,1.8668,1.8668,0,0,0-.5122,1.3918v18.247a1.7285,1.7285,0,0,0,.52,1.3284,1.7076,1.7076,0,0,0,1.2126.4933,1.8,1.8,0,0,0,1.2539-.4833,1.74,1.74,0,0,0,.5168-1.3385V54.5391a1.73,1.73,0,0,0-.5168-1.3373A1.7578,1.7578,0,0,0,437.7166,52.7185Z"/><path class="cls-1" d="M449.4872,73.3428a9.3634,9.3634,0,0,0,4.9263,1.343,6.95,6.95,0,0,0,5.5936-3.2482h.0789v1.5857a1.5612,1.5612,0,0,0,.4912,1.2171,1.6755,1.6755,0,0,0,1.1624.4454,1.6233,1.6233,0,0,0,1.1793-.4589,1.8022,1.8022,0,0,0,.4744-1.3629V54.5391a1.8356,1.8356,0,0,0-.4766-1.3373,1.6656,1.6656,0,0,0-2.3417-.0046,1.6906,1.6906,0,0,0-.489,1.263v1.177h-.0789a8.9931,8.9931,0,0,0-2.7239-2.2361,7.4022,7.4022,0,0,0-3.3162-.6826,8.5933,8.5933,0,0,0-4.3062,1.2194,9.38,9.38,0,0,0-3.5256,3.7281,12.5676,12.5676,0,0,0-1.3884,6.1391,12.435,12.435,0,0,0,1.2628,5.7115A9.1928,9.1928,0,0,0,449.4872,73.3428Zm.335-15.2535a5.0978,5.0978,0,0,1,4.3174-2.2829h.0791a5.0082,5.0082,0,0,1,3.0133.9521,6.0623,6.0623,0,0,1,2.0489,2.7538,11.2088,11.2088,0,0,1,.7261,4.2047,10.5292,10.5292,0,0,1-1.4032,5.5735,4.9883,4.9883,0,0,1-4.628,2.3073,4.6069,4.6069,0,0,1-3.1189-1.109,6.64,6.64,0,0,1-1.9089-2.9052,11.47,11.47,0,0,1-.637-3.8665A10.2457,10.2457,0,0,1,449.8222,58.0893Z"/><path class="cls-1" d="M471.2976,56.0436h1.5668V72.8684a1.8,1.8,0,0,0,.4764,1.3485,1.6181,1.6181,0,0,0,1.1793.4689,2.0416,2.0416,0,0,0,1.35-.4689,1.5816,1.5816,0,0,0,.5535-1.2728V56.0436h1.7305a1.3808,1.3808,0,0,0,1.0712-.4465,1.5063,1.5063,0,0,0,.4132-1.0523,1.5908,1.5908,0,0,0-.4233-1.1526,1.6251,1.6251,0,0,0-1.2292-.4354h-1.5624V48.2652a1.5865,1.5865,0,0,0-.5223-1.2972,1.9585,1.9585,0,0,0-1.3018-.4354,1.83,1.83,0,0,0-1.2349.4308,1.5041,1.5041,0,0,0-.5,1.2151v4.7783h-1.5668a1.5689,1.5689,0,0,0-1.7405,1.588,1.7469,1.7469,0,0,0,.53,1.0678A1.68,1.68,0,0,0,471.2976,56.0436Z"/><path class="cls-1" d="M486.8562,52.7185a1.6772,1.6772,0,0,0-1.2272.5067,1.8915,1.8915,0,0,0-.5077,1.3918v18.247a1.7468,1.7468,0,0,0,.5166,1.3284,1.71,1.71,0,0,0,1.2183.4933,1.7761,1.7761,0,0,0,1.2473-.4833,1.7436,1.7436,0,0,0,.5223-1.3385V54.5391a1.7371,1.7371,0,0,0-.5156-1.3373A1.7658,1.7658,0,0,0,486.8562,52.7185Z"/><path class="cls-1" d="M486.8562,49.9868a2.03,2.03,0,0,0,1.5212-.6792,2.2479,2.2479,0,0,0,.0066-3.16,2.0451,2.0451,0,0,0-1.5278-.6714,2.0873,2.0873,0,0,0-1.5645.6794,2.226,2.226,0,0,0,.0078,3.1458A2.0915,2.0915,0,0,0,486.8562,49.9868Z"/><path class="cls-1" d="M498.3337,73.1913a9.1637,9.1637,0,0,0,10.0088.0146,9.5521,9.5521,0,0,0,3.2838-4,13.16,13.16,0,0,0,1.1382-5.4889,12.9363,12.9363,0,0,0-1.1437-5.4319,9.796,9.796,0,0,0-3.2872-4.0177,8.9392,8.9392,0,0,0-9.8585-.1325,9.5141,9.5141,0,0,0-3.3718,3.9308,12.7772,12.7772,0,0,0-1.2171,5.6513,13.0244,13.0244,0,0,0,1.146,5.4554A9.6377,9.6377,0,0,0,498.3337,73.1913Zm-.2025-13.53a6.2053,6.2053,0,0,1,2.0165-2.8307,5.1232,5.1232,0,0,1,3.1994-1.0244A4.9152,4.9152,0,0,1,506.55,56.881a6.5389,6.5389,0,0,1,1.9887,2.8763,11.3755,11.3755,0,0,1,.6639,3.96,12.7373,12.7373,0,0,1-.6805,3.9655,6.1633,6.1633,0,0,1-1.9643,2.8519,5.1028,5.1028,0,0,1-3.29,1.0634,4.7488,4.7488,0,0,1-4.412-2.4332,10.7111,10.7111,0,0,1-1.4076-5.4476A11.4286,11.4286,0,0,1,498.1312,59.6615Z"/><path class="cls-1" d="M519.7343,74.746a1.6187,1.6187,0,0,0,1.2083-.4933,1.9235,1.9235,0,0,0,.4855-1.4053V61.0524a5.4092,5.4092,0,0,1,.7026-2.8229,4.5457,4.5457,0,0,1,1.8484-1.7738,5.25,5.25,0,0,1,2.45-.5891,5.0061,5.0061,0,0,1,3.5,1.354,4.8725,4.8725,0,0,1,1.47,3.7673V72.8907a1.6434,1.6434,0,0,0,.5077,1.2728,1.7646,1.7646,0,0,0,1.2249.462,1.8238,1.8238,0,0,0,1.2561-.452,1.6253,1.6253,0,0,0,.5134-1.2828V60.9131a9.1139,9.1139,0,0,0-1.0445-4.5322,6.7833,6.7833,0,0,0-2.77-2.7561,7.9049,7.9049,0,0,0-3.7306-.9063,7.5686,7.5686,0,0,0-3.2749.7316,6.9094,6.9094,0,0,0-2.5734,2.089l-.0791-.078v-.8463a1.8533,1.8533,0,0,0-.5168-1.3987,1.7193,1.7193,0,0,0-1.255-.4976,1.6579,1.6579,0,0,0-1.2249.5067,1.858,1.858,0,0,0-.5077,1.39V72.8474a1.8371,1.8371,0,0,0,.5366,1.3695A1.7466,1.7466,0,0,0,519.7343,74.746Z"/><path class="cls-1" d="M211.8419,69.1191a13.8943,13.8943,0,0,1-4.0188-.7471,13.8817,13.8817,0,0,0-3.13-.7473,3.4242,3.4242,0,0,0-2.4131.8274,2.8287,2.8287,0,0,0-.8988,2.1816q0,1.8972,2.7862,3.3116a14.7329,14.7329,0,0,0,6.7259,1.4142,12.1327,12.1327,0,0,0,8.2694-2.7372,9.04,9.04,0,0,0,3.1392-7.159,7.7017,7.7017,0,0,0-1.9387-5.3607,14.2531,14.2531,0,0,0-6.158-3.5646q-.5046-.16-1.4142-.4443-3.9169-1.2329-3.9176-3.0291a2.2076,2.2076,0,0,1,.8887-1.8272,3.7586,3.7586,0,0,1,2.383-.6972,10.6313,10.6313,0,0,1,2.6858.5156,10.6,10.6,0,0,0,2.5645.5134,3.0854,3.0854,0,0,0,2.2115-.7562,2.746,2.746,0,0,0,.7975-2.09q0-1.8572-2.2617-3.1a11.866,11.866,0,0,0-5.7551-1.2418,11.2288,11.2288,0,0,0-7.7047,2.6058,8.5223,8.5223,0,0,0-2.9588,6.7038,6.9664,6.9664,0,0,0,1.8386,5.0789q1.8374,1.8894,6.462,3.2617a12.6144,12.6144,0,0,1,4.1591,1.8174,3.0041,3.0041,0,0,1,.0212,4.4018A3.3706,3.3706,0,0,1,211.8419,69.1191Z"/><path class="cls-1" d="M227.7234,58.5568h.2429V70.108a6.3629,6.3629,0,0,0,.8073,3.5757,2.79,2.79,0,0,0,2.4642,1.17,2.7444,2.7444,0,0,0,2.4432-1.1613,6.469,6.469,0,0,0,.7873-3.5846V58.5568h.5257a5.54,5.54,0,0,0,3.0991-.7058,2.374,2.374,0,0,0,1.0411-2.1013,2.4607,2.4607,0,0,0-1.0812-2.12,5.1585,5.1585,0,0,0-3.0188-.766h-.5658V49.9948a6.4229,6.4229,0,0,0-.7973-3.5746,2.7455,2.7455,0,0,0-2.4332-1.17,2.7923,2.7923,0,0,0-2.4642,1.17,6.3576,6.3576,0,0,0-.8073,3.5746v2.8685a5.3905,5.3905,0,0,0-2.9388.8274,2.4146,2.4146,0,0,0-.98,2.0589,2.4543,2.4543,0,0,0,.98,2.05A4.3026,4.3026,0,0,0,227.7234,58.5568Z"/><path class="cls-1" d="M251.4212,75.2381q4.7875,0,7.3118-2.4544,2.5239-2.4521,2.5244-7.0979V57.0023a6.4294,6.4294,0,0,0-.7884-3.5746,2.735,2.735,0,0,0-2.4231-1.15,2.7968,2.7968,0,0,0-2.4753,1.16,6.3723,6.3723,0,0,0-.7962,3.5646v7.3506a6.4711,6.4711,0,0,1-.7875,3.6861,3.586,3.586,0,0,1-5.13,0,6.4714,6.4714,0,0,1-.7873-3.6861V57.0023a6.3714,6.3714,0,0,0-.7973-3.5646,2.7517,2.7517,0,0,0-2.4332-1.16,2.7989,2.7989,0,0,0-2.4644,1.16,6.2992,6.2992,0,0,0-.8073,3.5646v8.6836q0,4.6452,2.5335,7.0979Q246.6363,75.2393,251.4212,75.2381Z"/><path class="cls-1" d="M275.706,74.9754a7.4929,7.4929,0,0,0,2.9376-.5658,6.71,6.71,0,0,0,2.3517-1.6559,4.4139,4.4139,0,0,0,1.3531,1.5647,3.062,3.062,0,0,0,1.7583.5355,2.72,2.72,0,0,0,2.422-1.1613,6.46,6.46,0,0,0,.7884-3.5846V47.7742a6.4855,6.4855,0,0,0-.7962-3.5846,2.722,2.722,0,0,0-2.4142-1.1813,2.7871,2.7871,0,0,0-2.4744,1.1713,6.4461,6.4461,0,0,0-.7984,3.5947v5.9576a7.6161,7.6161,0,0,0-2.3629-1.4042,8.052,8.052,0,0,0-2.765-.4543,9.1732,9.1732,0,0,0-7.12,3.3217,11.8988,11.8988,0,0,0-2.9376,8.1681,12.02,12.02,0,0,0,2.9789,8.23A9.1379,9.1379,0,0,0,275.706,74.9754Zm-2.15-15.5287a3.8855,3.8855,0,0,1,6.18-.0112,6.3674,6.3674,0,0,1,1.18,4.0088,6.16,6.16,0,0,1-1.1937,3.9477,3.7344,3.7344,0,0,1-3.0667,1.5054,3.7943,3.7943,0,0,1-3.0925-1.5154,6.1173,6.1173,0,0,1-1.21-3.9377A6.2845,6.2845,0,0,1,273.5557,59.4467Z"/><path class="cls-1" d="M291.2457,57.3253l6.5825,15.3472L295.1421,78.49a6.3519,6.3519,0,0,0-.4041,1.13,4.6637,4.6637,0,0,0-.14,1.1113,3.0659,3.0659,0,0,0,.8684,2.3018,3.2317,3.2317,0,0,0,2.362.8484,2.281,2.281,0,0,0,1.5757-.5768,5.8512,5.8512,0,0,0,1.2728-2.0689l9.9351-23.5877a10.1017,10.1017,0,0,0,.4021-1.23,4.2166,4.2166,0,0,0,.1425-1.03,3.0142,3.0142,0,0,0-.8675-2.2728,3.2058,3.2058,0,0,0-2.3216-.8374,2.453,2.453,0,0,0-1.7182.6258,5.0224,5.0224,0,0,0-1.1916,1.9789l-3.9976,10.38-3.6749-9.8339a6.3626,6.3626,0,0,0-1.4053-2.4845,2.7327,2.7327,0,0,0-1.9063-.6659,3.0145,3.0145,0,0,0-2.2427.9289,3.1654,3.1654,0,0,0-.9077,2.3016,5.5961,5.5961,0,0,0,.0791,1.02A3.5759,3.5759,0,0,0,291.2457,57.3253Z"/></svg>