<svg id="Laag_1" data-name="Laag 1" xmlns="http://www.w3.org/2000/svg" viewBox="0 0 2880 141.8"><defs><style>.cls-1{fill:#fff;}</style></defs><title>bies-nl</title><path class="cls-1" d="M166.39,106.21,169,46.29,120.66,28.64,71.39,36.35c-5.77.78-11.78,3.91-11.46,10.39l3.9,57.44L104,141.8l56.45-25C163.84,114.79,166.12,113.44,166.39,106.21ZM150.28,62.47c.08-3,.16-6.06.23-9.1l7.33-2.13,7.08-2.06c-.1,3-.19,5.88-.29,8.8s-.19,5.8-.28,8.69l-7,2.35-7.26,2.44Q150.18,67,150.28,62.47Zm-26.86,57.91c0,3-.06,6-.09,9L115,133.1,106.39,137V118.25l8.72-3.54,8.4-3.42Q123.47,115.85,123.42,120.38Zm.25-24.46c0,3.1-.06,6.19-.1,9.25l-8.43,3.31-8.75,3.44v-9.59c0-3.2,0-6.45,0-9.69l8.85-3.09,8.53-3C123.73,89.69,123.7,92.82,123.67,95.92Zm.21-22a9.22,9.22,0,0,1-5.73,8.23l-11.77,4V72.92c0-3.67,2.72-7.49,6-8.45L124,61.09C124,65.4,123.93,69.67,123.88,73.93Zm20.35,37.54c-.06,2.88-.13,5.75-.19,8.61l-7.53,3.37L128.7,127c0-2.95.08-5.92.12-8.89s.08-6,.11-9l7.89-3.21,7.6-3.09C144.36,105.69,144.29,108.59,144.23,111.47ZM144.68,91c-.07,3.26-2.38,6.78-5.18,7.88L129,103q.09-6.09.17-12.23c0-3.4,2.5-7,5.44-8l10.32-3.62Q144.82,85.13,144.68,91Zm18.37,15.1c-.1,3-2.22,6.41-4.73,7.54l-9.41,4.22c.09-3.77.19-7.56.28-11.37.08-3.15,2.32-6.63,4.95-7.7L163.42,95Q163.23,100.62,163.05,106.13Zm-6.4-14L149.48,95c.07-2.89.15-5.81.22-8.74s.14-5.88.22-8.84c2.43-.86,4.86-1.7,7.24-2.53l7-2.45c-.1,2.86-.19,5.72-.28,8.55s-.18,5.66-.28,8.47Z"/><polygon class="cls-1" points="0 112.49 0 126.24 82.82 126.24 68.16 112.49 0 112.49"/><path class="cls-1" d="M2880,112.49H168.47l-.06.18a12.19,12.19,0,0,1-.6,1.41l0,0c-1.43,2.76-3.58,4.05-5.81,5.37l-.33.18-12.51,5.54L2880,125Z"/><g id="Tekst"><g id="Faculteit..._Group_" data-name="Faculteit... &lt;Group&gt;"><path class="cls-1" d="M202.29,84.15a2.42,2.42,0,0,1,1.29.28,1,1,0,0,1,.44.86,1,1,0,0,1-.43.84,2.49,2.49,0,0,1-1.3.28h-2V88.3H202a2.46,2.46,0,0,1,1.3.28,1,1,0,0,1,.43.86.91.91,0,0,1-.43.84,2.46,2.46,0,0,1-1.3.28h-1.71v2.66a2.38,2.38,0,0,1-.3,1.3,1.07,1.07,0,0,1-.92.42,1,1,0,0,1-.91-.42,2.29,2.29,0,0,1-.3-1.3V85.85a1.4,1.4,0,0,1,1.67-1.7Z"/><path class="cls-1" d="M210.58,94.07a2.26,2.26,0,0,1-.86.67,2.71,2.71,0,0,1-1.1.23,3.23,3.23,0,0,1-2.54-1.19,4.74,4.74,0,0,1,0-5.94,3.33,3.33,0,0,1,2.59-1.2,2.67,2.67,0,0,1,1.06.2,2.18,2.18,0,0,1,.82.64,1.51,1.51,0,0,1,.49-.56,1.12,1.12,0,0,1,.64-.19,1,1,0,0,1,.88.41,2.32,2.32,0,0,1,.29,1.29v4.73a2.34,2.34,0,0,1-.29,1.3,1,1,0,0,1-.88.43,1.2,1.2,0,0,1-.67-.19A1.66,1.66,0,0,1,210.58,94.07Zm-3.08-3.3a2.17,2.17,0,0,0,.42,1.39,1.33,1.33,0,0,0,1.09.53,1.31,1.31,0,0,0,1.08-.54,2.14,2.14,0,0,0,.42-1.38,2.1,2.1,0,0,0-.42-1.36,1.33,1.33,0,0,0-1.08-.52,1.35,1.35,0,0,0-1.09.52A2.1,2.1,0,0,0,207.5,90.77Z"/><path class="cls-1" d="M214.83,90.81a4.25,4.25,0,0,1,1.12-3,3.93,3.93,0,0,1,3-1.16,3.83,3.83,0,0,1,1.91.42,1.24,1.24,0,0,1,.73,1.09,1,1,0,0,1-.28.72.93.93,0,0,1-.7.28,3.5,3.5,0,0,1-.74-.17,3.13,3.13,0,0,0-.93-.18,1.48,1.48,0,0,0-1.18.55,2.21,2.21,0,0,0-.45,1.44,2.13,2.13,0,0,0,.46,1.46,1.6,1.6,0,0,0,1.26.53,3,3,0,0,0,.93-.18,3.34,3.34,0,0,1,.7-.17.84.84,0,0,1,.65.29,1.06,1.06,0,0,1,.27.73,1.33,1.33,0,0,1-.8,1.12,3.87,3.87,0,0,1-2,.46,3.7,3.7,0,0,1-2.83-1.17A4.22,4.22,0,0,1,214.83,90.81Z"/><path class="cls-1" d="M223.13,91.57V88.44a2.21,2.21,0,0,1,.3-1.29,1,1,0,0,1,.89-.42,1,1,0,0,1,.89.42,2.3,2.3,0,0,1,.29,1.29v2.64a2.39,2.39,0,0,0,.28,1.33,1.09,1.09,0,0,0,.93.39,1.07,1.07,0,0,0,.93-.39,2.29,2.29,0,0,0,.29-1.33V88.44a2.31,2.31,0,0,1,.28-1.29,1,1,0,0,1,.9-.42,1,1,0,0,1,.87.41,2.34,2.34,0,0,1,.29,1.3v3.13a3.42,3.42,0,0,1-.92,2.57,4.39,4.39,0,0,1-5.3,0A3.42,3.42,0,0,1,223.13,91.57Z"/><path class="cls-1" d="M232.7,85.09a2.28,2.28,0,0,1,.29-1.3,1.12,1.12,0,0,1,1.76,0,2.39,2.39,0,0,1,.28,1.3v8.1a2.35,2.35,0,0,1-.28,1.3,1,1,0,0,1-.87.42,1,1,0,0,1-.89-.42,2.3,2.3,0,0,1-.29-1.3Z"/><path class="cls-1" d="M238,89h-.09a1.62,1.62,0,0,1-1-.27.92.92,0,0,1-.36-.76.88.88,0,0,1,.36-.75,2,2,0,0,1,1.08-.29v-1a2.24,2.24,0,0,1,.29-1.29,1,1,0,0,1,.9-.43,1,1,0,0,1,.88.43,2.24,2.24,0,0,1,.29,1.29v1h.21a1.85,1.85,0,0,1,1.1.27.91.91,0,0,1,.39.77.88.88,0,0,1-.38.77,2,2,0,0,1-1.12.26h-.2v4.18a2.35,2.35,0,0,1-.28,1.3,1,1,0,0,1-.89.42,1,1,0,0,1-.9-.42,2.3,2.3,0,0,1-.29-1.3Z"/><path class="cls-1" d="M245.25,91.47a1.48,1.48,0,0,0,.55,1,2,2,0,0,0,1.23.37,3.48,3.48,0,0,0,1.48-.39,3.8,3.8,0,0,1,1-.37.94.94,0,0,1,.68.25.86.86,0,0,1,.26.66c0,.51-.35,1-1.06,1.37a4.94,4.94,0,0,1-2.49.61A3.93,3.93,0,0,1,244,93.81a4.09,4.09,0,0,1-1.16-3,4.22,4.22,0,0,1,1.13-3,3.74,3.74,0,0,1,2.83-1.2,3.7,3.7,0,0,1,2.74,1.13,3.83,3.83,0,0,1,1.1,2.77,1,1,0,0,1-.24.74,1.46,1.46,0,0,1-.93.22Zm0-1.56h3.1a1.42,1.42,0,0,0-.48-1,1.51,1.51,0,0,0-1-.39,1.48,1.48,0,0,0-1,.38A1.68,1.68,0,0,0,245.22,89.91Z"/><path class="cls-1" d="M252.31,84.73a1.31,1.31,0,0,1,.4-1,1.35,1.35,0,0,1,1-.4,1.32,1.32,0,0,1,.95.4,1.35,1.35,0,0,1,.4,1,1.31,1.31,0,0,1-.4,1,1.3,1.3,0,0,1-.95.39,1.35,1.35,0,0,1-1-.39A1.3,1.3,0,0,1,252.31,84.73Zm2.54,8.46a2.35,2.35,0,0,1-.28,1.3,1,1,0,0,1-.88.42,1,1,0,0,1-.89-.42,2.38,2.38,0,0,1-.29-1.3V88.44a2.32,2.32,0,0,1,.29-1.29,1,1,0,0,1,.89-.42,1,1,0,0,1,.88.42,2.33,2.33,0,0,1,.28,1.29Z"/><path class="cls-1" d="M257.82,89h-.1a1.61,1.61,0,0,1-1-.27.92.92,0,0,1-.36-.76.88.88,0,0,1,.36-.75,2,2,0,0,1,1.08-.29v-1a2.24,2.24,0,0,1,.29-1.29,1,1,0,0,1,.9-.43,1,1,0,0,1,.88.43,2.32,2.32,0,0,1,.29,1.29v1h.21a1.81,1.81,0,0,1,1.09.27.89.89,0,0,1,.4.77.88.88,0,0,1-.38.77,2,2,0,0,1-1.13.26h-.19v4.18a2.35,2.35,0,0,1-.28,1.3,1,1,0,0,1-.89.42,1,1,0,0,1-.9-.42,2.3,2.3,0,0,1-.29-1.3Z"/><path class="cls-1" d="M271.34,93.22a2.29,2.29,0,0,1-.3,1.3,1,1,0,0,1-.91.42,1.06,1.06,0,0,1-.92-.42,2.3,2.3,0,0,1-.29-1.3V85.73a2.24,2.24,0,0,1,.29-1.29,1,1,0,0,1,.92-.43,1,1,0,0,1,.91.43,2.23,2.23,0,0,1,.3,1.29Z"/><path class="cls-1" d="M274,93.19V88.44a2.24,2.24,0,0,1,.29-1.29,1,1,0,0,1,.89-.42,1.17,1.17,0,0,1,.64.18,1.87,1.87,0,0,1,.49.57,2.29,2.29,0,0,1,.87-.62,3.28,3.28,0,0,1,1.2-.19,2.76,2.76,0,0,1,2.13.8,3.32,3.32,0,0,1,.74,2.33v3.39a2.38,2.38,0,0,1-.29,1.3,1,1,0,0,1-.9.42,1,1,0,0,1-.89-.42,2.38,2.38,0,0,1-.29-1.3V90.52a2.56,2.56,0,0,0-.3-1.42,1.28,1.28,0,0,0-1.91,0,2.34,2.34,0,0,0-.3,1.36v2.71a2.29,2.29,0,0,1-.3,1.3,1.15,1.15,0,0,1-1.78,0A2.3,2.3,0,0,1,274,93.19Z"/><path class="cls-1" d="M288.63,94.14a2.63,2.63,0,0,1-.85.6,2.91,2.91,0,0,1-1.07.2,3.32,3.32,0,0,1-2.56-1.22,4.66,4.66,0,0,1,0-5.94,3.33,3.33,0,0,1,2.58-1.2,2.87,2.87,0,0,1,1,.17,2.48,2.48,0,0,1,.86.51V85.09a2.37,2.37,0,0,1,.28-1.3,1,1,0,0,1,.9-.43,1,1,0,0,1,.87.43,2.38,2.38,0,0,1,.29,1.3v8.1a2.32,2.32,0,0,1-.29,1.29,1,1,0,0,1-.87.42,1.17,1.17,0,0,1-.64-.19A1.6,1.6,0,0,1,288.63,94.14Zm-3.13-3.36a2.15,2.15,0,0,0,.44,1.42,1.41,1.41,0,0,0,2.23,0,2.25,2.25,0,0,0,.43-1.42,2.37,2.37,0,0,0-.43-1.46,1.41,1.41,0,0,0-2.24,0A2.27,2.27,0,0,0,285.5,90.78Z"/><path class="cls-1" d="M293.27,91.57V88.44a2.3,2.3,0,0,1,.29-1.29,1,1,0,0,1,.9-.42,1,1,0,0,1,.89.42,2.3,2.3,0,0,1,.29,1.29v2.64a2.3,2.3,0,0,0,.28,1.33,1.3,1.3,0,0,0,1.86,0,2.29,2.29,0,0,0,.29-1.33V88.44a2.31,2.31,0,0,1,.28-1.29,1,1,0,0,1,.9-.42,1,1,0,0,1,.87.41,2.34,2.34,0,0,1,.29,1.3v3.13a3.42,3.42,0,0,1-.92,2.57,4.39,4.39,0,0,1-5.3,0A3.42,3.42,0,0,1,293.27,91.57Z"/><path class="cls-1" d="M305,95a3.94,3.94,0,0,1-2.1-.51,1.45,1.45,0,0,1-.83-1.25,1.12,1.12,0,0,1,.27-.76.81.81,0,0,1,.63-.31,3,3,0,0,1,1.1.35,2.86,2.86,0,0,0,1.09.35.77.77,0,0,0,.47-.14.45.45,0,0,0,.19-.35c0-.23-.39-.5-1.15-.8l-.14-.06a5.13,5.13,0,0,1-1.78-1.07,2,2,0,0,1-.47-1.35,2.32,2.32,0,0,1,.83-1.82,3.11,3.11,0,0,1,2.13-.73,3.77,3.77,0,0,1,2,.49,1.4,1.4,0,0,1,.81,1.17,1,1,0,0,1-.29.7.93.93,0,0,1-.69.29,2.79,2.79,0,0,1-.92-.29,2.69,2.69,0,0,0-1-.28.67.67,0,0,0-.39.11.33.33,0,0,0-.14.29c0,.23.31.45.94.69.29.11.52.21.7.29a4.22,4.22,0,0,1,1.5,1,2,2,0,0,1,.45,1.29,2.45,2.45,0,0,1-.9,1.93A3.4,3.4,0,0,1,305,95Z"/><path class="cls-1" d="M310.53,89h-.09a1.61,1.61,0,0,1-1-.27.92.92,0,0,1-.36-.76.88.88,0,0,1,.36-.75,2,2,0,0,1,1.07-.29v-1a2.23,2.23,0,0,1,.3-1.29,1.14,1.14,0,0,1,1.78,0,2.32,2.32,0,0,1,.29,1.29v1h.21a1.83,1.83,0,0,1,1.09.27.89.89,0,0,1,.39.77.87.87,0,0,1-.37.77,2,2,0,0,1-1.13.26h-.19v4.18a2.34,2.34,0,0,1-.29,1.3,1,1,0,0,1-.88.42,1,1,0,0,1-.9-.42,2.29,2.29,0,0,1-.3-1.3Z"/><path class="cls-1" d="M315.83,93.19V88.44a2.24,2.24,0,0,1,.29-1.29,1,1,0,0,1,.89-.42,1.13,1.13,0,0,1,.63.18,1.54,1.54,0,0,1,.49.57,2.86,2.86,0,0,1,.78-.61,1.94,1.94,0,0,1,.83-.2,1.19,1.19,0,0,1,.85.35,1.14,1.14,0,0,1,.35.83c0,.47-.43.87-1.3,1.19a7,7,0,0,0-.71.28,1.28,1.28,0,0,0-.59.47,2,2,0,0,0-.15.93v2.47a2.3,2.3,0,0,1-.29,1.3,1.15,1.15,0,0,1-1.78,0A2.3,2.3,0,0,1,315.83,93.19Z"/><path class="cls-1" d="M322.14,84.73a1.36,1.36,0,0,1,2.33-1,1.34,1.34,0,0,1,.39,1,1.33,1.33,0,0,1-1.35,1.35,1.33,1.33,0,0,1-1-.39A1.28,1.28,0,0,1,322.14,84.73Zm2.55,8.46a2.34,2.34,0,0,1-.29,1.3,1,1,0,0,1-.87.42,1,1,0,0,1-.89-.42,2.38,2.38,0,0,1-.29-1.3V88.44a2.32,2.32,0,0,1,.29-1.29,1,1,0,0,1,.89-.42,1,1,0,0,1,.87.42,2.32,2.32,0,0,1,.29,1.29Z"/><path class="cls-1" d="M329.14,91.47a1.52,1.52,0,0,0,.55,1,2,2,0,0,0,1.23.37,3.48,3.48,0,0,0,1.48-.39,3.68,3.68,0,0,1,1-.37.92.92,0,0,1,.68.25.86.86,0,0,1,.26.66c0,.51-.35,1-1,1.37a5,5,0,0,1-2.49.61,3.94,3.94,0,0,1-2.92-1.19,4.14,4.14,0,0,1-1.17-3,4.27,4.27,0,0,1,1.14-3,3.91,3.91,0,0,1,5.57-.07,3.83,3.83,0,0,1,1.1,2.77,1,1,0,0,1-.24.74,1.48,1.48,0,0,1-.93.22Zm0-1.56h3.1a1.42,1.42,0,0,0-.48-1,1.51,1.51,0,0,0-1-.39,1.48,1.48,0,0,0-1,.38A1.73,1.73,0,0,0,329.11,89.91Z"/><path class="cls-1" d="M338.31,91.47a1.47,1.47,0,0,0,.54,1,2,2,0,0,0,1.23.37,3.48,3.48,0,0,0,1.48-.39,3.8,3.8,0,0,1,1-.37.92.92,0,0,1,.68.25.86.86,0,0,1,.26.66c0,.51-.34,1-1.05,1.37A5,5,0,0,1,340,95,3.94,3.94,0,0,1,337,93.81a4.14,4.14,0,0,1-1.17-3,4.23,4.23,0,0,1,1.14-3,3.74,3.74,0,0,1,2.83-1.2,3.7,3.7,0,0,1,2.74,1.13,3.83,3.83,0,0,1,1.1,2.77,1,1,0,0,1-.24.74,1.48,1.48,0,0,1-.93.22Zm0-1.56h3.1a1.42,1.42,0,0,0-.48-1,1.48,1.48,0,0,0-1-.39,1.44,1.44,0,0,0-1,.38A1.69,1.69,0,0,0,338.27,89.91Z"/><path class="cls-1" d="M345.56,85.09a2.36,2.36,0,0,1,.29-1.3,1,1,0,0,1,.89-.43,1,1,0,0,1,.87.43,2.3,2.3,0,0,1,.29,1.3v8.1a2.35,2.35,0,0,1-.28,1.3,1,1,0,0,1-.88.42,1,1,0,0,1-.89-.42,2.38,2.38,0,0,1-.29-1.3Z"/><path class="cls-1" d="M355.62,89.49a5.78,5.78,0,0,1,1.44-4.08,5.4,5.4,0,0,1,7.58,0,6.49,6.49,0,0,1,0,8.15,5.42,5.42,0,0,1-7.59,0A5.82,5.82,0,0,1,355.62,89.49Zm2.63,0a3.74,3.74,0,0,0,.71,2.39,2.42,2.42,0,0,0,3.75,0,3.68,3.68,0,0,0,.72-2.39,3.87,3.87,0,0,0-.71-2.44,2.41,2.41,0,0,0-3.77,0A3.87,3.87,0,0,0,358.25,89.52Z"/><path class="cls-1" d="M368.1,93.19V88.44a2.23,2.23,0,0,1,.3-1.29,1,1,0,0,1,.89-.42,1.13,1.13,0,0,1,.63.18,1.64,1.64,0,0,1,.49.57,2.4,2.4,0,0,1,.88-.62,3.28,3.28,0,0,1,1.2-.19,2.76,2.76,0,0,1,2.13.8,3.32,3.32,0,0,1,.74,2.33v3.39a2.29,2.29,0,0,1-.3,1.3,1,1,0,0,1-.89.42,1,1,0,0,1-.89-.42,2.38,2.38,0,0,1-.29-1.3V90.52a2.67,2.67,0,0,0-.29-1.42,1.12,1.12,0,0,0-1-.42,1.07,1.07,0,0,0-.94.44,2.34,2.34,0,0,0-.31,1.36v2.71a2.3,2.3,0,0,1-.29,1.3,1.15,1.15,0,0,1-1.78,0A2.29,2.29,0,0,1,368.1,93.19Z"/><path class="cls-1" d="M378.16,89h-.08a1.62,1.62,0,0,1-1-.27.92.92,0,0,1-.36-.76.88.88,0,0,1,.36-.75,2,2,0,0,1,1.07-.29v-1a2.23,2.23,0,0,1,.3-1.29,1,1,0,0,1,.9-.43,1,1,0,0,1,.88.43,2.24,2.24,0,0,1,.29,1.29v1h.21a1.89,1.89,0,0,1,1.1.27.91.91,0,0,1,.39.77.88.88,0,0,1-.38.77,2,2,0,0,1-1.13.26h-.19v4.18a2.35,2.35,0,0,1-.28,1.3,1.16,1.16,0,0,1-1.79,0,2.29,2.29,0,0,1-.3-1.3Z"/><path class="cls-1" d="M391.79,87.73a1.54,1.54,0,0,1,.43-.72,1,1,0,0,1,.69-.25,1,1,0,0,1,.8.32,1.12,1.12,0,0,1,.3.83,1.8,1.8,0,0,1,0,.31c0,.11-.07.27-.14.46L392,93.84a2.2,2.2,0,0,1-.53.9,1.25,1.25,0,0,1-.81.26,1.41,1.41,0,0,1-.91-.31,1.76,1.76,0,0,1-.52-.92l-1-3.76-.92,3.83a1.57,1.57,0,0,1-.49.86,1.26,1.26,0,0,1-.85.3,1.22,1.22,0,0,1-.86-.28,2.09,2.09,0,0,1-.57-1l-1.87-5.24a3.3,3.3,0,0,1-.11-.34c0-.1,0-.2,0-.29a1.17,1.17,0,0,1,.33-.84,1.1,1.1,0,0,1,.81-.33,1,1,0,0,1,.75.28,2,2,0,0,1,.46.87l1.25,4.31,1-4.32a1.45,1.45,0,0,1,.4-.79.94.94,0,0,1,.69-.28,1.08,1.08,0,0,1,.76.28,1.65,1.65,0,0,1,.44.82l1.07,4.23Z"/><path class="cls-1" d="M397.52,91.47a1.52,1.52,0,0,0,.55,1,2,2,0,0,0,1.24.37,3.44,3.44,0,0,0,1.47-.39,3.81,3.81,0,0,1,1-.37.94.94,0,0,1,.68.25.9.9,0,0,1,.26.66c0,.51-.35,1-1.06,1.37a5,5,0,0,1-2.49.61,3.91,3.91,0,0,1-2.91-1.19,4.1,4.1,0,0,1-1.17-3,4.26,4.26,0,0,1,1.13-3,3.76,3.76,0,0,1,2.83-1.2,3.68,3.68,0,0,1,2.74,1.13,3.79,3.79,0,0,1,1.1,2.77,1,1,0,0,1-.24.74,1.46,1.46,0,0,1-.93.22Zm0-1.56h3.1a1.51,1.51,0,0,0-.48-1,1.54,1.54,0,0,0-1.05-.39,1.47,1.47,0,0,0-1,.38A1.68,1.68,0,0,0,397.5,89.91Z"/><path class="cls-1" d="M404.73,93.19V88.44a2.24,2.24,0,0,1,.29-1.29,1,1,0,0,1,.89-.42,1.11,1.11,0,0,1,.63.18,1.66,1.66,0,0,1,.5.57,2.69,2.69,0,0,1,.77-.61,2,2,0,0,1,.83-.2,1.19,1.19,0,0,1,.85.35,1.14,1.14,0,0,1,.35.83c0,.47-.43.87-1.3,1.19a7,7,0,0,0-.71.28,1.28,1.28,0,0,0-.59.47,2.18,2.18,0,0,0-.14.93v2.47a2.29,2.29,0,0,1-.3,1.3,1.15,1.15,0,0,1-1.78,0A2.3,2.3,0,0,1,404.73,93.19Z"/><path class="cls-1" d="M413.56,96.38a2.23,2.23,0,0,1-.3,1.29,1.14,1.14,0,0,1-1.78,0,2.32,2.32,0,0,1-.29-1.29V88.43a2.28,2.28,0,0,1,.29-1.28,1,1,0,0,1,.89-.42,1.17,1.17,0,0,1,.64.18,1.55,1.55,0,0,1,.49.57,2.46,2.46,0,0,1,.86-.61,2.92,2.92,0,0,1,1.08-.2A3.23,3.23,0,0,1,418,87.86a4.3,4.3,0,0,1,1,3,4.45,4.45,0,0,1-1.07,3,3.24,3.24,0,0,1-2.55,1.23,2.68,2.68,0,0,1-1-.17,3,3,0,0,1-.86-.5Zm0-5.53a2.36,2.36,0,0,0,.42,1.46,1.35,1.35,0,0,0,1.12.56,1.31,1.31,0,0,0,1.11-.57,2.26,2.26,0,0,0,.43-1.45,2.21,2.21,0,0,0-.44-1.44,1.39,1.39,0,0,0-2.21,0A2.25,2.25,0,0,0,413.52,90.85Z"/><path class="cls-1" d="M422.94,91.47a1.51,1.51,0,0,0,.54,1,2,2,0,0,0,1.24.37,3.51,3.51,0,0,0,1.48-.39,3.68,3.68,0,0,1,1-.37.92.92,0,0,1,.68.25.86.86,0,0,1,.26.66c0,.51-.35,1-1.05,1.37a5,5,0,0,1-2.49.61,3.94,3.94,0,0,1-2.92-1.19,4.1,4.1,0,0,1-1.17-3,4.23,4.23,0,0,1,1.14-3,3.91,3.91,0,0,1,5.57-.07,3.83,3.83,0,0,1,1.1,2.77.92.92,0,0,1-.25.74,1.45,1.45,0,0,1-.92.22Zm0-1.56H426a1.42,1.42,0,0,0-.48-1,1.51,1.51,0,0,0-1-.39,1.44,1.44,0,0,0-1,.38A1.64,1.64,0,0,0,422.91,89.91Z"/><path class="cls-1" d="M430.15,93.19V88.44a2.33,2.33,0,0,1,.28-1.29,1,1,0,0,1,.89-.42,1.17,1.17,0,0,1,.64.18,1.64,1.64,0,0,1,.49.57,2.32,2.32,0,0,1,.88-.62,3.28,3.28,0,0,1,1.2-.19,2.74,2.74,0,0,1,2.12.8,3.28,3.28,0,0,1,.74,2.33v3.39a2.38,2.38,0,0,1-.29,1.3,1,1,0,0,1-.89.42,1,1,0,0,1-.9-.42,2.38,2.38,0,0,1-.29-1.3V90.52a2.57,2.57,0,0,0-.29-1.42,1.11,1.11,0,0,0-1-.42,1.06,1.06,0,0,0-.94.44,2.34,2.34,0,0,0-.31,1.36v2.71a2.38,2.38,0,0,1-.29,1.3,1,1,0,0,1-.9.42,1,1,0,0,1-.89-.42A2.39,2.39,0,0,1,430.15,93.19Z"/></g><g id="i.d"><path class="cls-1" d="M540.94,46.81a3.72,3.72,0,0,1,3.71-3.72,3.49,3.49,0,0,1,2.58,1.09,3.77,3.77,0,0,1,0,5.25,3.49,3.49,0,0,1-2.59,1.07,3.65,3.65,0,0,1-3.71-3.69Zm6.88,22.9a6.44,6.44,0,0,1-.77,3.53,2.65,2.65,0,0,1-2.37,1.14,2.72,2.72,0,0,1-2.41-1.15,6.26,6.26,0,0,1-.79-3.52V56.82a6.28,6.28,0,0,1,.78-3.5,2.72,2.72,0,0,1,2.42-1.14,2.65,2.65,0,0,1,2.37,1.14,6.37,6.37,0,0,1,.77,3.5Z"/><path class="cls-1" d="M553.17,70.7a3.5,3.5,0,0,1,1.09-2.6A3.59,3.59,0,0,1,556.88,67a3.52,3.52,0,0,1,2.58,1.08,3.72,3.72,0,0,1,0,5.21,3.49,3.49,0,0,1-2.59,1.07,3.65,3.65,0,0,1-3.71-3.68Z"/><path class="cls-1" d="M579.45,72.31a6.53,6.53,0,0,1-2.31,1.63,7.36,7.36,0,0,1-2.88.56,9,9,0,0,1-7-3.32,11.86,11.86,0,0,1-2.92-8.08,11.7,11.7,0,0,1,2.88-8,9,9,0,0,1,7-3.26,7.82,7.82,0,0,1,2.71.45,7.59,7.59,0,0,1,2.32,1.37V47.78a6.4,6.4,0,0,1,.78-3.54,2.72,2.72,0,0,1,2.42-1.15,2.63,2.63,0,0,1,2.36,1.16,6.41,6.41,0,0,1,.78,3.53V69.71a6.44,6.44,0,0,1-.77,3.53,2.65,2.65,0,0,1-2.37,1.14,3,3,0,0,1-1.72-.53A4.32,4.32,0,0,1,579.45,72.31ZM571,63.17A6,6,0,0,0,572.16,67a3.73,3.73,0,0,0,3,1.49,3.68,3.68,0,0,0,3-1.48,6,6,0,0,0,1.17-3.87,6.27,6.27,0,0,0-1.16-3.93,3.63,3.63,0,0,0-3-1.5,3.71,3.71,0,0,0-3,1.51A6.2,6.2,0,0,0,571,63.17Z"/></g><g id="vereniging"><path class="cls-1" d="M328.65,54.89a10.34,10.34,0,0,1-.32-1.26,1.73,1.73,0,0,1,.48-1.27,1.61,1.61,0,0,1,1.18-.48,1.91,1.91,0,0,1,1.92,1.51l5,15.21L342,53.38a1.59,1.59,0,0,1,1.67-1.26,1.82,1.82,0,0,1,1.22.45,1.47,1.47,0,0,1,.53,1.21,4.1,4.1,0,0,1-.17.86L338.8,72.82a3.07,3.07,0,0,1-.74,1.13,1.66,1.66,0,0,1-1.17.37,1.89,1.89,0,0,1-1.82-1.43Z"/><path class="cls-1" d="M348.43,63.08a13.83,13.83,0,0,1,1.27-5.27,10.07,10.07,0,0,1,3.27-4,8.74,8.74,0,0,1,9.95-.07,10,10,0,0,1,3.35,4,12.21,12.21,0,0,1,1.17,5.23c0,1.16-.66,1.75-2,1.75H352a7.1,7.1,0,0,0,.91,3.59,5.64,5.64,0,0,0,2.37,2.2,7.22,7.22,0,0,0,3.28.73,8.89,8.89,0,0,0,5.8-2.21,2.73,2.73,0,0,1,1.32-.65,1.1,1.1,0,0,1,.93.43,1.66,1.66,0,0,1,.33,1.06,2,2,0,0,1-.52,1.29,10.08,10.08,0,0,1-3.37,2.23,11.52,11.52,0,0,1-4.7,1,9.84,9.84,0,0,1-4.57-1,8.68,8.68,0,0,1-3.13-2.63,11.36,11.36,0,0,1-1.73-3.55,15,15,0,0,1-.57-3.86l.06-.14A.18.18,0,0,0,348.43,63.08ZM352,61.94h11.84a7.31,7.31,0,0,0-1.58-4.78,5.33,5.33,0,0,0-4.16-1.87A5.65,5.65,0,0,0,353.77,57,7.27,7.27,0,0,0,352,61.94Z"/><path class="cls-1" d="M372.74,54.13a1.76,1.76,0,0,1,.51-1.33,1.71,1.71,0,0,1,1.24-.5,1.8,1.8,0,0,1,1.26.48,1.74,1.74,0,0,1,.52,1.34v1.81h.08a9.68,9.68,0,0,1,2.09-2.55,4.33,4.33,0,0,1,2.71-1.2,2.11,2.11,0,0,1,1.41.53,1.64,1.64,0,0,1,.61,1.31,1.52,1.52,0,0,1-.63,1.34,6,6,0,0,1-1.83.74,8.12,8.12,0,0,0-1.55.51q-2.9,1.57-2.89,5.4V72.49a1.79,1.79,0,0,1-.49,1.35,1.67,1.67,0,0,1-1.22.48,1.8,1.8,0,0,1-1.29-.51,1.84,1.84,0,0,1-.53-1.4Z"/><path class="cls-1" d="M386,63.08a14.21,14.21,0,0,1,1.27-5.27,10.16,10.16,0,0,1,3.27-4,8.72,8.72,0,0,1,9.94-.07,10.05,10.05,0,0,1,3.36,4A12.21,12.21,0,0,1,405,62.94c0,1.16-.66,1.75-2,1.75H389.54a7,7,0,0,0,.92,3.59,5.62,5.62,0,0,0,2.36,2.2,7.25,7.25,0,0,0,3.28.73A8.84,8.84,0,0,0,401.89,69a2.77,2.77,0,0,1,1.34-.65,1.08,1.08,0,0,1,.92.43,1.66,1.66,0,0,1,.33,1.06,2,2,0,0,1-.52,1.29,10,10,0,0,1-3.37,2.23,11.54,11.54,0,0,1-4.69,1,9.85,9.85,0,0,1-4.58-1,8.68,8.68,0,0,1-3.13-2.63,11.36,11.36,0,0,1-1.73-3.55,15,15,0,0,1-.57-3.86,1.14,1.14,0,0,0,.06-.14A.18.18,0,0,0,386,63.08Zm3.58-1.14h11.84a7.41,7.41,0,0,0-1.57-4.78,5.36,5.36,0,0,0-4.17-1.87A5.67,5.67,0,0,0,391.3,57,7.27,7.27,0,0,0,389.54,61.94Z"/><path class="cls-1" d="M410.27,54.09a1.9,1.9,0,0,1,.51-1.4,1.68,1.68,0,0,1,1.24-.51,1.74,1.74,0,0,1,1.26.5,1.87,1.87,0,0,1,.52,1.41v.85l.08.09a6.84,6.84,0,0,1,2.6-2.11,7.62,7.62,0,0,1,3.3-.74,8,8,0,0,1,3.76.91,6.85,6.85,0,0,1,2.79,2.78,9.22,9.22,0,0,1,1.05,4.57V72.51a1.63,1.63,0,0,1-.51,1.29,1.84,1.84,0,0,1-1.27.46,1.75,1.75,0,0,1-1.23-.47,1.64,1.64,0,0,1-.52-1.28v-12a4.88,4.88,0,0,0-1.48-3.79,5,5,0,0,0-3.52-1.37,5.34,5.34,0,0,0-2.48.6,4.54,4.54,0,0,0-1.86,1.78,5.53,5.53,0,0,0-.71,2.85V72.47a1.93,1.93,0,0,1-.49,1.42,1.67,1.67,0,0,1-1.22.49,1.78,1.78,0,0,1-1.28-.53,1.87,1.87,0,0,1-.54-1.38Z"/><path class="cls-1" d="M435.57,49.43a2.11,2.11,0,0,1-1.57-.69,2.24,2.24,0,0,1-.67-1.59,2.19,2.19,0,0,1,.66-1.58,2.1,2.1,0,0,1,1.58-.69,2.07,2.07,0,0,1,1.54.68,2.27,2.27,0,0,1,0,3.18A2.08,2.08,0,0,1,435.57,49.43Zm-1.75,4.66a1.86,1.86,0,0,1,.52-1.4,1.66,1.66,0,0,1,1.23-.51A1.73,1.73,0,0,1,437.35,54V72.49a1.73,1.73,0,0,1-.52,1.34,1.77,1.77,0,0,1-1.26.49,1.74,1.74,0,0,1-1.23-.5,1.77,1.77,0,0,1-.52-1.33Z"/><path class="cls-1" d="M458,71.21h-.08a5.76,5.76,0,0,1-2.27,2.27,7,7,0,0,1-3.49.84,8.36,8.36,0,0,1-4.77-1.53,9.93,9.93,0,0,1-3.27-4.06,13.93,13.93,0,0,1,.07-11.29,9.24,9.24,0,0,1,3.34-3.87,9,9,0,0,1,5-1.39c2.65.07,4.45,1.07,5.39,3H458V54a1.62,1.62,0,0,1,.51-1.28,1.8,1.8,0,0,1,1.24-.46,1.87,1.87,0,0,1,1.3.47,1.71,1.71,0,0,1,.52,1.36V72.57a12.13,12.13,0,0,1-1.12,5.27,8.44,8.44,0,0,1-3.28,3.66A9.82,9.82,0,0,1,452,82.87,12.94,12.94,0,0,1,445.26,81a3.25,3.25,0,0,1-1.74-2.24,1.69,1.69,0,0,1,1.42-1.49,5.57,5.57,0,0,1,2.39,1,9.47,9.47,0,0,0,2.23,1.11,7.58,7.58,0,0,0,2.59.47,4.88,4.88,0,0,0,4.41-2.3A9.93,9.93,0,0,0,458,72c0-.09,0-.22,0-.4A3.34,3.34,0,0,1,458,71.21Zm-11.45-7.94a12.43,12.43,0,0,0,.7,4,6.33,6.33,0,0,0,1.92,2.8,5.11,5.11,0,0,0,3.08,1.11,5.48,5.48,0,0,0,4.44-2.07,8.6,8.6,0,0,0,1.71-5.63,12,12,0,0,0-.65-3.93,7,7,0,0,0-2.07-3.08,5.18,5.18,0,0,0-3.51-1.21A4.82,4.82,0,0,0,449,56.51a6.82,6.82,0,0,0-1.88,3A12,12,0,0,0,446.53,63.27Z"/><path class="cls-1" d="M470.09,49.43a2.11,2.11,0,0,1-1.57-.69,2.23,2.23,0,0,1-.66-1.59,2.18,2.18,0,0,1,.65-1.58,2.12,2.12,0,0,1,3.12,0,2.23,2.23,0,0,1,.65,1.59,2.2,2.2,0,0,1-.66,1.59A2.06,2.06,0,0,1,470.09,49.43Zm-1.75,4.66a1.9,1.9,0,0,1,.51-1.4,1.68,1.68,0,0,1,1.24-.51,1.77,1.77,0,0,1,1.26.49,1.73,1.73,0,0,1,.52,1.35V72.49a1.73,1.73,0,0,1-.52,1.34,1.8,1.8,0,0,1-1.26.49,1.74,1.74,0,0,1-1.75-1.83Z"/><path class="cls-1" d="M478.42,54.09a1.93,1.93,0,0,1,.5-1.4,1.71,1.71,0,0,1,1.24-.51,1.78,1.78,0,0,1,1.27.5,1.91,1.91,0,0,1,.52,1.41v.85L482,55a6.89,6.89,0,0,1,2.59-2.11,7.65,7.65,0,0,1,3.3-.74,7.94,7.94,0,0,1,3.76.91,6.93,6.93,0,0,1,2.8,2.78,9.33,9.33,0,0,1,1,4.57V72.51A1.64,1.64,0,0,1,495,73.8a1.8,1.8,0,0,1-1.26.46,1.77,1.77,0,0,1-1.24-.47,1.64,1.64,0,0,1-.51-1.28v-12a4.89,4.89,0,0,0-1.49-3.79A5,5,0,0,0,487,55.35a5.24,5.24,0,0,0-2.47.6,4.63,4.63,0,0,0-1.87,1.78,5.53,5.53,0,0,0-.7,2.85V72.47a2,2,0,0,1-.49,1.42,1.67,1.67,0,0,1-1.22.49,1.82,1.82,0,0,1-1.29-.53,1.9,1.9,0,0,1-.53-1.38Z"/><path class="cls-1" d="M516.05,71.21H516a5.76,5.76,0,0,1-2.27,2.27,7,7,0,0,1-3.49.84,8.36,8.36,0,0,1-4.77-1.53,9.93,9.93,0,0,1-3.27-4.06,13.93,13.93,0,0,1,.07-11.29,9.17,9.17,0,0,1,3.34-3.87,9,9,0,0,1,5-1.39c2.65.07,4.44,1.07,5.39,3h.08V54a1.62,1.62,0,0,1,.51-1.28,1.77,1.77,0,0,1,1.23-.46,1.88,1.88,0,0,1,1.31.47,1.75,1.75,0,0,1,.52,1.36V72.57a12,12,0,0,1-1.12,5.27,8.44,8.44,0,0,1-3.28,3.66,9.82,9.82,0,0,1-5.16,1.37A13,13,0,0,1,503.33,81a3.3,3.3,0,0,1-1.75-2.24A1.71,1.71,0,0,1,503,77.22a5.57,5.57,0,0,1,2.39,1,9.58,9.58,0,0,0,2.22,1.11,7.68,7.68,0,0,0,2.6.47,4.87,4.87,0,0,0,4.41-2.3A9.93,9.93,0,0,0,516.09,72c0-.09,0-.22,0-.4A3.34,3.34,0,0,1,516.05,71.21ZM504.6,63.27a12.17,12.17,0,0,0,.7,4,6.33,6.33,0,0,0,1.92,2.8,5.09,5.09,0,0,0,3.08,1.11,5.49,5.49,0,0,0,4.44-2.07,8.6,8.6,0,0,0,1.72-5.63,12,12,0,0,0-.66-3.93,7,7,0,0,0-2.07-3.08,5.18,5.18,0,0,0-3.51-1.21,4.86,4.86,0,0,0-3.15,1.22,6.81,6.81,0,0,0-1.87,3A12,12,0,0,0,504.6,63.27Z"/></g><g id="Studie"><path class="cls-1" d="M218.57,65.15a8.86,8.86,0,0,1-3.09,7,12,12,0,0,1-8.13,2.69,14.45,14.45,0,0,1-6.62-1.39c-1.83-.93-2.74-2-2.74-3.26a2.79,2.79,0,0,1,.89-2.14,3.38,3.38,0,0,1,2.38-.81,13.49,13.49,0,0,1,3.08.75,13.45,13.45,0,0,0,4,.74,3.31,3.31,0,0,0,2.33-.85,2.75,2.75,0,0,0,.94-2.13,2.8,2.8,0,0,0-1-2.21,12.58,12.58,0,0,0-4.12-1.78c-3-.9-5.14-2-6.34-3.2a6.87,6.87,0,0,1-1.8-5A8.33,8.33,0,0,1,201.26,47a11,11,0,0,1,7.57-2.56,11.72,11.72,0,0,1,5.66,1.22c1.48.81,2.23,1.83,2.23,3a2.71,2.71,0,0,1-.79,2.05,3.06,3.06,0,0,1-2.18.74,10.43,10.43,0,0,1-2.53-.51,10.93,10.93,0,0,0-2.65-.51,3.66,3.66,0,0,0-2.34.69,2.15,2.15,0,0,0-.88,1.79q0,1.77,3.88,3l1.4.43a14,14,0,0,1,6,3.5A7.56,7.56,0,0,1,218.57,65.15Z"/><path class="cls-1" d="M224.71,58.34h-.24a4.18,4.18,0,0,1-2.64-.74,2.41,2.41,0,0,1-1-2,2.36,2.36,0,0,1,1-2,5.28,5.28,0,0,1,2.88-.81V50a6.24,6.24,0,0,1,.79-3.51,2.75,2.75,0,0,1,2.43-1.15,2.69,2.69,0,0,1,2.39,1.15,6.24,6.24,0,0,1,.79,3.51v2.82h.56a5.13,5.13,0,0,1,3,.75,2.4,2.4,0,0,1,1.07,2.07,2.32,2.32,0,0,1-1,2,5.54,5.54,0,0,1-3.06.69h-.52V69.71a6.34,6.34,0,0,1-.78,3.53,2.68,2.68,0,0,1-2.4,1.14,2.75,2.75,0,0,1-2.43-1.16,6.22,6.22,0,0,1-.79-3.51Z"/><path class="cls-1" d="M238.7,65.38V56.83a6.22,6.22,0,0,1,.79-3.51,2.76,2.76,0,0,1,2.43-1.14,2.7,2.7,0,0,1,2.39,1.14,6.22,6.22,0,0,1,.79,3.51v7.23a6.44,6.44,0,0,0,.77,3.63,3.53,3.53,0,0,0,5,0,6.44,6.44,0,0,0,.77-3.63V56.83a6.31,6.31,0,0,1,.78-3.51,2.73,2.73,0,0,1,2.42-1.14,2.67,2.67,0,0,1,2.37,1.13,6.31,6.31,0,0,1,.77,3.52v8.55c0,3-.82,5.35-2.48,7s-4,2.41-7.17,2.41-5.53-.8-7.19-2.41S238.7,68.41,238.7,65.38Z"/><path class="cls-1" d="M278.09,72.31a6.53,6.53,0,0,1-2.31,1.63,7.32,7.32,0,0,1-2.88.56A9,9,0,0,1,266,71.18,11.82,11.82,0,0,1,263,63.1a11.7,11.7,0,0,1,2.88-8,9,9,0,0,1,7-3.26,7.88,7.88,0,0,1,2.72.45,7.66,7.66,0,0,1,2.31,1.37V47.78a6.4,6.4,0,0,1,.78-3.54,2.72,2.72,0,0,1,2.42-1.15,2.67,2.67,0,0,1,2.37,1.16,6.5,6.5,0,0,1,.78,3.53V69.71a6.44,6.44,0,0,1-.77,3.53,2.68,2.68,0,0,1-2.38,1.14,3,3,0,0,1-1.72-.53A4.32,4.32,0,0,1,278.09,72.31Zm-8.47-9.14A6,6,0,0,0,270.8,67a3.72,3.72,0,0,0,3,1.49,3.68,3.68,0,0,0,3-1.48A6,6,0,0,0,278,63.17a6.21,6.21,0,0,0-1.16-3.93,3.63,3.63,0,0,0-3-1.5,3.72,3.72,0,0,0-3,1.51A6.2,6.2,0,0,0,269.62,63.17Z"/><path class="cls-1" d="M290.28,46.81A3.72,3.72,0,0,1,294,43.09a3.46,3.46,0,0,1,2.57,1.09,3.76,3.76,0,0,1,0,5.25A3.5,3.5,0,0,1,294,50.5a3.65,3.65,0,0,1-3.71-3.69Zm6.88,22.9a6.44,6.44,0,0,1-.77,3.53A2.68,2.68,0,0,1,294,74.38a2.74,2.74,0,0,1-2.42-1.15,6.35,6.35,0,0,1-.78-3.52V56.82a6.28,6.28,0,0,1,.77-3.5A2.75,2.75,0,0,1,294,52.18a2.68,2.68,0,0,1,2.37,1.14,6.37,6.37,0,0,1,.77,3.5Z"/><path class="cls-1" d="M309.05,65a4.15,4.15,0,0,0,1.48,2.87,5.16,5.16,0,0,0,3.34,1,9.44,9.44,0,0,0,4-1,10.14,10.14,0,0,1,2.72-1,2.51,2.51,0,0,1,1.83.69,2.37,2.37,0,0,1,.72,1.78c0,1.38-1,2.61-2.88,3.72a13.29,13.29,0,0,1-6.75,1.65,10.62,10.62,0,0,1-7.91-3.24,11.11,11.11,0,0,1-3.16-8.11,11.42,11.42,0,0,1,3.08-8.17,10.08,10.08,0,0,1,7.68-3.28A10,10,0,0,1,320.64,55a10.37,10.37,0,0,1,3,7.5,2.56,2.56,0,0,1-.66,2,3.89,3.89,0,0,1-2.51.57ZM309,60.86h8.43a3.85,3.85,0,0,0-1.3-2.69,4.3,4.3,0,0,0-5.63-.06A4.69,4.69,0,0,0,309,60.86Z"/></g></g></svg>