<?xml version="1.0" encoding="utf-8"?>
<!-- Generator: Adobe Illustrator 21.0.2, SVG Export Plug-In . SVG Version: 6.00 Build 0)  -->
<svg version="1.1" id="Laag_1" xmlns="http://www.w3.org/2000/svg" xmlns:xlink="http://www.w3.org/1999/xlink" x="0px" y="0px"
	 viewBox="0 0 2880 141.8" style="enable-background:new 0 0 2880 141.8;" xml:space="preserve">
<style type="text/css">
	.st0{fill:#FFFFFF;}
</style>
<title>bies</title>
<path class="st0" d="M166.4,106.2l2.6-59.9l-48.3-17.6l-49.3,7.7c-5.8,0.8-11.8,3.9-11.5,10.4l3.9,57.4l40.1,37.6l56.4-25
	C163.8,114.8,166.1,113.4,166.4,106.2z M150.3,62.5c0.1-3,0.2-6.1,0.2-9.1c2.5-0.7,4.9-1.4,7.3-2.1c2.4-0.7,4.7-1.4,7.1-2.1
	c-0.1,2.9-0.2,5.9-0.3,8.8c-0.1,2.9-0.2,5.8-0.3,8.7c-2.3,0.8-4.7,1.6-7,2.4c-2.4,0.8-4.8,1.6-7.3,2.4
	C150.1,68.5,150.2,65.5,150.3,62.5z M123.4,120.4c0,3-0.1,6-0.1,9c-2.7,1.2-5.5,2.5-8.3,3.7c-2.8,1.3-5.7,2.6-8.6,3.9
	c0-3.1,0-6.2,0-9.3c0-3.1,0-6.3,0-9.4c2.9-1.2,5.9-2.4,8.7-3.5c2.8-1.2,5.6-2.3,8.4-3.4C123.5,114.3,123.4,117.3,123.4,120.4
	L123.4,120.4z M123.7,95.9c0,3.1-0.1,6.2-0.1,9.2c-2.8,1.1-5.6,2.2-8.4,3.3c-2.9,1.1-5.8,2.3-8.8,3.4c0-3.2,0-6.4,0-9.6
	c0-3.2,0-6.4,0-9.7c3-1,5.9-2.1,8.8-3.1c2.9-1,5.7-2,8.5-3C123.7,89.7,123.7,92.8,123.7,95.9L123.7,95.9z M123.9,73.9
	c-0.1,3.6-2.4,6.9-5.7,8.2c-3.9,1.3-7.8,2.6-11.8,4c0-4.4,0-8.8,0-13.2c0-3.7,2.7-7.5,6-8.4c3.9-1.1,7.8-2.3,11.6-3.4
	C124,65.4,123.9,69.7,123.9,73.9L123.9,73.9z M144.2,111.5c-0.1,2.9-0.1,5.7-0.2,8.6c-2.5,1.1-5,2.2-7.5,3.4
	c-2.6,1.2-5.2,2.3-7.8,3.5c0-2.9,0.1-5.9,0.1-8.9c0-3,0.1-6,0.1-9c2.7-1.1,5.3-2.2,7.9-3.2c2.6-1,5.1-2.1,7.6-3.1
	C144.3,105.7,144.3,108.6,144.2,111.5L144.2,111.5z M144.7,91c-0.1,3.3-2.4,6.8-5.2,7.9c-3.4,1.3-6.9,2.7-10.5,4.1
	c0.1-4.1,0.1-8.1,0.2-12.2c0-3.4,2.5-7,5.4-8c3.5-1.2,6.9-2.4,10.3-3.6C144.8,83.1,144.8,87.1,144.7,91L144.7,91z M163,106.1
	c-0.1,3-2.2,6.4-4.7,7.5c-3.1,1.4-6.2,2.8-9.4,4.2c0.1-3.8,0.2-7.6,0.3-11.4c0.1-3.2,2.3-6.6,4.9-7.7c3.1-1.3,6.2-2.5,9.3-3.8
	C163.3,98.8,163.2,102.4,163,106.1L163,106.1z M156.6,92.2c-2.4,0.9-4.8,1.9-7.2,2.8c0.1-2.9,0.1-5.8,0.2-8.7
	c0.1-2.9,0.1-5.9,0.2-8.8c2.4-0.9,4.9-1.7,7.2-2.5c2.4-0.8,4.7-1.6,7-2.4c-0.1,2.9-0.2,5.7-0.3,8.6c-0.1,2.8-0.2,5.7-0.3,8.5
	C161.3,90.3,159,91.2,156.6,92.2z"/>
<polygon class="st0" points="0,112.5 0,126.2 82.8,126.2 68.2,112.5 "/>
<path class="st0" d="M2880,112.5H168.4c0,0.1,0,0.1-0.1,0.2c-0.2,0.5-0.4,1-0.6,1.4c0,0,0,0,0,0c-1.4,2.8-3.6,4.1-5.8,5.4l-0.3,0.2
	l-12.5,5.5L2880,125V112.5z"/>
<path class="st0" d="M202.4,99.5c0.4,0,0.7-0.1,0.9-0.4c0.2-0.4,0.3-0.9,0.3-1.3v-2.7h1.7c0.5,0,0.9-0.1,1.3-0.3
	c0.3-0.2,0.5-0.5,0.4-0.9c0-0.3-0.1-0.7-0.4-0.9c-0.4-0.2-0.9-0.3-1.3-0.3h-1.7v-1.9h2c0.5,0,0.9-0.1,1.3-0.3
	c0.3-0.2,0.5-0.5,0.4-0.8c0-0.3-0.1-0.7-0.4-0.9c-0.4-0.2-0.9-0.3-1.3-0.3h-2.8c-0.8-0.2-1.5,0.3-1.7,1.1c-0.1,0.2-0.1,0.5,0,0.7
	v7.5c0,0.5,0.1,0.9,0.3,1.3C201.7,99.4,202.1,99.5,202.4,99.5z"/>
<path class="st0" d="M214.6,91.4c-0.2,0.1-0.4,0.3-0.5,0.6c-0.2-0.3-0.5-0.5-0.8-0.6c-0.3-0.1-0.7-0.2-1.1-0.2c-1,0-2,0.4-2.6,1.2
	c-0.7,0.8-1.1,1.9-1.1,3c0,1.1,0.3,2.2,1,3c0.6,0.8,1.6,1.2,2.6,1.2c0.4,0,0.8-0.1,1.1-0.2c0.3-0.2,0.6-0.4,0.9-0.7
	c0.1,0.2,0.3,0.5,0.5,0.6c0.2,0.1,0.4,0.2,0.7,0.2c0.4,0,0.7-0.1,0.9-0.4c0.2-0.4,0.3-0.9,0.3-1.3v-4.8c0-0.5-0.1-0.9-0.3-1.3
	c-0.2-0.3-0.5-0.4-0.9-0.4C215,91.2,214.8,91.2,214.6,91.4z M213.6,96.7c-0.5,0.6-1.3,0.7-2,0.3c-0.1-0.1-0.2-0.2-0.3-0.2
	c-0.3-0.4-0.5-0.9-0.4-1.4c0-0.5,0.1-1,0.4-1.4c0.5-0.6,1.4-0.7,2-0.2c0.1,0.1,0.2,0.1,0.2,0.2c0.3,0.4,0.5,0.9,0.4,1.4
	C214.1,95.8,213.9,96.3,213.6,96.7z"/>
<path class="st0" d="M218.4,95.3c0,1.1,0.3,2.2,1.1,3.1c0.7,0.8,1.8,1.2,2.9,1.2c0.7,0,1.4-0.1,2-0.5c0.5-0.2,0.8-0.6,0.8-1.1
	c0-0.3-0.1-0.5-0.3-0.7c-0.2-0.2-0.4-0.3-0.7-0.3c-0.2,0-0.5,0.1-0.7,0.2c-0.3,0.1-0.6,0.2-0.9,0.2c-0.5,0-1-0.2-1.3-0.5
	c-0.3-0.4-0.5-0.9-0.5-1.5c0-0.5,0.1-1,0.5-1.5c0.3-0.4,0.7-0.6,1.2-0.6c0.3,0,0.6,0.1,0.9,0.2c0.2,0.1,0.5,0.2,0.8,0.2
	c0.3,0,0.5-0.1,0.7-0.3c0.2-0.2,0.3-0.5,0.3-0.7c0-0.5-0.3-0.9-0.7-1.1c-0.6-0.3-1.3-0.5-1.9-0.4c-1.1,0-2.2,0.4-3,1.2
	C218.8,93.1,218.4,94.2,218.4,95.3z"/>
<path class="st0" d="M229,91.6c-0.2-0.3-0.5-0.4-0.9-0.4c-0.4,0-0.7,0.1-0.9,0.4c-0.2,0.4-0.3,0.9-0.3,1.3v3.2
	c-0.1,1,0.3,1.9,0.9,2.6c1.6,1.2,3.8,1.2,5.4,0c0.7-0.7,1-1.6,0.9-2.6v-3.2c0-0.5-0.1-0.9-0.3-1.3c-0.2-0.3-0.5-0.4-0.9-0.4
	c-0.4,0-0.7,0.1-0.9,0.4c-0.2,0.4-0.3,0.9-0.3,1.3v2.7c0,0.5-0.1,0.9-0.3,1.4c-0.5,0.5-1.4,0.5-1.9,0c0,0,0,0,0,0
	c-0.2-0.4-0.3-0.9-0.3-1.4v-2.7C229.3,92.4,229.2,92,229,91.6z"/>
<path class="st0" d="M236.9,88.2c-0.2,0.4-0.3,0.9-0.3,1.3v8.2c0,0.5,0.1,0.9,0.3,1.3c0.2,0.3,0.5,0.5,0.9,0.4
	c0.3,0,0.7-0.1,0.9-0.4c0.2-0.4,0.3-0.9,0.3-1.3v-8.2c0-0.5-0.1-0.9-0.3-1.3c-0.2-0.3-0.5-0.5-0.9-0.4
	C237.4,87.7,237.1,87.9,236.9,88.2z"/>
<path class="st0" d="M241.9,93.5L241.9,93.5l0.1,4.2c0,0.5,0.1,0.9,0.3,1.3c0.2,0.3,0.6,0.5,0.9,0.4c0.4,0,0.7-0.1,0.9-0.4
	c0.2-0.4,0.3-0.9,0.3-1.3v-4.2h0.2c0.4,0,0.8-0.1,1.1-0.3c0.3-0.2,0.4-0.5,0.4-0.8c0-0.3-0.1-0.6-0.4-0.8c-0.3-0.2-0.7-0.3-1.1-0.3
	h-0.2v-1.1c0-0.5-0.1-0.9-0.3-1.3c-0.2-0.3-0.5-0.5-0.9-0.4c-0.4,0-0.7,0.1-0.9,0.4c-0.2,0.4-0.3,0.9-0.3,1.3v1.1
	c-0.4,0-0.8,0.1-1.1,0.3c-0.4,0.3-0.5,1-0.1,1.4c0,0.1,0.1,0.1,0.1,0.1C241.2,93.4,241.5,93.5,241.9,93.5z"/>
<path class="st0" d="M247.9,101.2c0,0.1-0.1,0.3-0.1,0.4c0,0.3,0.1,0.6,0.3,0.8c0.2,0.2,0.6,0.3,0.9,0.3c0.2,0,0.4-0.1,0.6-0.2
	c0.2-0.2,0.4-0.5,0.5-0.8l3.7-8.7c0.1-0.1,0.1-0.3,0.1-0.5c0-0.1,0-0.3,0.1-0.4c0-0.3-0.1-0.6-0.3-0.8c-0.2-0.2-0.5-0.3-0.9-0.3
	c-0.2,0-0.5,0.1-0.6,0.2c-0.2,0.2-0.4,0.5-0.4,0.7l-1.5,3.8l-1.4-3.6c-0.1-0.3-0.3-0.7-0.5-0.9c-0.2-0.2-0.4-0.3-0.7-0.2
	c-0.3,0-0.6,0.1-0.8,0.3c-0.2,0.2-0.3,0.5-0.3,0.8c0,0.1,0,0.3,0,0.4c0,0.1,0,0.2,0.1,0.3l2.4,5.6l-1,2.1
	C248,100.9,248,101.1,247.9,101.2z"/>
<path class="st0" d="M262.6,99.5c0.4,0,0.7-0.1,0.9-0.4c0.2-0.4,0.3-0.9,0.3-1.3v-7.6c0-0.5-0.1-0.9-0.3-1.3
	c-0.4-0.5-1.2-0.6-1.7-0.2c-0.1,0-0.1,0.1-0.2,0.2c-0.2,0.4-0.3,0.9-0.3,1.3v7.6c0,0.5,0.1,0.9,0.3,1.3
	C261.8,99.4,262.2,99.5,262.6,99.5z"/>
<path class="st0" d="M271.7,99c0.4,0.5,1.1,0.6,1.6,0.2c0.1-0.1,0.1-0.1,0.2-0.2c0.2-0.4,0.3-0.9,0.3-1.3v-3.4
	c0.1-0.9-0.2-1.7-0.8-2.4c-0.6-0.6-1.4-0.9-2.2-0.8c-0.4,0-0.8,0.1-1.2,0.2c-0.3,0.1-0.6,0.3-0.9,0.6c-0.1-0.2-0.3-0.4-0.5-0.6
	c-0.2-0.1-0.4-0.2-0.6-0.2c-0.4,0-0.7,0.1-0.9,0.4c-0.2,0.4-0.3,0.9-0.3,1.3v4.8c0,0.5,0.1,0.9,0.3,1.3c0.4,0.5,1.1,0.6,1.6,0.2
	c0.1-0.1,0.1-0.1,0.2-0.2c0.2-0.4,0.3-0.9,0.3-1.3V95c0-0.5,0.1-1,0.3-1.4c0.2-0.3,0.6-0.5,1-0.4c0.4,0,0.8,0.1,1,0.4
	c0.2,0.4,0.3,0.9,0.3,1.4v2.7C271.4,98.2,271.5,98.6,271.7,99z"/>
<path class="st0" d="M281.6,88.2c-0.2,0.4-0.3,0.9-0.3,1.3v2.2c-0.3-0.2-0.5-0.4-0.9-0.5c-0.3-0.1-0.7-0.2-1-0.2c-1,0-2,0.4-2.6,1.2
	c-0.7,0.8-1.1,1.9-1.1,3c0,1.1,0.4,2.2,1.1,3c0.6,0.8,1.6,1.2,2.6,1.2c0.4,0,0.7-0.1,1.1-0.2c0.3-0.1,0.6-0.3,0.9-0.6
	c0.1,0.2,0.3,0.4,0.5,0.6c0.2,0.1,0.4,0.2,0.6,0.2c0.4,0,0.7-0.1,0.9-0.4c0.2-0.4,0.3-0.9,0.3-1.3v-8.2c0-0.5-0.1-0.9-0.3-1.3
	c-0.2-0.3-0.5-0.5-0.9-0.4C282.1,87.7,281.8,87.9,281.6,88.2z M280.9,96.7c-0.5,0.6-1.4,0.7-2,0.3c-0.1-0.1-0.2-0.2-0.3-0.3
	c-0.3-0.4-0.5-0.9-0.4-1.4c0-0.5,0.1-1,0.4-1.5c0.5-0.6,1.4-0.7,2-0.3c0.1,0.1,0.2,0.2,0.3,0.3c0.3,0.4,0.5,0.9,0.4,1.5
	C281.3,95.8,281.2,96.3,280.9,96.7z"/>
<path class="st0" d="M286.4,91.6c-0.2,0.4-0.3,0.9-0.3,1.3v3.2c-0.1,1,0.3,1.9,0.9,2.6c1.6,1.2,3.8,1.2,5.4,0c0.7-0.7,1-1.6,0.9-2.6
	v-3.2c0-0.5-0.1-0.9-0.3-1.3c-0.2-0.3-0.5-0.4-0.9-0.4c-0.4,0-0.7,0.1-0.9,0.4c-0.2,0.4-0.3,0.9-0.3,1.3v2.7c0,0.5-0.1,0.9-0.3,1.4
	c-0.5,0.5-1.4,0.5-1.9,0c0,0,0,0,0,0c-0.2-0.4-0.3-0.9-0.3-1.4v-2.7c0-0.5-0.1-0.9-0.3-1.3c-0.2-0.3-0.5-0.4-0.9-0.4
	C286.9,91.1,286.6,91.3,286.4,91.6z"/>
<path class="st0" d="M298.2,97.4c-0.4,0-0.8-0.2-1.1-0.3c-0.3-0.2-0.7-0.3-1.1-0.3c-0.3,0-0.5,0.1-0.6,0.3c-0.2,0.2-0.3,0.5-0.3,0.8
	c0,0.5,0.3,1,0.8,1.3c0.6,0.4,1.4,0.5,2.1,0.5c0.8,0,1.7-0.2,2.3-0.8c0.6-0.5,0.9-1.2,0.9-2c0-0.5-0.1-0.9-0.5-1.3
	c-0.4-0.4-1-0.8-1.5-1c-0.2-0.1-0.4-0.2-0.7-0.3c-0.6-0.2-1-0.5-1-0.7c0-0.1,0.1-0.2,0.1-0.3c0.1-0.1,0.3-0.1,0.4-0.1
	c0.3,0,0.7,0.1,1,0.3c0.3,0.1,0.6,0.2,0.9,0.3c0.3,0,0.5-0.1,0.7-0.3c0.2-0.2,0.3-0.4,0.3-0.7c0-0.5-0.4-1-0.8-1.2
	c-0.6-0.3-1.3-0.5-2-0.5c-0.8,0-1.6,0.2-2.2,0.7c-0.5,0.5-0.9,1.1-0.9,1.9c0,0.5,0.2,1,0.5,1.4c0.5,0.5,1.1,0.9,1.8,1.1
	c0,0,0.1,0,0.1,0.1c0.8,0.3,1.2,0.6,1.2,0.8c0,0.1-0.1,0.3-0.2,0.3C298.5,97.4,298.3,97.4,298.2,97.4z"/>
<path class="st0" d="M303.9,99.1c0.2,0.3,0.6,0.5,0.9,0.4c0.4,0,0.7-0.1,0.9-0.4c0.2-0.4,0.3-0.9,0.3-1.3v-4.3h0.2
	c0.4,0,0.8-0.1,1.1-0.3c0.3-0.2,0.4-0.5,0.4-0.8c0-0.3-0.1-0.6-0.4-0.8c-0.3-0.2-0.7-0.3-1.1-0.3H306v-1.1c0-0.5-0.1-0.9-0.3-1.3
	c-0.2-0.3-0.5-0.5-0.9-0.4c-0.4,0-0.7,0.1-0.9,0.4c-0.2,0.4-0.3,0.9-0.3,1.3v1.1c-0.4,0-0.8,0.1-1.1,0.3c-0.4,0.3-0.5,1-0.1,1.4
	c0,0.1,0.1,0.1,0.1,0.1c0.3,0.2,0.6,0.3,1,0.3h0.1v4.2C303.6,98.2,303.7,98.6,303.9,99.1z"/>
<path class="st0" d="M310.2,91.2c-0.4,0-0.7,0.1-0.9,0.4c-0.2,0.4-0.3,0.9-0.3,1.3v4.8c0,0.5,0.1,0.9,0.3,1.3
	c0.4,0.5,1.1,0.6,1.7,0.2c0.1,0,0.1-0.1,0.2-0.2c0.2-0.4,0.3-0.9,0.3-1.3v-2.5c0-0.3,0-0.6,0.1-0.9c0.1-0.2,0.4-0.4,0.6-0.5
	c0.2-0.1,0.5-0.2,0.7-0.3c0.9-0.3,1.3-0.7,1.3-1.2c0-0.3-0.1-0.6-0.4-0.8c-0.2-0.2-0.5-0.4-0.9-0.4c-0.3,0-0.6,0.1-0.8,0.2
	c-0.3,0.2-0.6,0.4-0.8,0.6c-0.1-0.2-0.3-0.4-0.5-0.6C310.6,91.2,310.4,91.2,310.2,91.2z"/>
<path class="st0" d="M316.8,90.5c0.4,0,0.7-0.1,1-0.4c0.5-0.5,0.5-1.4,0-2c-0.3-0.3-0.6-0.4-1-0.4c-0.8,0-1.4,0.6-1.4,1.4
	c0,0.4,0.1,0.7,0.4,1C316,90.4,316.4,90.5,316.8,90.5z"/>
<path class="st0" d="M316.8,91.2c-0.4,0-0.7,0.1-0.9,0.4c-0.2,0.4-0.3,0.9-0.3,1.3v4.8c0,0.5,0.1,0.9,0.3,1.3
	c0.2,0.3,0.5,0.5,0.9,0.4c0.3,0,0.7-0.1,0.9-0.4c0.2-0.4,0.3-0.9,0.3-1.3v-4.8c0-0.5-0.1-0.9-0.3-1.3
	C317.5,91.3,317.1,91.1,316.8,91.2z"/>
<path class="st0" d="M323.6,99.5c0.4,0,0.8-0.1,1.1-0.2c0.3-0.2,0.6-0.4,0.9-0.7c0.1,0.2,0.3,0.5,0.5,0.6c0.2,0.1,0.4,0.2,0.7,0.2
	c0.4,0,0.7-0.1,0.9-0.4c0.2-0.4,0.3-0.9,0.3-1.3v-4.8c0-0.5-0.1-0.9-0.3-1.3c-0.2-0.3-0.5-0.4-0.9-0.4c-0.2,0-0.5,0.1-0.6,0.2
	c-0.2,0.1-0.4,0.3-0.5,0.6c-0.2-0.3-0.5-0.5-0.8-0.6c-0.3-0.1-0.7-0.2-1.1-0.2c-1,0-2,0.4-2.6,1.2c-0.7,0.8-1.1,1.9-1.1,3
	c0,1.1,0.3,2.2,1,3C321.7,99.1,322.6,99.5,323.6,99.5z M322.9,93.9c0.5-0.6,1.4-0.7,2-0.2c0.1,0.1,0.2,0.1,0.2,0.2
	c0.3,0.4,0.5,0.9,0.4,1.4c0,0.5-0.1,1-0.4,1.4c-0.3,0.3-0.7,0.6-1.1,0.5c-0.4,0-0.8-0.2-1.1-0.5c-0.3-0.4-0.5-0.9-0.4-1.4
	C322.5,94.8,322.6,94.3,322.9,93.9L322.9,93.9z"/>
<path class="st0" d="M330.8,88.2c-0.2,0.4-0.3,0.9-0.3,1.3v8.2c0,0.5,0.1,0.9,0.3,1.3c0.2,0.3,0.6,0.5,0.9,0.4
	c0.3,0,0.7-0.1,0.9-0.4c0.2-0.4,0.3-0.9,0.3-1.3v-8.2c0-0.5-0.1-0.9-0.3-1.3c-0.2-0.3-0.5-0.5-0.9-0.4
	C331.3,87.7,331,87.9,330.8,88.2z"/>
<path class="st0" d="M342.9,88.6c-0.5,0-0.9,0.1-1.3,0.4c-0.3,0.4-0.4,0.9-0.4,1.4v7.5c-0.1,0.4,0.1,0.9,0.4,1.2
	c0.4,0.3,0.9,0.4,1.3,0.3h2.3c1.4,0.1,2.8-0.5,3.9-1.5c1-1.1,1.5-2.6,1.4-4c0-0.9-0.2-1.8-0.6-2.6c-0.4-0.8-1-1.4-1.7-1.9
	c-0.4-0.3-0.9-0.5-1.4-0.6c-0.6-0.1-1.2-0.2-1.8-0.2L342.9,88.6z M347,91.6c0.5,0.6,0.8,1.4,0.8,2.2c0.1,0.9-0.2,1.7-0.7,2.4
	c-0.6,0.6-1.4,0.9-2.2,0.8h-1.1v-6.2h1.1C345.6,90.8,346.4,91,347,91.6z"/>
<path class="st0" d="M359.7,95.8c0.2-0.2,0.3-0.5,0.2-0.8c0-1-0.4-2.1-1.1-2.8c-0.7-0.8-1.7-1.2-2.8-1.1c-1.1,0-2.1,0.4-2.9,1.2
	c-0.8,0.8-1.2,1.9-1.1,3.1c0,1.1,0.4,2.2,1.2,3c0.8,0.8,1.8,1.2,3,1.2c0.9,0,1.8-0.2,2.5-0.6c0.7-0.4,1.1-0.9,1.1-1.4
	c0-0.3-0.1-0.5-0.3-0.7c-0.2-0.2-0.4-0.3-0.7-0.3c-0.4,0.1-0.7,0.2-1,0.4c-0.5,0.2-1,0.4-1.5,0.4c-0.4,0-0.9-0.1-1.3-0.4
	c-0.3-0.3-0.5-0.6-0.6-1h4.3C359.1,96,359.4,95.9,359.7,95.8z M354.5,94.4c0.1-0.4,0.3-0.8,0.6-1c0.6-0.5,1.5-0.5,2.1,0
	c0.3,0.3,0.5,0.6,0.5,1H354.5z"/>
<path class="st0" d="M364.2,93.1c0.3,0,0.7,0.1,1,0.3c0.3,0.1,0.6,0.2,0.9,0.3c0.3,0,0.5-0.1,0.7-0.3c0.2-0.2,0.3-0.4,0.3-0.7
	c0-0.5-0.4-1-0.8-1.2c-0.6-0.3-1.3-0.5-2-0.5c-0.8,0-1.6,0.2-2.2,0.7c-0.5,0.5-0.9,1.1-0.9,1.9c0,0.5,0.2,1,0.5,1.4
	c0.5,0.5,1.1,0.9,1.8,1.1c0,0,0.1,0,0.1,0.1c0.8,0.3,1.2,0.6,1.2,0.8c0,0.1-0.1,0.3-0.2,0.3c-0.1,0.1-0.3,0.1-0.5,0.1
	c-0.4,0-0.8-0.2-1.1-0.3c-0.3-0.2-0.7-0.3-1.1-0.3c-0.3,0-0.5,0.1-0.6,0.3c-0.2,0.2-0.3,0.5-0.3,0.8c0,0.5,0.3,1,0.8,1.3
	c0.6,0.4,1.4,0.5,2.1,0.5c0.8,0,1.7-0.2,2.3-0.8c0.6-0.5,0.9-1.2,0.9-2c0-0.5-0.1-0.9-0.5-1.3c-0.4-0.4-1-0.8-1.5-1
	c-0.2-0.1-0.4-0.2-0.7-0.3c-0.6-0.2-1-0.5-1-0.7c0-0.1,0.1-0.2,0.1-0.3C363.9,93.2,364.1,93.1,364.2,93.1z"/>
<path class="st0" d="M370.4,90.5c0.4,0,0.7-0.1,1-0.4c0.3-0.3,0.4-0.6,0.4-1c0-0.4-0.1-0.7-0.4-1c-0.3-0.3-0.6-0.4-1-0.4
	c-0.8,0-1.4,0.6-1.4,1.4S369.7,90.5,370.4,90.5L370.4,90.5z"/>
<path class="st0" d="M370.5,91.2c-0.4,0-0.7,0.1-0.9,0.4c-0.2,0.4-0.3,0.9-0.3,1.3v4.8c0,0.5,0.1,0.9,0.3,1.3
	c0.4,0.5,1.1,0.6,1.6,0.2c0.1-0.1,0.1-0.1,0.2-0.2c0.2-0.4,0.3-0.9,0.3-1.3v-4.8c0-0.5-0.1-0.9-0.3-1.3
	C371.1,91.3,370.8,91.1,370.5,91.2z"/>
<path class="st0" d="M377.5,100.7c-0.5,0-1-0.1-1.5-0.3c-0.3-0.2-0.7-0.3-1-0.3c-0.3,0-0.5,0.1-0.7,0.3c-0.2,0.2-0.3,0.5-0.3,0.8
	c0,0.5,0.3,0.9,1,1.3c0.8,0.4,1.7,0.5,2.5,0.5c0.8,0,1.5-0.1,2.2-0.5c0.6-0.3,1.1-0.8,1.4-1.3c0.2-0.4,0.4-0.8,0.4-1.2
	c0.1-0.7,0.1-1.4,0.1-2.1v-4.8c0-0.5-0.1-0.9-0.3-1.3c-0.2-0.3-0.6-0.5-0.9-0.4c-0.2,0-0.4,0.1-0.6,0.2c-0.2,0.1-0.4,0.3-0.5,0.6
	c-0.2-0.3-0.5-0.5-0.8-0.6c-0.3-0.1-0.7-0.2-1.1-0.2c-1,0-2,0.4-2.6,1.2c-0.7,0.8-1.1,1.9-1.1,3c0,1.1,0.3,2.1,1,3
	c0.6,0.8,1.5,1.2,2.5,1.2c0.4,0,0.9-0.1,1.2-0.3c0.4-0.2,0.7-0.5,0.9-0.8c0,0,0,0.1,0,0.1c0,0.1,0,0.1,0,0.1c0,0.5-0.1,1.1-0.5,1.5
	C378.5,100.5,378,100.7,377.5,100.7z M378.9,96.8c-0.5,0.6-1.4,0.7-2,0.3c-0.1-0.1-0.2-0.2-0.3-0.3c-0.3-0.4-0.5-0.9-0.4-1.4
	c0-0.5,0.1-1,0.4-1.4c0.5-0.6,1.4-0.7,2-0.2c0.1,0.1,0.2,0.1,0.2,0.2c0.3,0.4,0.5,0.9,0.4,1.4C379.3,95.8,379.2,96.3,378.9,96.8z"/>
<path class="st0" d="M385.9,91.4c-0.2-0.1-0.4-0.2-0.6-0.2c-0.4,0-0.7,0.1-0.9,0.4c-0.2,0.4-0.3,0.9-0.3,1.3v4.8
	c0,0.5,0.1,0.9,0.3,1.3c0.4,0.5,1.1,0.6,1.6,0.2c0.1-0.1,0.1-0.1,0.2-0.2c0.2-0.4,0.3-0.9,0.3-1.3V95c0-0.5,0.1-1,0.3-1.4
	c0.2-0.3,0.6-0.5,1-0.4c0.4,0,0.8,0.1,1,0.4c0.2,0.4,0.3,0.9,0.3,1.4v2.7c0,0.5,0.1,0.9,0.3,1.3c0.4,0.5,1.1,0.6,1.6,0.2
	c0.1-0.1,0.1-0.1,0.2-0.2c0.2-0.4,0.3-0.9,0.3-1.3v-3.4c0.1-0.9-0.2-1.7-0.7-2.4c-0.6-0.6-1.4-0.9-2.2-0.8c-0.4,0-0.8,0.1-1.2,0.2
	c-0.3,0.1-0.6,0.3-0.9,0.6C386.3,91.7,386.1,91.5,385.9,91.4z"/>
<path class="st0" d="M404.1,90.8c0.5,0,0.9-0.1,1.3-0.3c0.3-0.2,0.5-0.5,0.4-0.8c0-0.3-0.1-0.7-0.4-0.9c-0.4-0.2-0.8-0.3-1.3-0.3
	h-2.8c-0.8-0.2-1.5,0.3-1.7,1c-0.1,0.2-0.1,0.5,0,0.7v7.5c-0.1,0.4,0.1,0.9,0.4,1.2c0.4,0.3,0.9,0.4,1.3,0.3h2.9
	c0.5,0,0.9-0.1,1.3-0.3c0.5-0.4,0.6-1,0.2-1.5c-0.1-0.1-0.1-0.2-0.2-0.2c-0.4-0.2-0.9-0.3-1.3-0.3h-2.1v-2h1.7
	c0.5,0,0.9-0.1,1.3-0.3c0.3-0.2,0.5-0.5,0.4-0.9c0-0.3-0.1-0.7-0.4-0.9c-0.4-0.2-0.9-0.3-1.3-0.3h-1.7v-1.9H404.1z"/>
<path class="st0" d="M408.3,91.6c-0.2,0.4-0.3,0.9-0.3,1.3v4.8c0,0.5,0.1,0.9,0.3,1.3c0.4,0.5,1.1,0.6,1.6,0.2
	c0.1-0.1,0.1-0.1,0.2-0.2c0.2-0.4,0.3-0.9,0.3-1.3V95c0-0.5,0.1-1,0.3-1.4c0.2-0.3,0.6-0.5,1-0.4c0.4,0,0.8,0.1,1,0.4
	c0.2,0.4,0.3,0.9,0.3,1.4v2.7c0,0.5,0.1,0.9,0.3,1.3c0.4,0.5,1.1,0.6,1.6,0.2c0.1-0.1,0.1-0.1,0.2-0.2c0.2-0.4,0.3-0.9,0.3-1.3v-3.4
	c0.1-0.9-0.2-1.7-0.7-2.4c-0.6-0.6-1.4-0.9-2.2-0.8c-0.4,0-0.8,0.1-1.2,0.2c-0.3,0.1-0.6,0.3-0.9,0.6c-0.1-0.2-0.3-0.4-0.5-0.6
	c-0.2-0.1-0.4-0.2-0.6-0.2C408.8,91.1,408.5,91.3,408.3,91.6z"/>
<path class="st0" d="M421,100.7c-0.5,0-1-0.1-1.5-0.3c-0.3-0.2-0.7-0.3-1-0.3c-0.3,0-0.5,0.1-0.7,0.3c-0.2,0.2-0.3,0.5-0.3,0.8
	c0,0.5,0.3,0.9,1,1.3c0.8,0.4,1.7,0.5,2.5,0.5c0.8,0,1.5-0.1,2.2-0.5c0.6-0.3,1.1-0.8,1.5-1.3c0.2-0.4,0.4-0.8,0.4-1.2
	c0.1-0.7,0.1-1.4,0.1-2.1v-4.8c0-0.5-0.1-0.9-0.3-1.3c-0.2-0.3-0.6-0.5-0.9-0.4c-0.2,0-0.4,0.1-0.6,0.2c-0.2,0.1-0.4,0.3-0.5,0.6
	c-0.2-0.3-0.5-0.5-0.8-0.6c-0.3-0.1-0.7-0.2-1.1-0.2c-1,0-2,0.4-2.6,1.2c-0.7,0.8-1.1,1.9-1.1,3c0,1.1,0.3,2.1,1,3
	c0.6,0.8,1.5,1.2,2.5,1.2c0.4,0,0.9-0.1,1.2-0.3c0.4-0.2,0.7-0.5,0.9-0.8c0,0,0,0.1,0,0.1c0,0.1,0,0.1,0,0.1c0,0.5-0.1,1.1-0.5,1.5
	C422,100.5,421.5,100.7,421,100.7z M422.4,96.8c-0.3,0.4-0.7,0.6-1.1,0.6c-0.4,0-0.9-0.2-1.1-0.6c-0.3-0.4-0.5-0.9-0.4-1.4
	c0-0.5,0.1-1,0.4-1.4c0.3-0.4,0.7-0.6,1.1-0.5c0.4,0,0.9,0.2,1.1,0.5c0.3,0.4,0.5,0.9,0.4,1.4C422.9,95.8,422.7,96.3,422.4,96.8z"/>
<path class="st0" d="M428.8,91.2c-0.4,0-0.7,0.1-0.9,0.4c-0.2,0.4-0.3,0.9-0.3,1.3v4.8c0,0.5,0.1,0.9,0.3,1.3
	c0.4,0.5,1.1,0.6,1.6,0.2c0.1-0.1,0.1-0.1,0.2-0.2c0.2-0.4,0.3-0.9,0.3-1.3v-4.8c0-0.5-0.1-0.9-0.3-1.3
	C429.5,91.3,429.2,91.1,428.8,91.2z"/>
<path class="st0" d="M427.8,88.2c-0.5,0.5-0.5,1.4,0,2c0.3,0.3,0.6,0.4,1,0.4c0.4,0,0.7-0.1,1-0.4c0.5-0.5,0.5-1.4,0-2
	c-0.3-0.3-0.6-0.4-1-0.4C428.4,87.7,428.1,87.9,427.8,88.2z"/>
<path class="st0" d="M433.7,99.5c0.4,0,0.7-0.1,0.9-0.4c0.2-0.4,0.3-0.9,0.3-1.3V95c0-0.5,0.1-1,0.3-1.4c0.2-0.3,0.6-0.5,1-0.4
	c0.4,0,0.8,0.1,1,0.4c0.2,0.4,0.3,0.9,0.3,1.4v2.7c0,0.5,0.1,0.9,0.3,1.3c0.4,0.5,1.1,0.6,1.6,0.2c0.1-0.1,0.1-0.1,0.2-0.2
	c0.2-0.4,0.3-0.9,0.3-1.3v-3.4c0.1-0.9-0.2-1.7-0.7-2.4c-0.6-0.6-1.4-0.9-2.2-0.8c-0.4,0-0.8,0.1-1.2,0.2c-0.3,0.1-0.6,0.3-0.9,0.6
	c-0.1-0.2-0.3-0.4-0.5-0.6c-0.2-0.1-0.4-0.2-0.6-0.2c-0.4,0-0.7,0.1-0.9,0.4c-0.2,0.4-0.3,0.9-0.3,1.3v4.8c0,0.5,0.1,0.9,0.3,1.3
	C433,99.3,433.4,99.5,433.7,99.5z"/>
<path class="st0" d="M445.9,99.6c0.9,0,1.8-0.2,2.5-0.6c0.7-0.4,1.1-0.9,1.1-1.4c0-0.3-0.1-0.5-0.3-0.7c-0.2-0.2-0.4-0.3-0.7-0.3
	c-0.4,0.1-0.7,0.2-1,0.4c-0.5,0.2-1,0.4-1.5,0.4c-0.4,0-0.9-0.1-1.3-0.4c-0.3-0.3-0.5-0.6-0.6-1h4.3c0.3,0,0.7,0,0.9-0.2
	c0.2-0.2,0.3-0.5,0.2-0.8c0-1-0.4-2.1-1.1-2.8c-0.7-0.8-1.7-1.2-2.8-1.1c-1.1,0-2.1,0.4-2.9,1.2c-0.8,0.8-1.2,1.9-1.2,3.1
	c0,1.1,0.4,2.2,1.2,3C443.8,99.2,444.8,99.6,445.9,99.6z M444.8,93.4c0.3-0.3,0.7-0.4,1-0.4c0.4,0,0.8,0.1,1.1,0.4
	c0.3,0.3,0.5,0.6,0.5,1h-3.1C444.3,94,444.5,93.6,444.8,93.4L444.8,93.4z"/>
<path class="st0" d="M458.8,95.8c0.2-0.2,0.3-0.5,0.2-0.8c0-1-0.4-2.1-1.1-2.8c-0.7-0.8-1.7-1.2-2.8-1.1c-1.1,0-2.1,0.4-2.9,1.2
	c-0.8,0.8-1.2,1.9-1.2,3.1c0,1.1,0.4,2.2,1.2,3c0.8,0.8,1.8,1.2,3,1.2c0.9,0,1.8-0.2,2.5-0.6c0.7-0.4,1.1-0.9,1.1-1.4
	c0-0.3-0.1-0.5-0.3-0.7c-0.2-0.2-0.4-0.3-0.7-0.3c-0.4,0.1-0.7,0.2-1,0.4c-0.5,0.2-1,0.4-1.5,0.4c-0.4,0-0.9-0.1-1.3-0.4
	c-0.3-0.3-0.5-0.6-0.6-1h4.3C458.2,96,458.5,95.9,458.8,95.8z M453.5,94.4c0.1-0.4,0.3-0.8,0.6-1c0.6-0.5,1.5-0.5,2.1,0
	c0.3,0.3,0.5,0.6,0.5,1H453.5z"/>
<path class="st0" d="M462.7,91.4c-0.2-0.1-0.4-0.2-0.6-0.2c-0.4,0-0.7,0.1-0.9,0.4c-0.2,0.4-0.3,0.9-0.3,1.3v4.8
	c0,0.5,0.1,0.9,0.3,1.3c0.4,0.5,1.1,0.6,1.6,0.2c0.1,0,0.1-0.1,0.2-0.2c0.2-0.4,0.3-0.9,0.3-1.3v-2.5c0-0.3,0-0.6,0.1-0.9
	c0.1-0.2,0.4-0.4,0.6-0.5c0.2-0.1,0.5-0.2,0.7-0.3c0.9-0.3,1.3-0.7,1.3-1.2c0-0.3-0.1-0.6-0.4-0.8c-0.2-0.2-0.5-0.4-0.9-0.4
	c-0.3,0-0.6,0.1-0.8,0.2c-0.3,0.2-0.6,0.4-0.8,0.6C463.1,91.7,462.9,91.5,462.7,91.4z"/>
<path class="st0" d="M468.7,91.2c-0.4,0-0.7,0.1-0.9,0.4c-0.2,0.4-0.3,0.9-0.3,1.3v4.8c0,0.5,0.1,0.9,0.3,1.3
	c0.2,0.3,0.5,0.5,0.9,0.4c0.3,0,0.7-0.1,0.9-0.4c0.2-0.4,0.3-0.9,0.3-1.3v-4.8c0-0.5-0.1-0.9-0.3-1.3
	C469.4,91.3,469,91.1,468.7,91.2z"/>
<path class="st0" d="M468.7,90.5c0.4,0,0.7-0.1,1-0.4c0.5-0.5,0.5-1.4,0-2c0,0,0,0,0,0c-0.3-0.3-0.6-0.4-1-0.4c-0.4,0-0.7,0.1-1,0.4
	c-0.5,0.5-0.5,1.4,0,1.9C467.9,90.4,468.3,90.5,468.7,90.5L468.7,90.5z"/>
<path class="st0" d="M477.7,99c0.4,0.5,1.1,0.6,1.6,0.2c0.1-0.1,0.1-0.1,0.2-0.2c0.2-0.4,0.3-0.9,0.3-1.3v-3.4
	c0.1-0.9-0.2-1.7-0.7-2.4c-0.6-0.6-1.4-0.9-2.2-0.8c-0.4,0-0.8,0.1-1.2,0.2c-0.3,0.1-0.6,0.3-0.9,0.6c-0.1-0.2-0.3-0.4-0.5-0.6
	c-0.2-0.1-0.4-0.2-0.6-0.2c-0.4,0-0.7,0.1-0.9,0.4c-0.2,0.4-0.3,0.9-0.3,1.3v4.8c0,0.5,0.1,0.9,0.3,1.3c0.4,0.5,1.1,0.6,1.6,0.2
	c0.1-0.1,0.1-0.1,0.2-0.2c0.2-0.4,0.3-0.9,0.3-1.3V95c0-0.5,0.1-1,0.3-1.4c0.2-0.3,0.6-0.5,1-0.4c0.4,0,0.8,0.1,1,0.4
	c0.2,0.4,0.3,0.9,0.3,1.4v2.7C477.3,98.2,477.4,98.6,477.7,99z"/>
<path class="st0" d="M485.1,99.5c0.4,0,0.9-0.1,1.2-0.3c0.4-0.2,0.7-0.5,0.9-0.8c0,0,0,0.1,0,0.1c0,0.1,0,0.1,0,0.1
	c0,0.5-0.1,1.1-0.5,1.5c-0.4,0.4-0.9,0.6-1.4,0.5c-0.5,0-1-0.1-1.5-0.3c-0.3-0.2-0.7-0.3-1-0.3c-0.3,0-0.5,0.1-0.7,0.3
	c-0.2,0.2-0.3,0.5-0.3,0.8c0,0.5,0.3,0.9,1,1.3c0.8,0.4,1.7,0.5,2.5,0.5c0.8,0,1.5-0.1,2.2-0.5c0.6-0.3,1.1-0.8,1.5-1.3
	c0.2-0.4,0.4-0.8,0.4-1.2c0.1-0.7,0.1-1.4,0.1-2.1v-4.8c0-0.5-0.1-0.9-0.3-1.3c-0.2-0.3-0.6-0.5-0.9-0.4c-0.2,0-0.4,0.1-0.6,0.2
	c-0.2,0.1-0.4,0.3-0.5,0.6c-0.2-0.3-0.5-0.5-0.8-0.6c-0.3-0.1-0.7-0.2-1.1-0.2c-1,0-2,0.4-2.6,1.2c-0.7,0.8-1.1,1.9-1.1,3
	c0,1.1,0.3,2.1,1,3C483.3,99,484.2,99.5,485.1,99.5z M484.6,93.9c0.5-0.6,1.4-0.7,2-0.2c0.1,0.1,0.2,0.1,0.2,0.2
	c0.3,0.4,0.5,0.9,0.4,1.4c0,0.5-0.1,1-0.4,1.4c-0.5,0.6-1.4,0.7-2,0.3c-0.1-0.1-0.2-0.2-0.3-0.3c-0.3-0.4-0.5-0.9-0.4-1.4
	C484.1,94.8,484.3,94.3,484.6,93.9L484.6,93.9z"/>
<path class="st0" d="M559.1,52.7c-0.9-0.1-1.9,0.4-2.4,1.1c-0.6,1.1-0.9,2.3-0.8,3.5v12.8c-0.1,1.2,0.2,2.4,0.8,3.5
	c0.5,0.8,1.4,1.2,2.4,1.1c0.9,0.1,1.8-0.4,2.4-1.1c0.6-1.1,0.9-2.3,0.8-3.5V57.3c0.1-1.2-0.2-2.4-0.8-3.5
	C561,53.1,560.1,52.7,559.1,52.7z"/>
<path class="st0" d="M559.1,51.1c1,0,1.9-0.4,2.6-1.1c0.7-0.7,1.1-1.6,1.1-2.6c0-1-0.4-1.9-1.1-2.6c-0.7-0.7-1.6-1.1-2.6-1.1
	c-2,0-3.7,1.6-3.7,3.7C555.4,49.4,557,51,559.1,51.1C559.1,51.1,559.1,51.1,559.1,51.1z"/>
<path class="st0" d="M571.2,74.7c1,0,1.9-0.4,2.6-1.1c1.4-1.4,1.4-3.7,0-5.2c-0.7-0.7-1.6-1.1-2.6-1.1c-1,0-1.9,0.4-2.6,1.1
	c-1.4,1.4-1.4,3.7,0,5.2C569.3,74.4,570.3,74.8,571.2,74.7z"/>
<path class="st0" d="M588.5,74.9c1,0,2-0.2,2.9-0.6c0.9-0.4,1.6-0.9,2.3-1.6c0.3,0.6,0.8,1.1,1.3,1.5c0.5,0.3,1.1,0.5,1.7,0.5
	c0.9,0.1,1.8-0.4,2.3-1.1c0.6-1.1,0.8-2.3,0.8-3.5V48.4c0.1-1.2-0.2-2.4-0.8-3.5c-0.5-0.8-1.4-1.2-2.3-1.2c-0.9-0.1-1.9,0.4-2.4,1.1
	c-0.6,1.1-0.9,2.3-0.8,3.5v5.8c-0.7-0.6-1.5-1.1-2.3-1.4c-0.9-0.3-1.8-0.5-2.7-0.4c-2.7,0-5.2,1.2-6.9,3.2c-3.8,4.6-3.8,11.3,0,16
	C583.3,73.6,585.8,74.9,588.5,74.9z M586.4,59.7c0.7-1,1.8-1.5,3-1.5c1.2,0,2.3,0.5,3,1.5c0.8,1.1,1.2,2.5,1.2,3.9
	c0.1,1.4-0.3,2.7-1.2,3.8c-0.7,0.9-1.8,1.5-3,1.5c-1.2,0-2.3-0.5-3-1.5c-0.8-1.1-1.2-2.5-1.2-3.8C585.2,62.2,585.6,60.9,586.4,59.7
	L586.4,59.7z"/>
<path class="st0" d="M332.4,73.3c1.5,0.9,3.2,1.4,4.9,1.3c2.3-0.1,4.4-1.3,5.6-3.2h0.1V73c0,0.5,0.2,0.9,0.5,1.2
	c0.3,0.3,0.7,0.5,1.2,0.4c0.4,0,0.9-0.2,1.2-0.5c0.3-0.4,0.5-0.9,0.5-1.4V54.5c0-0.5-0.1-1-0.5-1.3c-0.6-0.6-1.7-0.6-2.3,0
	c-0.3,0.3-0.5,0.8-0.5,1.3v1.2h-0.1c-0.8-0.9-1.7-1.7-2.7-2.2c-1-0.5-2.2-0.7-3.3-0.7c-1.5,0-3,0.4-4.3,1.2
	c-1.5,0.9-2.7,2.2-3.5,3.7c-1,1.9-1.5,4-1.4,6.1c0,2,0.4,3.9,1.3,5.7C329.7,71.1,330.9,72.4,332.4,73.3z M332.8,58.1
	c1-1.4,2.6-2.3,4.3-2.3h0.1c1.1,0,2.1,0.3,3,1c0.9,0.7,1.6,1.7,2,2.8c0.5,1.3,0.8,2.8,0.7,4.2c0.1,2-0.4,3.9-1.4,5.6
	c-1,1.6-2.8,2.5-4.6,2.3c-1.1,0-2.2-0.4-3.1-1.1c-0.9-0.8-1.5-1.8-1.9-2.9c-0.4-1.2-0.6-2.6-0.6-3.9
	C331.2,61.7,331.7,59.8,332.8,58.1z"/>
<path class="st0" d="M359.1,74.7c1.5,0,3-0.3,4.3-0.9c1.1-0.5,2-1.3,2.6-2.3c0.6-0.9,0.9-2,0.9-3.1c0-1.1-0.3-2.3-1-3.2
	c-0.9-1-2.1-1.8-3.4-2.3c-0.4-0.2-1-0.4-1.9-0.7s-1.7-0.6-2.4-0.9c-0.6-0.3-1.2-0.7-1.7-1.1c-0.5-0.4-0.8-1-0.9-1.7
	c0-0.8,0.4-1.5,1-1.9c0.8-0.6,1.8-0.8,2.9-0.8c0.5,0,1,0.1,1.5,0.3c0.4,0.2,1,0.5,1.9,1c0.6,0.4,1.3,0.7,2,0.9
	c0.4,0,0.8-0.2,1.1-0.5c0.3-0.3,0.5-0.7,0.5-1.1c-0.1-0.6-0.4-1.2-0.8-1.7c-0.8-0.7-1.7-1.2-2.7-1.5c-1.2-0.4-2.5-0.7-3.8-0.7
	c-1.3,0-2.5,0.3-3.6,0.9c-1,0.5-1.9,1.2-2.5,2.1c-0.6,0.9-0.9,1.9-0.9,2.9c0,1,0.3,2,0.9,2.9c0.6,0.7,1.3,1.3,2.2,1.8
	c0.8,0.4,2,0.9,3.5,1.5c1.1,0.4,2.1,0.9,3.1,1.4c1,0.4,1.6,1.4,1.6,2.4c0,0.9-0.5,1.8-1.3,2.2c-0.9,0.5-2,0.7-3,0.7
	c-1,0-2.1-0.3-3-0.8c-0.4-0.2-0.7-0.4-1.1-0.7c-0.4-0.3-0.8-0.6-1.3-0.8c-0.3-0.2-0.7-0.3-1-0.3c-0.4,0-0.8,0.2-1.1,0.5
	c-0.3,0.3-0.4,0.7-0.4,1.1c0.1,0.7,0.4,1.3,1,1.7C354.1,73.9,356.6,74.8,359.1,74.7z"/>
<path class="st0" d="M378.5,74.7c1.5,0,3-0.3,4.4-0.9c1.1-0.5,2-1.3,2.6-2.3c0.6-0.9,0.9-2,0.9-3.1c0-1.1-0.3-2.3-1-3.2
	c-0.9-1-2.1-1.8-3.4-2.3c-0.4-0.2-1-0.4-1.9-0.7c-0.9-0.3-1.7-0.6-2.4-0.9c-0.6-0.3-1.2-0.7-1.7-1.1c-0.5-0.4-0.8-1-0.9-1.7
	c0-0.8,0.4-1.5,1-1.9c0.8-0.6,1.8-0.8,2.9-0.8c0.5,0,1,0.1,1.5,0.3c0.4,0.2,1,0.5,1.9,1c0.6,0.4,1.3,0.7,2,0.9
	c0.4,0,0.8-0.2,1.1-0.5c0.3-0.3,0.5-0.7,0.5-1.1c-0.1-0.6-0.4-1.2-0.8-1.7c-0.8-0.7-1.7-1.2-2.7-1.5c-1.2-0.4-2.5-0.7-3.8-0.7
	c-1.3,0-2.5,0.3-3.6,0.9c-1,0.5-1.9,1.2-2.5,2.1c-0.6,0.9-0.9,1.9-0.9,2.9c0,1,0.3,2,0.9,2.9c0.6,0.7,1.3,1.3,2.2,1.8
	c0.8,0.4,2,0.9,3.4,1.5c1.1,0.4,2.1,0.9,3.1,1.4c1,0.4,1.6,1.4,1.6,2.4c0,0.9-0.5,1.8-1.3,2.2c-0.9,0.5-2,0.7-3,0.7
	c-1,0-2.1-0.3-3-0.8c-0.4-0.2-0.7-0.4-1.1-0.7c-0.4-0.3-0.8-0.6-1.3-0.8c-0.3-0.2-0.7-0.3-1-0.3c-0.4,0-0.8,0.2-1.1,0.5
	c-0.3,0.3-0.4,0.7-0.4,1.1c0,0.7,0.4,1.3,1,1.7C373.5,73.9,376,74.8,378.5,74.7z"/>
<path class="st0" d="M394.9,73.2c3,2,7,2,10,0c1.4-1,2.6-2.4,3.3-4c0.8-1.7,1.2-3.6,1.1-5.5c0-1.9-0.4-3.7-1.1-5.4
	c-0.7-1.6-1.9-3-3.3-4c-3-2-6.8-2.1-9.9-0.1c-1.5,1-2.6,2.3-3.4,3.9c-0.8,1.8-1.2,3.7-1.2,5.7c0,1.9,0.4,3.7,1.1,5.5
	C392.3,70.8,393.4,72.2,394.9,73.2z M394.7,59.7c0.4-1.1,1.1-2.1,2-2.8c0.9-0.7,2-1.1,3.2-1c1.2,0,2.3,0.3,3.2,1.1
	c0.9,0.8,1.6,1.8,2,2.9c0.5,1.3,0.7,2.6,0.7,4c0,1.3-0.2,2.7-0.7,4c-0.4,1.1-1.1,2.1-2,2.9c-0.9,0.7-2.1,1.1-3.3,1.1
	c-1.8,0.1-3.5-0.8-4.4-2.4c-1-1.7-1.4-3.5-1.4-5.4C394,62.3,394.2,61,394.7,59.7L394.7,59.7z"/>
<path class="st0" d="M418.1,73.3c1.5,1,3.3,1.5,5.1,1.4c1.3,0,2.6-0.2,3.8-0.6c1-0.2,1.8-1.1,1.8-2.2c0-0.4-0.1-0.8-0.4-1.1
	c-0.2-0.3-0.6-0.4-1-0.4c-0.3,0-0.6,0.1-0.9,0.2c-0.2,0.1-0.4,0.2-0.8,0.3c-0.3,0.2-0.6,0.3-0.8,0.3c-0.3,0.1-0.5,0.2-0.8,0.2
	c-0.3,0.1-0.6,0.1-1,0.1c-0.2-0.1-0.4-0.1-0.6-0.1c-1.8-0.1-3.5-1.2-4.3-2.8c-0.8-1.7-1.3-3.5-1.2-5.4c0-1.3,0.3-2.5,0.8-3.7
	c0.4-1.1,1.1-2.1,2.1-2.8c0.9-0.7,2.1-1.1,3.3-1.1c0.4,0,0.9,0.1,1.3,0.2c0.4,0.1,1,0.3,1.7,0.5c0.7,0.2,1.1,0.4,1.2,0.4
	c0.4,0,0.8-0.2,1.1-0.5c0.3-0.3,0.4-0.6,0.4-1c0-0.3-0.1-0.5-0.2-0.8c-0.5-0.7-1.2-1.2-2-1.4c-1.2-0.4-2.5-0.6-3.7-0.6
	c-1.5,0-2.9,0.4-4.3,1c-1.2,0.6-2.2,1.5-3,2.5c-0.8,1.1-1.4,2.3-1.7,3.6c-0.4,1.4-0.6,2.9-0.6,4.3c0,1.8,0.4,3.6,1.2,5.3
	C415.5,71,416.6,72.3,418.1,73.3z"/>
<path class="st0" d="M437.7,50c0.6,0,1.1-0.2,1.5-0.7c0.4-0.4,0.6-1,0.6-1.6c0-0.6-0.2-1.2-0.6-1.6c-0.4-0.4-0.9-0.7-1.5-0.7
	c-0.6,0-1.2,0.2-1.6,0.7c-0.9,0.9-0.9,2.3,0,3.1c0,0,0,0,0,0C436.6,49.7,437.1,50,437.7,50z"/>
<path class="st0" d="M437.7,52.7c-0.5,0-0.9,0.2-1.2,0.5c-0.4,0.4-0.5,0.9-0.5,1.4v18.2c0,0.5,0.2,1,0.5,1.3
	c0.3,0.3,0.8,0.5,1.2,0.5c0.5,0,0.9-0.2,1.3-0.5c0.4-0.4,0.5-0.8,0.5-1.3V54.5c0-0.5-0.2-1-0.5-1.3
	C438.6,52.9,438.2,52.7,437.7,52.7z"/>
<path class="st0" d="M449.5,73.3c1.5,0.9,3.2,1.4,4.9,1.3c2.3-0.1,4.4-1.3,5.6-3.2h0.1V73c0,0.5,0.2,0.9,0.5,1.2
	c0.3,0.3,0.7,0.5,1.2,0.4c0.4,0,0.9-0.2,1.2-0.5c0.3-0.4,0.5-0.9,0.5-1.4V54.5c0-0.5-0.1-1-0.5-1.3c-0.6-0.6-1.7-0.6-2.3,0
	c-0.3,0.3-0.5,0.8-0.5,1.3v1.2H460c-0.8-0.9-1.7-1.7-2.7-2.2c-1-0.5-2.2-0.7-3.3-0.7c-1.5,0-3,0.4-4.3,1.2c-1.5,0.9-2.7,2.2-3.5,3.7
	c-1,1.9-1.5,4-1.4,6.1c0,2,0.4,3.9,1.3,5.7C446.8,71.1,448,72.4,449.5,73.3z M449.8,58.1c1-1.4,2.6-2.3,4.3-2.3h0.1
	c1.1,0,2.1,0.3,3,1c0.9,0.7,1.6,1.7,2,2.8c0.5,1.3,0.8,2.8,0.7,4.2c0.1,2-0.4,3.9-1.4,5.6c-1,1.6-2.8,2.5-4.6,2.3
	c-1.1,0-2.3-0.4-3.1-1.1c-0.9-0.8-1.5-1.8-1.9-2.9c-0.4-1.2-0.6-2.6-0.6-3.9C448.3,61.7,448.8,59.8,449.8,58.1z"/>
<path class="st0" d="M471.3,56h1.6v16.8c0,0.5,0.1,1,0.5,1.3c0.3,0.3,0.7,0.5,1.2,0.5c0.5,0,1-0.2,1.4-0.5c0.4-0.3,0.6-0.8,0.6-1.3
	V56h1.7c0.4,0,0.8-0.1,1.1-0.4c0.3-0.3,0.4-0.7,0.4-1.1c0-0.4-0.1-0.8-0.4-1.2c-0.3-0.3-0.8-0.5-1.2-0.4h-1.6v-4.7
	c0-0.5-0.2-1-0.5-1.3c-0.4-0.3-0.8-0.5-1.3-0.4c-0.5,0-0.9,0.1-1.2,0.4c-0.3,0.3-0.5,0.8-0.5,1.2V53h-1.6c-0.9-0.1-1.6,0.5-1.7,1.4
	c0,0.1,0,0.1,0,0.2c0,0.4,0.2,0.8,0.5,1.1C470.4,55.9,470.9,56.1,471.3,56z"/>
<path class="st0" d="M486.9,52.7c-0.5,0-0.9,0.2-1.2,0.5c-0.4,0.4-0.5,0.9-0.5,1.4v18.2c0,0.5,0.2,1,0.5,1.3
	c0.3,0.3,0.8,0.5,1.2,0.5c0.5,0,0.9-0.2,1.2-0.5c0.4-0.4,0.5-0.8,0.5-1.3V54.5c0-0.5-0.2-1-0.5-1.3
	C487.8,52.9,487.3,52.7,486.9,52.7z"/>
<path class="st0" d="M486.9,50c0.6,0,1.1-0.2,1.5-0.7c0.9-0.9,0.9-2.3,0-3.2c-0.4-0.4-0.9-0.7-1.5-0.7c-0.6,0-1.2,0.2-1.6,0.7
	c-0.9,0.9-0.9,2.3,0,3.1C485.7,49.7,486.3,50,486.9,50z"/>
<path class="st0" d="M498.3,73.2c3,2,7,2,10,0c1.4-1,2.6-2.4,3.3-4c0.8-1.7,1.2-3.6,1.1-5.5c0-1.9-0.4-3.7-1.1-5.4
	c-0.7-1.6-1.9-3-3.3-4c-3-2-6.8-2.1-9.9-0.1c-1.5,1-2.6,2.3-3.4,3.9c-0.8,1.8-1.2,3.7-1.2,5.7c0,1.9,0.4,3.7,1.1,5.5
	C495.7,70.8,496.9,72.2,498.3,73.2z M498.1,59.7c0.4-1.1,1.1-2.1,2-2.8c0.9-0.7,2-1.1,3.2-1c1.2,0,2.3,0.3,3.2,1.1
	c0.9,0.8,1.6,1.8,2,2.9c0.5,1.3,0.7,2.6,0.7,4c0,1.3-0.2,2.7-0.7,4c-0.4,1.1-1.1,2.1-2,2.9c-0.9,0.7-2.1,1.1-3.3,1.1
	c-1.8,0.1-3.5-0.8-4.4-2.4c-0.9-1.7-1.4-3.5-1.4-5.4C497.4,62.3,497.7,61,498.1,59.7L498.1,59.7z"/>
<path class="st0" d="M519.7,74.7c0.5,0,0.9-0.2,1.2-0.5c0.3-0.4,0.5-0.9,0.5-1.4V61.1c0-1,0.2-2,0.7-2.8c0.4-0.8,1.1-1.4,1.8-1.8
	c0.8-0.4,1.6-0.6,2.5-0.6c1.3,0,2.6,0.5,3.5,1.4c1,1,1.5,2.4,1.5,3.8v11.9c0,0.5,0.2,0.9,0.5,1.3c0.3,0.3,0.8,0.5,1.2,0.5
	c0.5,0,0.9-0.1,1.3-0.5c0.4-0.3,0.5-0.8,0.5-1.3v-12c0-1.6-0.3-3.1-1-4.5c-0.6-1.2-1.6-2.1-2.8-2.8c-1.2-0.6-2.4-0.9-3.7-0.9
	c-1.1,0-2.3,0.2-3.3,0.7c-1,0.5-1.9,1.2-2.6,2.1l-0.1-0.1v-0.8c0-0.5-0.2-1-0.5-1.4c-0.3-0.3-0.8-0.5-1.3-0.5
	c-0.5,0-0.9,0.2-1.2,0.5c-0.4,0.4-0.5,0.9-0.5,1.4v18.2c0,0.5,0.2,1,0.5,1.4C518.8,74.6,519.3,74.8,519.7,74.7z"/>
<path class="st0" d="M211.8,69.1c-1.4,0-2.7-0.3-4-0.7c-1-0.4-2.1-0.6-3.1-0.7c-0.9,0-1.7,0.3-2.4,0.8c-0.6,0.6-0.9,1.4-0.9,2.2
	c0,1.3,0.9,2.4,2.8,3.3c2.1,1,4.4,1.5,6.7,1.4c3,0.1,5.9-0.8,8.3-2.7c2.1-1.8,3.2-4.4,3.1-7.2c0.1-2-0.6-3.9-1.9-5.4
	c-1.7-1.7-3.8-2.9-6.2-3.6c-0.3-0.1-0.8-0.3-1.4-0.4c-2.6-0.8-3.9-1.8-3.9-3c0-0.7,0.3-1.4,0.9-1.8c0.7-0.5,1.5-0.7,2.4-0.7
	c0.9,0.1,1.8,0.2,2.7,0.5c0.8,0.3,1.7,0.4,2.6,0.5c0.8,0,1.6-0.2,2.2-0.8c0.6-0.6,0.8-1.3,0.8-2.1c0-1.2-0.8-2.3-2.3-3.1
	c-1.8-0.9-3.8-1.3-5.8-1.2c-2.8-0.1-5.6,0.8-7.7,2.6c-1.9,1.7-3,4.1-3,6.7c-0.1,1.9,0.6,3.7,1.8,5.1c1.2,1.3,3.4,2.3,6.5,3.3
	c1.5,0.3,2.9,1,4.2,1.8c1.2,1.1,1.3,3,0.2,4.2c0,0.1-0.1,0.1-0.2,0.2C213.6,68.8,212.7,69.1,211.8,69.1z"/>
<path class="st0" d="M227.7,58.6h0.2v11.6c-0.1,1.2,0.2,2.5,0.8,3.6c0.6,0.8,1.5,1.2,2.5,1.2c1,0.1,1.9-0.4,2.4-1.2
	c0.6-1.1,0.9-2.3,0.8-3.6V58.6h0.5c1.1,0.1,2.2-0.2,3.1-0.7c0.7-0.5,1.1-1.3,1-2.1c0-0.8-0.4-1.6-1.1-2.1c-0.9-0.6-2-0.8-3-0.8h-0.6
	V50c0.1-1.2-0.2-2.5-0.8-3.6c-0.6-0.8-1.5-1.2-2.4-1.2c-1-0.1-1.9,0.4-2.5,1.2c-0.6,1.1-0.9,2.3-0.8,3.6v2.9c-1,0-2.1,0.3-2.9,0.8
	c-0.7,0.5-1,1.3-1,2.1c0,0.8,0.3,1.6,1,2C225.8,58.3,226.8,58.6,227.7,58.6z"/>
<path class="st0" d="M251.4,75.2c3.2,0,5.6-0.8,7.3-2.5c1.7-1.6,2.5-4,2.5-7.1V57c0.1-1.2-0.2-2.5-0.8-3.6c-0.6-0.8-1.5-1.2-2.4-1.2
	c-1-0.1-1.9,0.4-2.5,1.2c-0.6,1.1-0.9,2.3-0.8,3.6v7.4c0.1,1.3-0.2,2.6-0.8,3.7c-1.4,1.4-3.7,1.4-5.1,0.1c0,0,0,0-0.1-0.1
	c-0.6-1.1-0.9-2.4-0.8-3.7V57c0.1-1.2-0.2-2.5-0.8-3.6c-0.6-0.8-1.5-1.2-2.4-1.2c-1-0.1-1.9,0.4-2.5,1.2c-0.6,1.1-0.9,2.3-0.8,3.6
	v8.7c0,3.1,0.8,5.5,2.5,7.1C245.8,74.4,248.2,75.2,251.4,75.2z"/>
<path class="st0" d="M275.7,75c1,0,2-0.2,2.9-0.6c0.9-0.4,1.7-0.9,2.4-1.7c0.3,0.6,0.8,1.2,1.4,1.6c0.5,0.4,1.1,0.5,1.8,0.5
	c1,0.1,1.9-0.4,2.4-1.2c0.6-1.1,0.9-2.3,0.8-3.6V47.8c0.1-1.2-0.2-2.5-0.8-3.6c-0.5-0.8-1.5-1.2-2.4-1.2c-1-0.1-1.9,0.4-2.5,1.2
	c-0.6,1.1-0.9,2.3-0.8,3.6v6c-0.7-0.6-1.5-1.1-2.4-1.4c-0.9-0.3-1.8-0.5-2.8-0.5c-2.8,0-5.4,1.2-7.1,3.3c-2,2.3-3,5.2-2.9,8.2
	c-0.1,3,1,6,3,8.2C270.4,73.7,273,75,275.7,75z M273.6,59.4c1.3-1.7,3.7-2,5.4-0.7c0.3,0.2,0.5,0.5,0.7,0.7c0.8,1.2,1.2,2.6,1.2,4
	c0.1,1.4-0.4,2.8-1.2,3.9c-0.7,1-1.9,1.5-3.1,1.5c-1.2,0-2.4-0.5-3.1-1.5c-0.8-1.1-1.3-2.5-1.2-3.9C272.3,62,272.7,60.6,273.6,59.4
	L273.6,59.4z"/>
<path class="st0" d="M291.2,57.3l6.6,15.3l-2.7,5.8c-0.2,0.4-0.3,0.7-0.4,1.1c-0.1,0.4-0.1,0.7-0.1,1.1c0,0.9,0.3,1.7,0.9,2.3
	c0.6,0.6,1.5,0.9,2.4,0.8c0.6,0,1.1-0.2,1.6-0.6c0.6-0.6,1-1.3,1.3-2.1l9.9-23.6c0.2-0.4,0.3-0.8,0.4-1.2c0.1-0.3,0.1-0.7,0.1-1
	c0-0.8-0.3-1.7-0.9-2.3c-0.6-0.6-1.5-0.9-2.3-0.8c-0.6,0-1.2,0.2-1.7,0.6c-0.5,0.6-1,1.2-1.2,2l-4,10.4l-3.7-9.8
	c-0.3-0.9-0.8-1.8-1.4-2.5c-0.5-0.5-1.2-0.7-1.9-0.7c-0.8,0-1.7,0.3-2.2,0.9c-0.6,0.6-0.9,1.4-0.9,2.3c0,0.3,0,0.7,0.1,1
	C291.1,56.8,291.1,57.1,291.2,57.3z"/>
</svg>
