<svg id="Logo" xmlns="http://www.w3.org/2000/svg" viewBox="0 0 283.46 85.04"><defs><style>.cls-1{fill:#fff;}</style></defs><title>logo-nl</title><path class="cls-1" d="M40.59,15.3,17.68,19c-3.15.43-6,2.23-5.88,5.64L13.61,51.9l19,18.21L59.13,58.19c1.71-1,3-1.79,3.19-5.64l1.21-28.71Zm.72,43.88c0,1.41,0,2.83,0,4.23l-3.92,1.75L33.28,67v-8.8l4.11-1.67,4-1.6C41.34,56.34,41.32,57.76,41.31,59.18Zm.11-11.5c0,1.46,0,2.91,0,4.35l-4,1.56-4.12,1.62V46.14l4.17-1.46,4-1.4C41.45,44.75,41.44,46.22,41.42,47.68Zm.11-10.34a4.36,4.36,0,0,1-2.7,3.87l-5.55,1.86V36.86a4.34,4.34,0,0,1,2.84-4l5.47-1.58ZM51.12,55,51,59l-3.55,1.59L43.8,62.28c0-1.39,0-2.79.05-4.18l.06-4.23,3.72-1.51,3.58-1.45Zm.21-9.61a4.31,4.31,0,0,1-2.44,3.7l-5,1.94c0-1.91.06-3.82.08-5.75a4.29,4.29,0,0,1,2.57-3.79l4.87-1.69C51.41,41.67,51.37,43.53,51.33,45.39ZM60,52.49A4.33,4.33,0,0,1,57.76,56l-4.44,2c0-1.77.09-3.55.14-5.35a4.28,4.28,0,0,1,2.33-3.61l4.37-1.78C60.11,49,60.05,50.76,60,52.49Zm.39-11.84c0,1.33-.09,2.66-.13,4L57,45.92l-3.39,1.33c0-1.37.07-2.74.11-4.12s.06-2.76.1-4.15c1.15-.41,2.29-.81,3.41-1.19l3.3-1.16C60.47,38,60.42,39.32,60.38,40.65Zm.36-10.81c-.05,1.37-.09,2.73-.14,4.09L57.29,35l-3.42,1.14c0-1.4.07-2.81.11-4.23s.07-2.84.1-4.27l3.46-1,3.34-1C60.83,27.09,60.78,28.47,60.74,29.84Z"/><g id="Tekst"><g id="Faculteit..._Group_" data-name="Faculteit... &lt;Group&gt;"><path class="cls-1" d="M80,42.84a1.16,1.16,0,0,1,.6.13.46.46,0,0,1,.21.41.44.44,0,0,1-.21.39,1.16,1.16,0,0,1-.6.13h-.93v.88h.8a1.2,1.2,0,0,1,.61.13.5.5,0,0,1,0,.8,1.2,1.2,0,0,1-.61.13h-.8v1.24a1.1,1.1,0,0,1-.14.61.56.56,0,0,1-.86,0,1.1,1.1,0,0,1-.14-.61V43.64a.88.88,0,0,1,.18-.63.89.89,0,0,1,.61-.17Z"/><path class="cls-1" d="M83.87,47.48a1.11,1.11,0,0,1-.4.31,1.27,1.27,0,0,1-.52.11,1.5,1.5,0,0,1-1.18-.56A2,2,0,0,1,81.29,46a2,2,0,0,1,.49-1.38A1.55,1.55,0,0,1,83,44a1.26,1.26,0,0,1,.49.09.91.91,0,0,1,.38.3.66.66,0,0,1,.23-.26.53.53,0,0,1,.3-.09.45.45,0,0,1,.41.19,1.06,1.06,0,0,1,.14.6v2.22a1.06,1.06,0,0,1-.14.6.44.44,0,0,1-.41.2.52.52,0,0,1-.31-.09A.76.76,0,0,1,83.87,47.48Zm-1.44-1.54a1,1,0,0,0,.2.65.63.63,0,0,0,.51.24.59.59,0,0,0,.5-.25,1.12,1.12,0,0,0,0-1.28.65.65,0,0,0-1,0A1,1,0,0,0,82.43,45.94Z"/><path class="cls-1" d="M85.86,46a1.94,1.94,0,0,1,.53-1.41A1.77,1.77,0,0,1,87.76,44a1.75,1.75,0,0,1,.89.2.58.58,0,0,1,.35.51.49.49,0,0,1-.13.33.45.45,0,0,1-.33.14,1.82,1.82,0,0,1-.35-.08,1.37,1.37,0,0,0-.43-.09.68.68,0,0,0-.55.26,1,1,0,0,0-.21.67,1,1,0,0,0,.21.68.74.74,0,0,0,.59.25,1.52,1.52,0,0,0,.43-.08,1.74,1.74,0,0,1,.33-.08.38.38,0,0,1,.31.14.49.49,0,0,1,.12.34.61.61,0,0,1-.37.52,1.88,1.88,0,0,1-.93.21,1.73,1.73,0,0,1-1.32-.54A2,2,0,0,1,85.86,46Z"/><path class="cls-1" d="M89.74,46.31V44.85a1.08,1.08,0,0,1,.14-.61.47.47,0,0,1,.42-.19.47.47,0,0,1,.41.19,1.08,1.08,0,0,1,.14.61v1.23a1.1,1.1,0,0,0,.13.63.51.51,0,0,0,.44.18.5.5,0,0,0,.43-.18,1.1,1.1,0,0,0,.13-.63V44.85a1.08,1.08,0,0,1,.14-.61.47.47,0,0,1,.41-.19.45.45,0,0,1,.41.19,1.08,1.08,0,0,1,.14.61v1.46a1.63,1.63,0,0,1-.43,1.2,2,2,0,0,1-2.48,0A1.59,1.59,0,0,1,89.74,46.31Z"/><path class="cls-1" d="M94.21,43.28a1.12,1.12,0,0,1,.14-.61.47.47,0,0,1,.41-.2.45.45,0,0,1,.41.21,1.06,1.06,0,0,1,.14.6v3.79a1.12,1.12,0,0,1-.14.61.53.53,0,0,1-.82,0,1.06,1.06,0,0,1-.14-.6Z"/><path class="cls-1" d="M96.69,45.11h0a.76.76,0,0,1-.46-.12.45.45,0,0,1-.17-.36.43.43,0,0,1,.17-.35.93.93,0,0,1,.5-.14v-.48a1.06,1.06,0,0,1,.14-.6.46.46,0,0,1,.42-.2.45.45,0,0,1,.41.2,1.06,1.06,0,0,1,.14.6v.48h.09a.89.89,0,0,1,.52.13.43.43,0,0,1,.18.36.4.4,0,0,1-.18.36.91.91,0,0,1-.52.12H97.8v2a1.12,1.12,0,0,1-.14.61.54.54,0,0,1-.83,0,1.06,1.06,0,0,1-.14-.6Z"/><path class="cls-1" d="M100.08,46.26a.68.68,0,0,0,.26.48.86.86,0,0,0,.57.18,1.69,1.69,0,0,0,.7-.18,1.85,1.85,0,0,1,.46-.18.44.44,0,0,1,.32.12.42.42,0,0,1,.13.31c0,.24-.17.45-.5.64a2.29,2.29,0,0,1-1.16.28,1.85,1.85,0,0,1-1.37-.55A1.93,1.93,0,0,1,99,46a2,2,0,0,1,.53-1.41A1.74,1.74,0,0,1,100.8,44a1.72,1.72,0,0,1,1.28.53,1.79,1.79,0,0,1,.52,1.29.43.43,0,0,1-.12.35.64.64,0,0,1-.43.1Zm0-.72h1.45a.66.66,0,0,0-.23-.46.7.7,0,0,0-.48-.18.67.67,0,0,0-.48.17A.76.76,0,0,0,100.07,45.54Z"/><path class="cls-1" d="M103.38,43.11a.61.61,0,0,1,.19-.45.63.63,0,0,1,.9,0,.64.64,0,0,1,.18.45.61.61,0,0,1-.18.45.64.64,0,0,1-1.09-.45Zm1.19,4a1.13,1.13,0,0,1-.13.61.47.47,0,0,1-.41.19.46.46,0,0,1-.42-.2,1.07,1.07,0,0,1-.13-.6V44.85a1.11,1.11,0,0,1,.13-.61.47.47,0,0,1,.42-.19.47.47,0,0,1,.41.19,1.11,1.11,0,0,1,.13.61Z"/><path class="cls-1" d="M106,45.11h0a.78.78,0,0,1-.46-.12.44.44,0,0,1-.16-.36.42.42,0,0,1,.16-.35.94.94,0,0,1,.51-.14v-.48a1.07,1.07,0,0,1,.13-.6.47.47,0,0,1,.42-.2.46.46,0,0,1,.42.2,1.07,1.07,0,0,1,.13.6v.48h.1a.84.84,0,0,1,.51.13.44.44,0,0,1,.19.36.4.4,0,0,1-.18.36,1,1,0,0,1-.53.12h-.09v2a1.13,1.13,0,0,1-.13.61.47.47,0,0,1-.42.19.47.47,0,0,1-.42-.2,1.07,1.07,0,0,1-.13-.6Z"/><path class="cls-1" d="M112.28,47.08a1.1,1.1,0,0,1-.14.61.5.5,0,0,1-.43.2.48.48,0,0,1-.42-.2,1,1,0,0,1-.14-.61v-3.5a1,1,0,0,1,.14-.6.46.46,0,0,1,.42-.2.47.47,0,0,1,.43.2,1.06,1.06,0,0,1,.14.6Z"/><path class="cls-1" d="M113.5,47.07V44.85a1.11,1.11,0,0,1,.13-.61.47.47,0,0,1,.42-.19.61.61,0,0,1,.3.08.9.9,0,0,1,.23.27,1.06,1.06,0,0,1,.41-.29,1.53,1.53,0,0,1,.56-.09,1.31,1.31,0,0,1,1,.37,1.57,1.57,0,0,1,.35,1.09v1.59a1.06,1.06,0,0,1-.14.6.46.46,0,0,1-.42.2.45.45,0,0,1-.41-.2,1.06,1.06,0,0,1-.14-.6V45.82a1.2,1.2,0,0,0-.14-.66.51.51,0,0,0-.45-.2.49.49,0,0,0-.44.21,1,1,0,0,0-.14.63v1.27a1.06,1.06,0,0,1-.14.6.54.54,0,0,1-.84,0A1.07,1.07,0,0,1,113.5,47.07Z"/><path class="cls-1" d="M120.36,47.51a1.12,1.12,0,0,1-.4.28,1.34,1.34,0,0,1-.49.1,1.53,1.53,0,0,1-1.2-.57,2.2,2.2,0,0,1,0-2.78,1.56,1.56,0,0,1,1.21-.56,1.14,1.14,0,0,1,.46.08,1.16,1.16,0,0,1,.4.23v-1a1.12,1.12,0,0,1,.14-.61.48.48,0,0,1,.42-.2.44.44,0,0,1,.4.21,1.06,1.06,0,0,1,.14.6v3.79a1.06,1.06,0,0,1-.14.6.45.45,0,0,1-.4.2.53.53,0,0,1-.3-.09A.77.77,0,0,1,120.36,47.51Zm-1.46-1.57a1.06,1.06,0,0,0,.2.66.63.63,0,0,0,.53.26.64.64,0,0,0,.52-.25,1.07,1.07,0,0,0,.2-.67,1.1,1.1,0,0,0-.2-.68.64.64,0,0,0-.52-.26.65.65,0,0,0-.53.26A1.12,1.12,0,0,0,118.9,45.94Z"/><path class="cls-1" d="M122.53,46.31V44.85a1.08,1.08,0,0,1,.14-.61.47.47,0,0,1,.42-.19.47.47,0,0,1,.41.19,1.08,1.08,0,0,1,.14.61v1.23a1.1,1.1,0,0,0,.13.63.52.52,0,0,0,.44.18.5.5,0,0,0,.43-.18,1.1,1.1,0,0,0,.13-.63V44.85a1.08,1.08,0,0,1,.14-.61.47.47,0,0,1,.42-.19.45.45,0,0,1,.4.19,1.08,1.08,0,0,1,.14.61v1.46a1.63,1.63,0,0,1-.43,1.2,2,2,0,0,1-2.48,0A1.63,1.63,0,0,1,122.53,46.31Z"/><path class="cls-1" d="M128,47.93a1.82,1.82,0,0,1-1-.24.68.68,0,0,1-.39-.59.55.55,0,0,1,.12-.35.42.42,0,0,1,.3-.14,1.24,1.24,0,0,1,.51.16,1.33,1.33,0,0,0,.51.16.41.41,0,0,0,.23-.06.23.23,0,0,0,.08-.17c0-.1-.18-.23-.53-.37l-.07,0a2.44,2.44,0,0,1-.83-.5.91.91,0,0,1-.22-.63,1.07,1.07,0,0,1,.39-.85,1.44,1.44,0,0,1,1-.34,1.77,1.77,0,0,1,.92.23.65.65,0,0,1,.38.54.45.45,0,0,1-.14.33.41.41,0,0,1-.32.13,1.19,1.19,0,0,1-.43-.13,1.25,1.25,0,0,0-.46-.13.3.3,0,0,0-.18,0,.16.16,0,0,0-.07.14c0,.1.14.21.44.32l.32.13a2.12,2.12,0,0,1,.71.47.92.92,0,0,1,.21.61,1.14,1.14,0,0,1-.42.9A1.61,1.61,0,0,1,128,47.93Z"/><path class="cls-1" d="M130.6,45.11h0a.78.78,0,0,1-.46-.12.45.45,0,0,1-.17-.36.43.43,0,0,1,.17-.35.93.93,0,0,1,.5-.14v-.48a1.06,1.06,0,0,1,.14-.6.46.46,0,0,1,.42-.2.44.44,0,0,1,.41.2,1.06,1.06,0,0,1,.14.6v.48h.1a.86.86,0,0,1,.51.13.43.43,0,0,1,.18.36.4.4,0,0,1-.18.36.91.91,0,0,1-.52.12h-.09v2a1.12,1.12,0,0,1-.14.61.44.44,0,0,1-.41.19.46.46,0,0,1-.42-.2,1.06,1.06,0,0,1-.14-.6Z"/><path class="cls-1" d="M133.08,47.07V44.85a1.11,1.11,0,0,1,.13-.61.47.47,0,0,1,.42-.19.61.61,0,0,1,.3.08.9.9,0,0,1,.23.27,1.21,1.21,0,0,1,.36-.29.92.92,0,0,1,.39-.09.53.53,0,0,1,.39.16.54.54,0,0,1,.17.39c0,.22-.2.41-.61.56a2,2,0,0,0-.33.13.6.6,0,0,0-.28.22,1,1,0,0,0-.07.44v1.15a1.07,1.07,0,0,1-.13.6.54.54,0,0,1-.84,0A1.07,1.07,0,0,1,133.08,47.07Z"/><path class="cls-1" d="M136,43.11a.61.61,0,0,1,.19-.45.64.64,0,0,1,.45-.19.62.62,0,0,1,.45.19.64.64,0,0,1,.18.45.61.61,0,0,1-.18.45.64.64,0,0,1-1.09-.45Zm1.19,4a1.13,1.13,0,0,1-.13.61.47.47,0,0,1-.41.19.46.46,0,0,1-.42-.2,1.07,1.07,0,0,1-.13-.6V44.85a1.11,1.11,0,0,1,.13-.61.47.47,0,0,1,.42-.19.47.47,0,0,1,.41.19,1.11,1.11,0,0,1,.13.61Z"/><path class="cls-1" d="M139.3,46.26a.68.68,0,0,0,.26.48.87.87,0,0,0,.58.18,1.68,1.68,0,0,0,.69-.18,1.61,1.61,0,0,1,.47-.18.41.41,0,0,1,.43.43c0,.24-.16.45-.49.64a2.29,2.29,0,0,1-1.16.28,1.85,1.85,0,0,1-1.37-.55,1.93,1.93,0,0,1-.54-1.4,2,2,0,0,1,.53-1.41A1.74,1.74,0,0,1,140,44a1.72,1.72,0,0,1,1.28.53,1.79,1.79,0,0,1,.52,1.29.47.47,0,0,1-.11.35.69.69,0,0,1-.44.1Zm0-.72h1.45a.66.66,0,0,0-.23-.46.68.68,0,0,0-.48-.18.67.67,0,0,0-.48.17A.76.76,0,0,0,139.29,45.54Z"/><path class="cls-1" d="M143.59,46.26a.67.67,0,0,0,.25.48.89.89,0,0,0,.58.18,1.65,1.65,0,0,0,.69-.18,1.72,1.72,0,0,1,.47-.18.41.41,0,0,1,.31.12A.39.39,0,0,1,146,47c0,.24-.17.45-.5.64a2.27,2.27,0,0,1-1.16.28,1.82,1.82,0,0,1-1.36-.55,1.9,1.9,0,0,1-.55-1.4,2,2,0,0,1,.53-1.41A1.76,1.76,0,0,1,144.3,44a1.74,1.74,0,0,1,1.29.53,1.78,1.78,0,0,1,.51,1.29.47.47,0,0,1-.11.35.68.68,0,0,1-.44.1Zm0-.72H145a.65.65,0,0,0-.22-.46.72.72,0,0,0-.49-.18.67.67,0,0,0-.48.17A.81.81,0,0,0,143.57,45.54Z"/><path class="cls-1" d="M147,43.28a1,1,0,0,1,.14-.61.47.47,0,0,1,.41-.2.46.46,0,0,1,.41.21,1.07,1.07,0,0,1,.13.6v3.79a1.13,1.13,0,0,1-.13.61.53.53,0,0,1-.82,0,1,1,0,0,1-.14-.6Z"/><path class="cls-1" d="M151.68,45.34a2.7,2.7,0,0,1,.68-1.91,2.54,2.54,0,0,1,3.54,0,2.7,2.7,0,0,1,.67,1.91,2.66,2.66,0,0,1-.67,1.9,2.52,2.52,0,0,1-3.55,0A2.66,2.66,0,0,1,151.68,45.34Zm1.23,0a1.76,1.76,0,0,0,.33,1.12,1.07,1.07,0,0,0,.88.42,1.06,1.06,0,0,0,.88-.42,1.76,1.76,0,0,0,.33-1.12,1.8,1.8,0,0,0-.33-1.14,1.13,1.13,0,0,0-1.76,0A1.8,1.8,0,0,0,152.91,45.35Z"/><path class="cls-1" d="M157.52,47.07V44.85a1,1,0,0,1,.14-.61.45.45,0,0,1,.41-.19.61.61,0,0,1,.3.08.78.78,0,0,1,.23.27,1.06,1.06,0,0,1,.41-.29,1.53,1.53,0,0,1,.56-.09,1.31,1.31,0,0,1,1,.37,1.57,1.57,0,0,1,.35,1.09v1.59a1.06,1.06,0,0,1-.14.6.45.45,0,0,1-.41.2.46.46,0,0,1-.42-.2,1.06,1.06,0,0,1-.14-.6V45.82a1.2,1.2,0,0,0-.14-.66.51.51,0,0,0-.45-.2.49.49,0,0,0-.44.21,1,1,0,0,0-.14.63v1.27a1.06,1.06,0,0,1-.14.6.46.46,0,0,1-.42.2.44.44,0,0,1-.41-.2A1,1,0,0,1,157.52,47.07Z"/><path class="cls-1" d="M162.22,45.11h0a.78.78,0,0,1-.46-.12.45.45,0,0,1-.17-.36.43.43,0,0,1,.17-.35.93.93,0,0,1,.5-.14v-.48a1.06,1.06,0,0,1,.14-.6.46.46,0,0,1,.42-.2.45.45,0,0,1,.41.2,1.06,1.06,0,0,1,.14.6v.48h.1a.86.86,0,0,1,.51.13.43.43,0,0,1,.18.36A.42.42,0,0,1,164,45a1,1,0,0,1-.53.12h-.09v2a1.23,1.23,0,0,1-.13.61.47.47,0,0,1-.42.19.46.46,0,0,1-.42-.2,1.06,1.06,0,0,1-.14-.6Z"/><path class="cls-1" d="M168.59,44.52a.75.75,0,0,1,.2-.34.52.52,0,0,1,.7,0,.52.52,0,0,1,.14.39.36.36,0,0,1,0,.14,1.5,1.5,0,0,1-.06.22l-.85,2.41a1,1,0,0,1-.25.42.58.58,0,0,1-.38.12.66.66,0,0,1-.42-.14.86.86,0,0,1-.25-.43L167,45.58l-.43,1.79a.7.7,0,0,1-.23.4.56.56,0,0,1-.4.14.62.62,0,0,1-.4-.12,1.16,1.16,0,0,1-.27-.45l-.87-2.45a1.42,1.42,0,0,1,0-.16.66.66,0,0,1,0-.14.56.56,0,0,1,.15-.39.52.52,0,0,1,.38-.15.48.48,0,0,1,.35.13,1,1,0,0,1,.22.41l.58,2,.47-2a.72.72,0,0,1,.19-.37.42.42,0,0,1,.32-.13.52.52,0,0,1,.36.13.81.81,0,0,1,.2.38l.5,2Z"/><path class="cls-1" d="M171.27,46.26a.68.68,0,0,0,.26.48.89.89,0,0,0,.58.18,1.68,1.68,0,0,0,.69-.18,1.72,1.72,0,0,1,.47-.18.41.41,0,0,1,.31.12.39.39,0,0,1,.13.31c0,.24-.17.45-.5.64a2.29,2.29,0,0,1-1.16.28,1.81,1.81,0,0,1-1.36-.55,1.9,1.9,0,0,1-.55-1.4,2,2,0,0,1,.53-1.41A1.76,1.76,0,0,1,172,44a1.72,1.72,0,0,1,1.28.53,1.75,1.75,0,0,1,.52,1.29.43.43,0,0,1-.12.35.64.64,0,0,1-.43.1Zm0-.72h1.45a.69.69,0,0,0-.22-.46.72.72,0,0,0-.49-.18.67.67,0,0,0-.48.17A.81.81,0,0,0,171.26,45.54Z"/><path class="cls-1" d="M174.64,47.07V44.85a1.1,1.1,0,0,1,.14-.61.47.47,0,0,1,.41-.19.61.61,0,0,1,.3.08.78.78,0,0,1,.23.27,1.35,1.35,0,0,1,.36-.29.92.92,0,0,1,.39-.09.55.55,0,0,1,.4.16.53.53,0,0,1,.16.39c0,.22-.2.41-.61.56l-.33.13a.56.56,0,0,0-.27.22.9.9,0,0,0-.07.44v1.15a1.06,1.06,0,0,1-.14.6.46.46,0,0,1-.42.2.45.45,0,0,1-.41-.2A1.06,1.06,0,0,1,174.64,47.07Z"/><path class="cls-1" d="M178.77,48.56a1.06,1.06,0,0,1-.14.6.48.48,0,0,1-.42.2.47.47,0,0,1-.41-.2,1.06,1.06,0,0,1-.14-.6V44.84a1.06,1.06,0,0,1,.14-.6.47.47,0,0,1,.41-.19.56.56,0,0,1,.3.08.69.69,0,0,1,.23.27,1.24,1.24,0,0,1,.4-.29,1.4,1.4,0,0,1,.51-.09,1.51,1.51,0,0,1,1.19.55,2.21,2.21,0,0,1,0,2.79,1.51,1.51,0,0,1-1.19.58,1.22,1.22,0,0,1-.47-.08,1.29,1.29,0,0,1-.4-.24Zm0-2.59a1.11,1.11,0,0,0,.2.69.64.64,0,0,0,.52.26.62.62,0,0,0,.52-.27,1.24,1.24,0,0,0,0-1.35.65.65,0,0,0-1,0A1.09,1.09,0,0,0,178.75,46Z"/><path class="cls-1" d="M183.15,46.26a.71.71,0,0,0,.26.48.89.89,0,0,0,.58.18,1.65,1.65,0,0,0,.69-.18,1.72,1.72,0,0,1,.47-.18.45.45,0,0,1,.32.12.41.41,0,0,1,.12.31c0,.24-.17.45-.5.64a2.27,2.27,0,0,1-1.16.28,1.82,1.82,0,0,1-1.36-.55A1.9,1.9,0,0,1,182,46a2,2,0,0,1,.53-1.41,1.78,1.78,0,0,1,1.32-.56,1.76,1.76,0,0,1,1.29.53,1.78,1.78,0,0,1,.51,1.29.47.47,0,0,1-.11.35.68.68,0,0,1-.44.1Zm0-.72h1.45a.65.65,0,0,0-.22-.46.72.72,0,0,0-.49-.18.67.67,0,0,0-.48.17A.81.81,0,0,0,183.14,45.54Z"/><path class="cls-1" d="M186.52,47.07V44.85a1.1,1.1,0,0,1,.14-.61.47.47,0,0,1,.41-.19.56.56,0,0,1,.3.08.69.69,0,0,1,.23.27,1.14,1.14,0,0,1,.41-.29,1.57,1.57,0,0,1,.56-.09,1.32,1.32,0,0,1,1,.37,1.57,1.57,0,0,1,.34,1.09v1.59a1,1,0,0,1-.14.6.44.44,0,0,1-.41.2.46.46,0,0,1-.42-.2,1.06,1.06,0,0,1-.14-.6V45.82a1.21,1.21,0,0,0-.13-.66.52.52,0,0,0-.46-.2.5.5,0,0,0-.44.21,1.13,1.13,0,0,0-.14.63v1.27a1.06,1.06,0,0,1-.14.6.46.46,0,0,1-.42.2.45.45,0,0,1-.41-.2A1.06,1.06,0,0,1,186.52,47.07Z"/></g><g id="i.d"><path class="cls-1" d="M238.32,25.38a1.74,1.74,0,0,1,1.74-1.74,1.61,1.61,0,0,1,1.2.51,1.78,1.78,0,0,1,0,2.46,1.66,1.66,0,0,1-1.21.5,1.71,1.71,0,0,1-1.24-.5A1.69,1.69,0,0,1,238.32,25.38Zm3.22,10.71a3,3,0,0,1-.36,1.65,1.23,1.23,0,0,1-1.11.53,1.29,1.29,0,0,1-1.13-.54,3,3,0,0,1-.36-1.64v-6a3,3,0,0,1,.36-1.64,1.26,1.26,0,0,1,1.13-.53,1.23,1.23,0,0,1,1.11.53,3,3,0,0,1,.36,1.64Z"/><path class="cls-1" d="M244,36.55a1.63,1.63,0,0,1,.51-1.21,1.68,1.68,0,0,1,1.23-.51,1.63,1.63,0,0,1,1.2.51,1.73,1.73,0,0,1,0,2.43,1.59,1.59,0,0,1-1.2.5A1.71,1.71,0,0,1,244,36.55Z"/><path class="cls-1" d="M256.33,37.31a3.12,3.12,0,0,1-1.08.76,3.49,3.49,0,0,1-1.35.26,4.22,4.22,0,0,1-3.25-1.55,5.93,5.93,0,0,1,0-7.53,4.23,4.23,0,0,1,3.27-1.52,3.68,3.68,0,0,1,1.27.21,3.35,3.35,0,0,1,1.08.64V25.84a3,3,0,0,1,.37-1.66,1.26,1.26,0,0,1,1.13-.54,1.22,1.22,0,0,1,1.1.55,2.92,2.92,0,0,1,.37,1.65V36.09a3,3,0,0,1-.36,1.65,1.23,1.23,0,0,1-1.11.53A1.42,1.42,0,0,1,257,38,2.11,2.11,0,0,1,256.33,37.31Zm-4-4.28a2.81,2.81,0,0,0,.56,1.81,1.74,1.74,0,0,0,1.42.69,1.7,1.7,0,0,0,1.4-.69,2.79,2.79,0,0,0,.55-1.81,2.89,2.89,0,0,0-.54-1.83,1.69,1.69,0,0,0-1.41-.7,1.71,1.71,0,0,0-1.42.7A2.87,2.87,0,0,0,252.36,33Z"/></g><g id="vereniging"><path class="cls-1" d="M139.08,29.16a3.72,3.72,0,0,1-.16-.59.81.81,0,0,1,.23-.59.74.74,0,0,1,.55-.22.87.87,0,0,1,.89.7l2.33,7.11,2.38-7.11a.73.73,0,0,1,.78-.59.87.87,0,0,1,.57.21.7.7,0,0,1,.25.57,2,2,0,0,1-.08.39l-3,8.5a1.39,1.39,0,0,1-.35.53.76.76,0,0,1-.55.18.9.9,0,0,1-.85-.67Z"/><path class="cls-1" d="M148.32,33a6.72,6.72,0,0,1,.59-2.46,4.75,4.75,0,0,1,1.53-1.89,3.88,3.88,0,0,1,2.33-.74,4,4,0,0,1,2.32.7,4.73,4.73,0,0,1,1.57,1.88,5.61,5.61,0,0,1,.55,2.44c0,.55-.31.82-.92.82H150a3.32,3.32,0,0,0,.43,1.68,2.62,2.62,0,0,0,1.11,1,3.37,3.37,0,0,0,1.53.34,4.12,4.12,0,0,0,2.71-1,1.27,1.27,0,0,1,.62-.31.52.52,0,0,1,.44.21.79.79,0,0,1,.15.49.88.88,0,0,1-.25.6,4.67,4.67,0,0,1-1.57,1,5.38,5.38,0,0,1-2.2.45,4.61,4.61,0,0,1-2.13-.47,4,4,0,0,1-1.47-1.23,5.44,5.44,0,0,1-.81-1.66,7,7,0,0,1-.26-1.8.24.24,0,0,1,0-.07Zm1.67-.53h5.54a3.47,3.47,0,0,0-.74-2.24,2.49,2.49,0,0,0-1.94-.87,2.62,2.62,0,0,0-2,.82A3.36,3.36,0,0,0,150,32.46Z"/><path class="cls-1" d="M159.69,28.81a.85.85,0,0,1,.24-.63.79.79,0,0,1,.57-.23.84.84,0,0,1,.59.23.79.79,0,0,1,.25.62v.85h0a4.61,4.61,0,0,1,1-1.19,2,2,0,0,1,1.27-.56,1,1,0,0,1,.66.24.77.77,0,0,1,.28.61.71.71,0,0,1-.29.63,2.72,2.72,0,0,1-.86.35,3.35,3.35,0,0,0-.72.24,2.63,2.63,0,0,0-1.35,2.52v4.9a.85.85,0,0,1-.23.63.81.81,0,0,1-.57.23.85.85,0,0,1-.61-.24.89.89,0,0,1-.24-.66Z"/><path class="cls-1" d="M165.87,33a6.53,6.53,0,0,1,.59-2.46A4.75,4.75,0,0,1,168,28.64a3.88,3.88,0,0,1,2.33-.74,4,4,0,0,1,2.32.7,4.73,4.73,0,0,1,1.57,1.88,5.76,5.76,0,0,1,.55,2.44c0,.55-.31.82-.93.82h-6.29a3.32,3.32,0,0,0,.43,1.68,2.6,2.6,0,0,0,1.1,1,3.41,3.41,0,0,0,1.54.34,4.14,4.14,0,0,0,2.71-1,1.27,1.27,0,0,1,.62-.31.49.49,0,0,1,.43.21.74.74,0,0,1,.16.49.88.88,0,0,1-.25.6,4.67,4.67,0,0,1-1.57,1,5.38,5.38,0,0,1-2.2.45,4.66,4.66,0,0,1-2.14-.47,4.09,4.09,0,0,1-1.46-1.23,5.44,5.44,0,0,1-.81-1.66,7,7,0,0,1-.27-1.8.17.17,0,0,0,0-.07A0,0,0,0,0,165.87,33Zm1.67-.53h5.54a3.52,3.52,0,0,0-.74-2.24,2.49,2.49,0,0,0-2-.87,2.65,2.65,0,0,0-2,.82A3.41,3.41,0,0,0,167.54,32.46Z"/><path class="cls-1" d="M177.23,28.79a.89.89,0,0,1,.24-.66.82.82,0,0,1,.58-.23.8.8,0,0,1,.59.23.89.89,0,0,1,.24.66v.4l0,0a3.23,3.23,0,0,1,1.21-1,3.58,3.58,0,0,1,1.55-.34,3.74,3.74,0,0,1,1.75.42,3.21,3.21,0,0,1,1.31,1.3,4.26,4.26,0,0,1,.49,2.14V37.4a.75.75,0,0,1-.24.6.83.83,0,0,1-.59.22.85.85,0,0,1-.58-.22.78.78,0,0,1-.24-.6V31.79a2.28,2.28,0,0,0-.69-1.77,2.33,2.33,0,0,0-1.65-.64,2.41,2.41,0,0,0-1.15.28,2.19,2.19,0,0,0-.88.83,2.57,2.57,0,0,0-.33,1.33v5.56a.89.89,0,0,1-.22.66.78.78,0,0,1-.58.23.81.81,0,0,1-.59-.24.87.87,0,0,1-.26-.65Z"/><path class="cls-1" d="M189.06,26.61a1,1,0,0,1-.73-.32,1.06,1.06,0,0,1,0-1.49,1,1,0,0,1,.74-.32,1,1,0,0,1,.72.32,1,1,0,0,1,.3.74,1.07,1.07,0,0,1-.3.75A1,1,0,0,1,189.06,26.61Zm-.82,2.18a.89.89,0,0,1,.24-.66.82.82,0,0,1,.58-.23.83.83,0,0,1,.59.22.82.82,0,0,1,.24.63v8.64a.82.82,0,0,1-.24.63.86.86,0,0,1-.59.23.78.78,0,0,1-.57-.24.82.82,0,0,1-.25-.62Z"/><path class="cls-1" d="M199.54,36.79h0a2.7,2.7,0,0,1-1.06,1.06,3.31,3.31,0,0,1-1.63.4,4,4,0,0,1-2.23-.72,4.52,4.52,0,0,1-1.53-1.9,6.31,6.31,0,0,1-.54-2.63,6.17,6.17,0,0,1,.57-2.64,4.35,4.35,0,0,1,1.56-1.82A4.26,4.26,0,0,1,197,27.9a2.61,2.61,0,0,1,2.52,1.41h0v-.54a.75.75,0,0,1,.24-.6.8.8,0,0,1,.57-.22.85.85,0,0,1,.61.22.79.79,0,0,1,.25.64v8.62a5.62,5.62,0,0,1-.53,2.46,4,4,0,0,1-1.53,1.71,4.65,4.65,0,0,1-2.41.65,6,6,0,0,1-3.15-.9,1.52,1.52,0,0,1-.81-1.05.79.79,0,0,1,.66-.7,2.75,2.75,0,0,1,1.12.45,4,4,0,0,0,1,.52,3.44,3.44,0,0,0,1.21.22,2.28,2.28,0,0,0,2.06-1.07,4.59,4.59,0,0,0,.69-2.55s0-.1,0-.19A1.42,1.42,0,0,1,199.54,36.79Zm-5.36-3.71a6,6,0,0,0,.33,1.88,2.91,2.91,0,0,0,.9,1.31,2.32,2.32,0,0,0,1.44.52,2.56,2.56,0,0,0,2.08-1,4,4,0,0,0,.8-2.63,5.69,5.69,0,0,0-.31-1.84,3.38,3.38,0,0,0-1-1.44,2.45,2.45,0,0,0-1.64-.56,2.24,2.24,0,0,0-1.47.57,3.27,3.27,0,0,0-.87,1.38A5.49,5.49,0,0,0,194.18,33.08Z"/><path class="cls-1" d="M205.2,26.61a1,1,0,0,1-.74-.32,1.08,1.08,0,0,1-.3-.75,1.06,1.06,0,0,1,.3-.74,1,1,0,0,1,.74-.32,1,1,0,0,1,.72.32,1,1,0,0,1,.3.74,1.07,1.07,0,0,1-.3.75A1,1,0,0,1,205.2,26.61Zm-.82,2.18a.89.89,0,0,1,.24-.66.82.82,0,0,1,.58-.23.83.83,0,0,1,.59.22.82.82,0,0,1,.24.63v8.64a.82.82,0,0,1-.24.63.86.86,0,0,1-.59.23.84.84,0,0,1-.82-.86Z"/><path class="cls-1" d="M209.09,28.79a.89.89,0,0,1,.24-.66.82.82,0,0,1,.58-.23.8.8,0,0,1,.59.23.89.89,0,0,1,.24.66v.4l0,0a3.23,3.23,0,0,1,1.21-1,3.58,3.58,0,0,1,1.55-.34,3.77,3.77,0,0,1,1.75.42,3.21,3.21,0,0,1,1.31,1.3,4.26,4.26,0,0,1,.49,2.14V37.4a.75.75,0,0,1-.24.6.83.83,0,0,1-.59.22.85.85,0,0,1-.58-.22.78.78,0,0,1-.24-.6V31.79a2.28,2.28,0,0,0-.69-1.77,2.34,2.34,0,0,0-1.65-.64,2.45,2.45,0,0,0-1.16.28,2.16,2.16,0,0,0-.87.83,2.57,2.57,0,0,0-.33,1.33v5.56a.86.86,0,0,1-.23.66.74.74,0,0,1-.57.23.85.85,0,0,1-.6-.24.91.91,0,0,1-.25-.65Z"/><path class="cls-1" d="M226.69,36.79h0a2.7,2.7,0,0,1-1.06,1.06,3.31,3.31,0,0,1-1.63.4,4,4,0,0,1-2.23-.72,4.52,4.52,0,0,1-1.53-1.9,6.31,6.31,0,0,1-.54-2.63,6.17,6.17,0,0,1,.57-2.64,4.35,4.35,0,0,1,1.56-1.82,4.23,4.23,0,0,1,2.34-.64,2.61,2.61,0,0,1,2.52,1.41h0v-.54a.75.75,0,0,1,.24-.6.8.8,0,0,1,.57-.22.85.85,0,0,1,.61.22.82.82,0,0,1,.24.64v8.62a5.62,5.62,0,0,1-.52,2.46,4,4,0,0,1-1.53,1.71,4.65,4.65,0,0,1-2.41.65,6,6,0,0,1-3.15-.9,1.57,1.57,0,0,1-.82-1.05.81.81,0,0,1,.67-.7,2.75,2.75,0,0,1,1.12.45,3.89,3.89,0,0,0,1,.52,3.44,3.44,0,0,0,1.21.22A2.28,2.28,0,0,0,226,39.72a4.58,4.58,0,0,0,.68-2.55V37A1.42,1.42,0,0,1,226.69,36.79Zm-5.36-3.71a6,6,0,0,0,.33,1.88,2.91,2.91,0,0,0,.9,1.31,2.32,2.32,0,0,0,1.44.52,2.57,2.57,0,0,0,2.08-1,4,4,0,0,0,.8-2.63,5.69,5.69,0,0,0-.31-1.84,3.38,3.38,0,0,0-1-1.44,2.45,2.45,0,0,0-1.64-.56,2.22,2.22,0,0,0-1.47.57,3.19,3.19,0,0,0-.88,1.38A5.77,5.77,0,0,0,221.33,33.08Z"/></g><g id="Studie"><path class="cls-1" d="M87.61,34a4.11,4.11,0,0,1-1.45,3.28,5.57,5.57,0,0,1-3.8,1.26,6.78,6.78,0,0,1-3.09-.65c-.86-.43-1.28-.94-1.28-1.52a1.3,1.3,0,0,1,.41-1,1.61,1.61,0,0,1,1.11-.38,6.61,6.61,0,0,1,1.45.35,6.09,6.09,0,0,0,1.85.35,1.55,1.55,0,0,0,1.09-.4,1.28,1.28,0,0,0,.44-1,1.29,1.29,0,0,0-.45-1A5.91,5.91,0,0,0,82,32.38a7,7,0,0,1-3-1.49,3.18,3.18,0,0,1-.85-2.33,3.93,3.93,0,0,1,1.36-3.08,5.22,5.22,0,0,1,3.55-1.19,5.43,5.43,0,0,1,2.64.57,1.65,1.65,0,0,1,1,1.42,1.24,1.24,0,0,1-.37,1,1.42,1.42,0,0,1-1,.35,4.88,4.88,0,0,1-1.18-.24,4.82,4.82,0,0,0-1.24-.24,1.74,1.74,0,0,0-1.09.32,1,1,0,0,0-.41.84c0,.55.6,1,1.81,1.39l.66.2a6.56,6.56,0,0,1,2.82,1.64A3.56,3.56,0,0,1,87.61,34Z"/><path class="cls-1" d="M90.48,30.78h-.11a2,2,0,0,1-1.24-.35,1.14,1.14,0,0,1-.44-.94,1.12,1.12,0,0,1,.44-.94,2.5,2.5,0,0,1,1.35-.37V26.86a2.88,2.88,0,0,1,.37-1.64A1.29,1.29,0,0,1,92,24.68a1.26,1.26,0,0,1,1.12.54,2.88,2.88,0,0,1,.37,1.64v1.32h.26a2.38,2.38,0,0,1,1.4.35,1.1,1.1,0,0,1,.49,1,1.07,1.07,0,0,1-.48,1,2.52,2.52,0,0,1-1.43.33h-.24v5.31a3,3,0,0,1-.36,1.65,1.26,1.26,0,0,1-1.13.53,1.29,1.29,0,0,1-1.13-.54,2.86,2.86,0,0,1-.37-1.64Z"/><path class="cls-1" d="M97,34.07v-4a2.88,2.88,0,0,1,.37-1.64,1.27,1.27,0,0,1,1.13-.53,1.24,1.24,0,0,1,1.12.53,2.88,2.88,0,0,1,.37,1.64v3.38a3,3,0,0,0,.36,1.7,1.67,1.67,0,0,0,2.36,0,3,3,0,0,0,.36-1.7V30.07a3,3,0,0,1,.36-1.64,1.27,1.27,0,0,1,1.13-.53,1.23,1.23,0,0,1,1.11.53,3,3,0,0,1,.36,1.64v4a4.31,4.31,0,0,1-1.16,3.25,5.59,5.59,0,0,1-6.71,0A4.34,4.34,0,0,1,97,34.07Z"/><path class="cls-1" d="M115.44,37.31a3.12,3.12,0,0,1-1.08.76,3.49,3.49,0,0,1-1.35.26,4.2,4.2,0,0,1-3.25-1.55A5.54,5.54,0,0,1,108.4,33a5.46,5.46,0,0,1,1.34-3.75A4.23,4.23,0,0,1,113,27.73a3.68,3.68,0,0,1,1.27.21,3.35,3.35,0,0,1,1.08.64V25.84a2.94,2.94,0,0,1,.37-1.66,1.26,1.26,0,0,1,1.13-.54,1.22,1.22,0,0,1,1.1.55,3,3,0,0,1,.37,1.65V36.09a3,3,0,0,1-.36,1.65,1.23,1.23,0,0,1-1.11.53,1.43,1.43,0,0,1-.81-.24A2.08,2.08,0,0,1,115.44,37.31Zm-4-4.28a2.81,2.81,0,0,0,.56,1.81,1.74,1.74,0,0,0,1.42.69,1.7,1.7,0,0,0,1.4-.69A2.79,2.79,0,0,0,115.4,33a2.89,2.89,0,0,0-.54-1.83,1.69,1.69,0,0,0-1.41-.7,1.74,1.74,0,0,0-1.43.7A2.93,2.93,0,0,0,111.47,33Z"/><path class="cls-1" d="M121.13,25.38a1.74,1.74,0,0,1,1.74-1.74,1.61,1.61,0,0,1,1.2.51,1.78,1.78,0,0,1,0,2.46,1.66,1.66,0,0,1-1.21.5,1.71,1.71,0,0,1-1.24-.5A1.69,1.69,0,0,1,121.13,25.38Zm3.22,10.71a3,3,0,0,1-.36,1.65,1.23,1.23,0,0,1-1.11.53,1.29,1.29,0,0,1-1.13-.54,3,3,0,0,1-.36-1.64v-6a3,3,0,0,1,.36-1.64,1.26,1.26,0,0,1,1.13-.53,1.23,1.23,0,0,1,1.11.53,3,3,0,0,1,.36,1.64Z"/><path class="cls-1" d="M129.91,33.91a2,2,0,0,0,.69,1.34,2.42,2.42,0,0,0,1.56.48,4.38,4.38,0,0,0,1.88-.49,4.58,4.58,0,0,1,1.27-.49,1.2,1.2,0,0,1,.86.32,1.14,1.14,0,0,1,.33.84c0,.64-.45,1.22-1.34,1.73a6.19,6.19,0,0,1-3.16.77,5,5,0,0,1-3.7-1.51,5.23,5.23,0,0,1-1.48-3.79,5.35,5.35,0,0,1,1.44-3.82,4.73,4.73,0,0,1,3.59-1.53,4.65,4.65,0,0,1,3.48,1.43,4.86,4.86,0,0,1,1.4,3.51,1.22,1.22,0,0,1-.31.94,1.82,1.82,0,0,1-1.17.27Zm0-2h3.95a1.82,1.82,0,0,0-.62-1.26,2,2,0,0,0-2.63,0A2.21,2.21,0,0,0,129.87,32Z"/></g></g></svg>