<svg xmlns="http://www.w3.org/2000/svg" viewBox="0 0 300 108.47"><defs><style>.cls-1{fill:#fff;}</style></defs><title>logo-payoff</title><g id="Layer_2" data-name="Layer 2"><g id="Layer_1-2" data-name="Layer 1"><path class="cls-1" d="M130.08,30l1.25-3.27a9.36,9.36,0,0,0,2.77,1.39,10.25,10.25,0,0,0,3.11.48,3.82,3.82,0,0,0,1.87-.37,1.2,1.2,0,0,0,.66-1.09,1.11,1.11,0,0,0-.47-.94,4.39,4.39,0,0,0-1.65-.59L135,25a6.6,6.6,0,0,1-3.35-1.59,4,4,0,0,1-1.07-2.9,4.28,4.28,0,0,1,.85-2.62,5.75,5.75,0,0,1,2.38-1.79,9.26,9.26,0,0,1,3.53-.64,10.93,10.93,0,0,1,3.3.51,10.11,10.11,0,0,1,2.9,1.45l-1.31,3.15a10.45,10.45,0,0,0-2.48-1.28,7.43,7.43,0,0,0-2.44-.43,3.45,3.45,0,0,0-1.81.4,1.26,1.26,0,0,0-.65,1.13,1,1,0,0,0,.39.85,3.33,3.33,0,0,0,1.38.55l2.65.59a7,7,0,0,1,3.52,1.68,4.11,4.11,0,0,1,1.09,3,4.18,4.18,0,0,1-1.8,3.56,8.34,8.34,0,0,1-5,1.31A11.55,11.55,0,0,1,130.08,30"/><path class="cls-1" d="M174.05,15.9V31.69h-4.58v-2.3a5.13,5.13,0,0,1-2,1.9,5.64,5.64,0,0,1-2.74.66,5.57,5.57,0,0,1-4.42-1.66,7.3,7.3,0,0,1-1.47-5V15.9h4.71v9.5c0,1.91.82,2.87,2.46,2.87a3.07,3.07,0,0,0,2.37-1,3.74,3.74,0,0,0,.9-2.62V15.9Z"/><path class="cls-1" d="M193.14,8.76V31.7H188.5V29.36a5,5,0,0,1-2,1.9,6.23,6.23,0,0,1-2.95.69,6.4,6.4,0,0,1-3.62-1.05A6.89,6.89,0,0,1,177.42,28a10,10,0,0,1-.89-4.31,9.88,9.88,0,0,1,.89-4.29,6.77,6.77,0,0,1,2.46-2.86,6.54,6.54,0,0,1,3.64-1,6.34,6.34,0,0,1,2.89.67,5,5,0,0,1,2,1.86V8.76Zm-5.58,18.4a5.46,5.46,0,0,0,.94-3.44,5.39,5.39,0,0,0-.95-3.41,3.21,3.21,0,0,0-2.66-1.2,3.32,3.32,0,0,0-2.72,1.18,5.22,5.22,0,0,0-1,3.37,5.53,5.53,0,0,0,1,3.47,3.27,3.27,0,0,0,2.72,1.23,3.18,3.18,0,0,0,2.67-1.2"/><path class="cls-1" d="M213.06,15.9l-7.29,16.64A10.35,10.35,0,0,1,202.39,37a11.39,11.39,0,0,1-5,1.82l-1.09-3.62A9.71,9.71,0,0,0,199.58,34a4.68,4.68,0,0,0,1.73-2.09l.47-1-6.51-15h4.92l4.05,10.25,4.18-10.25Z"/><path class="cls-1" d="M146.93,48.9V64.7h-4.64V62.37a4.86,4.86,0,0,1-2,1.89,6.27,6.27,0,0,1-3,.69,6.48,6.48,0,0,1-6.09-3.85,9.69,9.69,0,0,1-.89-4.28,10,10,0,0,1,.89-4.33,6.93,6.93,0,0,1,2.47-3,6.42,6.42,0,0,1,3.62-1,6.06,6.06,0,0,1,3,.72,5.08,5.08,0,0,1,2,1.93V48.9Zm-5.57,11.28a5.45,5.45,0,0,0,.93-3.43,5.52,5.52,0,0,0-.93-3.44,3.58,3.58,0,0,0-5.39,0,5.48,5.48,0,0,0-1,3.46A5.27,5.27,0,0,0,136,60.2a3.32,3.32,0,0,0,2.73,1.17,3.22,3.22,0,0,0,2.68-1.19"/><path class="cls-1" d="M149.71,63,151,59.75a9.58,9.58,0,0,0,2.77,1.38,10.05,10.05,0,0,0,3.11.49,3.83,3.83,0,0,0,1.88-.38,1.19,1.19,0,0,0,.65-1.09,1.1,1.1,0,0,0-.47-.93,4.39,4.39,0,0,0-1.65-.59l-2.59-.6a6.6,6.6,0,0,1-3.35-1.59,4,4,0,0,1-1.07-2.89,4.23,4.23,0,0,1,.86-2.62,5.47,5.47,0,0,1,2.38-1.79A9,9,0,0,1,157,48.5a10.93,10.93,0,0,1,3.3.51,9.86,9.86,0,0,1,2.9,1.45l-1.31,3.15a10.22,10.22,0,0,0-2.47-1.28,7.56,7.56,0,0,0-2.45-.44,3.44,3.44,0,0,0-1.81.41,1.26,1.26,0,0,0-.65,1.12,1.06,1.06,0,0,0,.39.86,3.27,3.27,0,0,0,1.38.54l2.65.6a7,7,0,0,1,3.53,1.68,4.52,4.52,0,0,1-.72,6.54,8.27,8.27,0,0,1-5,1.31A11.55,11.55,0,0,1,149.71,63"/><path class="cls-1" d="M165.38,63l1.25-3.27a9.51,9.51,0,0,0,2.78,1.38,10,10,0,0,0,3.11.49,3.81,3.81,0,0,0,1.87-.38,1.18,1.18,0,0,0,.65-1.09,1.09,1.09,0,0,0-.46-.93,4.54,4.54,0,0,0-1.65-.59l-2.59-.6A6.56,6.56,0,0,1,167,56.44a3.92,3.92,0,0,1-1.08-2.89,4.29,4.29,0,0,1,.86-2.62,5.53,5.53,0,0,1,2.38-1.79,9,9,0,0,1,3.53-.64A10.93,10.93,0,0,1,176,49a10,10,0,0,1,2.9,1.45l-1.31,3.15a10.27,10.27,0,0,0-2.48-1.28,7.51,7.51,0,0,0-2.45-.44,3.4,3.4,0,0,0-1.8.41,1.25,1.25,0,0,0-.66,1.12,1.06,1.06,0,0,0,.39.86,3.32,3.32,0,0,0,1.39.54l2.65.6a7,7,0,0,1,3.52,1.68,4.49,4.49,0,0,1-.72,6.54A8.22,8.22,0,0,1,172.46,65,11.58,11.58,0,0,1,165.38,63"/><path class="cls-1" d="M185.22,64a6.84,6.84,0,0,1-2.9-2.86,9.94,9.94,0,0,1,0-8.73,6.84,6.84,0,0,1,2.9-2.86,9.26,9.26,0,0,1,4.41-1,9.05,9.05,0,0,1,4.36,1,6.91,6.91,0,0,1,2.88,2.86,9.94,9.94,0,0,1,0,8.73A6.91,6.91,0,0,1,194,64a9.05,9.05,0,0,1-4.36,1,9.26,9.26,0,0,1-4.41-1m7.07-3.74a5.46,5.46,0,0,0,.92-3.48,5.52,5.52,0,0,0-.92-3.48,3.18,3.18,0,0,0-2.66-1.17,3.25,3.25,0,0,0-2.71,1.17,5.45,5.45,0,0,0-.94,3.48c0,3.09,1.21,4.64,3.65,4.64a3.2,3.2,0,0,0,2.66-1.16"/><path class="cls-1" d="M202.32,62.77a8,8,0,0,1-2.19-6,8.71,8.71,0,0,1,1.06-4.35,7.48,7.48,0,0,1,3-2.93,9.21,9.21,0,0,1,4.44-1,10.76,10.76,0,0,1,3.34.53,6.89,6.89,0,0,1,2.59,1.43l-1.25,3.27a7.78,7.78,0,0,0-2.06-1.17,6.42,6.42,0,0,0-2.18-.42,3.89,3.89,0,0,0-3,1.17A4.91,4.91,0,0,0,205,56.72,5,5,0,0,0,206,60.17a3.85,3.85,0,0,0,3,1.17,6.19,6.19,0,0,0,2.18-.42,8.07,8.07,0,0,0,2.06-1.17L214.53,63a7.56,7.56,0,0,1-2.68,1.42,11.73,11.73,0,0,1-3.46.51,8.27,8.27,0,0,1-6.07-2.18"/><path class="cls-1" d="M241.14,48.9V64.7h-4.65V62.37a4.92,4.92,0,0,1-2,1.89,6.27,6.27,0,0,1-3,.69,6.6,6.6,0,0,1-3.63-1,6.72,6.72,0,0,1-2.47-2.85,9.83,9.83,0,0,1-.88-4.28,10.12,10.12,0,0,1,.88-4.33,7.09,7.09,0,0,1,2.48-3,6.42,6.42,0,0,1,3.62-1,6.06,6.06,0,0,1,3,.72,5.15,5.15,0,0,1,2,1.93V48.9Zm-5.58,11.28a5.45,5.45,0,0,0,.93-3.43,5.52,5.52,0,0,0-.93-3.44,3.58,3.58,0,0,0-5.39,0,5.48,5.48,0,0,0-1,3.46,5.27,5.27,0,0,0,1,3.38,3.32,3.32,0,0,0,2.73,1.17,3.22,3.22,0,0,0,2.68-1.19"/><path class="cls-1" d="M269.22,64a6.84,6.84,0,0,1-2.9-2.86,9.85,9.85,0,0,1,0-8.73,6.84,6.84,0,0,1,2.9-2.86,9.2,9.2,0,0,1,4.41-1,9.08,9.08,0,0,1,4.36,1,6.91,6.91,0,0,1,2.88,2.86,9.94,9.94,0,0,1,0,8.73A6.91,6.91,0,0,1,278,64a9.08,9.08,0,0,1-4.36,1,9.2,9.2,0,0,1-4.41-1m7.07-3.74a5.52,5.52,0,0,0,.92-3.48,5.58,5.58,0,0,0-.92-3.48,3.18,3.18,0,0,0-2.66-1.17,3.28,3.28,0,0,0-2.72,1.17,5.51,5.51,0,0,0-.93,3.48c0,3.09,1.21,4.64,3.65,4.64a3.2,3.2,0,0,0,2.66-1.16"/><path class="cls-1" d="M300,55.14V64.7h-4.71V55.35a3.9,3.9,0,0,0-.6-2.41,2.31,2.31,0,0,0-1.92-.76,3.25,3.25,0,0,0-2.49,1,3.79,3.79,0,0,0-.94,2.68V64.7h-4.7V53.42a38.06,38.06,0,0,0-.25-4.52h4.42l.32,2.5a5.72,5.72,0,0,1,2.19-2.15,6.23,6.23,0,0,1,3.07-.75q5.61,0,5.61,6.64"/><rect class="cls-1" x="258.16" y="48.9" width="4.7" height="15.8"/><polygon class="cls-1" points="258.01 41.49 258 46.48 263.02 45.05 263.02 41.49 258.01 41.49"/><rect class="cls-1" x="217.46" y="48.9" width="4.71" height="15.8"/><polygon class="cls-1" points="217.31 41.49 217.3 46.48 222.32 45.05 222.32 41.49 217.31 41.49"/><path class="cls-1" d="M255.11,52.42V48.9h-4V44l-4.71,1.33V48.9h-3v3.52h3v6.24a6.54,6.54,0,0,0,1.55,4.64A5.8,5.8,0,0,0,252.4,65a7.52,7.52,0,0,0,2.71-.43V60.87a6.28,6.28,0,0,1-1.56.22,2.61,2.61,0,0,1-1.78-.61,2.48,2.48,0,0,1-.68-1.92V52.42Z"/><path class="cls-1" d="M156.57,19.42V15.9h-4v-5l-4.7,1.34v3.61h-3v3.52h3v6.23a6.52,6.52,0,0,0,1.54,4.64,5.8,5.8,0,0,0,4.48,1.65,7.59,7.59,0,0,0,2.71-.43V27.86a6.4,6.4,0,0,1-1.56.22,2.61,2.61,0,0,1-1.78-.6,2.45,2.45,0,0,1-.69-1.92V19.42Z"/><path class="cls-1" d="M75.67,33.66a9.26,9.26,0,0,0-7.84-3.86H62.37v27h5.46a9.32,9.32,0,0,0,4-.83,11,11,0,0,0,3.38-2.53c2.32-2.49,3.46-5.81,3.46-10.17a15.09,15.09,0,0,0-3-9.59Z"/><path class="cls-1" d="M0,0V108.47L108.47,75.93V0ZM35.25,78.64H24.41V29.83H35.25ZM84.1,60.11v0A19.12,19.12,0,0,1,68.41,67.8H51.53V19H68.41A19.05,19.05,0,0,1,84,26.64a26.14,26.14,0,0,1,5.46,16.69A26.58,26.58,0,0,1,84.1,60.11Z"/></g></g></svg>