<svg id="Logo" xmlns="http://www.w3.org/2000/svg" viewBox="0 0 283.46 85.04"><defs><style>.cls-1{fill:#fff;}</style></defs><title>logo-en</title><g id="Tekst"><g id="Faculty..._Group_" data-name="Faculty... Group "><path class="cls-1" d="M80,44.78a1.11,1.11,0,0,1,.62.14.44.44,0,0,1,.21.41.46.46,0,0,1-.2.4,1.22,1.22,0,0,1-.62.13h-1v.91h.82a1.12,1.12,0,0,1,.62.13.45.45,0,0,1,.21.41.44.44,0,0,1-.21.4,1.12,1.12,0,0,1-.62.13H79.1v1.28a1.14,1.14,0,0,1-.15.62.57.57,0,0,1-.8.07l-.07-.07a1.14,1.14,0,0,1-.15-.62V45.59a.67.67,0,0,1,.49-.81.86.86,0,0,1,.32,0Z"/><path class="cls-1" d="M84,49.52a1.07,1.07,0,0,1-.41.32,1.24,1.24,0,0,1-.53.12,1.56,1.56,0,0,1-1.21-.57,2.13,2.13,0,0,1-.5-1.42,2.1,2.1,0,0,1,.51-1.42A1.61,1.61,0,0,1,83.11,46a1.25,1.25,0,0,1,.51.1,1,1,0,0,1,.39.3.78.78,0,0,1,.24-.27.53.53,0,0,1,.3-.09.48.48,0,0,1,.42.2,1,1,0,0,1,.14.62v2.26a1.08,1.08,0,0,1-.14.63.48.48,0,0,1-.42.2.55.55,0,0,1-.32-.1A.84.84,0,0,1,84,49.52ZM82.54,48a1.05,1.05,0,0,0,.2.66.65.65,0,0,0,.92.12l.12-.12A1.05,1.05,0,0,0,84,48a1,1,0,0,0-.2-.65.67.67,0,0,0-.94-.11l-.1.11A1,1,0,0,0,82.54,48Z"/><path class="cls-1" d="M86.05,48a2,2,0,0,1,.53-1.46A1.85,1.85,0,0,1,88,46a1.75,1.75,0,0,1,.92.2.6.6,0,0,1,.35.52.48.48,0,0,1-.14.34.47.47,0,0,1-.33.14,1.55,1.55,0,0,1-.36-.08A1.64,1.64,0,0,0,88,47a.73.73,0,0,0-.57.26,1.08,1.08,0,0,0-.21.69,1,1,0,0,0,.22.7.75.75,0,0,0,.6.25,1.42,1.42,0,0,0,.45-.08,1.23,1.23,0,0,1,.33-.08.38.38,0,0,1,.31.14.49.49,0,0,1,.13.35.64.64,0,0,1-.38.53,1.85,1.85,0,0,1-1,.22,1.76,1.76,0,0,1-1.35-.55A2,2,0,0,1,86.05,48Z"/><path class="cls-1" d="M90,48.33v-1.5a1,1,0,0,1,.14-.62.51.51,0,0,1,.43-.2.5.5,0,0,1,.42.2,1,1,0,0,1,.14.62V48.1a1.11,1.11,0,0,0,.14.64.63.63,0,0,0,.88,0h0a1.19,1.19,0,0,0,.13-.64V46.83a1.11,1.11,0,0,1,.14-.62.51.51,0,0,1,.43-.2.47.47,0,0,1,.41.2,1,1,0,0,1,.14.62v1.5A1.65,1.65,0,0,1,93,49.56a2.09,2.09,0,0,1-2.53,0A1.65,1.65,0,0,1,90,48.33Z"/><path class="cls-1" d="M94.59,45.23a1.2,1.2,0,0,1,.14-.62.49.49,0,0,1,.43-.21.46.46,0,0,1,.41.21,1,1,0,0,1,.14.62v3.88a1.12,1.12,0,0,1-.13.62.5.5,0,0,1-.42.2.51.51,0,0,1-.43-.2,1.23,1.23,0,0,1-.14-.62Z"/><path class="cls-1" d="M97.13,47.1h0a.7.7,0,0,1-.47-.13.46.46,0,0,1-.07-.65l.07-.07a1,1,0,0,1,.51-.14v-.5a1,1,0,0,1,.14-.61.49.49,0,0,1,.43-.21.46.46,0,0,1,.42.21,1,1,0,0,1,.14.61v.5h.1a.89.89,0,0,1,.53.13.46.46,0,0,1,0,.74.92.92,0,0,1-.54.12h-.09v2a1.12,1.12,0,0,1-.13.62.56.56,0,0,1-.86,0,1.15,1.15,0,0,1-.14-.63Z"/><path class="cls-1" d="M101.74,46.46a.81.81,0,0,1,.21-.34.44.44,0,0,1,.29-.11.53.53,0,0,1,.4.15.51.51,0,0,1,.16.39.57.57,0,0,1,0,.18,1.72,1.72,0,0,1-.07.21L101,51a1.09,1.09,0,0,1-.22.36.42.42,0,0,1-.28.1.53.53,0,0,1-.41-.15.56.56,0,0,1-.15-.39.69.69,0,0,1,0-.2.73.73,0,0,1,.07-.19l.46-1-1.14-2.65a.74.74,0,0,1,0-.14.74.74,0,0,1,.14-.58.57.57,0,0,1,.39-.16.5.5,0,0,1,.33.12,1,1,0,0,1,.25.43l.64,1.7Z"/><path class="cls-1" d="M107.42,49.12a1.2,1.2,0,0,1-.14.62.58.58,0,0,1-.81.07l-.07-.07a1,1,0,0,1-.14-.62V45.54a1,1,0,0,1,.14-.62.56.56,0,0,1,.8-.08.6.6,0,0,1,.08.08,1.18,1.18,0,0,1,.14.62Z"/><path class="cls-1" d="M108.67,49.11V46.83a1.12,1.12,0,0,1,.13-.62.51.51,0,0,1,.43-.2.59.59,0,0,1,.31.09.87.87,0,0,1,.23.27,1,1,0,0,1,.42-.29,1.59,1.59,0,0,1,.57-.1,1.34,1.34,0,0,1,1,.39,1.54,1.54,0,0,1,.35,1.11v1.63a1,1,0,0,1-.14.61.54.54,0,0,1-.77.09l-.08-.09a1.08,1.08,0,0,1-.14-.61V47.82a1.21,1.21,0,0,0-.14-.67.62.62,0,0,0-.87,0l0,0a1.13,1.13,0,0,0-.14.65v1.3a1.08,1.08,0,0,1-.14.61.54.54,0,0,1-.77.09l-.09-.09A1.07,1.07,0,0,1,108.67,49.11Z"/><path class="cls-1" d="M115.69,49.56a1.07,1.07,0,0,1-.41.28,1.25,1.25,0,0,1-.51.1,1.57,1.57,0,0,1-1.22-.58,2.22,2.22,0,0,1,0-2.84,1.59,1.59,0,0,1,1.23-.58,1.33,1.33,0,0,1,.89.32v-1a1,1,0,0,1,.14-.62.48.48,0,0,1,.43-.21.46.46,0,0,1,.41.21,1,1,0,0,1,.14.62V49.1a1,1,0,0,1-.14.62.45.45,0,0,1-.41.2.56.56,0,0,1-.31-.09A.67.67,0,0,1,115.69,49.56ZM114.19,48a1,1,0,0,0,.21.68.67.67,0,0,0,.95.12.68.68,0,0,0,.12-.12,1,1,0,0,0,.2-.68,1.06,1.06,0,0,0-.2-.69.66.66,0,0,0-.94-.13.8.8,0,0,0-.13.13A1.07,1.07,0,0,0,114.19,48Z"/><path class="cls-1" d="M117.91,48.33v-1.5a1.11,1.11,0,0,1,.14-.62.51.51,0,0,1,.43-.2.48.48,0,0,1,.42.2,1,1,0,0,1,.14.62V48.1a1.11,1.11,0,0,0,.14.64.63.63,0,0,0,.88,0h0a1.11,1.11,0,0,0,.13-.64V46.83a1.2,1.2,0,0,1,.14-.62.51.51,0,0,1,.43-.2.5.5,0,0,1,.42.2,1.11,1.11,0,0,1,.13.62v1.5a1.64,1.64,0,0,1-.43,1.23,2.1,2.1,0,0,1-2.54,0A1.65,1.65,0,0,1,117.91,48.33Z"/><path class="cls-1" d="M123.54,50a2,2,0,0,1-1-.25.69.69,0,0,1-.39-.6.52.52,0,0,1,.12-.36.41.41,0,0,1,.31-.14,1.21,1.21,0,0,1,.52.16,1.37,1.37,0,0,0,.52.16.38.38,0,0,0,.23-.06.22.22,0,0,0,.09-.17c0-.11-.18-.24-.55-.38l-.07,0a2.47,2.47,0,0,1-.85-.51,1,1,0,0,1-.23-.65,1.15,1.15,0,0,1,.4-.87,1.53,1.53,0,0,1,1-.35,1.74,1.74,0,0,1,.94.24.67.67,0,0,1,.39.55.48.48,0,0,1-.14.34.47.47,0,0,1-.33.14,1.33,1.33,0,0,1-.44-.14,1.32,1.32,0,0,0-.47-.13.25.25,0,0,0-.19.05.16.16,0,0,0-.07.14q0,.16.45.33l.33.14a1.94,1.94,0,0,1,.72.48.87.87,0,0,1,.22.61,1.19,1.19,0,0,1-.43.93A1.68,1.68,0,0,1,123.54,50Z"/><path class="cls-1" d="M126.17,47.1h0a.7.7,0,0,1-.47-.13.46.46,0,0,1-.07-.65l.07-.07a1,1,0,0,1,.51-.14v-.5a1,1,0,0,1,.14-.61.49.49,0,0,1,.43-.21.46.46,0,0,1,.42.21,1,1,0,0,1,.14.61v.5h.1a.89.89,0,0,1,.53.13.42.42,0,0,1,.18.37.41.41,0,0,1-.18.37.92.92,0,0,1-.54.12h-.09v2a1.12,1.12,0,0,1-.13.62.56.56,0,0,1-.86,0,1.07,1.07,0,0,1-.14-.63Z"/><path class="cls-1" d="M128.7,49.11V46.83a1.23,1.23,0,0,1,.14-.62.51.51,0,0,1,.43-.2.53.53,0,0,1,.3.09.88.88,0,0,1,.24.27,1.32,1.32,0,0,1,.37-.29,1.07,1.07,0,0,1,.4-.1.56.56,0,0,1,.4.17.54.54,0,0,1,.17.4c0,.22-.21.42-.62.57l-.34.13a.63.63,0,0,0-.28.23.84.84,0,0,0-.07.44v1.19a1.23,1.23,0,0,1-.14.62.56.56,0,0,1-.78.07l-.08-.07A1.23,1.23,0,0,1,128.7,49.11Z"/><path class="cls-1" d="M131.73,45.06a.6.6,0,0,1,.19-.47.65.65,0,0,1,.92,0,.67.67,0,0,1,0,.93.68.68,0,0,1-.92,0A.6.6,0,0,1,131.73,45.06Zm1.21,4a1.12,1.12,0,0,1-.13.62.5.5,0,0,1-.42.2.51.51,0,0,1-.43-.2,1.23,1.23,0,0,1-.14-.62V46.83a1.23,1.23,0,0,1,.14-.62.51.51,0,0,1,.43-.2.5.5,0,0,1,.42.2,1.12,1.12,0,0,1,.13.62Z"/><path class="cls-1" d="M136.56,49.52a1.07,1.07,0,0,1-.41.32,1.24,1.24,0,0,1-.53.12,1.56,1.56,0,0,1-1.21-.57,2.13,2.13,0,0,1-.5-1.42,2.1,2.1,0,0,1,.51-1.42,1.61,1.61,0,0,1,1.24-.58,1.25,1.25,0,0,1,.51.1,1,1,0,0,1,.39.3.78.78,0,0,1,.24-.27.53.53,0,0,1,.3-.09.48.48,0,0,1,.42.2,1.11,1.11,0,0,1,.14.62v2.26a1.17,1.17,0,0,1-.14.63.48.48,0,0,1-.42.2.55.55,0,0,1-.32-.1A.73.73,0,0,1,136.56,49.52ZM135.09,48a1,1,0,0,0,.2.66.64.64,0,0,0,.52.26.66.66,0,0,0,.52-.26,1.05,1.05,0,0,0,.2-.66.94.94,0,0,0-.21-.65.66.66,0,0,0-.93-.11.52.52,0,0,0-.1.11A1,1,0,0,0,135.09,48Z"/><path class="cls-1" d="M138.85,45.23a1,1,0,0,1,.14-.62.53.53,0,0,1,.84,0,1.2,1.2,0,0,1,.14.62v3.88a1.23,1.23,0,0,1-.14.62.54.54,0,0,1-.84,0,1.05,1.05,0,0,1-.14-.62Z"/><path class="cls-1" d="M145.65,44.78a4,4,0,0,1,.85.09,1.92,1.92,0,0,1,.66.27,2.21,2.21,0,0,1,.8.89,2.79,2.79,0,0,1,.29,1.24,2.69,2.69,0,0,1-.67,1.9,2.38,2.38,0,0,1-1.82.7H144.7a.9.9,0,0,1-.62-.15.8.8,0,0,1-.17-.58V45.59a.84.84,0,0,1,.18-.63.87.87,0,0,1,.62-.18Zm-.58,4h.53a1.33,1.33,0,0,0,1-.38,1.66,1.66,0,0,0,.35-1.15,1.45,1.45,0,0,0-.35-1.06,1.48,1.48,0,0,0-1.06-.35h-.51Z"/><path class="cls-1" d="M150.15,48.28a.72.72,0,0,0,.26.49A.92.92,0,0,0,151,49a1.73,1.73,0,0,0,.71-.18,1.75,1.75,0,0,1,.48-.18.45.45,0,0,1,.33.12.41.41,0,0,1,.12.31c0,.25-.17.46-.5.66A2.38,2.38,0,0,1,151,50a1.89,1.89,0,0,1-1.4-.57A2,2,0,0,1,149,48a2,2,0,0,1,.55-1.44,1.8,1.8,0,0,1,1.35-.57,1.75,1.75,0,0,1,1.31.54,1.82,1.82,0,0,1,.53,1.32.48.48,0,0,1-.12.36.68.68,0,0,1-.44.1Zm0-.74h1.48a.66.66,0,0,0-.23-.47.76.76,0,0,0-1,0,.79.79,0,0,0-.26.48Z"/><path class="cls-1" d="M154.68,50a1.93,1.93,0,0,1-1-.25.68.68,0,0,1-.4-.6.58.58,0,0,1,.12-.36.38.38,0,0,1,.31-.14,1.21,1.21,0,0,1,.52.16,1.37,1.37,0,0,0,.52.16.38.38,0,0,0,.23-.06.2.2,0,0,0,.09-.17c0-.11-.18-.24-.55-.38l-.07,0a2.64,2.64,0,0,1-.85-.51,1,1,0,0,1-.22-.65,1.1,1.1,0,0,1,.4-.87,1.48,1.48,0,0,1,1-.35,1.71,1.71,0,0,1,.94.24.67.67,0,0,1,.39.55.48.48,0,0,1-.14.34.44.44,0,0,1-.33.14,1.41,1.41,0,0,1-.44-.14,1.32,1.32,0,0,0-.47-.13.26.26,0,0,0-.19.05.19.19,0,0,0-.07.14q0,.16.45.33l.33.14a2,2,0,0,1,.73.48.91.91,0,0,1,.21.61,1.16,1.16,0,0,1-.43.93A1.68,1.68,0,0,1,154.68,50Z"/><path class="cls-1" d="M157,45.06a.6.6,0,0,1,.19-.47.65.65,0,0,1,.92,0,.67.67,0,0,1,0,.93.68.68,0,0,1-.92,0A.6.6,0,0,1,157,45.06Zm1.21,4a1.12,1.12,0,0,1-.13.62.55.55,0,0,1-.77.08l-.08-.08a1.23,1.23,0,0,1-.14-.62V46.83a1.23,1.23,0,0,1,.14-.62.51.51,0,0,1,.43-.2.48.48,0,0,1,.42.2,1.12,1.12,0,0,1,.13.62Z"/><path class="cls-1" d="M161.86,49.4a1.53,1.53,0,0,1-.44.4,1.31,1.31,0,0,1-.59.13,1.46,1.46,0,0,1-1.15-.56,2.12,2.12,0,0,1-.47-1.4,2,2,0,0,1,.5-1.42A1.63,1.63,0,0,1,161,46a1.24,1.24,0,0,1,.5.1,1.08,1.08,0,0,1,.4.3.78.78,0,0,1,.22-.26.48.48,0,0,1,.28-.1.51.51,0,0,1,.43.2,1.23,1.23,0,0,1,.14.62v2.26a6.37,6.37,0,0,1-.07,1,1.72,1.72,0,0,1-.2.59,1.65,1.65,0,0,1-.68.63,2.34,2.34,0,0,1-1,.22,2.7,2.7,0,0,1-1.19-.24c-.31-.16-.46-.35-.46-.59a.48.48,0,0,1,.14-.36.5.5,0,0,1,.35-.14,2.06,2.06,0,0,1,.48.15,2,2,0,0,0,.72.16.87.87,0,0,0,.65-.25,1,1,0,0,0,.23-.71V49.4ZM160.38,48a1.11,1.11,0,0,0,.2.68.68.68,0,0,0,.94.12l.12-.12a1.06,1.06,0,0,0,.21-.68,1,1,0,0,0-.21-.67.68.68,0,0,0-.95-.11l-.11.11A1.06,1.06,0,0,0,160.38,48Z"/><path class="cls-1" d="M164.08,49.11V46.83a1.05,1.05,0,0,1,.14-.62.49.49,0,0,1,.42-.2.56.56,0,0,1,.31.09.67.67,0,0,1,.23.27,1.1,1.1,0,0,1,.42-.29,1.65,1.65,0,0,1,.58-.1,1.34,1.34,0,0,1,1,.39,1.59,1.59,0,0,1,.35,1.11v1.63a1.17,1.17,0,0,1-.14.61.54.54,0,0,1-.77.09l-.09-.09a1.17,1.17,0,0,1-.14-.61V47.82a1.21,1.21,0,0,0-.14-.67.61.61,0,0,0-.91,0,1.06,1.06,0,0,0-.15.65v1.3a1,1,0,0,1-.14.61.54.54,0,0,1-.77.09.34.34,0,0,1-.08-.09A1,1,0,0,1,164.08,49.11Z"/><path class="cls-1" d="M173.52,44.78a1.08,1.08,0,0,1,.61.14.44.44,0,0,1,.21.41.46.46,0,0,1-.2.4,1.22,1.22,0,0,1-.62.13h-.94v.91h.81a1.11,1.11,0,0,1,.62.13.44.44,0,0,1,.2.41.43.43,0,0,1-.2.4,1.11,1.11,0,0,1-.62.13h-.81v1h1a1.14,1.14,0,0,1,.63.13.51.51,0,0,1,.1.71l-.1.1a1.14,1.14,0,0,1-.63.13H172.2a.93.93,0,0,1-.62-.15.75.75,0,0,1-.16-.58V45.59a.67.67,0,0,1,.48-.81.86.86,0,0,1,.32,0Z"/><path class="cls-1" d="M175.35,49.11V46.83a1.13,1.13,0,0,1,.14-.62.5.5,0,0,1,.42-.2.56.56,0,0,1,.31.09.78.78,0,0,1,.24.27,1,1,0,0,1,.41-.29,1.65,1.65,0,0,1,.58-.1,1.34,1.34,0,0,1,1,.39,1.59,1.59,0,0,1,.35,1.11v1.63a1.17,1.17,0,0,1-.14.61.54.54,0,0,1-.77.09.34.34,0,0,1-.08-.09,1.09,1.09,0,0,1-.15-.61V47.82a1.13,1.13,0,0,0-.14-.67.61.61,0,0,0-.91,0,1.14,1.14,0,0,0-.15.65v1.3a1,1,0,0,1-.14.61.54.54,0,0,1-.77.09.34.34,0,0,1-.08-.09A1.08,1.08,0,0,1,175.35,49.11Z"/><path class="cls-1" d="M182.36,49.4a1.37,1.37,0,0,1-.43.4,1.31,1.31,0,0,1-.59.13,1.46,1.46,0,0,1-1.15-.56,2.18,2.18,0,0,1-.48-1.4,2.1,2.1,0,0,1,.51-1.42,1.63,1.63,0,0,1,1.25-.58,1.24,1.24,0,0,1,.5.1,1,1,0,0,1,.39.3,1,1,0,0,1,.23-.26.48.48,0,0,1,.28-.1.48.48,0,0,1,.43.2,1.12,1.12,0,0,1,.13.62v2.26a6.37,6.37,0,0,1-.05,1,2,2,0,0,1-.21.59,1.65,1.65,0,0,1-.68.63,2.34,2.34,0,0,1-1,.22,2.7,2.7,0,0,1-1.19-.24c-.31-.16-.46-.35-.46-.59a.48.48,0,0,1,.14-.36.49.49,0,0,1,.34-.14,2,2,0,0,1,.49.15,2,2,0,0,0,.72.16.86.86,0,0,0,.65-.25,1,1,0,0,0,.23-.71v-.06A.56.56,0,0,0,182.36,49.4ZM180.89,48a1.06,1.06,0,0,0,.21.68.65.65,0,0,0,.52.26.67.67,0,0,0,.53-.26,1.06,1.06,0,0,0,.21-.68,1,1,0,0,0-.21-.67.64.64,0,0,0-.53-.25.63.63,0,0,0-.52.25A1,1,0,0,0,180.89,48Z"/><path class="cls-1" d="M184.52,45.06a.6.6,0,0,1,.19-.47.65.65,0,0,1,.92,0,.67.67,0,0,1,0,.93.68.68,0,0,1-.92,0A.6.6,0,0,1,184.52,45.06Zm1.21,4a1.12,1.12,0,0,1-.13.62.55.55,0,0,1-.77.08l-.08-.08a1.23,1.23,0,0,1-.14-.62V46.83a1.23,1.23,0,0,1,.14-.62.51.51,0,0,1,.43-.2.48.48,0,0,1,.42.2,1.12,1.12,0,0,1,.13.62Z"/><path class="cls-1" d="M186.93,49.11V46.83a1.05,1.05,0,0,1,.14-.62.49.49,0,0,1,.42-.2.56.56,0,0,1,.31.09.67.67,0,0,1,.23.27,1.1,1.1,0,0,1,.42-.29A1.65,1.65,0,0,1,189,46a1.3,1.3,0,0,1,1,.39,1.55,1.55,0,0,1,.36,1.11v1.63a1.17,1.17,0,0,1-.14.61.54.54,0,0,1-.77.09l-.09-.09a1.17,1.17,0,0,1-.14-.61V47.82a1.21,1.21,0,0,0-.14-.67.61.61,0,0,0-.91,0,1.06,1.06,0,0,0-.15.65v1.3a1,1,0,0,1-.14.61.49.49,0,0,1-.43.21.46.46,0,0,1-.42-.21A1,1,0,0,1,186.93,49.11Z"/><path class="cls-1" d="M192.46,48.28a.68.68,0,0,0,.26.49.9.9,0,0,0,.59.18,1.73,1.73,0,0,0,.7-.18,1.75,1.75,0,0,1,.48-.18.45.45,0,0,1,.33.12A.46.46,0,0,1,195,49c0,.25-.17.46-.51.66a2.38,2.38,0,0,1-1.19.29,1.89,1.89,0,0,1-1.4-.57,2,2,0,0,1-.56-1.43,2,2,0,0,1,.55-1.44,1.81,1.81,0,0,1,1.35-.57,1.75,1.75,0,0,1,1.31.54,1.82,1.82,0,0,1,.53,1.32.48.48,0,0,1-.12.36.68.68,0,0,1-.44.1Zm0-.74h1.48a.66.66,0,0,0-.23-.47.69.69,0,0,0-.49-.19.68.68,0,0,0-.49.18.8.8,0,0,0-.27.48Z"/><path class="cls-1" d="M196.84,48.28a.68.68,0,0,0,.26.49.9.9,0,0,0,.59.18,1.73,1.73,0,0,0,.71-.18,1.64,1.64,0,0,1,.48-.18.43.43,0,0,1,.45.43c0,.25-.17.46-.51.66a2.33,2.33,0,0,1-1.19.29,1.86,1.86,0,0,1-1.39-.57,1.91,1.91,0,0,1-.56-1.43,2,2,0,0,1,.54-1.44,1.81,1.81,0,0,1,1.35-.57,1.7,1.7,0,0,1,1.31.54,1.82,1.82,0,0,1,.53,1.32.47.47,0,0,1-.11.36.71.71,0,0,1-.45.1Zm0-.74h1.49a.71.71,0,0,0-.23-.47.76.76,0,0,0-1,0,.8.8,0,0,0-.27.48Z"/><path class="cls-1" d="M200.28,49.11V46.83a1.23,1.23,0,0,1,.14-.62.51.51,0,0,1,.43-.2.53.53,0,0,1,.3.09.78.78,0,0,1,.24.27,1.16,1.16,0,0,1,.37-.29,1.07,1.07,0,0,1,.4-.1.58.58,0,0,1,.57.57c0,.22-.21.41-.62.57l-.34.13a.7.7,0,0,0-.28.23,1,1,0,0,0-.07.44v1.19a1.23,1.23,0,0,1-.14.62.55.55,0,0,1-.78.07l-.08-.07A1.23,1.23,0,0,1,200.28,49.11Z"/><path class="cls-1" d="M203.31,45.06a.68.68,0,0,1,.19-.47.65.65,0,0,1,.92.92h0a.68.68,0,0,1-.92,0A.63.63,0,0,1,203.31,45.06Zm1.22,4a1.23,1.23,0,0,1-.14.62.49.49,0,0,1-.42.2.51.51,0,0,1-.43-.2,1.12,1.12,0,0,1-.13-.62V46.83a1.12,1.12,0,0,1,.13-.62A.51.51,0,0,1,204,46a.49.49,0,0,1,.42.2,1.23,1.23,0,0,1,.14.62Z"/><path class="cls-1" d="M205.72,49.11V46.83a1.05,1.05,0,0,1,.14-.62.49.49,0,0,1,.42-.2.56.56,0,0,1,.31.09.67.67,0,0,1,.23.27,1.1,1.1,0,0,1,.42-.29,1.65,1.65,0,0,1,.58-.1,1.3,1.3,0,0,1,1,.39,1.55,1.55,0,0,1,.36,1.11v1.63a1.17,1.17,0,0,1-.14.61.55.55,0,0,1-.86,0,1.17,1.17,0,0,1-.14-.61V47.82a1.21,1.21,0,0,0-.14-.67.61.61,0,0,0-.91,0,1.14,1.14,0,0,0-.15.65v1.3a1,1,0,0,1-.14.61.54.54,0,0,1-.77.09.34.34,0,0,1-.08-.09A1,1,0,0,1,205.72,49.11Z"/><path class="cls-1" d="M212.73,49.4a1.16,1.16,0,0,1-1,.53,1.46,1.46,0,0,1-1.15-.56,2.18,2.18,0,0,1-.48-1.4,2.1,2.1,0,0,1,.51-1.42,1.63,1.63,0,0,1,1.24-.58,1.25,1.25,0,0,1,.51.1,1,1,0,0,1,.39.3,1,1,0,0,1,.23-.26.48.48,0,0,1,.28-.1.52.52,0,0,1,.43.2,1.23,1.23,0,0,1,.14.62v2.26a6.37,6.37,0,0,1-.07,1,1.72,1.72,0,0,1-.2.59,1.65,1.65,0,0,1-.68.63,2.34,2.34,0,0,1-1,.22,2.7,2.7,0,0,1-1.19-.24c-.31-.16-.46-.35-.46-.59a.45.45,0,0,1,.14-.36.48.48,0,0,1,.34-.14,2,2,0,0,1,.49.15,2,2,0,0,0,.72.16.87.87,0,0,0,.65-.25,1,1,0,0,0,.23-.71v-.06A.56.56,0,0,0,212.73,49.4ZM211.26,48a1.11,1.11,0,0,0,.2.68.67.67,0,0,0,.93.12l.13-.12a1.06,1.06,0,0,0,.21-.68,1.07,1.07,0,0,0-.21-.67.68.68,0,0,0-1-.11l-.11.11A1.06,1.06,0,0,0,211.26,48Z"/></g><g id="i.d"><path class="cls-1" d="M244.84,25.38a1.74,1.74,0,0,1,1.73-1.74,1.67,1.67,0,0,1,1.21.51,1.77,1.77,0,0,1,.5,1.23,1.67,1.67,0,0,1-.5,1.23,1.61,1.61,0,0,1-1.21.5,1.71,1.71,0,0,1-1.73-1.69v0Zm3.21,10.71a2.88,2.88,0,0,1-.36,1.65,1.24,1.24,0,0,1-1.11.53,1.26,1.26,0,0,1-1.12-.53,3,3,0,0,1-.37-1.65v-6a2.93,2.93,0,0,1,.36-1.64,1.27,1.27,0,0,1,1.13-.53,1.24,1.24,0,0,1,1.11.53,2.93,2.93,0,0,1,.36,1.64Z"/><path class="cls-1" d="M250.55,36.55a1.67,1.67,0,0,1,.51-1.21,1.73,1.73,0,0,1,1.23-.51,1.65,1.65,0,0,1,1.2.51,1.73,1.73,0,0,1,0,2.43,1.64,1.64,0,0,1-1.21.5,1.67,1.67,0,0,1-1.24-.5A1.72,1.72,0,0,1,250.55,36.55Z"/><path class="cls-1" d="M262.84,37.31a3,3,0,0,1-1.08.76,3.45,3.45,0,0,1-1.35.26,4.16,4.16,0,0,1-3.24-1.55,5.89,5.89,0,0,1,0-7.53,4.19,4.19,0,0,1,3.26-1.52,3.42,3.42,0,0,1,1.27.21,3.33,3.33,0,0,1,1.09.64V25.84a3,3,0,0,1,.36-1.66,1.3,1.3,0,0,1,1.13-.54,1.26,1.26,0,0,1,1.11.55,3.05,3.05,0,0,1,.36,1.65V36.09a3,3,0,0,1-.36,1.65,1.24,1.24,0,0,1-1.11.53,1.37,1.37,0,0,1-.8-.24A2.14,2.14,0,0,1,262.84,37.31Zm-4-4.28a2.8,2.8,0,0,0,.55,1.81,1.75,1.75,0,0,0,1.42.69,1.68,1.68,0,0,0,1.4-.69A2.74,2.74,0,0,0,262.8,33a2.86,2.86,0,0,0-.54-1.83,1.7,1.7,0,0,0-1.41-.7,1.72,1.72,0,0,0-1.42.7,2.87,2.87,0,0,0-.55,1.83Z"/></g><g id="association"><path class="cls-1" d="M144.75,29.27v-.55a.82.82,0,0,1,.23-.6.78.78,0,0,1,1.1,0,.87.87,0,0,1,.23.63v8.64a.84.84,0,0,1-.22.64.82.82,0,0,1-.56.22A.81.81,0,0,1,145,38a.75.75,0,0,1-.24-.58v-.74h0a3.31,3.31,0,0,1-2.64,1.53,4.5,4.5,0,0,1-2.32-.64,4.26,4.26,0,0,1-1.64-1.8,6.56,6.56,0,0,1,.06-5.58,4.39,4.39,0,0,1,1.66-1.76,4,4,0,0,1,2-.57,3.36,3.36,0,0,1,1.56.32,4.23,4.23,0,0,1,1.29,1.05Zm-5.54,3.81a5.38,5.38,0,0,0,.29,1.82,3.18,3.18,0,0,0,.91,1.37,2.16,2.16,0,0,0,1.46.52,2.34,2.34,0,0,0,2.18-1.09,4.9,4.9,0,0,0,.67-2.62,5.54,5.54,0,0,0-.34-2,2.92,2.92,0,0,0-1-1.3,2.33,2.33,0,0,0-1.42-.45h0a2.37,2.37,0,0,0-2,1.08A4.74,4.74,0,0,0,139.21,33.08Z"/><path class="cls-1" d="M149,37.12a1.1,1.1,0,0,1-.45-.82.72.72,0,0,1,.2-.52.64.64,0,0,1,.52-.22,1,1,0,0,1,.48.13,6.17,6.17,0,0,1,.6.39,2.78,2.78,0,0,0,.51.33,3.25,3.25,0,0,0,1.4.38,3,3,0,0,0,1.44-.33,1.13,1.13,0,0,0,.62-1.05,1.3,1.3,0,0,0-.77-1.14,10.78,10.78,0,0,0-1.46-.68c-.7-.28-1.24-.51-1.63-.71a3.38,3.38,0,0,1-1-.83,2,2,0,0,1-.44-1.35,2.43,2.43,0,0,1,.41-1.38,3,3,0,0,1,1.16-1,4.1,4.1,0,0,1,1.72-.41,5,5,0,0,1,1.79.31,3.87,3.87,0,0,1,1.28.69,1.14,1.14,0,0,1,.39.79.71.71,0,0,1-.21.49.83.83,0,0,1-.53.25,4.16,4.16,0,0,1-.93-.44l-.9-.49a2,2,0,0,0-.72-.15,2.06,2.06,0,0,0-1.34.37,1.19,1.19,0,0,0-.49.9,1.34,1.34,0,0,0,.44.78,3,3,0,0,0,.82.55c.31.14.68.28,1.12.43s.74.26.91.34a4.07,4.07,0,0,1,1.61,1.07,2.34,2.34,0,0,1,.49,1.49,2.88,2.88,0,0,1-1.69,2.53,4.66,4.66,0,0,1-2,.44A4.91,4.91,0,0,1,149,37.12Z"/><path class="cls-1" d="M158.18,37.12a1.11,1.11,0,0,1-.46-.82.78.78,0,0,1,.21-.52.64.64,0,0,1,.52-.22,1,1,0,0,1,.48.13q.3.18.6.39a2.7,2.7,0,0,0,.5.33,3.29,3.29,0,0,0,1.4.38,3,3,0,0,0,1.44-.33,1.12,1.12,0,0,0,.63-1.05,1.3,1.3,0,0,0-.77-1.14,11.37,11.37,0,0,0-1.46-.68c-.7-.28-1.25-.51-1.63-.71a3.12,3.12,0,0,1-1-.83,2.06,2.06,0,0,1-.45-1.35,2.51,2.51,0,0,1,.41-1.38,3,3,0,0,1,1.16-1,4.14,4.14,0,0,1,1.72-.41,5,5,0,0,1,1.8.31,3.83,3.83,0,0,1,1.27.69,1.15,1.15,0,0,1,.4.79.68.68,0,0,1-.22.49.8.8,0,0,1-.52.25,4.23,4.23,0,0,1-.94-.44l-.89-.49a2,2,0,0,0-.72-.15,2.1,2.1,0,0,0-1.35.37,1.18,1.18,0,0,0-.48.9,1.32,1.32,0,0,0,.43.78,3.19,3.19,0,0,0,.82.55c.31.14.69.28,1.13.43s.74.26.9.34a3.9,3.9,0,0,1,1.61,1.07,2.23,2.23,0,0,1,.49,1.49,2.82,2.82,0,0,1-.43,1.44,3,3,0,0,1-1.25,1.09,4.67,4.67,0,0,1-2.05.44A4.87,4.87,0,0,1,158.18,37.12Z"/><path class="cls-1" d="M167.1,33.08a6,6,0,0,1,.57-2.66,4.42,4.42,0,0,1,1.59-1.86,4.21,4.21,0,0,1,4.64.07,4.6,4.6,0,0,1,1.55,1.89,6.1,6.1,0,0,1,.54,2.56,6.18,6.18,0,0,1-.53,2.58,4.54,4.54,0,0,1-1.55,1.89,4.32,4.32,0,0,1-4.72,0,4.56,4.56,0,0,1-1.56-1.89A6.17,6.17,0,0,1,167.1,33.08Zm1.67,0a5,5,0,0,0,.67,2.56,2.22,2.22,0,0,0,2.07,1.15,2.45,2.45,0,0,0,1.56-.5A2.89,2.89,0,0,0,174,35a6,6,0,0,0,.32-1.87,5.4,5.4,0,0,0-.31-1.87,3.06,3.06,0,0,0-.94-1.35,2.36,2.36,0,0,0-1.51-.51,2.49,2.49,0,0,0-1.51.48,3.06,3.06,0,0,0-.95,1.34A5.4,5.4,0,0,0,168.77,33.08Z"/><path class="cls-1" d="M185.17,28.83a1,1,0,0,1,.07.36.63.63,0,0,1-.2.48.9.9,0,0,1-.54.22l-.57-.19c-.32-.11-.57-.19-.78-.24a2.15,2.15,0,0,0-.62-.08,2.31,2.31,0,0,0-1.54.51,3.22,3.22,0,0,0-1,1.34,5,5,0,0,0-.37,1.72,5.41,5.41,0,0,0,.59,2.53,2.37,2.37,0,0,0,2,1.32.9.9,0,0,1,.28,0,3.47,3.47,0,0,0,.45-.06,2.85,2.85,0,0,0,.39-.11,4.1,4.1,0,0,0,.39-.16l.36-.16a1.06,1.06,0,0,1,.42-.12.58.58,0,0,1,.45.2.73.73,0,0,1,.18.51,1.06,1.06,0,0,1-.86,1,5.72,5.72,0,0,1-1.78.29,4.4,4.4,0,0,1-2.4-.67,4.3,4.3,0,0,1-1.58-1.8,5.85,5.85,0,0,1-.58-2.47,7.7,7.7,0,0,1,.27-2,5.25,5.25,0,0,1,.8-1.71,3.89,3.89,0,0,1,1.41-1.2,4.64,4.64,0,0,1,2-.48,5.27,5.27,0,0,1,1.76.28A1.81,1.81,0,0,1,185.17,28.83Z"/><path class="cls-1" d="M189.37,26.61a1,1,0,0,1-.73-.32,1.07,1.07,0,0,1,0-1.49h0a1,1,0,0,1,.73-.32,1,1,0,0,1,.72.32,1,1,0,0,1,.31.74,1.06,1.06,0,0,1-.31.75A1,1,0,0,1,189.37,26.61Zm-.81,2.18a.86.86,0,0,1,.24-.66.77.77,0,0,1,.57-.23.81.81,0,0,1,.59.22.84.84,0,0,1,.25.63v8.64A.84.84,0,0,1,190,38a.86.86,0,0,1-.59.23.82.82,0,0,1-.57-.24.77.77,0,0,1-.24-.62Z"/><path class="cls-1" d="M199.91,29.27v-.55a.82.82,0,0,1,.23-.6.8.8,0,0,1,1.11,0,.9.9,0,0,1,.22.63v8.64a.84.84,0,0,1-.22.64.82.82,0,0,1-.56.22.86.86,0,0,1-.55-.21.78.78,0,0,1-.23-.58v-.74h0a3.31,3.31,0,0,1-2.64,1.53,4.5,4.5,0,0,1-2.32-.64,4.26,4.26,0,0,1-1.64-1.8,6.56,6.56,0,0,1,.06-5.58A4.39,4.39,0,0,1,195,28.47a3.91,3.91,0,0,1,2-.57,3.36,3.36,0,0,1,1.56.32,4.35,4.35,0,0,1,1.29,1.05Zm-5.55,3.81a5.65,5.65,0,0,0,.3,1.82,3.25,3.25,0,0,0,.9,1.37,2.21,2.21,0,0,0,1.47.52,2.34,2.34,0,0,0,2.18-1.09,5,5,0,0,0,.67-2.62,5.33,5.33,0,0,0-.35-2,2.83,2.83,0,0,0-1-1.3,2.33,2.33,0,0,0-1.42-.45h0a2.37,2.37,0,0,0-2,1.08A4.83,4.83,0,0,0,194.36,33.08Z"/><path class="cls-1" d="M205.93,29.46h-.73a.78.78,0,0,1-.57-.2.8.8,0,0,1-.25-.5.74.74,0,0,1,.72-.76h.83V25.76a.75.75,0,0,1,.24-.58.87.87,0,0,1,.58-.2.91.91,0,0,1,.61.21.71.71,0,0,1,.25.61V28h.74a.78.78,0,0,1,.58.2.85.85,0,0,1,.2.55.7.7,0,0,1-.2.49.64.64,0,0,1-.5.21h-.82v8a.76.76,0,0,1-.26.6,1,1,0,0,1-.64.22.82.82,0,0,1-.55-.22.9.9,0,0,1-.23-.64Z"/><path class="cls-1" d="M212.53,26.61a1,1,0,0,1-.74-.32,1.06,1.06,0,0,1,0-1.49,1,1,0,0,1,.74-.32,1,1,0,0,1,.72.32,1.07,1.07,0,0,1,0,1.49A1,1,0,0,1,212.53,26.61Zm-.82,2.18a.9.9,0,0,1,.24-.66.78.78,0,0,1,.58-.23.81.81,0,0,1,.59.22.83.83,0,0,1,.24.63v8.64a.84.84,0,0,1-.25.63.83.83,0,0,1-.58.23A.83.83,0,0,1,212,38a.84.84,0,0,1-.24-.62Z"/><path class="cls-1" d="M215.84,33.08a6,6,0,0,1,.57-2.66A4.49,4.49,0,0,1,218,28.56a4.22,4.22,0,0,1,4.65.07,4.68,4.68,0,0,1,1.55,1.89,6.09,6.09,0,0,1,.53,2.56,6.18,6.18,0,0,1-.53,2.58,4.47,4.47,0,0,1-1.55,1.89,4.32,4.32,0,0,1-4.72,0,4.47,4.47,0,0,1-1.55-1.89A6.18,6.18,0,0,1,215.84,33.08Zm1.68,0a5,5,0,0,0,.66,2.56,2.23,2.23,0,0,0,2.08,1.15,2.4,2.4,0,0,0,1.55-.5,3,3,0,0,0,.93-1.34,6.33,6.33,0,0,0,.32-1.87,5.41,5.41,0,0,0-.32-1.87,3,3,0,0,0-.93-1.35,2.38,2.38,0,0,0-1.51-.51,2.45,2.45,0,0,0-1.51.48,2.9,2.9,0,0,0-.95,1.34,5.4,5.4,0,0,0-.32,1.91Z"/><path class="cls-1" d="M227.16,28.79a1,1,0,0,1,.24-.66.79.79,0,0,1,.58-.23.76.76,0,0,1,.59.23.91.91,0,0,1,.25.66v.4l0,0a3.24,3.24,0,0,1,1.22-1,3.43,3.43,0,0,1,1.54-.34,3.71,3.71,0,0,1,1.76.42,3.25,3.25,0,0,1,1.3,1.3,4.19,4.19,0,0,1,.49,2.14V37.4a.71.71,0,0,1-.24.6.85.85,0,0,1-.59.22.89.89,0,0,1-.58-.22.79.79,0,0,1-.24-.6V31.79a2.26,2.26,0,0,0-.69-1.77,2.34,2.34,0,0,0-1.65-.64,2.44,2.44,0,0,0-1.15.28,2.11,2.11,0,0,0-.87.83,2.51,2.51,0,0,0-.33,1.33v5.56a.94.94,0,0,1-.23.66.73.73,0,0,1-.57.23.79.79,0,0,1-.6-.24.89.89,0,0,1-.25-.65Z"/></g><g id="Study"><path class="cls-1" d="M87.87,33.9a4.26,4.26,0,0,1-1.48,3.37,5.7,5.7,0,0,1-3.9,1.29,7,7,0,0,1-3.17-.66c-.87-.45-1.31-1-1.31-1.56a1.36,1.36,0,0,1,.42-1,1.65,1.65,0,0,1,1.14-.39,6.93,6.93,0,0,1,1.48.35,6.38,6.38,0,0,0,1.89.35,1.52,1.52,0,0,0,1.11-.41,1.42,1.42,0,0,0,.07-2L84,33.14a6,6,0,0,0-2-.86,7,7,0,0,1-3-1.53,3.31,3.31,0,0,1-.87-2.4,4,4,0,0,1,1.4-3.16A5.31,5.31,0,0,1,83.2,24a5.55,5.55,0,0,1,2.71.58A1.69,1.69,0,0,1,87,26a1.29,1.29,0,0,1-.37,1,1.42,1.42,0,0,1-1,.35,4.9,4.9,0,0,1-1.21-.24,5.48,5.48,0,0,0-1.27-.24A1.74,1.74,0,0,0,82,27.2a1,1,0,0,0-.42.86c0,.56.62,1,1.85,1.43l.66.21A6.59,6.59,0,0,1,87,31.38,3.59,3.59,0,0,1,87.87,33.9Z"/><path class="cls-1" d="M90.54,30.65h-.12a2.07,2.07,0,0,1-1.27-.36,1.18,1.18,0,0,1-.46-1,1.15,1.15,0,0,1,.46-1A2.63,2.63,0,0,1,90.54,28V26.61a3,3,0,0,1,.38-1.68,1.29,1.29,0,0,1,1.16-.55,1.31,1.31,0,0,1,1.15.55,3.07,3.07,0,0,1,.37,1.68V28h.27a2.43,2.43,0,0,1,1.42.36,1.19,1.19,0,0,1,.51,1,1.11,1.11,0,0,1-.49,1,2.57,2.57,0,0,1-1.46.34H93.6v5.44a3,3,0,0,1-.37,1.69,1.48,1.48,0,0,1-2.31,0,3,3,0,0,1-.38-1.68Z"/><path class="cls-1" d="M97,34v-4.1a2.91,2.91,0,0,1,.38-1.68,1.3,1.3,0,0,1,1.16-.54,1.28,1.28,0,0,1,1.14.54,3,3,0,0,1,.38,1.68v3.47a3.05,3.05,0,0,0,.37,1.73,1.69,1.69,0,0,0,2.39,0l0,0a3.05,3.05,0,0,0,.37-1.73V29.91a3,3,0,0,1,.38-1.68,1.49,1.49,0,0,1,2.3,0,2.91,2.91,0,0,1,.37,1.68V34A4.39,4.39,0,0,1,105,37.35a5.72,5.72,0,0,1-6.89,0A4.39,4.39,0,0,1,97,34Z"/><path class="cls-1" d="M115.53,37.34a3.33,3.33,0,0,1-1.11.78,3.47,3.47,0,0,1-1.39.26,4.3,4.3,0,0,1-3.33-1.59,6,6,0,0,1,0-7.73A4.3,4.3,0,0,1,113,27.5a3.64,3.64,0,0,1,1.31.21,3.8,3.8,0,0,1,1.11.66v-2.8a3.14,3.14,0,0,1,.37-1.7,1.34,1.34,0,0,1,1.17-.55,1.27,1.27,0,0,1,1.14.56,3.09,3.09,0,0,1,.37,1.69V36.09a2.94,2.94,0,0,1-.37,1.69,1.29,1.29,0,0,1-1.14.55,1.48,1.48,0,0,1-.83-.26A2,2,0,0,1,115.53,37.34ZM111.45,33A2.85,2.85,0,0,0,112,34.8a1.8,1.8,0,0,0,1.46.72,1.76,1.76,0,0,0,1.45-.71,2.94,2.94,0,0,0,.56-1.86,3,3,0,0,0-.56-1.89,1.82,1.82,0,0,0-2.91,0A3,3,0,0,0,111.45,33Z"/><path class="cls-1" d="M126.86,28.91a2.6,2.6,0,0,1,.56-.93,1.17,1.17,0,0,1,.81-.29,1.52,1.52,0,0,1,1.1.39,1.43,1.43,0,0,1,.41,1.07,2,2,0,0,1-.07.49,3.93,3.93,0,0,1-.19.58L124.8,41.33a2.82,2.82,0,0,1-.6,1,1.08,1.08,0,0,1-.74.27,1.55,1.55,0,0,1-1.12-.4,1.46,1.46,0,0,1-.41-1.09,2.32,2.32,0,0,1,.07-.52,3.35,3.35,0,0,1,.19-.53l1.27-2.74-3.11-7.23a1.66,1.66,0,0,1-.11-.38,2.59,2.59,0,0,1,0-.48,1.49,1.49,0,0,1,.43-1.08,1.42,1.42,0,0,1,1.06-.44,1.25,1.25,0,0,1,.89.31,3.05,3.05,0,0,1,.67,1.17L125,33.81Z"/></g></g><path class="cls-1" d="M40.59,15.08,17.68,18.73c-3.16.43-6,2.23-5.89,5.64L13.6,51.68,32.66,69.89,59.12,58c1.72-1,3.05-1.79,3.19-5.65l1.21-28.7ZM41.3,59c0,1.41,0,2.83,0,4.23l-3.92,1.75-4.07,1.82V58l4.11-1.67,4-1.6C41.33,56.12,41.31,57.54,41.3,59Zm.12-11.5c0,1.45,0,2.91-.05,4.35l-4,1.56L33.27,55V45.92l4.17-1.46,4-1.4c0,1.47,0,2.94,0,4.4Zm.1-10.34A4.35,4.35,0,0,1,38.82,41l-5.55,1.86V36.64a4.33,4.33,0,0,1,2.84-4l5.47-1.59q0,3-.06,6Zm9.59,17.65-.09,4L47.47,60.4l-3.68,1.65c0-1.38,0-2.78.05-4.18l.06-4.22,3.72-1.51,3.58-1.46c0,1.37-.06,2.74-.09,4.09Zm.22-9.61a4.35,4.35,0,0,1-2.45,3.71L43.94,50.8c0-1.9.05-3.82.08-5.74a4.29,4.29,0,0,1,2.56-3.79l4.87-1.7c0,1.87-.08,3.74-.12,5.59ZM60,52.26a4.31,4.31,0,0,1-2.24,3.54l-4.43,2c0-1.77.09-3.56.13-5.35a4.35,4.35,0,0,1,2.33-3.62l4.38-1.77C60.1,48.8,60,50.53,60,52.26Zm.39-11.83c-.05,1.33-.09,2.66-.14,4L57,45.7,53.59,47c0-1.36.07-2.73.1-4.11s.07-2.77.1-4.15l3.42-1.2,3.3-1.15c0,1.35-.09,2.69-.13,4Zm.35-10.81c0,1.37-.09,2.73-.13,4.09l-3.31,1.11L53.86,36c0-1.4.07-2.81.11-4.23s.07-2.84.1-4.28l3.46-1,3.34-1C60.82,26.87,60.78,28.25,60.73,29.62Z"/></svg>