<svg xmlns="http://www.w3.org/2000/svg" viewBox="0 0 100 100"><defs><style>.cls-1{fill:#fff;}</style></defs><title>logo-mark</title><g id="Layer_2" data-name="Layer 2"><g id="Logo_white" data-name="Logo white"><path class="cls-1" d="M69.76,31a8.78,8.78,0,0,0-3.17-2.68,9,9,0,0,0-4.06-.88h-5V52.36h5a8.55,8.55,0,0,0,3.66-.77,9.94,9.94,0,0,0,3.12-2.33h0c2.14-2.29,3.18-5.36,3.18-9.37a13.93,13.93,0,0,0-2.71-8.84Z"/><path class="cls-1" d="M0,0V100L100,70V0ZM32.5,72.5h-10v-45h10Zm45-17.08v0A17.63,17.63,0,0,1,63.07,62.5H47.5v-45H63.07a17.59,17.59,0,0,1,14.4,7.06A24.12,24.12,0,0,1,82.5,40,24.54,24.54,0,0,1,77.53,55.42Z"/></g></g></svg>