<svg id="Logo" xmlns="http://www.w3.org/2000/svg" viewBox="0 0 283.4648 85.0391"><defs><style>.cls-1{fill:#fff;}</style></defs><title>logo</title><g id="Tekst"><g id="Faculty..._Group_" data-name="Faculty... &lt;Group&gt;"><path class="cls-1" d="M80.0449,44.7813a1.1431,1.1431,0,0,1,.62.1338.4557.4557,0,0,1,.2075.41.4474.4474,0,0,1-.2055.4,1.1647,1.1647,0,0,1-.6216.1328h-.9492v.9092h.82a1.1648,1.1648,0,0,1,.624.1328.4523.4523,0,0,1,.2066.4072.4462.4462,0,0,1-.2066.4043,1.1554,1.1554,0,0,1-.624.1329h-.82v1.2724a1.0922,1.0922,0,0,1-.1436.6221.57.57,0,0,1-.874,0,1.0842,1.0842,0,0,1-.1436-.6221V45.5928a.6666.6666,0,0,1,.8008-.8115Z"/><path class="cls-1" d="M84.0136,49.5235a1.1063,1.1063,0,0,1-.4135.3213,1.2407,1.2407,0,0,1-.5288.1123,1.5488,1.5488,0,0,1-1.2149-.57,2.0923,2.0923,0,0,1-.4931-1.4209,2.067,2.067,0,0,1,.5087-1.42,1.5962,1.5962,0,0,1,1.2413-.5761,1.2194,1.2194,0,0,1,.5068.0986,1.0688,1.0688,0,0,1,.3935.3017.7353.7353,0,0,1,.2344-.2675.54.54,0,0,1,.3057-.0909.478.478,0,0,1,.4209.1983,1.1087,1.1087,0,0,1,.1372.6172v2.2636a1.1314,1.1314,0,0,1-.1392.6241.4749.4749,0,0,1-.4189.2041.5149.5149,0,0,1-.32-.0977A.7109.7109,0,0,1,84.0136,49.5235Zm-1.4755-1.5782a1.0377,1.0377,0,0,0,.2.667.6572.6572,0,0,0,1.04-.0039,1.04,1.04,0,0,0,.2007-.6631.9989.9989,0,0,0-.2026-.6474.663.663,0,0,0-1.0357-.002A.9984.9984,0,0,0,82.5381,47.9453Z"/><path class="cls-1" d="M86.0469,47.9658a2.0078,2.0078,0,0,1,.5361-1.4521,1.8628,1.8628,0,0,1,1.4082-.5576,1.8177,1.8177,0,0,1,.9145.2012.5939.5939,0,0,1,.3511.5224.4765.4765,0,0,1-.1338.3438.4508.4508,0,0,1-.3364.1367,1.5237,1.5237,0,0,1-.355-.085,1.5439,1.5439,0,0,0-.4424-.084.7.7,0,0,0-.5664.2627,1.0524,1.0524,0,0,0-.2148.6895,1.0317,1.0317,0,0,0,.22.6972.764.764,0,0,0,.604.254,1.5092,1.5092,0,0,0,.4434-.084,1.436,1.436,0,0,1,.3354-.084.4022.4022,0,0,1,.312.1406.5091.5091,0,0,1,.127.3486.6293.6293,0,0,1-.3828.5332,1.85,1.85,0,0,1-.9458.2217,1.7665,1.7665,0,0,1-1.354-.5556A2.0332,2.0332,0,0,1,86.0469,47.9658Z"/><path class="cls-1" d="M90.0176,48.3291v-1.501a1.0866,1.0866,0,0,1,.14-.6162.4912.4912,0,0,1,.43-.2.4794.4794,0,0,1,.4233.2,1.0907,1.0907,0,0,1,.14.6162v1.2706a1.1155,1.1155,0,0,0,.1362.6367.6244.6244,0,0,0,.8882,0,1.1109,1.1109,0,0,0,.1367-.6367V46.8281a1.1009,1.1009,0,0,1,.1372-.6162.482.482,0,0,1,.4273-.2.4711.4711,0,0,1,.4179.1993,1.1047,1.1047,0,0,1,.1363.6171v1.501a1.639,1.639,0,0,1-.438,1.23,2.0965,2.0965,0,0,1-2.5357,0A1.634,1.634,0,0,1,90.0176,48.3291Z"/><path class="cls-1" d="M94.5928,45.2285a1.106,1.106,0,0,1,.1391-.622.4808.4808,0,0,1,.4258-.2032.4673.4673,0,0,1,.416.2051,1.1193,1.1193,0,0,1,.1382.62v3.877a1.1313,1.1313,0,0,1-.1362.623.4719.4719,0,0,1-.418.2.4823.4823,0,0,1-.4258-.2021,1.1116,1.1116,0,0,1-.1391-.6211Z"/><path class="cls-1" d="M97.13,47.1035h-.043a.7362.7362,0,0,1-.4712-.1337.46.46,0,0,1,0-.7168A.9477.9477,0,0,1,97.13,46.11v-.4961a1.0943,1.0943,0,0,1,.14-.6172.4881.4881,0,0,1,.43-.2022.4763.4763,0,0,1,.4233.2022,1.0984,1.0984,0,0,1,.14.6172V46.11h.0981a.8844.8844,0,0,1,.5239.1328.4267.4267,0,0,1,.19.37.4137.4137,0,0,1-.1816.3652.9549.9549,0,0,1-.5391.125h-.0908v2.002a1.1209,1.1209,0,0,1-.1382.623.4789.4789,0,0,1-.4248.2.49.49,0,0,1-.43-.2021,1.1113,1.1113,0,0,1-.14-.6211Z"/><path class="cls-1" d="M101.7383,46.4629a.8547.8547,0,0,1,.207-.3428.4215.4215,0,0,1,.2969-.1084.5543.5543,0,0,1,.4023.1456.5154.5154,0,0,1,.1524.3935.7867.7867,0,0,1-.0254.1777,2,2,0,0,1-.07.2139l-1.7246,4.0811a1.0128,1.0128,0,0,1-.22.3584.3946.3946,0,0,1-.2734.1.5645.5645,0,0,1-.41-.1474.5323.5323,0,0,1-.15-.3985.7688.7688,0,0,1,.0244-.1914,1.0492,1.0492,0,0,1,.07-.1962l.4658-1.0069-1.1416-2.6553a.5558.5558,0,0,1-.042-.1386.94.94,0,0,1-.0147-.1768.5434.5434,0,0,1,.1582-.3984.5211.5211,0,0,1,.3887-.1612.4753.4753,0,0,1,.3311.1163,1.0867,1.0867,0,0,1,.2431.43l.6387,1.7041Z"/><path class="cls-1" d="M107.4189,49.12a1.08,1.08,0,0,1-.1435.6192.57.57,0,0,1-.8741,0,1.0726,1.0726,0,0,1-.1435-.6192V45.5362a1.0784,1.0784,0,0,1,.1435-.62.5684.5684,0,0,1,.8741,0,1.0855,1.0855,0,0,1,.1435.62Z"/><path class="cls-1" d="M108.666,49.1055V46.83a1.0959,1.0959,0,0,1,.1377-.6172.4811.4811,0,0,1,.4267-.2012.5367.5367,0,0,1,.3047.09.7847.7847,0,0,1,.2354.2705,1.0611,1.0611,0,0,1,.418-.2949,1.5674,1.5674,0,0,1,.5751-.0928,1.3113,1.3113,0,0,1,1.0176.3828,1.5951,1.5951,0,0,1,.3535,1.1152v1.6231a1.1028,1.1028,0,0,1-.1406.6191.5482.5482,0,0,1-.8535,0,1.1042,1.1042,0,0,1-.1387-.6191V47.8242a1.2085,1.2085,0,0,0-.1425-.6738.6149.6149,0,0,0-.9161.0069,1.1581,1.1581,0,0,0-.1445.6533v1.2949a1.0953,1.0953,0,0,1-.1406.6191.5492.5492,0,0,1-.8545,0A1.105,1.105,0,0,1,108.666,49.1055Z"/><path class="cls-1" d="M115.6885,49.5586a1.1581,1.1581,0,0,1-.4073.2862,1.3022,1.3022,0,0,1-.5088.0986,1.5812,1.5812,0,0,1-1.2255-.586,2.084,2.084,0,0,1-.5157-1.4248,2.06,2.06,0,0,1,.5088-1.415,1.5856,1.5856,0,0,1,1.2324-.5752,1.4205,1.4205,0,0,1,.4795.0781,1.3264,1.3264,0,0,1,.4082.2432V45.2305a1.1274,1.1274,0,0,1,.1377-.624.48.48,0,0,1,.4278-.2032.4673.4673,0,0,1,.416.2051,1.1242,1.1242,0,0,1,.1387.6221v3.8721a1.1093,1.1093,0,0,1-.1368.6181.4683.4683,0,0,1-.4179.2022.53.53,0,0,1-.3037-.0938A.7464.7464,0,0,1,115.6885,49.5586Zm-1.4971-1.6094a1.0539,1.0539,0,0,0,.2109.6827.6732.6732,0,0,0,1.0664.0009,1.0716,1.0716,0,0,0,.2061-.6836,1.1025,1.1025,0,0,0-.2041-.6933.6725.6725,0,0,0-1.07.001A1.0906,1.0906,0,0,0,114.1914,47.9492Z"/><path class="cls-1" d="M117.9111,48.3291v-1.501a1.0825,1.0825,0,0,1,.14-.6162.4909.4909,0,0,1,.4306-.2.4762.4762,0,0,1,.4219.2,1.0826,1.0826,0,0,1,.1406.6162v1.2706a1.1068,1.1068,0,0,0,.1367.6367.6238.6238,0,0,0,.8877,0,1.1151,1.1151,0,0,0,.1358-.6367V46.8281a1.1006,1.1006,0,0,1,.1377-.6162.4821.4821,0,0,1,.4277-.2.4677.4677,0,0,1,.417.1993,1.096,1.096,0,0,1,.1367.6171v1.501a1.6408,1.6408,0,0,1-.4375,1.23,2.0971,2.0971,0,0,1-2.5361,0A1.6334,1.6334,0,0,1,117.9111,48.3291Z"/><path class="cls-1" d="M123.5351,49.9854a1.874,1.874,0,0,1-1.0009-.2442.6946.6946,0,0,1-.3975-.5976.5357.5357,0,0,1,.126-.3613.385.385,0,0,1,.3047-.1465,1.3736,1.3736,0,0,1,.5234.1631,1.3788,1.3788,0,0,0,.5215.164.3725.3725,0,0,0,.2265-.0654.2.2,0,0,0,.0879-.1651c0-.1113-.1816-.24-.5449-.3837-.0332-.0137-.0566-.0245-.07-.0284a2.3986,2.3986,0,0,1-.85-.5136.93.93,0,0,1-.2275-.6446,1.1071,1.1071,0,0,1,.4-.872,1.4936,1.4936,0,0,1,1.0166-.3477,1.76,1.76,0,0,1,.9375.2354.6638.6638,0,0,1,.3868.5546.4626.4626,0,0,1-.1348.3379.4473.4473,0,0,1-.332.1377,1.343,1.343,0,0,1-.4414-.1357,1.2971,1.2971,0,0,0-.4717-.1367.2955.2955,0,0,0-.1865.0537.1718.1718,0,0,0-.07.1426c0,.1045.15.2138.4493.3291.1416.0517.2519.0976.3339.1347a2.0466,2.0466,0,0,1,.7227.4824.9159.9159,0,0,1,.2148.6153,1.165,1.165,0,0,1-.4316.9219A1.6256,1.6256,0,0,1,123.5351,49.9854Z"/><path class="cls-1" d="M126.17,47.1035h-.042a.7349.7349,0,0,1-.4717-.1337.4612.4612,0,0,1,0-.7168.9431.9431,0,0,1,.5137-.1426v-.4961a1.091,1.091,0,0,1,.14-.6172.4891.4891,0,0,1,.4307-.2022.4762.4762,0,0,1,.4229.2022,1.0986,1.0986,0,0,1,.1406.6172V46.11h.0976a.8828.8828,0,0,1,.5235.1328.4269.4269,0,0,1,.1894.37.4115.4115,0,0,1-.1816.3652.956.956,0,0,1-.5391.125h-.09v2.002a1.1206,1.1206,0,0,1-.1387.623.48.48,0,0,1-.4248.2.4912.4912,0,0,1-.4307-.2021,1.1079,1.1079,0,0,1-.14-.6211Z"/><path class="cls-1" d="M128.7041,49.1055V46.83a1.1051,1.1051,0,0,1,.1367-.6172.4828.4828,0,0,1,.4277-.2012.5391.5391,0,0,1,.3047.09.7941.7941,0,0,1,.2354.2705,1.285,1.285,0,0,1,.37-.29.879.879,0,0,1,.3965-.0977.5575.5575,0,0,1,.4052.167.5387.5387,0,0,1,.1709.3955q0,.3412-.625.5723a3.2124,3.2124,0,0,0-.3369.1338.6.6,0,0,0-.2832.2255.9716.9716,0,0,0-.0693.4463v1.1807a1.1156,1.1156,0,0,1-.1406.6211.5537.5537,0,0,1-.8555,0A1.1264,1.1264,0,0,1,128.7041,49.1055Z"/><path class="cls-1" d="M131.7265,45.0557a.6262.6262,0,0,1,.1924-.4609.6333.6333,0,0,1,.4629-.1915.6176.6176,0,0,1,.4551.1915.6542.6542,0,0,1,.0019.9208.6189.6189,0,0,1-.457.1885.6333.6333,0,0,1-.4668-.1885A.6252.6252,0,0,1,131.7265,45.0557Zm1.2168,4.05a1.1309,1.1309,0,0,1-.1367.623.4706.4706,0,0,1-.417.2.48.48,0,0,1-.4258-.2021,1.1079,1.1079,0,0,1-.14-.6211V46.83a1.1043,1.1043,0,0,1,.1377-.6172.4806.4806,0,0,1,.4277-.2012.4671.4671,0,0,1,.417.2012,1.1136,1.1136,0,0,1,.1367.6172Z"/><path class="cls-1" d="M136.5625,49.5235a1.113,1.113,0,0,1-.4141.3213,1.2388,1.2388,0,0,1-.5273.1123,1.5461,1.5461,0,0,1-1.2149-.57,2.0923,2.0923,0,0,1-.4931-1.4209,2.0643,2.0643,0,0,1,.5088-1.42,1.5946,1.5946,0,0,1,1.24-.5761,1.2271,1.2271,0,0,1,.5078.0986,1.0791,1.0791,0,0,1,.3926.3017.739.739,0,0,1,.2344-.2675.5427.5427,0,0,1,.3066-.0909.4739.4739,0,0,1,.4189.1983,1.1005,1.1005,0,0,1,.1368.6172v2.2636a1.1326,1.1326,0,0,1-.1377.6241.4746.4746,0,0,1-.418.2041.5184.5184,0,0,1-.32-.0977A.7148.7148,0,0,1,136.5625,49.5235Zm-1.4766-1.5782a1.0439,1.0439,0,0,0,.2012.667.6348.6348,0,0,0,.5234.253.6267.6267,0,0,0,.5156-.2569,1.0339,1.0339,0,0,0,.2012-.6631.988.988,0,0,0-.2031-.6474.6624.6624,0,0,0-1.0352-.002A.9994.9994,0,0,0,135.0859,47.9453Z"/><path class="cls-1" d="M138.8467,45.2285a1.1191,1.1191,0,0,1,.1386-.622.4837.4837,0,0,1,.4268-.2032.4753.4753,0,0,1,.418.2051,1.1471,1.1471,0,0,1,.1367.62v3.877a1.1222,1.1222,0,0,1-.1367.623.4725.4725,0,0,1-.418.2.4853.4853,0,0,1-.4268-.2021,1.1249,1.1249,0,0,1-.1386-.6211Z"/><path class="cls-1" d="M145.6465,44.7813a3.75,3.75,0,0,1,.8584.0879,2.1055,2.1055,0,0,1,.66.2685,2.2425,2.2425,0,0,1,.794.8906,2.7175,2.7175,0,0,1,.2871,1.2461,2.6366,2.6366,0,0,1-.666,1.9,2.4038,2.4038,0,0,1-1.8223.6992h-1.0606a.9452.9452,0,0,1-.62-.1543.7861.7861,0,0,1-.1679-.5811V45.5928a.8887.8887,0,0,1,.18-.6377.8764.8764,0,0,1,.6211-.1738Zm-.5743,4.0146H145.6a1.3363,1.3363,0,0,0,1.043-.3808,1.67,1.67,0,0,0,.3457-1.15,1.4222,1.4222,0,0,0-.3536-1.0567,1.4373,1.4373,0,0,0-1.0546-.35h-.5079Z"/><path class="cls-1" d="M150.1543,48.2783a.7159.7159,0,0,0,.2607.4942.9212.9212,0,0,0,.59.1767,1.7276,1.7276,0,0,0,.708-.1806,1.8524,1.8524,0,0,1,.48-.1826.4479.4479,0,0,1,.3252.122.4213.4213,0,0,1,.1259.3155q0,.3632-.5078.6552a2.3451,2.3451,0,0,1-1.19.292,1.8665,1.8665,0,0,1-1.3936-.57,1.9552,1.9552,0,0,1-.5586-1.4277,2.02,2.02,0,0,1,.5411-1.44,1.791,1.791,0,0,1,1.3554-.5762,1.766,1.766,0,0,1,1.3115.54,1.8329,1.8329,0,0,1,.5274,1.3242.4583.4583,0,0,1-.1182.3575.7018.7018,0,0,1-.4453.1005Zm-.0147-.7412h1.4824a.6753.6753,0,0,0-.2294-.4687.7554.7554,0,0,0-.9883-.0108A.8278.8278,0,0,0,150.14,47.5371Z"/><path class="cls-1" d="M154.6767,49.9854a1.8694,1.8694,0,0,1-1.0009-.2442.6917.6917,0,0,1-.3965-.5976.535.535,0,0,1,.125-.3613.3836.3836,0,0,1,.3047-.1465,1.37,1.37,0,0,1,.5224.1631,1.3971,1.3971,0,0,0,.5225.164.3725.3725,0,0,0,.2265-.0654.1991.1991,0,0,0,.087-.1651c0-.1113-.1817-.24-.545-.3837-.0332-.0137-.0556-.0245-.07-.0284a2.42,2.42,0,0,1-.8486-.5136.935.935,0,0,1-.2275-.6446,1.11,1.11,0,0,1,.4-.872,1.4936,1.4936,0,0,1,1.0166-.3477,1.7632,1.7632,0,0,1,.9385.2354.6627.6627,0,0,1,.3858.5546.46.46,0,0,1-.1358.3379.4449.4449,0,0,1-.331.1377,1.3558,1.3558,0,0,1-.4414-.1357,1.2831,1.2831,0,0,0-.4707-.1367.2949.2949,0,0,0-.1875.0537.1745.1745,0,0,0-.07.1426c0,.1045.1495.2138.45.3291.1416.0517.253.0976.334.1347a2.0253,2.0253,0,0,1,.7207.4824.9117.9117,0,0,1,.2158.6153,1.166,1.166,0,0,1-.4326.9219A1.6194,1.6194,0,0,1,154.6767,49.9854Z"/><path class="cls-1" d="M157.0176,45.0557a.6261.6261,0,0,1,.1923-.4609.6333.6333,0,0,1,.4629-.1915.6136.6136,0,0,1,.4561.1915.6577.6577,0,0,1,.001.9208.6175.6175,0,0,1-.4571.1885.64.64,0,0,1-.4668-.1885A.629.629,0,0,1,157.0176,45.0557Zm1.2168,4.05a1.15,1.15,0,0,1-.1348.623.544.544,0,0,1-.8447-.0019,1.1147,1.1147,0,0,1-.1407-.6211V46.83a1.1027,1.1027,0,0,1,.14-.6172.48.48,0,0,1,.4267-.2012.4717.4717,0,0,1,.419.2012,1.132,1.132,0,0,1,.1348.6172Z"/><path class="cls-1" d="M161.8554,49.3975a1.2241,1.2241,0,0,1-.44.3984,1.2428,1.2428,0,0,1-.581.1328,1.4607,1.4607,0,0,1-1.1573-.5634,2.1091,2.1091,0,0,1-.4716-1.3985,2.0712,2.0712,0,0,1,.5087-1.42,1.5967,1.5967,0,0,1,1.2422-.5771,1.2356,1.2356,0,0,1,.5069.0986,1.0786,1.0786,0,0,1,.3925.3047.7664.7664,0,0,1,.2256-.2647.473.473,0,0,1,.2754-.0967.4848.4848,0,0,1,.4307.2012,1.1108,1.1108,0,0,1,.1387.6192v2.2627a6.0253,6.0253,0,0,1-.0616.98,1.64,1.64,0,0,1-.205.585,1.61,1.61,0,0,1-.6827.6318,2.3008,2.3008,0,0,1-1.0341.2168,2.6123,2.6123,0,0,1-1.1924-.2353c-.3076-.1582-.461-.3575-.461-.5957a.4915.4915,0,0,1,.1377-.3575.4732.4732,0,0,1,.3487-.1386,1.8926,1.8926,0,0,1,.4853.1533,1.9855,1.9855,0,0,0,.7207.1543.8506.8506,0,0,0,.6514-.25,1.0119,1.0119,0,0,0,.2305-.7061c0-.0136-.003-.0351-.0039-.0664C161.8564,49.4365,161.8554,49.4141,161.8554,49.3975ZM160.38,47.9658a1.08,1.08,0,0,0,.2041.6817.6645.6645,0,0,0,1.0556-.002,1.0555,1.0555,0,0,0,.21-.68,1.0135,1.0135,0,0,0-.21-.663.6739.6739,0,0,0-1.0556,0A1.033,1.033,0,0,0,160.38,47.9658Z"/><path class="cls-1" d="M164.0771,49.1055V46.83a1.1027,1.1027,0,0,1,.14-.6172.4793.4793,0,0,1,.4258-.2012.53.53,0,0,1,.3046.09.7764.7764,0,0,1,.2364.2705,1.0407,1.0407,0,0,1,.4179-.2949,1.5676,1.5676,0,0,1,.5752-.0928,1.3137,1.3137,0,0,1,1.0186.3828,1.5946,1.5946,0,0,1,.3516,1.1152v1.6231a1.0864,1.0864,0,0,1-.1416.6191.5452.5452,0,0,1-.8506,0,1.0863,1.0863,0,0,1-.1407-.6191V47.8242a1.2087,1.2087,0,0,0-.1416-.6738.5248.5248,0,0,0-.4638-.2012.5161.5161,0,0,0-.4522.2081,1.1555,1.1555,0,0,0-.1465.6533v1.2949a1.096,1.096,0,0,1-.14.6191.5482.5482,0,0,1-.8535,0A1.1119,1.1119,0,0,1,164.0771,49.1055Z"/><path class="cls-1" d="M173.5215,44.7813a1.122,1.122,0,0,1,.6132.1338.4564.4564,0,0,1,.2071.41.4468.4468,0,0,1-.2061.4,1.1378,1.1378,0,0,1-.6142.1328h-.9444v.9092h.8125a1.1511,1.1511,0,0,1,.6211.1328.4526.4526,0,0,1,.2031.4072.4465.4465,0,0,1-.2031.4043,1.1419,1.1419,0,0,1-.6211.1329h-.8125v.9511h.9776a1.1654,1.1654,0,0,1,.625.1328.5059.5059,0,0,1,0,.8106,1.1644,1.1644,0,0,1-.625.1338h-1.35a.9417.9417,0,0,1-.62-.1543.7739.7739,0,0,1-.167-.5811V45.5928a.666.666,0,0,1,.8-.8115Z"/><path class="cls-1" d="M175.35,49.1055V46.83a1.1035,1.1035,0,0,1,.1387-.6172.4782.4782,0,0,1,.4257-.2012.5273.5273,0,0,1,.3038.09.7693.7693,0,0,1,.2373.2705,1.064,1.064,0,0,1,.4169-.2949,1.57,1.57,0,0,1,.5762-.0928,1.3137,1.3137,0,0,1,1.0186.3828,1.5949,1.5949,0,0,1,.3506,1.1152v1.6231a1.0863,1.0863,0,0,1-.1407.6191.5452.5452,0,0,1-.8506,0,1.0864,1.0864,0,0,1-.1416-.6191V47.8242a1.2107,1.2107,0,0,0-.1406-.6738.5214.5214,0,0,0-.4638-.2012.5154.5154,0,0,0-.4512.2081,1.1393,1.1393,0,0,0-.1475.6533v1.2949a1.1043,1.1043,0,0,1-.14.6191.5482.5482,0,0,1-.8535,0A1.1127,1.1127,0,0,1,175.35,49.1055Z"/><path class="cls-1" d="M182.3642,49.3975a1.2028,1.2028,0,0,1-.4384.3984,1.251,1.251,0,0,1-.583.1328,1.4594,1.4594,0,0,1-1.1553-.5634,2.1,2.1,0,0,1-.4737-1.3985,2.0675,2.0675,0,0,1,.5108-1.42,1.5951,1.5951,0,0,1,1.2422-.5771,1.23,1.23,0,0,1,.5049.0986,1.0623,1.0623,0,0,1,.3925.3047.7711.7711,0,0,1,.2276-.2647.4636.4636,0,0,1,.2754-.0967.4819.4819,0,0,1,.43.2012,1.1125,1.1125,0,0,1,.1376.6192v2.2627a6.198,6.198,0,0,1-.0595.98,1.64,1.64,0,0,1-.2061.585,1.6,1.6,0,0,1-.6836.6318,2.2909,2.2909,0,0,1-1.0332.2168,2.6055,2.6055,0,0,1-1.1914-.2353c-.3086-.1582-.4629-.3575-.4629-.5957a.493.493,0,0,1,.14-.3575.4686.4686,0,0,1,.3467-.1386,1.8993,1.8993,0,0,1,.4873.1533,1.9771,1.9771,0,0,0,.7207.1543.8483.8483,0,0,0,.65-.25.9981.9981,0,0,0,.2294-.7061c0-.0136-.0009-.0351-.0039-.0664C182.3672,49.4365,182.3642,49.4141,182.3642,49.3975ZM180.89,47.9658a1.0757,1.0757,0,0,0,.2061.6817.6358.6358,0,0,0,.5254.26.6487.6487,0,0,0,.5293-.2618,1.0614,1.0614,0,0,0,.209-.68,1.0191,1.0191,0,0,0-.209-.663.6529.6529,0,0,0-.5293-.2549.6364.6364,0,0,0-.5254.2549A1.0287,1.0287,0,0,0,180.89,47.9658Z"/><path class="cls-1" d="M184.5176,45.0557a.6261.6261,0,0,1,.1923-.4609.6333.6333,0,0,1,.4629-.1915.6136.6136,0,0,1,.4561.1915.6577.6577,0,0,1,.001.9208.6175.6175,0,0,1-.4571.1885.64.64,0,0,1-.4668-.1885A.6255.6255,0,0,1,184.5176,45.0557Zm1.2168,4.05a1.15,1.15,0,0,1-.1348.623.544.544,0,0,1-.8447-.0019,1.1147,1.1147,0,0,1-.1407-.6211V46.83a1.1027,1.1027,0,0,1,.14-.6172.48.48,0,0,1,.4267-.2012.4717.4717,0,0,1,.419.2012,1.132,1.132,0,0,1,.1348.6172Z"/><path class="cls-1" d="M186.93,49.1055V46.83a1.0959,1.0959,0,0,1,.1377-.6172.4792.4792,0,0,1,.4257-.2012.5367.5367,0,0,1,.3047.09.7374.7374,0,0,1,.2354.2705,1.0711,1.0711,0,0,1,.4189-.2949,1.5623,1.5623,0,0,1,.5742-.0928,1.3085,1.3085,0,0,1,1.0176.3828,1.5856,1.5856,0,0,1,.3535,1.1152v1.6231a1.096,1.096,0,0,1-.14.6191.5482.5482,0,0,1-.8535,0,1.087,1.087,0,0,1-.14-.6191V47.8242a1.2378,1.2378,0,0,0-.14-.6738.53.53,0,0,0-.4658-.2012.5215.5215,0,0,0-.4532.2081,1.1589,1.1589,0,0,0-.1435.6533v1.2949a1.1036,1.1036,0,0,1-.1406.6191.4856.4856,0,0,1-.4288.2041.4767.4767,0,0,1-.4257-.2041A1.105,1.105,0,0,1,186.93,49.1055Z"/><path class="cls-1" d="M192.4551,48.2783a.7089.7089,0,0,0,.2617.4942.9268.9268,0,0,0,.5918.1767,1.7223,1.7223,0,0,0,.705-.1806,1.8537,1.8537,0,0,1,.48-.1826.4509.4509,0,0,1,.3272.122.42.42,0,0,1,.125.3155q0,.3632-.5068.6552a2.3493,2.3493,0,0,1-1.1915.292,1.8709,1.8709,0,0,1-1.3935-.57,1.9516,1.9516,0,0,1-.56-1.4277,2.0225,2.0225,0,0,1,.544-1.44,1.7823,1.7823,0,0,1,1.3535-.5762,1.7575,1.7575,0,0,1,1.31.54,1.826,1.826,0,0,1,.5283,1.3242.4623.4623,0,0,1-.1172.3575.7025.7025,0,0,1-.4443.1005Zm-.0137-.7412h1.4814a.665.665,0,0,0-.23-.4687.71.71,0,0,0-.4952-.1895.72.72,0,0,0-.4912.1787A.8116.8116,0,0,0,192.4414,47.5371Z"/><path class="cls-1" d="M196.8379,48.2783a.7127.7127,0,0,0,.2617.4942.9305.9305,0,0,0,.5918.1767,1.7159,1.7159,0,0,0,.7051-.1806,1.8168,1.8168,0,0,1,.4824-.1826.4462.4462,0,0,1,.3232.122.4166.4166,0,0,1,.125.3155q0,.3632-.5049.6552a2.3469,2.3469,0,0,1-1.1923.292,1.8734,1.8734,0,0,1-1.3946-.57,1.9552,1.9552,0,0,1-.5586-1.4277,2.0229,2.0229,0,0,1,.544-1.44,1.7819,1.7819,0,0,1,1.3525-.5762,1.76,1.76,0,0,1,1.3115.54,1.8329,1.8329,0,0,1,.5274,1.3242.47.47,0,0,1-.1152.3575.7117.7117,0,0,1-.4454.1005Zm-.0147-.7412h1.4824a.6668.6668,0,0,0-.2285-.4687.7554.7554,0,0,0-.9883-.0108A.8289.8289,0,0,0,196.8232,47.5371Z"/><path class="cls-1" d="M200.2842,49.1055V46.83a1.1036,1.1036,0,0,1,.1386-.6172.4812.4812,0,0,1,.4268-.2012.5393.5393,0,0,1,.3047.09.7743.7743,0,0,1,.2353.2705,1.2648,1.2648,0,0,1,.3711-.29.8771.8771,0,0,1,.3975-.0977.56.56,0,0,1,.4043.167.5334.5334,0,0,1,.1689.3955c0,.2275-.209.418-.625.5723a3.421,3.421,0,0,0-.3349.1338.5946.5946,0,0,0-.2832.2255.9806.9806,0,0,0-.07.4463v1.1807a1.0974,1.0974,0,0,1-.1416.6211.5516.5516,0,0,1-.8535,0A1.1249,1.1249,0,0,1,200.2842,49.1055Z"/><path class="cls-1" d="M203.3086,45.0557a.6253.6253,0,0,1,.1914-.4609.6333.6333,0,0,1,.4629-.1915.6144.6144,0,0,1,.455.1915.65.65,0,0,1,.001.9208.6167.6167,0,0,1-.456.1885.6326.6326,0,0,1-.4659-.1885A.6255.6255,0,0,1,203.3086,45.0557Zm1.2168,4.05a1.1387,1.1387,0,0,1-.1368.623.4722.4722,0,0,1-.4179.2.4852.4852,0,0,1-.4268-.2021,1.1162,1.1162,0,0,1-.1386-.6211V46.83a1.1044,1.1044,0,0,1,.1376-.6172.48.48,0,0,1,.4278-.2012.4687.4687,0,0,1,.4179.2012,1.1214,1.1214,0,0,1,.1368.6172Z"/><path class="cls-1" d="M205.7178,49.1055V46.83a1.1036,1.1036,0,0,1,.1386-.6172.4812.4812,0,0,1,.4268-.2012.5326.5326,0,0,1,.3047.09.7743.7743,0,0,1,.2353.2705,1.058,1.058,0,0,1,.419-.2949,1.5676,1.5676,0,0,1,.5752-.0928,1.31,1.31,0,0,1,1.0175.3828,1.59,1.59,0,0,1,.3526,1.1152v1.6231a1.1036,1.1036,0,0,1-.1406.6191.48.48,0,0,1-.4258.2041.4854.4854,0,0,1-.4287-.2041,1.1212,1.1212,0,0,1-.1377-.6191V47.8242a1.2185,1.2185,0,0,0-.1407-.6738.53.53,0,0,0-.4658-.2012.5157.5157,0,0,0-.4512.2081,1.1572,1.1572,0,0,0-.1455.6533v1.2949a1.0856,1.0856,0,0,1-.1416.6191.5482.5482,0,0,1-.8535,0A1.1127,1.1127,0,0,1,205.7178,49.1055Z"/><path class="cls-1" d="M212.7344,49.3975a1.2252,1.2252,0,0,1-.4405.3984,1.2427,1.2427,0,0,1-.581.1328,1.4607,1.4607,0,0,1-1.1573-.5634,2.1091,2.1091,0,0,1-.4716-1.3985,2.0707,2.0707,0,0,1,.5088-1.42,1.5964,1.5964,0,0,1,1.2421-.5771,1.2356,1.2356,0,0,1,.5069.0986,1.08,1.08,0,0,1,.3926.3047.7651.7651,0,0,1,.2255-.2647.4732.4732,0,0,1,.2754-.0967.483.483,0,0,1,.43.2012,1.1016,1.1016,0,0,1,.14.6192v2.2627a6.0253,6.0253,0,0,1-.0616.98,1.64,1.64,0,0,1-.2041.585,1.6169,1.6169,0,0,1-.6836.6318,2.2992,2.2992,0,0,1-1.0332.2168,2.6137,2.6137,0,0,1-1.1933-.2353c-.3067-.1582-.461-.3575-.461-.5957a.4915.4915,0,0,1,.1377-.3575.4732.4732,0,0,1,.3487-.1386,1.8926,1.8926,0,0,1,.4853.1533,1.9855,1.9855,0,0,0,.7207.1543.8483.8483,0,0,0,.65-.25,1.0033,1.0033,0,0,0,.2315-.7061c0-.0136-.003-.0351-.0039-.0664C212.7353,49.4365,212.7344,49.4141,212.7344,49.3975ZM211.26,47.9658a1.08,1.08,0,0,0,.2032.6817.6645.6645,0,0,0,1.0556-.002,1.0555,1.0555,0,0,0,.21-.68,1.0135,1.0135,0,0,0-.21-.663.6739.6739,0,0,0-1.0556,0A1.0326,1.0326,0,0,0,211.26,47.9658Z"/></g><g id="i.d"><path class="cls-1" d="M244.8379,25.3828a1.74,1.74,0,0,1,1.7343-1.7392,1.6264,1.6264,0,0,1,1.2041.5107,1.6925,1.6925,0,0,1,.5,1.2285,1.67,1.67,0,0,1-.496,1.2266,1.63,1.63,0,0,1-1.2081.5029,1.7124,1.7124,0,0,1-1.7343-1.73Zm3.2168,10.709a2.98,2.98,0,0,1-.3623,1.6485,1.2438,1.2438,0,0,1-1.1075.5341,1.2733,1.2733,0,0,1-1.1259-.539,2.9352,2.9352,0,0,1-.3711-1.6436V30.0655a2.9391,2.9391,0,0,1,.3642-1.6368,1.28,1.28,0,0,1,1.1328-.5332,1.2432,1.2432,0,0,1,1.1075.5332,2.9493,2.9493,0,0,1,.3623,1.6368Z"/><path class="cls-1" d="M250.5547,36.5537a1.6523,1.6523,0,0,1,.5088-1.2168,1.6835,1.6835,0,0,1,1.2255-.5039,1.637,1.637,0,0,1,1.2041.5039,1.744,1.744,0,0,1,.0069,2.4375,1.6423,1.6423,0,0,1-1.211.5,1.6774,1.6774,0,0,1-1.2343-.5A1.6576,1.6576,0,0,1,250.5547,36.5537Z"/><path class="cls-1" d="M262.8388,37.3076a3.085,3.085,0,0,1-1.0771.7618,3.4475,3.4475,0,0,1-1.3477.2607,4.1858,4.1858,0,0,1-3.2461-1.5527,5.8943,5.8943,0,0,1-.02-7.5244,4.21,4.21,0,0,1,3.2666-1.5254,3.6927,3.6927,0,0,1,1.2666.208,3.5153,3.5153,0,0,1,1.084.6435v-2.74a3.0113,3.0113,0,0,1,.3653-1.6563,1.2751,1.2751,0,0,1,1.1337-.539,1.241,1.241,0,0,1,1.1036.5439,3.0057,3.0057,0,0,1,.3642,1.6514V36.0908a3.002,3.002,0,0,1-.36,1.6485,1.2445,1.2445,0,0,1-1.1075.5351,1.387,1.387,0,0,1-.8046-.247A2.013,2.013,0,0,1,262.8388,37.3076Zm-3.96-4.2753a2.8015,2.8015,0,0,0,.5547,1.8066,1.738,1.738,0,0,0,1.416.6934,1.7094,1.7094,0,0,0,1.4053-.69,2.819,2.819,0,0,0,.55-1.81,2.918,2.918,0,0,0-.543-1.836,1.7024,1.7024,0,0,0-1.4121-.6992,1.7215,1.7215,0,0,0-1.42.7031A2.8881,2.8881,0,0,0,258.8789,33.0323Z"/></g><g id="association"><path class="cls-1" d="M144.7539,29.2705v-.5547a.7953.7953,0,0,1,.23-.5947.7814.7814,0,0,1,1.1005.002.8525.8525,0,0,1,.2246.63v8.6347a.8582.8582,0,0,1-.2216.6426.7692.7692,0,0,1-.5547.2158.7858.7858,0,0,1-.5469-.21.7356.7356,0,0,1-.2324-.5733v-.7471h-.0371a3.275,3.275,0,0,1-2.6348,1.53,4.4169,4.4169,0,0,1-2.3223-.6328,4.34,4.34,0,0,1-1.6386-1.8027,6.5608,6.5608,0,0,1,.0605-5.584A4.3988,4.3988,0,0,1,139.84,28.47a4.0607,4.0607,0,0,1,2.0293-.5743,3.4934,3.4934,0,0,1,1.5645.3213,4.2586,4.2586,0,0,1,1.2832,1.0537Zm-5.5469,3.8076a5.4309,5.4309,0,0,0,.2969,1.8213,3.1479,3.1479,0,0,0,.9023,1.3692,2.1664,2.1664,0,0,0,1.4668.5224,2.35,2.35,0,0,0,2.1817-1.0869,4.9514,4.9514,0,0,0,.6621-2.626,5.3049,5.3049,0,0,0-.3418-1.9814,2.863,2.863,0,0,0-.9649-1.2978,2.3684,2.3684,0,0,0-1.4218-.4483h-.0372a2.4,2.4,0,0,0-2.0332,1.0752A4.8259,4.8259,0,0,0,139.207,33.0781Z"/><path class="cls-1" d="M149.0439,37.12a1.114,1.114,0,0,1-.456-.8183.7369.7369,0,0,1,.205-.5225.6763.6763,0,0,1,.5157-.2207.98.98,0,0,1,.4814.1348,5.7967,5.7967,0,0,1,.5986.3916,3.3258,3.3258,0,0,0,.5088.3271,3.21,3.21,0,0,0,1.4034.3789,3.0157,3.0157,0,0,0,1.4345-.333,1.1127,1.1127,0,0,0,.625-1.0507,1.2983,1.2983,0,0,0-.7715-1.1348,9.7609,9.7609,0,0,0-1.456-.6787q-1.0533-.4189-1.6279-.7129a3.2646,3.2646,0,0,1-1.0157-.834,2.0553,2.0553,0,0,1-.4423-1.3447,2.4883,2.4883,0,0,1,.4091-1.378,2.9121,2.9121,0,0,1,1.1651-1.01,4.177,4.177,0,0,1,1.7168-.419,5.229,5.229,0,0,1,1.792.3135,3.7784,3.7784,0,0,1,1.2783.6953,1.17,1.17,0,0,1,.3965.7822.691.691,0,0,1-.2168.4961.814.814,0,0,1-.5244.2461,4.1736,4.1736,0,0,1-.9336-.4345q-.6123-.3516-.8985-.4893a1.8539,1.8539,0,0,0-.7207-.1543,2.1032,2.1032,0,0,0-1.3428.3652,1.2107,1.2107,0,0,0-.4882.9014,1.387,1.387,0,0,0,.4384.7881,3.0141,3.0141,0,0,0,.82.541q.4628.2109,1.121.4346c.4375.1494.7413.2637.9073.3408a3.9513,3.9513,0,0,1,1.61,1.0674,2.31,2.31,0,0,1,.49,1.4951,2.8253,2.8253,0,0,1-.4375,1.44,2.962,2.962,0,0,1-1.2452,1.086,4.7027,4.7027,0,0,1-2.0468.4355A4.89,4.89,0,0,1,149.0439,37.12Z"/><path class="cls-1" d="M158.1806,37.12a1.1017,1.1017,0,0,1-.456-.8183.74.74,0,0,1,.2051-.5225.6731.6731,0,0,1,.5156-.2207.983.983,0,0,1,.4814.1348,6.031,6.031,0,0,1,.5987.3916,3.3709,3.3709,0,0,0,.5088.3271,3.2,3.2,0,0,0,1.4.3789,3.0161,3.0161,0,0,0,1.4366-.333,1.11,1.11,0,0,0,.6259-1.0507,1.3042,1.3042,0,0,0-.7705-1.1348,9.7318,9.7318,0,0,0-1.4589-.6787q-1.0518-.4189-1.6241-.7129a3.2162,3.2162,0,0,1-1.0175-.834,2.0445,2.0445,0,0,1-.4424-1.3447,2.4876,2.4876,0,0,1,.4092-1.378,2.9225,2.9225,0,0,1,1.1621-1.01,4.2063,4.2063,0,0,1,1.72-.419,5.2552,5.2552,0,0,1,1.793.3135,3.7578,3.7578,0,0,1,1.2753.6953,1.1652,1.1652,0,0,1,.3985.7822.6864.6864,0,0,1-.22.4961.8024.8024,0,0,1-.5206.2461,4.1448,4.1448,0,0,1-.9365-.4345c-.4052-.2344-.706-.3975-.8965-.4893a1.8539,1.8539,0,0,0-.7207-.1543,2.1141,2.1141,0,0,0-1.3457.3652,1.217,1.217,0,0,0-.4853.9014,1.3913,1.3913,0,0,0,.4375.7881,3.0236,3.0236,0,0,0,.8193.541q.4644.2109,1.124.4346c.4375.1494.74.2637.9063.3408a3.9381,3.9381,0,0,1,1.61,1.0674,2.3164,2.3164,0,0,1,.4913,1.4951,2.8632,2.8632,0,0,1-.4375,1.44,2.9831,2.9831,0,0,1-1.2461,1.086,4.71,4.71,0,0,1-2.05.4355A4.8826,4.8826,0,0,1,158.1806,37.12Z"/><path class="cls-1" d="M167.0957,33.0781a6.0479,6.0479,0,0,1,.5693-2.663,4.4976,4.4976,0,0,1,1.5928-1.8526,4.2111,4.2111,0,0,1,4.6435.0625,4.6259,4.6259,0,0,1,1.55,1.8936,6.1106,6.1106,0,0,1,.5381,2.56,6.2067,6.2067,0,0,1-.5341,2.586,4.493,4.493,0,0,1-1.55,1.8848,4.3147,4.3147,0,0,1-4.7139-.0069,4.527,4.527,0,0,1-1.5567-1.8935A6.1566,6.1566,0,0,1,167.0957,33.0781Zm1.6767,0a5.0151,5.0151,0,0,0,.6651,2.5665,2.2323,2.2323,0,0,0,2.0771,1.1464,2.412,2.412,0,0,0,1.5518-.5009,2.9367,2.9367,0,0,0,.9258-1.3438,6.0558,6.0558,0,0,0,.32-1.8682,5.3457,5.3457,0,0,0-.3155-1.8662,3.0717,3.0717,0,0,0-.9345-1.3554,2.3251,2.3251,0,0,0-1.5108-.5059,2.4117,2.4117,0,0,0-1.5078.4824,2.9674,2.9674,0,0,0-.9511,1.334A5.414,5.414,0,0,0,168.7724,33.0781Z"/><path class="cls-1" d="M185.1689,28.8272a1.3039,1.3039,0,0,1,.0742.36.6336.6336,0,0,1-.2031.48.846.846,0,0,1-.5361.2187c-.0625-.0166-.2529-.081-.57-.1894-.3194-.1074-.5782-.1875-.7862-.24a2.4545,2.4545,0,0,0-.6171-.0782,2.3814,2.3814,0,0,0-1.545.5137,3.2632,3.2632,0,0,0-.9668,1.334,5.11,5.11,0,0,0-.3672,1.7226,5.5249,5.5249,0,0,0,.5879,2.5323,2.3839,2.3839,0,0,0,2.0078,1.3222.8167.8167,0,0,1,.2833.0371,3.3868,3.3868,0,0,0,.4541-.0615,2.7246,2.7246,0,0,0,.3837-.1045c.1-.0371.2286-.0918.39-.1631s.2822-.124.3642-.1621a1.0194,1.0194,0,0,1,.4219-.1162.5771.5771,0,0,1,.4483.1992.73.73,0,0,1,.1767.5039,1.058,1.058,0,0,1-.8642,1.0225,5.6052,5.6052,0,0,1-1.7784.2871,4.3228,4.3228,0,0,1-2.4-.666,4.3823,4.3823,0,0,1-1.5791-1.7959,5.8219,5.8219,0,0,1-.5752-2.4756,7.6709,7.6709,0,0,1,.2627-2.0273,5.2168,5.2168,0,0,1,.8046-1.7119,3.92,3.92,0,0,1,1.4082-1.1993,4.568,4.568,0,0,1,2.0079-.4746,4.9358,4.9358,0,0,1,1.7617.28A1.8037,1.8037,0,0,1,185.1689,28.8272Z"/><path class="cls-1" d="M189.372,26.6084a.9872.9872,0,0,1-.7324-.3232,1.0469,1.0469,0,0,1-.0039-1.4824.9825.9825,0,0,1,.7363-.32.9663.9663,0,0,1,.7208.3165,1.03,1.03,0,0,1,.3037.7441,1.0543,1.0543,0,0,1-.3047.7451A.9682.9682,0,0,1,189.372,26.6084Zm-.8164,2.1817a.88.88,0,0,1,.2413-.6563.78.78,0,0,1,.5751-.2383.8276.8276,0,0,1,.5909.2276.8146.8146,0,0,1,.2431.63v8.6347a.82.82,0,0,1-.2431.6309.85.85,0,0,1-.5909.2275.8042.8042,0,0,1-.5712-.2324.8129.8129,0,0,1-.2452-.626Z"/><path class="cls-1" d="M199.9121,29.2705v-.5547a.7953.7953,0,0,1,.2305-.5947.785.785,0,0,1,1.1035.002.8647.8647,0,0,1,.2246.63v8.6347a.8507.8507,0,0,1-.2237.6426.765.765,0,0,1-.5556.2158.79.79,0,0,1-.5479-.21.7349.7349,0,0,1-.2314-.5733v-.7471h-.0371a3.2739,3.2739,0,0,1-2.6358,1.53,4.4134,4.4134,0,0,1-2.3213-.6328,4.3335,4.3335,0,0,1-1.6386-1.8027,6.5559,6.5559,0,0,1,.0595-5.584A4.4186,4.4186,0,0,1,195,28.47a4.05,4.05,0,0,1,2.0293-.5743,3.4934,3.4934,0,0,1,1.5625.3213,4.2467,4.2467,0,0,1,1.2832,1.0537Zm-5.5479,3.8076a5.4065,5.4065,0,0,0,.3,1.8213,3.1257,3.1257,0,0,0,.8995,1.3692,2.1719,2.1719,0,0,0,1.47.5224,2.3506,2.3506,0,0,0,2.1806-1.0869,4.96,4.96,0,0,0,.6612-2.626,5.2848,5.2848,0,0,0-.3418-1.9814,2.8574,2.8574,0,0,0-.9658-1.2978,2.3611,2.3611,0,0,0-1.42-.4483H197.11a2.4011,2.4011,0,0,0-2.0342,1.0752A4.826,4.826,0,0,0,194.3642,33.0781Z"/><path class="cls-1" d="M205.9336,29.4619h-.7383a.79.79,0,0,1-.57-.2031.8245.8245,0,0,1-.25-.5029.7392.7392,0,0,1,.82-.7481h.7383V25.7559a.709.709,0,0,1,.2353-.5723.8635.8635,0,0,1,.5821-.2031.9232.9232,0,0,1,.6132.2051.7488.7488,0,0,1,.2461.6113v2.2109h.7364a.7651.7651,0,0,1,.5791.2051.7488.7488,0,0,1,.1992.543.7108.7108,0,0,1-.1944.4961.653.653,0,0,1-.5048.21H207.61v7.9639a.7449.7449,0,0,1-.2607.6.9617.9617,0,0,1-.6358.2207.7612.7612,0,0,1-.5556-.2207.8471.8471,0,0,1-.2246-.6357Z"/><path class="cls-1" d="M212.5263,26.6084a.9862.9862,0,0,1-.7334-.3232,1.0493,1.0493,0,0,1-.0039-1.4824.9848.9848,0,0,1,.7373-.32.9626.9626,0,0,1,.72.3165,1.0584,1.0584,0,0,1-.003,1.4892A.9572.9572,0,0,1,212.5263,26.6084ZM211.709,28.79a.891.891,0,0,1,.2392-.6563.7913.7913,0,0,1,.5781-.2383.8308.8308,0,0,1,.5909.2276.8181.8181,0,0,1,.2431.63v8.6347a.8221.8221,0,0,1-.2461.6309.8389.8389,0,0,1-.5879.2275.806.806,0,0,1-.5742-.2324.8223.8223,0,0,1-.2431-.626Z"/><path class="cls-1" d="M215.8388,33.0781a6.0217,6.0217,0,0,1,.5733-2.663,4.4885,4.4885,0,0,1,1.5889-1.8526,4.2145,4.2145,0,0,1,4.6455.0625,4.6174,4.6174,0,0,1,1.5488,1.8936,6.0959,6.0959,0,0,1,.5391,2.56,6.2078,6.2078,0,0,1-.5362,2.586,4.5036,4.5036,0,0,1-1.5478,1.8848,4.318,4.318,0,0,1-4.7159-.0069,4.54,4.54,0,0,1-1.5556-1.8935A6.14,6.14,0,0,1,215.8388,33.0781Zm1.6788,0a5.0433,5.0433,0,0,0,.663,2.5665A2.2375,2.2375,0,0,0,220.26,36.791a2.4023,2.4023,0,0,0,1.55-.5009,2.907,2.907,0,0,0,.9258-1.3438,5.997,5.997,0,0,0,.32-1.8682,5.3688,5.3688,0,0,0-.3125-1.8662,3.0834,3.0834,0,0,0-.9375-1.3554,2.3178,2.3178,0,0,0-1.5087-.5059,2.4138,2.4138,0,0,0-1.5079.4824,2.93,2.93,0,0,0-.95,1.334A5.3937,5.3937,0,0,0,217.5176,33.0781Z"/><path class="cls-1" d="M227.165,28.7891a.8783.8783,0,0,1,.2393-.6553.7827.7827,0,0,1,.5771-.2383.8117.8117,0,0,1,.5918.2344.8729.8729,0,0,1,.2432.6592v.3984l.0371.0371a3.2515,3.2515,0,0,1,1.2129-.9843,3.5638,3.5638,0,0,1,1.543-.3448,3.7257,3.7257,0,0,1,1.7578.4268,3.2,3.2,0,0,1,1.3056,1.2988,4.2925,4.2925,0,0,1,.4922,2.1358V37.4a.764.764,0,0,1-.2422.6045.8583.8583,0,0,1-.5918.2129A.83.83,0,0,1,233.7539,38a.7745.7745,0,0,1-.2393-.6V31.792a2.2973,2.2973,0,0,0-.6924-1.7754,2.36,2.36,0,0,0-1.6494-.6377,2.476,2.476,0,0,0-1.1543.2774,2.1433,2.1433,0,0,0-.8711.8359,2.5518,2.5518,0,0,0-.331,1.33V37.38a.9071.9071,0,0,1-.2285.6621.7635.7635,0,0,1-.5694.2324.8249.8249,0,0,1-.6006-.249.8653.8653,0,0,1-.2529-.6455Z"/></g><g id="Study"><path class="cls-1" d="M87.8691,33.9009a4.2594,4.2594,0,0,1-1.48,3.373,5.7172,5.7172,0,0,1-3.8965,1.29,6.9411,6.9411,0,0,1-3.1689-.666q-1.3132-.6658-1.313-1.5606a1.3324,1.3324,0,0,1,.4233-1.0278,1.6137,1.6137,0,0,1,1.1373-.39,6.5481,6.5481,0,0,1,1.4746.352,6.5376,6.5376,0,0,0,1.894.3521,1.5873,1.5873,0,0,0,1.1133-.4092,1.4153,1.4153,0,0,0-.01-2.0742,5.96,5.96,0,0,0-1.96-.8565,7.12,7.12,0,0,1-3.045-1.5366,3.283,3.283,0,0,1-.8662-2.3931,4.017,4.017,0,0,1,1.3941-3.1591,5.291,5.291,0,0,1,3.63-1.2276,5.5944,5.5944,0,0,1,2.712.585,1.6972,1.6972,0,0,1,1.0654,1.4609,1.294,1.294,0,0,1-.3755.9849,1.4536,1.4536,0,0,1-1.042.3564,4.9945,4.9945,0,0,1-1.2085-.2422,5.0047,5.0047,0,0,0-1.2656-.2426,1.7719,1.7719,0,0,0-1.1231.3281,1.041,1.041,0,0,0-.4184.8613q0,.8468,1.8457,1.4273.4284.1332.6665.2089a6.7218,6.7218,0,0,1,2.9018,1.68A3.6312,3.6312,0,0,1,87.8691,33.9009Z"/><path class="cls-1" d="M90.5381,30.6465h-.1143a2.0274,2.0274,0,0,1-1.27-.3569,1.1561,1.1561,0,0,1-.4614-.9658,1.1369,1.1369,0,0,1,.4614-.97,2.5409,2.5409,0,0,1,1.3848-.39V26.6118a2.9957,2.9957,0,0,1,.38-1.684A1.315,1.315,0,0,1,92.08,24.376a1.2929,1.2929,0,0,1,1.1465.5518,3.0243,3.0243,0,0,1,.3759,1.684v1.3516h.2666a2.4278,2.4278,0,0,1,1.4224.3613,1.1591,1.1591,0,0,1,.5093.9991,1.118,1.118,0,0,1-.49.99,2.6088,2.6088,0,0,1-1.46.333H93.602v5.4429a3.0486,3.0486,0,0,1-.3711,1.6889,1.293,1.293,0,0,1-1.1513.5474,1.315,1.315,0,0,1-1.1612-.5518,2.9973,2.9973,0,0,1-.38-1.6845Z"/><path class="cls-1" d="M96.9468,34.0054V29.9141a2.9678,2.9678,0,0,1,.38-1.68,1.3186,1.3186,0,0,1,1.1612-.5469,1.2959,1.2959,0,0,1,1.1464.5469,2.9994,2.9994,0,0,1,.376,1.68v3.4634a3.0464,3.0464,0,0,0,.3711,1.7368,1.69,1.69,0,0,0,2.417,0,3.05,3.05,0,0,0,.3711-1.7368V29.9141a3,3,0,0,1,.3755-1.68,1.3165,1.3165,0,0,1,1.166-.5469,1.29,1.29,0,0,1,1.1421.542,3.03,3.03,0,0,1,.3711,1.6846v4.0913a4.4525,4.4525,0,0,1-1.1895,3.3447,5.7167,5.7167,0,0,1-6.8945,0A4.4431,4.4431,0,0,1,96.9468,34.0054Z"/><path class="cls-1" d="M115.5254,37.336a3.1612,3.1612,0,0,1-1.1084.78,3.53,3.53,0,0,1-1.3838.2666,4.3061,4.3061,0,0,1-3.336-1.5937,6.0526,6.0526,0,0,1-.02-7.7271,4.324,4.324,0,0,1,3.3555-1.5649,3.7971,3.7971,0,0,1,1.3027.2139,3.5978,3.5978,0,0,1,1.1133.6616V25.5655a3.0419,3.0419,0,0,1,.376-1.6939,1.3134,1.3134,0,0,1,1.166-.5518,1.2827,1.2827,0,0,1,1.1377.5567,3.0539,3.0539,0,0,1,.375,1.689V36.0894a3.0451,3.0451,0,0,1-.3711,1.6889,1.2825,1.2825,0,0,1-1.1416.5474,1.4412,1.4412,0,0,1-.8281-.2524A2.0751,2.0751,0,0,1,115.5254,37.336Zm-4.0723-4.3868a2.883,2.883,0,0,0,.57,1.8555,1.7865,1.7865,0,0,0,1.457.7139,1.7606,1.7606,0,0,0,1.4454-.709,2.9053,2.9053,0,0,0,.5625-1.86,2.9986,2.9986,0,0,0-.5567-1.8886,1.7515,1.7515,0,0,0-1.4512-.7183,1.77,1.77,0,0,0-1.4609.7232A2.9639,2.9639,0,0,0,111.4531,32.9492Z"/><path class="cls-1" d="M126.8633,28.9146a2.3618,2.3618,0,0,1,.5615-.9322,1.1556,1.1556,0,0,1,.81-.2949,1.51,1.51,0,0,1,1.0937.3946,1.42,1.42,0,0,1,.4092,1.0708,1.9959,1.9959,0,0,1-.0674.4853,4.6822,4.6822,0,0,1-.19.58l-4.6816,11.1142a2.7569,2.7569,0,0,1-.6.9751,1.0762,1.0762,0,0,1-.7422.2715,1.5234,1.5234,0,0,1-1.1133-.4,1.4433,1.4433,0,0,1-.4092-1.0844,2.1734,2.1734,0,0,1,.0665-.5235,2.9651,2.9651,0,0,1,.19-.5327l1.2656-2.7407-3.1016-7.232a1.674,1.674,0,0,1-.1152-.3754,2.665,2.665,0,0,1-.0371-.48,1.4916,1.4916,0,0,1,.4277-1.085,1.42,1.42,0,0,1,1.0567-.4375,1.2876,1.2876,0,0,1,.8984.314,2.9962,2.9962,0,0,1,.6621,1.17l1.7315,4.6338Z"/></g></g><path class="cls-1" d="M40.5859,15.0781,17.6777,18.7276c-3.1533.4326-6.0513,2.2285-5.8852,5.64l1.811,27.3076L32.6582,69.8916,59.125,57.9658c1.7138-1.0371,3.0469-1.7871,3.1885-5.6416L63.519,23.6221ZM41.3,58.961c-.0137,1.4091-.0274,2.8242-.04,4.2246q-1.9379.8657-3.92,1.7539c-1.3379.6-2.7,1.2051-4.0683,1.8213V57.96c1.3838-.5615,2.76-1.1192,4.11-1.669q2.004-.8143,3.9629-1.6045C41.332,56.1153,41.3144,57.541,41.3,58.961Zm.1191-11.5c-.0146,1.4531-.0293,2.9082-.0459,4.3466q-1.9629.7677-3.9756,1.56c-1.3554.5313-2.7382,1.07-4.1259,1.6152V45.9151c1.4043-.49,2.8027-.9776,4.1718-1.4541q2.0318-.7105,4.0176-1.4034Q41.4419,45.2682,41.4189,47.461Zm.1016-10.3418A4.3433,4.3433,0,0,1,38.8213,40.99q-2.7276.914-5.55,1.8574V36.6406a4.33,4.33,0,0,1,2.8418-3.9687q2.7817-.8071,5.4677-1.5889C41.5615,33.1094,41.542,35.1172,41.5205,37.1192Zm9.5918,17.6543q-.0454,2.0318-.0879,4.0449-1.7548.7823-3.5527,1.5849-1.818.8145-3.6807,1.6495c.0176-1.3858.0361-2.7823.0537-4.18.0186-1.4033.04-2.8116.0566-4.2276q1.8839-.7645,3.7188-1.5088,1.81-.7338,3.584-1.4541Q51.1558,52.7379,51.1123,54.7735Zm.2129-9.6094a4.33,4.33,0,0,1-2.4424,3.7051c-1.6221.63-3.2666,1.2793-4.9443,1.9345.0263-1.9082.0517-3.82.0781-5.747a4.2957,4.2957,0,0,1,2.5654-3.7852q2.4756-.8643,4.8682-1.6982Q51.3887,42.3784,51.3252,45.1641Zm8.66,7.1006a4.3183,4.3183,0,0,1-2.2324,3.54q-2.1811.9786-4.4346,1.9844.0645-2.6588.1328-5.3477a4.3054,4.3054,0,0,1,2.3321-3.6172q2.2177-.8964,4.374-1.7753Q60.0708,49.6694,59.9853,52.2647Zm.3907-11.833c-.045,1.33-.0879,2.66-.1319,3.9824-1.082.4219-2.1709.8515-3.2744,1.2842-1.1113.4336-2.2422.88-3.3828,1.3242.0361-1.3623.07-2.7363.1045-4.1123.0351-1.3809.0654-2.7676.1025-4.1533,1.1494-.4063,2.292-.8047,3.4131-1.1944q1.6685-.5816,3.3018-1.1523Q60.4413,38.4331,60.376,40.4317ZM60.7344,29.62q-.07,2.0495-.1368,4.087c-1.0927.3662-2.1972.7324-3.3115,1.1084-1.123.375-2.2676.7578-3.4219,1.1435.0342-1.4.0694-2.8125.1055-4.2275q.0528-2.127.1045-4.2774,1.7534-.5053,3.4561-1.0019,1.686-.4908,3.34-.97Q60.8,27.564,60.7344,29.62Z"/></svg>