<svg xmlns="http://www.w3.org/2000/svg" viewBox="0 0 134.78 57.44"><defs><style>.cls-1{fill:#fff;}</style></defs><title>scroll</title><g id="Layer_2" data-name="Layer 2"><g id="Layer_1-2" data-name="Layer 1"><path class="cls-1" d="M8,.6,8.72,20A.63.63,0,0,0,10,20L9.27.6C9.24-.2,8-.2,8,.6Z"/><path class="cls-1" d="M8,10C3.53,7.81.06,12.42,0,16.52c0,2,.78,4.16,2.78,4.94S6.63,20.84,8,19.39c.55-.59-.33-1.48-.89-.89-1,1.08-1.86,2-3.41,1.73-2.22-.39-2.62-2.64-2.37-4.57.37-2.84,2.79-6.15,6-4.55.72.36,1.35-.72.63-1.08Z"/><path class="cls-1" d="M17.32,9.83c-6.45.46-3.76,11.56,2.34,11.07,2.52-.2,4.44-2.71,4.67-5.09a5.34,5.34,0,0,0-4.61-5.74c-.79-.11-1.13,1.09-.34,1.21A4.25,4.25,0,0,1,21,19.1c-1.89,1.23-4.34,0-5.45-1.72s-1.23-6.09,1.73-6.3c.8-.05.81-1.3,0-1.25Z"/><path class="cls-1" d="M26.78,10.56,28,16.75c.19,1,.14,2.08,1.18,2.41a.63.63,0,0,0,.8-.6,12.15,12.15,0,0,1,.42-5,6.62,6.62,0,0,1,1.39-2.5c2-1.75,3.6-.06,4.32,1.45,1,2-.39,6,1.4,7.52.61.51,1.5-.37.88-.89-.89-.74-.43-3.22-.49-4.31A8.19,8.19,0,0,0,37.32,12c-.64-1.41-2.11-3-3.76-3.08-4.32-.22-5.05,6.67-4.79,9.6l.79-.6c-.28-.09-.7-3.41-.79-3.87L28,10.22c-.16-.78-1.36-.45-1.2.34Z"/><path class="cls-1" d="M41.23,5.26a2.63,2.63,0,0,1,.68,3c-.33.72.75,1.36,1.08.63a3.9,3.9,0,0,0-.88-4.55c-.59-.54-1.48.35-.88.89Z"/><path class="cls-1" d="M49.52,8a38.38,38.38,0,0,0,0,6.78c.15,1.48.13,3.57,1,4.82,1.6,2.37,4,.08,4.89-1.58.39-.71-.69-1.34-1.08-.63-.72,1.34-2,2.34-3,.59-.5-.86-.43-2.7-.52-3.62a38.59,38.59,0,0,1,0-6.36c.06-.8-1.19-.8-1.25,0Z"/><path class="cls-1" d="M48.07,11.38a60.7,60.7,0,0,0,7.76-1.71.62.62,0,0,0-.33-1.2,62.18,62.18,0,0,1-7.77,1.7c-.79.12-.45,1.33.34,1.21Z"/><path class="cls-1" d="M75.42,4.5c-1.94-2.17-6.23-5.25-8.33-1.67-2.91,5,1.19,13.5,1.42,18.65,0,.81,1.29.81,1.25,0a60.33,60.33,0,0,0-1.48-9,23.7,23.7,0,0,1-.64-6.1c.32-4.66,4.61-3.49,6.9-1,.53.6,1.41-.28.88-.88Z"/><path class="cls-1" d="M64.94,13.74l5.62-1c.79-.14.46-1.34-.33-1.21l-5.62,1c-.79.14-.46,1.35.33,1.21Z"/><path class="cls-1" d="M78.94,10.86c-6.11.93-5.36,12.83,1.74,11.37,2.86-.59,5.32-2.33,5.23-5.5-.08-2.74-2-5.52-4.9-5.7-.8,0-.8,1.2,0,1.25,2.19.14,3.58,2.43,3.65,4.45.09,2.32-1.62,3.6-3.68,4.14-2.87.75-4.85-.77-4.87-3.79,0-2.12.77-4.65,3.16-5,.8-.12.46-1.33-.33-1.2Z"/><path class="cls-1" d="M89.13,11.79a59.2,59.2,0,0,1,2.18,8.6l1.14-.49c-.85-1.8-1.7-3.88-1.09-5.9.68-2.27,2.87-3.4,5-2,.67.45,1.3-.63.64-1.08a4.22,4.22,0,0,0-6.11,1.21c-1.71,2.65-.7,5.75.53,8.37.33.68,1.26.16,1.15-.49a60.38,60.38,0,0,0-2.18-8.59c-.26-.76-1.47-.43-1.21.33Z"/><path class="cls-1" d="M108,11c-3-5.38-10.76,2.55-7.33,6.39,1.44,1.61,4.53,2.75,6.49,1.51,3.2-2,2.26-7.85,2-10.83H108l1,10a18.74,18.74,0,0,1,.4,4.2c-.28,2.21-1.52,3.25-3.72,3.1q-2.43.45-3.29-2.13c0-.8-1.29-.8-1.25,0,.23,3.95,6,4.45,8.43,2,1.28-1.26,1.1-2.87.94-4.52-.39-4.22-.85-8.43-1.27-12.65-.08-.78-1.32-.8-1.25,0,.2,2.47,1,6.62-.61,8.83-1.27,1.74-4.63,1.25-5.77-.4-2.19-3.16,4.3-6.78,5.37-4.87A.63.63,0,0,0,108,11Z"/><path class="cls-1" d="M116.48,14c1.94-.26,8-1.92,6.49-5-1.36-2.71-5.38-2.39-7.11-.37-2,2.32-2.36,6.36.42,8.21s7.37.66,9.58-1.7c.55-.58-.33-1.47-.88-.88a7.78,7.78,0,0,1-5.59,2.23c-3.27-.08-4.66-3.09-3.31-5.92a3.83,3.83,0,0,1,2.4-2.22c.94-.23,4.3.24,3,2.27-.89,1.43-3.85,2-5.37,2.18-.79.1-.45,1.31.33,1.2Z"/><path class="cls-1" d="M129.66,6.19a24.2,24.2,0,0,0-.72,5.55c0,1.37-.06,3.12.73,4.32a3,3,0,0,0,4.9.11c.49-.62-.38-1.51-.88-.88a1.79,1.79,0,0,1-3.21-.39,6.23,6.23,0,0,1-.29-2.44,22.78,22.78,0,0,1,.67-5.93c.19-.78-1-1.12-1.2-.34Z"/><path class="cls-1" d="M128.74,9.64a34.06,34.06,0,0,1,5.44-1.18c.79-.1.8-1.35,0-1.25a35.46,35.46,0,0,0-5.77,1.22.63.63,0,0,0,.33,1.21Z"/><path class="cls-1" d="M15.85,38.73a47.74,47.74,0,0,0-.38,8c0,1.3-.09,3.36.84,4.46,2,2.32,5-1.48,6.05-3,.45-.66-.63-1.29-1.08-.63s-1.78,2.6-2.73,2.8c-2.24.46-1.81-2.94-1.85-4.09a47.59,47.59,0,0,1,.4-7.54c.1-.8-1.15-.79-1.25,0Z"/><path class="cls-1" d="M13.83,42a12,12,0,0,0,6.73-.12c.77-.24.44-1.45-.33-1.21a10.6,10.6,0,0,1-6.06.12A.63.63,0,0,0,13.83,42Z"/><path class="cls-1" d="M29.82,39.78c-2,1.73-4.14,4.79-3.07,7.55,1,2.54,3.92,4.9,6.7,4.1a6.67,6.67,0,0,0,4.86-5.58c.12-1.3.19-2.67-.7-3.71a12.66,12.66,0,0,0-4-2.48c-.71-.35-1.35.72-.63,1.08,1.86.91,4.07,1.79,4.14,4.2a5.2,5.2,0,0,1-3,4.83c-2.28,1.24-5-.23-6-2.44-1.21-2.48.86-5.16,2.59-6.67.61-.52-.28-1.41-.88-.88Z"/><path class="cls-1" d="M58.18,38.14c-1.84.32-7.11,2.64-5,5.37,1,1.34,3.29.56,4.57,1.27a1.34,1.34,0,0,1,1.09,1.31c.92.61,1.05,1.24.4,1.89-.39,1.08-1.58,1.45-2.59,1.7-1.45.35-3.42.47-4.7-.35-.69-.43-1.31.65-.64,1.08,2.82,1.78,8.94.76,9.57-3.06A3.17,3.17,0,0,0,59,43.93a9.25,9.25,0,0,0-2.9-.69c-1.17.25-1.63-.14-1.38-1.16-.31-.89,0-1.49,1-1.79a7.43,7.43,0,0,1,2.75-.94c.79-.14.45-1.34-.34-1.21Z"/><path class="cls-1" d="M68.84,39c-.63-1.35-2.82.18-3.46.78a7.51,7.51,0,0,0-1.83,7,6,6,0,0,0,4.37,4.8c2.47.57,4.78-.76,6.55-2.36.6-.54-.29-1.43-.88-.89-2.43,2.21-6.32,3.26-8.24-.19a6.88,6.88,0,0,1-.56-4.76,5.25,5.25,0,0,1,1.13-2.26,13.59,13.59,0,0,1,1.84-1.44c.34.72,1.41.09,1.08-.63Z"/><path class="cls-1" d="M76.06,41.37c.83.43,1.45,4,1.7,4.81l1.45,4.59,1.14-.48c-.78-1.66-1.67-3.48-1.52-5.38a3.81,3.81,0,0,1,4.45-3.6c.79.12,1.13-1.09.33-1.21a5,5,0,0,0-5.55,2.77c-1.22,2.69,0,5.59,1.21,8.05.3.64,1.35.19,1.14-.48l-2-6.36c-.37-1.17-.53-3.17-1.72-3.79-.72-.37-1.35.7-.63,1.08Z"/><path class="cls-1" d="M91.38,39.53a7.24,7.24,0,0,0-4.79,6.12c-.23,3.1,2.12,4.63,5,4.47,2.54-.13,6.05-1.7,6.84-4.37s-2.46-5.9-4.91-6.28c-.79-.12-1.13,1.08-.33,1.21,2.21.34,5.25,3.64,3.34,5.82a7.17,7.17,0,0,1-4.7,2.34c-6,.58-4.15-6.54-.13-8.1.74-.29.42-1.5-.33-1.21Z"/><path class="cls-1" d="M101.57,32.53c.3,4.79-1.16,9.95.52,14.59.79,2.2,1.94,3.75,4,1.86.6-.54-.29-1.42-.88-.89-1.45,1.31-2.36-2.64-2.47-3.29a20.68,20.68,0,0,1-.18-4.58,73.07,73.07,0,0,0,.22-7.69c0-.79-1.3-.8-1.25,0Z"/><path class="cls-1" d="M109.53,32.29l-.24,8.9c-.05,1.93-.55,4.68.46,6.46s3.26,1.92,4-.11c.26-.76-.94-1.09-1.21-.33-1.42-.34-2.08-1.06-2-2.16,0-.51,0-1,0-1.55,0-1.19.06-2.39.09-3.58l.21-7.63c0-.8-1.22-.8-1.25,0Z"/><path class="cls-1" d="M117.83,31q.51,4.7,1.39,9.35c.16.79,1.36.46,1.21-.33-.57-3-1-6-1.35-9-.09-.79-1.34-.8-1.25,0Z"/><path class="cls-1" d="M121.27,45.22h-.16c-.8,0-.8,1.21,0,1.25h.16c.8,0,.8-1.21,0-1.25Z"/><path class="cls-1" d="M52.38,57.44q30.84-1.92,61.74-2.76a.63.63,0,0,0,0-1.25q-30.89.84-61.74,2.76c-.8.05-.8,1.3,0,1.25Z"/></g></g></svg>