<svg xmlns="http://www.w3.org/2000/svg" viewBox="0 0 590.73 341.29"><defs><style>.cls-1{fill:#fff;}</style></defs><title>smoelenboek</title><g id="Layer_2" data-name="Layer 2"><g id="Layer_1-2" data-name="Layer 1"><path class="cls-1" d="M57.42,68.48a87.49,87.49,0,0,0-12,4.28c-1.77.7-1,3.61.8,2.89a89.19,89.19,0,0,1,12-4.28c1.88-.44,1.09-3.34-.79-2.89Z"/><path class="cls-1" d="M35.33,75.73,25.18,78.57a1.5,1.5,0,0,0,.8,2.89l10.15-2.84a1.5,1.5,0,0,0-.8-2.89Z"/><path class="cls-1" d="M17.49,81.2a18.81,18.81,0,0,0-10,3.07C5.85,85.35,7.35,88,9,86.86a16,16,0,0,1,8.54-2.66,1.5,1.5,0,0,0,0-3Z"/><path class="cls-1" d="M2.38,90.07A18.73,18.73,0,0,0,0,97.81c-.17,1.92,2.83,1.91,3,0a15.11,15.11,0,0,1,2-6.23,1.5,1.5,0,0,0-2.59-1.51Z"/><path class="cls-1" d="M1.61,106.57A31.55,31.55,0,0,0,3,117.15c.57,1.84,3.47,1.06,2.9-.8a28.93,28.93,0,0,1-1.3-9.78c.08-1.93-2.92-1.92-3,0Z"/><path class="cls-1" d="M4.43,124.06c.53,3.11.91,6.26,1.14,9.4.14,1.92,3.15,1.93,3,0-.25-3.41-.67-6.82-1.25-10.19-.33-1.9-3.22-1.1-2.89.79Z"/><path class="cls-1" d="M7.36,142.43a39.52,39.52,0,0,0-.19,8.83c.16,1.91,3.16,1.93,3,0a35.94,35.94,0,0,1,.09-8c.27-1.89-2.62-2.71-2.9-.8Z"/><path class="cls-1" d="M8.37,158c-.45,3.53,2.56,5.84,5.24,7.45a1.5,1.5,0,0,0,1.52-2.59c-1.82-1.1-4.07-2.43-3.76-4.86.11-.81-.76-1.49-1.5-1.5a1.54,1.54,0,0,0-1.5,1.5Z"/><path class="cls-1" d="M21.21,170.83c2.79,1.24,4.76,3.9,7.21,5.65,1.58,1.12,3.08-1.48,1.52-2.59-2.47-1.76-4.4-4.39-7.22-5.65-1.74-.78-3.27,1.81-1.51,2.59Z"/><path class="cls-1" d="M85.15,190.56l7.06-4.34c1.65-1,.14-3.61-1.51-2.59L83.63,188c-1.64,1-.13,3.61,1.52,2.59Z"/><path class="cls-1" d="M98.68,181.78l6.29-3.19c1.73-.87.21-3.46-1.51-2.59l-6.29,3.19c-1.72.87-.21,3.46,1.51,2.59Z"/><path class="cls-1" d="M110.21,174.44l5.26-3.5c1.6-1.06.1-3.66-1.51-2.59l-5.26,3.5c-1.6,1.06-.1,3.66,1.51,2.59Z"/><path class="cls-1" d="M121.26,166.89a20.66,20.66,0,0,0,5.38-4.24c1.28-1.44-.84-3.57-2.12-2.12a18.4,18.4,0,0,1-4.78,3.77c-1.68.94-.17,3.54,1.52,2.59Z"/><path class="cls-1" d="M130.5,157.44c1-2.46.48-5.59.67-8.19.14-1.93-2.86-1.92-3,0-.17,2.34.36,5.19-.56,7.39-.75,1.78,2.16,2.56,2.89.8Z"/><path class="cls-1" d="M130.28,141.17c-.45-3.59,0-7.25-.44-10.84-.23-1.89-3.24-1.92-3,0,.45,3.59,0,7.25.44,10.84.24,1.89,3.24,1.92,3,0Z"/><path class="cls-1" d="M125.32,83.06c-1.55-2.46-5.18-4-7.93-4.49-1.88-.36-2.69,2.54-.79,2.89s5,1.36,6.13,3.11,3.62.13,2.59-1.51Z"/><path class="cls-1" d="M109.85,75.28l-8.61-1.5c-1.89-.33-2.7,2.56-.8,2.89l8.62,1.5c1.88.33,2.7-2.56.79-2.89Z"/><path class="cls-1" d="M93.08,71.13a38.57,38.57,0,0,1-9.21-1.65,1.51,1.51,0,0,0-.8,2.9,42.62,42.62,0,0,0,10,1.75c1.93,0,1.93-3,0-3Z"/><path class="cls-1" d="M76.92,67.37a12.93,12.93,0,0,0-4.26-1.69,18.71,18.71,0,0,0-4.55-.89c-1.93,0-1.93,3,0,3a15.08,15.08,0,0,1,3.75.78A10.56,10.56,0,0,1,75.4,70c1.53,1.18,3-1.43,1.52-2.59Z"/><path class="cls-1" d="M124.85,112.89a15.77,15.77,0,0,1,1,8.32c-.34,1.88,2.55,2.69,2.9.8a19.25,19.25,0,0,0-1.3-10.63c-.78-1.76-3.37-.24-2.59,1.51Z"/><path class="cls-1" d="M125,93.35c-.36,3.66-1.37,7.71-.55,11.37.43,1.88,3.32,1.08,2.9-.8-.75-3.31.32-7.24.65-10.57.19-1.92-2.81-1.91-3,0Z"/><path class="cls-1" d="M36.92,181.18l8.33,5.57c1.61,1.08,3.11-1.52,1.52-2.59l-8.33-5.57c-1.61-1.08-3.12,1.52-1.52,2.59Z"/><path class="cls-1" d="M53.75,193.16c2.68,1.57,5.13,3.5,7.81,5.07a1.5,1.5,0,0,0,1.51-2.59c-2.68-1.57-5.13-3.5-7.8-5.08a1.51,1.51,0,0,0-1.52,2.6Z"/><path class="cls-1" d="M69.33,196.8l7.58-3.3c1.76-.77.24-3.35-1.52-2.59l-7.58,3.3c-1.76.76-.24,3.35,1.52,2.59Z"/><path class="cls-1" d="M78.18,122.35c5.8,0,5.81-9,0-9s-5.8,9,0,9Z"/><path class="cls-1" d="M53.16,122.35c5.79,0,5.8-9,0-9s-5.8,9,0,9Z"/><path class="cls-1" d="M296.36,52a29.35,29.35,0,0,1-7.66,2.32c-2.85.47-1.64,4.81,1.19,4.34a32.76,32.76,0,0,0,8.74-2.78c2.62-1.23.34-5.11-2.27-3.88Z"/><path class="cls-1" d="M281.6,57a75.27,75.27,0,0,0-10.91,3.88c-2.65,1.06-1.5,5.42,1.2,4.34a75.58,75.58,0,0,1,10.9-3.88c2.82-.66,1.63-5-1.19-4.34Z"/><path class="cls-1" d="M259.84,63.18l-12.47,3.49c-2.78.77-1.6,5.12,1.2,4.33L261,67.52c2.79-.78,1.61-5.12-1.19-4.34Z"/><path class="cls-1" d="M238.09,70a16.61,16.61,0,0,0-9.72,3c-2.36,1.64-.11,5.54,2.27,3.88a12.44,12.44,0,0,1,7.45-2.34c2.9,0,2.9-4.47,0-4.5Z"/><path class="cls-1" d="M222,80.26a23.47,23.47,0,0,0-3,9.71c-.25,2.88,4.25,2.87,4.5,0a17.94,17.94,0,0,1,2.35-7.43c1.42-2.53-2.46-4.8-3.89-2.28Z"/><path class="cls-1" d="M219.93,96.42a39,39,0,0,0,1.73,13.1c.85,2.76,5.2,1.58,4.34-1.2a35,35,0,0,1-1.57-11.9c.11-2.89-4.39-2.89-4.5,0Z"/><path class="cls-1" d="M223.31,117.28a60.86,60.86,0,0,1,1.86,9.25c.34,2.84,4.84,2.88,4.5,0a67.66,67.66,0,0,0-2-10.45c-.77-2.78-5.12-1.6-4.34,1.2Z"/><path class="cls-1" d="M226.37,137.93a18.66,18.66,0,0,1,1.32,6.68c0,2.89,4.53,2.9,4.5,0a22.39,22.39,0,0,0-1.48-7.88,2.32,2.32,0,0,0-2.77-1.57,2.27,2.27,0,0,0-1.57,2.77Z"/><path class="cls-1" d="M228.28,150.61a30.07,30.07,0,0,0-.23,7.28c.25,2.86,4.76,2.89,4.5,0a25.24,25.24,0,0,1,.07-6.08,2.33,2.33,0,0,0-1.57-2.77,2.26,2.26,0,0,0-2.77,1.57Z"/><path class="cls-1" d="M229.32,163.9c-.58,4.48,3.23,7.44,6.63,9.49,2.49,1.5,4.75-2.39,2.27-3.88-2.11-1.27-4.77-2.78-4.4-5.61a2.27,2.27,0,0,0-2.25-2.25,2.29,2.29,0,0,0-2.25,2.25Z"/><path class="cls-1" d="M252.65,185.25a40.9,40.9,0,0,1,7.12,3.88c2.4,1.63,4.66-2.27,2.27-3.88a46.17,46.17,0,0,0-8.19-4.34,2.27,2.27,0,0,0-2.77,1.57,2.3,2.3,0,0,0,1.57,2.77Z"/><path class="cls-1" d="M275.08,200.12a21.57,21.57,0,0,0,6.24,5.72c2.48,1.5,4.75-2.39,2.27-3.88a16.14,16.14,0,0,1-4.63-4.12,2.31,2.31,0,0,0-3.07-.8,2.27,2.27,0,0,0-.81,3.08Z"/><path class="cls-1" d="M328.58,201.48l6.41-3.94c2.46-1.51.21-5.4-2.27-3.88l-6.41,3.94c-2.47,1.51-.21,5.4,2.27,3.88Z"/><path class="cls-1" d="M340.79,193.4l7.73-3.91c2.58-1.31.31-5.2-2.27-3.89l-7.73,3.92c-2.58,1.3-.31,5.19,2.27,3.88Z"/><path class="cls-1" d="M355,184.4l6.46-4.3c2.4-1.6.14-5.5-2.28-3.89l-6.45,4.3c-2.4,1.6-.15,5.5,2.27,3.89Z"/><path class="cls-1" d="M368.51,175.13a26.11,26.11,0,0,0,6.69-5.27c1.91-2.17-1.26-5.36-3.18-3.18a22.65,22.65,0,0,1-5.78,4.57c-2.53,1.41-.27,5.3,2.27,3.88Z"/><path class="cls-1" d="M379.81,163.82a20.26,20.26,0,0,0,1.82-6.74,2.25,2.25,0,0,0-4.5,0,13.92,13.92,0,0,1-1.2,4.47,2.31,2.31,0,0,0,.81,3.08,2.27,2.27,0,0,0,3.07-.81Z"/><path class="cls-1" d="M380.3,149.21l-1-6.93a2.27,2.27,0,0,0-2.77-1.57,2.31,2.31,0,0,0-1.57,2.77l1,6.92a2.25,2.25,0,0,0,2.76,1.57,2.31,2.31,0,0,0,1.58-2.76Z"/><path class="cls-1" d="M375.26,85.82l1-6.87a2.35,2.35,0,0,0-1.58-2.77,2.26,2.26,0,0,0-2.76,1.58l-1,6.87a2.31,2.31,0,0,0,1.57,2.76,2.27,2.27,0,0,0,2.77-1.57Z"/><path class="cls-1" d="M373.63,71.65c-1.58-2.63-4.44-3.77-7.35-4.28a2.32,2.32,0,0,0-2.77,1.57,2.27,2.27,0,0,0,1.57,2.77c1.66.29,3.73.66,4.67,2.22,1.49,2.47,5.38.21,3.88-2.28Z"/><path class="cls-1" d="M349.83,61.12l-6-1a2.31,2.31,0,0,0-2.77,1.57,2.27,2.27,0,0,0,1.57,2.77l6,1a2.31,2.31,0,0,0,2.77-1.57,2.27,2.27,0,0,0-1.57-2.77Z"/><path class="cls-1" d="M337.61,58.74a27.51,27.51,0,0,1-7.19-1.29c-2.79-.79-4,3.55-1.2,4.34a32.38,32.38,0,0,0,8.39,1.45c2.89,0,2.89-4.46,0-4.5Z"/><path class="cls-1" d="M323,55.21l-5.15-1.77a2.25,2.25,0,0,0-1.2,4.34l5.15,1.77A2.27,2.27,0,0,0,324.55,58,2.3,2.3,0,0,0,323,55.21Z"/><path class="cls-1" d="M311.26,52.08a14.11,14.11,0,0,0-8.2-3c-2.9-.05-2.9,4.45,0,4.5a10,10,0,0,1,5,1.73,2.32,2.32,0,0,0,3.18,0,2.26,2.26,0,0,0,0-3.18Z"/><path class="cls-1" d="M372.36,108.69a9.88,9.88,0,0,1,.71,6c-.55,2.83,3.78,4,4.34,1.2a15.12,15.12,0,0,0-1.16-9.51c-1.22-2.63-5.1-.34-3.89,2.27Z"/><path class="cls-1" d="M378.55,132.66v-7.33c0-2.89-4.5-2.9-4.5,0v7.33c0,2.9,4.5,2.9,4.5,0Z"/><path class="cls-1" d="M371.79,92.36a26.64,26.64,0,0,0,.81,8.89c.74,2.79,5.08,1.61,4.34-1.2a22.89,22.89,0,0,1-.65-7.69c.23-2.88-4.27-2.87-4.5,0Z"/><path class="cls-1" d="M240.92,177.34a27.69,27.69,0,0,1,4.83,2.94,2.33,2.33,0,0,0,3.18,0,2.25,2.25,0,0,0,0-3.18,32.79,32.79,0,0,0-5.74-3.65,2.32,2.32,0,0,0-3.08.81,2.27,2.27,0,0,0,.81,3.08Z"/><path class="cls-1" d="M265.3,193.16l5.49,3.67a2.27,2.27,0,0,0,3.08-.8,2.3,2.3,0,0,0-.81-3.08l-5.49-3.67a2.27,2.27,0,0,0-3.08.8,2.3,2.3,0,0,0,.81,3.08Z"/><path class="cls-1" d="M285.81,211.18l6.95,4c2.51,1.44,4.78-2.44,2.27-3.89l-6.95-4c-2.51-1.44-4.78,2.44-2.27,3.89Z"/><path class="cls-1" d="M302.5,212.82l6.78-2.95a2.25,2.25,0,0,0,.8-3.07A2.29,2.29,0,0,0,307,206l-6.79,2.95a2.27,2.27,0,0,0-.8,3.08,2.3,2.3,0,0,0,3.08.8Z"/><path class="cls-1" d="M316.88,207.67a12.74,12.74,0,0,1,5.24-3.39c2.74-.91,1.56-5.26-1.19-4.34a17.46,17.46,0,0,0-7.23,4.55c-2,2.1,1.19,5.29,3.18,3.18Z"/><path class="cls-1" d="M354.33,67.53c1.89.57,3.72,1.35,5.57,2A2.26,2.26,0,0,0,362.67,68a2.3,2.3,0,0,0-1.57-2.77c-1.85-.69-3.68-1.47-5.57-2-2.78-.83-4,3.51-1.2,4.34Z"/><path class="cls-1" d="M267.5,150.27c6.63,11.9,23,15.65,35.64,15.73,13.41.09,29.6-3.86,37.38-15.68,5.32-8.09-7.66-15.61-12.95-7.57-4.54,6.9-16.92,8.31-24.43,8.25-7.08-.06-18.84-1.39-22.69-8.3-4.69-8.44-17.65-.88-12.95,7.57Z"/><path class="cls-1" d="M278.61,109.67c-2.72,2.43-3.05,6.82-1.27,9.87a8.21,8.21,0,0,0,9.18,3.79l-2,.26a7.88,7.88,0,0,0,3.94-1,13.35,13.35,0,0,0,1.63-1.26,8,8,0,0,0,0-11.21,8,8,0,0,0-1.62-1.28c-1.53-.89-2.2-.83-3.94-1.06a5.66,5.66,0,0,0-2.89.65,5.51,5.51,0,0,0-2.41,1.55,8.36,8.36,0,0,0-2.2,5.3,7.6,7.6,0,0,0,2.2,5.3l1.52,1.18a7.5,7.5,0,0,0,3.78,1h.08l-2-.27.07,0-1.79-.75.06,0-1.52-1.17,0,0-1.17-1.51,0,.06-.76-1.79a.75.75,0,0,1,0,.16l-.27-2a.49.49,0,0,1,0,.17l.27-2a.33.33,0,0,1-.05.15l.76-1.79,0,.07,1.17-1.52-.05,0,1.52-1.17-.06,0,1.79-.76-.07,0,2-.27a12.19,12.19,0,0,0-2.17.3l2-.27h-.1l2,.26a.37.37,0,0,1-.18,0l1.79.76a.57.57,0,0,1-.16-.11l1.52,1.18a.93.93,0,0,1-.13-.15l1.17,1.52a.56.56,0,0,1-.09-.17l.75,1.79a1.33,1.33,0,0,1-.05-.19l.27,2a.6.6,0,0,1,0-.19l-.26,2,0-.09-.76,1.79a.54.54,0,0,1,.1-.16l-1.18,1.52.08-.07a5.54,5.54,0,0,0,1.55-2.41,6.75,6.75,0,0,0,0-5.78,5.6,5.6,0,0,0-1.55-2.41,7.56,7.56,0,0,0-5.3-2.2l-2,.27a7.55,7.55,0,0,0-3.31,1.93Z"/><path class="cls-1" d="M312.46,116.28v.36c0,9.65,15,9.66,15,0v-.36c0-9.65-15-9.67-15,0v.36c0,9.65,15,9.66,15,0v-.36c0-9.65-15-9.67-15,0Z"/><path class="cls-1" d="M399.69,194.69c5.39-12.9,8.09-26.56,10-40.36,1.84-13.56,3.73-27.32,3.89-41,.29-24.41-9.74-48.95-25.68-67.45-7.86-9.11-18.24-14.22-28.78-19.56-11.72-5.94-23.21-10.16-36.3-12-11.9-1.62-24.85-2.73-36.83-1.59-10.6,1-21,4.19-31.07,7.68s-20,7.32-29.25,12.4c-8.13,4.47-15.25,11.28-21.54,18A70.4,70.4,0,0,0,188.43,76.4,142,142,0,0,0,181.06,114c-1.79,24.94.1,51.22,8.81,74.84,7.91,21.41,23.08,38.79,42.57,50.56a100.48,100.48,0,0,0,38,13.89c15.14,2,31.18,1.66,46.35,0,25.17-2.76,49.71-12.66,64.43-34,1.1-1.59-1.5-3.09-2.59-1.51-12.87,18.64-33.86,28.23-55.85,31.69-13.15,2.07-26.79,2.32-40.07,1.8a98.29,98.29,0,0,1-37.19-8.41c-20.41-9.19-38.52-24.82-48.57-45-10.59-21.27-13.64-46.2-13.48-69.7A175.16,175.16,0,0,1,187,92.39c2.3-10.59,5.52-22,12-30.83a108.7,108.7,0,0,1,20.2-20.68c7.46-5.94,16.21-9.67,25-13.23a207.34,207.34,0,0,1,30.14-9.86c10.23-2.41,20.09-2.41,30.55-2,12.64.53,25.37,1.9,37.4,6,5.88,2,11.24,5,16.78,7.76a149.32,149.32,0,0,1,15.13,8.22c11.48,7.53,18.9,19.22,25.12,31.18,6.49,12.46,10.75,24.78,11.2,39s-1.55,28.64-3.37,42.77c-1.89,14.74-4.59,29.37-10.33,43.14-.74,1.78,2.16,2.56,2.89.8Z"/><path class="cls-1" d="M410.12,201c5.95-14.23,8.93-29.34,11-44.57,2-14.77,4.05-29.76,4.27-44.69.41-26.73-10.25-52.64-27.07-73.32C389.88,28,378.71,22.06,367,16.19,354,9.69,341.68,4.62,327.21,2.47,314,.51,299.84-.58,286.48.32c-11.58.79-23,4.24-34,8a229.15,229.15,0,0,0-33.26,13.84c-9,4.75-16.83,12.13-23.79,19.43A77.49,77.49,0,0,0,178,68.92c-5.09,13.65-7.64,28.06-8.7,42.56-2,27-.05,55.28,8.95,81,8.48,24.2,25.09,43.9,46.91,57.28a113,113,0,0,0,35.92,14.62c15.06,3.07,30.9,2.77,46.18,2,24.39-1.21,52.1-7.22,70.7-24.27a81.32,81.32,0,0,0,11.82-14c1.1-1.59-1.5-3.09-2.59-1.51-6.82,9.89-15.07,17.75-25.8,23.2a121.28,121.28,0,0,1-36.3,11.89c-14.86,2.3-30.39,2.58-45.39,1.87A107.72,107.72,0,0,1,239.52,254c-22.3-10.22-42.07-27.41-53.05-49.57-11.7-23.61-15-51.24-14.8-77.31a191.61,191.61,0,0,1,4-39.33c2.57-11.72,6.18-24.18,13.34-34a118.11,118.11,0,0,1,23.79-23.89c8-6.09,17.57-10,26.86-13.68A223.26,223.26,0,0,1,273.24,5.43C284.71,2.84,296,3.08,307.66,3.65c13.72.67,27.55,2.32,40.53,7,6.76,2.43,13,6,19.42,9.18a130.36,130.36,0,0,1,15.91,8.9C395.5,37,403.35,49.6,410,62.3c7.19,13.8,11.9,27.57,12.38,43.26.46,15.34-1.68,30.74-3.6,45.93-2.1,16.61-5,33.14-11.53,48.66-.74,1.78,2.16,2.56,2.9.8Z"/><path class="cls-1" d="M399.66,193.22c-3.45-2.9-7-1.26-9.62,1.87-3.14,3.75-6.25,7.78-9.14,11.74-2,2.69-6.43,7.65-4,11.16,1.21,1.75,4,2.95,5.59,4.24,1.85,1.47,3.62,3,5.49,4.48,2.72,2.08,5.9,4.25,8.95,1.65,2.05-1.75,3.66-5.52,5.08-7.78,1.8-2.86,3.57-5.73,5.37-8.59,1.44-2.28,7.31-8.27,4.8-11.25-1.13-1.33-4.08-1.55-5.59-2.12a24.66,24.66,0,0,1-9.85-6.3c-1.29-1.45-3.4.68-2.12,2.12a25,25,0,0,0,8.14,5.79c1.41.67,2.91,1.12,4.34,1.75,2.57,1.14,2,.59,1.33,2.77-1.11,3.64-4.88,7.72-6.92,11-1.79,2.87-4.55,9.7-7.87,10.08s-6.54-3.71-9-5.7c-2.85-2.29-6.18-3.69-3.75-7.75a67.91,67.91,0,0,1,6.05-8.27c1.74-2.12,7.26-11.58,10.63-8.75,1.47,1.23,3.6-.88,2.12-2.12Z"/><path class="cls-1" d="M407.88,211.14a43.19,43.19,0,0,1,17.89,10c1.41,1.31,3.54-.81,2.12-2.12a46.65,46.65,0,0,0-19.21-10.76,1.51,1.51,0,0,0-.8,2.9Z"/><path class="cls-1" d="M398.52,226.88A59.67,59.67,0,0,0,411.3,237.6c1.64,1,3.15-1.57,1.52-2.59a56.43,56.43,0,0,1-12.18-10.25c-1.29-1.44-3.4.69-2.12,2.12Z"/><path class="cls-1" d="M432.44,211.8a195,195,0,0,0-23.11,31,1.51,1.51,0,0,0,2.6,1.52,189.46,189.46,0,0,1,22.63-30.35c1.31-1.43-.81-3.55-2.12-2.13Z"/><path class="cls-1" d="M432.87,213.69a790.08,790.08,0,0,0,63,53.86c10.75,8.25,21.79,16.07,32.85,23.9,10.83,7.68,21.4,15.9,28.76,27.14,1,1.61,3.65.11,2.59-1.52-6.42-9.8-15.17-17.45-24.53-24.38-11.15-8.24-22.65-16-33.72-24.36A779.21,779.21,0,0,1,435,211.57c-1.4-1.33-3.53.78-2.13,2.12Z"/><path class="cls-1" d="M408.75,244.81c23.35,17.48,47.75,33.48,70.91,51.21,20.19,15.46,38.23,32.9,60.84,45,1.7.91,3.22-1.68,1.51-2.59-22.58-12.09-40.67-29.56-60.84-45-23.16-17.73-47.56-33.73-70.9-51.21-1.55-1.15-3,1.45-1.52,2.59Z"/><path class="cls-1" d="M556.15,314.93a29.38,29.38,0,0,0-15.4,12.21c-2.38,3.89-5,11.77,1.17,13.85,5.93,2,11-6.4,13.54-10.44,2.3-3.61,8.4-12.65,1.62-15-1.83-.63-2.62,2.27-.8,2.9,2.91,1-3.62,11-4.66,12.48a37.36,37.36,0,0,1-3.49,4.43,11.59,11.59,0,0,1-2.85,2.42q-5.5-2.17-3.63-5.67c1.58-6.74,9.24-12.11,15.3-14.28,1.8-.64,1-3.54-.8-2.89Z"/><path class="cls-1" d="M42.47,138.8a56.57,56.57,0,0,0,50.84-3c3.36-1.9.34-7.09-3-5.18-13.84,7.84-30,9.23-44.78,3-3.52-1.49-6.58,3.68-3,5.18Z"/><path class="cls-1" d="M47.17,142.28c1.83,7,5.86,14.56,14.27,14.17s12-8.09,13.81-15c1-3.74-4.8-5.33-5.78-1.59-1.09,4.14-2.61,9.63-7.56,10.55-5.74,1.06-7.85-5.44-9-9.68-1-3.74-6.76-2.15-5.78,1.59Z"/><path class="cls-1" d="M517,67.83a87.83,87.83,0,0,0-12,4.28c-1.77.7-1,3.61.8,2.89a88.7,88.7,0,0,1,12-4.28c1.88-.44,1.08-3.34-.8-2.89Z"/><path class="cls-1" d="M494.89,75.08l-10.15,2.84a1.5,1.5,0,0,0,.79,2.89L495.69,78a1.5,1.5,0,0,0-.8-2.89Z"/><path class="cls-1" d="M477.05,80.55A18.79,18.79,0,0,0,467,83.62c-1.59,1.08-.09,3.68,1.51,2.59a16,16,0,0,1,8.54-2.66,1.5,1.5,0,0,0,0-3Z"/><path class="cls-1" d="M461.93,89.42a18.88,18.88,0,0,0-2.37,7.74c-.16,1.92,2.84,1.91,3,0a15.37,15.37,0,0,1,2-6.23,1.5,1.5,0,0,0-2.59-1.51Z"/><path class="cls-1" d="M461.17,105.92a31.3,31.3,0,0,0,1.4,10.58c.57,1.84,3.47,1.06,2.89-.8a28.92,28.92,0,0,1-1.29-9.78c.08-1.93-2.92-1.93-3,0Z"/><path class="cls-1" d="M464,123.41c.54,3.11.92,6.26,1.15,9.4.14,1.92,3.14,1.93,3,0-.25-3.41-.67-6.82-1.25-10.2-.33-1.89-3.22-1.09-2.9.8Z"/><path class="cls-1" d="M466.92,141.78a39.51,39.51,0,0,0-.2,8.83c.16,1.91,3.16,1.93,3,0a37.17,37.17,0,0,1,.09-8c.28-1.89-2.61-2.71-2.89-.8Z"/><path class="cls-1" d="M467.93,157.38c-.45,3.53,2.56,5.83,5.24,7.45a1.5,1.5,0,0,0,1.51-2.59c-1.81-1.1-4.06-2.43-3.75-4.86.11-.81-.76-1.49-1.5-1.5a1.54,1.54,0,0,0-1.5,1.5Z"/><path class="cls-1" d="M480.77,170.18c2.79,1.24,4.75,3.9,7.21,5.65,1.58,1.12,3.08-1.48,1.52-2.59-2.47-1.76-4.4-4.39-7.22-5.65-1.75-.78-3.27,1.81-1.51,2.59Z"/><path class="cls-1" d="M544.71,189.91l7.06-4.34c1.64-1,.14-3.61-1.51-2.59l-7.07,4.34c-1.64,1-.14,3.6,1.52,2.59Z"/><path class="cls-1" d="M558.24,181.13l6.29-3.19c1.72-.87.21-3.46-1.51-2.59l-6.29,3.19c-1.73.87-.21,3.46,1.51,2.59Z"/><path class="cls-1" d="M569.77,173.79l5.26-3.5c1.6-1.06.1-3.66-1.51-2.59l-5.26,3.5c-1.6,1.06-.1,3.66,1.51,2.59Z"/><path class="cls-1" d="M580.82,166.24A20.66,20.66,0,0,0,586.2,162c1.27-1.44-.84-3.57-2.12-2.12a18.4,18.4,0,0,1-4.78,3.77c-1.68.94-.17,3.54,1.52,2.59Z"/><path class="cls-1" d="M590.06,156.79c1-2.46.48-5.59.67-8.19.13-1.93-2.87-1.92-3,0-.17,2.34.36,5.19-.56,7.39-.75,1.78,2.15,2.56,2.89.8Z"/><path class="cls-1" d="M589.84,140.52c-.45-3.59,0-7.25-.44-10.84-.23-1.89-3.24-1.92-3,0,.45,3.59,0,7.25.44,10.84.23,1.89,3.24,1.91,3,0Z"/><path class="cls-1" d="M584.87,82.41c-1.54-2.46-5.17-4-7.92-4.49-1.89-.36-2.69,2.53-.8,2.89s5,1.36,6.13,3.11,3.62.13,2.59-1.51Z"/><path class="cls-1" d="M569.41,74.63l-8.61-1.5c-1.89-.33-2.7,2.56-.8,2.89l8.61,1.5c1.89.33,2.7-2.56.8-2.89Z"/><path class="cls-1" d="M552.64,70.47a38.06,38.06,0,0,1-9.21-1.64,1.5,1.5,0,0,0-.8,2.89,41.62,41.62,0,0,0,10,1.75c1.93,0,1.93-3,0-3Z"/><path class="cls-1" d="M536.47,66.72A12.88,12.88,0,0,0,532.22,65a18.25,18.25,0,0,0-4.55-.89c-1.93,0-1.93,3,0,3a15.18,15.18,0,0,1,3.75.78A10.35,10.35,0,0,1,535,69.31c1.53,1.18,3-1.43,1.51-2.59Z"/><path class="cls-1" d="M584.41,112.24a15.77,15.77,0,0,1,1,8.32c-.35,1.88,2.54,2.69,2.89.79A19.14,19.14,0,0,0,587,110.73c-.79-1.76-3.37-.24-2.59,1.51Z"/><path class="cls-1" d="M584.59,92.7c-.36,3.66-1.37,7.71-.55,11.37.42,1.88,3.32,1.08,2.89-.8-.74-3.31.33-7.24.66-10.57.19-1.92-2.81-1.91-3,0Z"/><path class="cls-1" d="M496.48,180.53l8.33,5.57c1.61,1.08,3.11-1.52,1.51-2.59L498,177.94c-1.6-1.08-3.11,1.52-1.51,2.59Z"/><path class="cls-1" d="M513.31,192.5c2.68,1.58,5.13,3.51,7.81,5.08a1.5,1.5,0,0,0,1.51-2.59c-2.68-1.57-5.13-3.5-7.81-5.08a1.5,1.5,0,0,0-1.51,2.59Z"/><path class="cls-1" d="M528.88,196.15l7.59-3.3c1.76-.77.24-3.35-1.52-2.59l-7.58,3.3c-1.77.76-.24,3.35,1.51,2.59Z"/><path class="cls-1" d="M537.74,121.7c5.79,0,5.8-9,0-9s-5.8,9,0,9Z"/><path class="cls-1" d="M512.72,121.7c5.79,0,5.8-9,0-9s-5.8,9,0,9Z"/><path class="cls-1" d="M505.31,136.08c1.78,11.53,11.09,21.75,23.5,20.45s18.51-14,16.75-25.22c-.6-3.8-6.38-2.19-5.79,1.6,1.35,8.59-4.29,18.33-13.85,17.72-8.68-.56-13.61-8.28-14.83-16.15-.59-3.8-6.37-2.19-5.78,1.6Z"/><path class="cls-1" d="M509.18,137.91a68.23,68.23,0,0,0,22.67.72c4-.61,10-1.17,12.93-4.4,2.58-2.87-1.65-7.12-4.24-4.24-1.94,2.16-7.55,2.49-10.28,2.85a61.83,61.83,0,0,1-19.48-.72c-3.78-.7-5.4,5.08-1.6,5.79Z"/></g></g></svg>