<svg xmlns="http://www.w3.org/2000/svg" viewBox="0 0 572.05 341.29"><defs><style>.cls-1{fill:#fff;}</style></defs><title>smoelenboek</title><g id="Layer_2" data-name="Layer 2"><g id="Layer_1-2" data-name="Layer 1"><path class="cls-1" d="M66.42,122.35c5.79,0,5.8-9,0-9s-5.8,9,0,9Z"/><path class="cls-1" d="M41.4,122.35c5.79,0,5.8-9,0-9s-5.8,9,0,9Z"/><path class="cls-1" d="M258.84,140.21c6.1,10.81,20.69,14.24,32.23,14.37,12.3.13,26.81-3.58,34-14.32,5.38-8-7.61-15.57-12.95-7.57-3.9,5.82-14.78,6.95-21,6.89-5.87-.07-16-1.17-19.28-6.94-4.75-8.4-17.71-.85-13,7.57Z"/><path class="cls-1" d="M268.82,103.18a6,6,0,0,0-1.67,2.56,4.73,4.73,0,0,0-.56,2.06,6.32,6.32,0,0,0,.15,3.18,7,7,0,0,0,.82,2,8.67,8.67,0,0,0,3,3,8.12,8.12,0,0,0,6.14.78l-2,.27a7.92,7.92,0,0,0,6.73-11.93,5.68,5.68,0,0,0-2-2.18,5.43,5.43,0,0,0-2.7-1.39,7.23,7.23,0,0,0-7.89,2.69,5.61,5.61,0,0,0-1.34,2.55,7.58,7.58,0,0,0,.76,5.78l1.17,1.51a7.46,7.46,0,0,0,3.31,1.93l.08,0L271,115.2l.07,0-1.52-1.17,0,0-1.17-1.52,0,.06-.75-1.79a.75.75,0,0,1,0,.16l-.27-2a.49.49,0,0,1,0,.17l.26-2,0,.08.76-1.79a.57.57,0,0,1-.08.13l1.17-1.51-.06,0,3.31-1.93-.07,0,2-.27a14.17,14.17,0,0,0-2.17.3l2-.27h-.09l2,.27-.09,0,1.79.76a.51.51,0,0,1-.16-.09l1.52,1.17a.62.62,0,0,1-.14-.14l1.18,1.52a1,1,0,0,1-.1-.17l.76,1.79a.59.59,0,0,1-.05-.19l.27,2v-.09l-.27,2a.84.84,0,0,1,.05-.17l-.75,1.79,0-.08-1.17,1.52.07-.06a8.42,8.42,0,0,0,2.2-5.31,5.66,5.66,0,0,0-.65-2.89,5.6,5.6,0,0,0-1.55-2.41,7.56,7.56,0,0,0-5.3-2.2l-2,.27a7.55,7.55,0,0,0-3.31,1.93Z"/><path class="cls-1" d="M298.59,109.64V110c0,9.65,15,9.67,15,0v-.32c0-9.65-15-9.67-15,0V110c0,9.65,15,9.67,15,0v-.32c0-9.65-15-9.67-15,0Z"/><path class="cls-1" d="M222.36,71.58V77c0,2.9,4.5,2.9,4.5,0V71.58c0-2.9-4.5-2.9-4.5,0Z"/><path class="cls-1" d="M222.36,85.85v5.42c0,2.89,4.5,2.9,4.5,0V85.85c0-2.89-4.5-2.9-4.5,0Z"/><path class="cls-1" d="M222.36,102.1V111c0,2.9,4.5,2.9,4.5,0V102.1c0-2.9-4.5-2.9-4.5,0Z"/><path class="cls-1" d="M222.36,117.36v9.85c0,2.89,4.5,2.9,4.5,0v-9.85c0-2.89-4.5-2.9-4.5,0Z"/><path class="cls-1" d="M222.36,141v9.36c0,2.89,4.5,2.9,4.5,0V141c0-2.89-4.5-2.9-4.5,0Z"/><path class="cls-1" d="M221.87,161.18v7.38c0,2.9,4.5,2.9,4.5,0v-7.38c0-2.9-4.5-2.9-4.5,0Z"/><path class="cls-1" d="M221.87,182.84v5.91c0,2.89,4.5,2.9,4.5,0v-5.91c0-2.9-4.5-2.9-4.5,0Z"/><path class="cls-1" d="M220.89,199.08v3.45a2.27,2.27,0,0,0,2.25,2.25,2.29,2.29,0,0,0,2.25-2.25v-3.45a2.25,2.25,0,0,0-4.5,0Z"/><path class="cls-1" d="M233.41,202.51c2.65-.85,5.36-1.14,7.86-2.44s.3-5.23-2.27-3.89c-2.1,1.1-4.55,1.27-6.79,2-2.74.88-1.57,5.23,1.2,4.34Z"/><path class="cls-1" d="M249.89,197.14c2.28-.84,4.72-.86,7-1.63,2.73-.91,1.56-5.26-1.2-4.34-2.29.77-4.73.79-7,1.63-2.69,1-1.53,5.35,1.19,4.34Z"/><path class="cls-1" d="M265.59,192.92a15.68,15.68,0,0,0,6.9-3.56c2.11-2-1.08-5.17-3.18-3.18a11,11,0,0,1-4.92,2.4c-2.79.76-1.61,5.1,1.2,4.34Z"/><path class="cls-1" d="M284.19,184.67a18.7,18.7,0,0,0,8.5-2.86c2.42-1.57.17-5.47-2.27-3.89a13.72,13.72,0,0,1-6.23,2.25,2.31,2.31,0,0,0-2.25,2.25,2.26,2.26,0,0,0,2.25,2.25Z"/><path class="cls-1" d="M302.89,179.67h5.42c2.89,0,2.9-4.5,0-4.5h-5.42c-2.9,0-2.9,4.5,0,4.5Z"/><path class="cls-1" d="M316.18,176.76a13.27,13.27,0,0,0,9-3.63c2.12-2-1.07-5.15-3.19-3.18a8.44,8.44,0,0,1-5.82,2.31c-2.89,0-2.9,4.53,0,4.5Z"/><path class="cls-1" d="M332.43,171.37a14.74,14.74,0,0,0,8.45-3.23,2.26,2.26,0,0,0,0-3.18,2.3,2.3,0,0,0-3.18,0,9.51,9.51,0,0,1-5.27,1.91c-2.88.15-2.9,4.65,0,4.5Z"/><path class="cls-1" d="M346.12,166.74a17.88,17.88,0,0,0,9.08-.88c2.68-1,1.52-5.37-1.19-4.33a13.45,13.45,0,0,1-6.7.87,2.31,2.31,0,0,0-2.76,1.57,2.27,2.27,0,0,0,1.57,2.77Z"/><path class="cls-1" d="M357.32,155.27v-5.42c0-2.89-4.5-2.9-4.5,0v5.42c0,2.89,4.5,2.9,4.5,0Z"/><path class="cls-1" d="M357.82,137.05v-5.9c0-2.9-4.5-2.9-4.5,0v5.9c0,2.9,4.5,2.9,4.5,0Z"/><path class="cls-1" d="M358.31,117.36v-3a2.25,2.25,0,0,0-4.5,0v3a2.25,2.25,0,1,0,4.5,0Z"/><path class="cls-1" d="M358.31,104.07V96.68c0-2.89-4.5-2.9-4.5,0v7.39c0,2.89,4.5,2.9,4.5,0Z"/><path class="cls-1" d="M358.31,87.82V80.44c0-2.9-4.5-2.9-4.5,0v7.38c0,2.9,4.5,2.9,4.5,0Z"/><path class="cls-1" d="M357.85,72.06l-.08-1.58a2.29,2.29,0,0,0-2.25-2.25l-4.87.14c-2.89.09-2.91,4.59,0,4.5l4.87-.14-2.25-2.25.08,1.58a2.3,2.3,0,0,0,2.25,2.25,2.27,2.27,0,0,0,2.25-2.25Z"/><path class="cls-1" d="M344.59,67.77a10.7,10.7,0,0,1-6.28-.48c-2.73-1-3.9,3.35-1.2,4.34a15.11,15.11,0,0,0,8.68.48c2.82-.64,1.63-5-1.2-4.34Z"/><path class="cls-1" d="M325.54,68.83a27,27,0,0,0-9.9,1.23c-2.75.87-1.58,5.22,1.19,4.34a23.36,23.36,0,0,1,8.71-1.07c2.89.19,2.88-4.32,0-4.5Z"/><path class="cls-1" d="M302.89,69.82h-8.37c-2.89,0-2.9,4.5,0,4.5h8.37c2.9,0,2.9-4.5,0-4.5Z"/><path class="cls-1" d="M286.64,68.34h-4.43c-2.89,0-2.9,4.5,0,4.5h4.43c2.9,0,2.9-4.5,0-4.5Z"/><path class="cls-1" d="M272.37,68.34h-8.86c-2.9,0-2.91,4.5,0,4.5h8.86c2.89,0,2.9-4.5,0-4.5Z"/><path class="cls-1" d="M256.61,67.85h-6.89c-2.9,0-2.9,4.5,0,4.5h6.89c2.9,0,2.9-4.5,0-4.5Z"/><path class="cls-1" d="M242.33,67.9a41.85,41.85,0,0,0-8.88.25,2.32,2.32,0,0,0-2.25,2.25,2.26,2.26,0,0,0,2.25,2.25,41.85,41.85,0,0,1,8.88-.25c2.89.22,2.88-4.28,0-4.5Z"/><path class="cls-1" d="M227,68l-3.45.52A2.26,2.26,0,0,0,222,71.27a2.32,2.32,0,0,0,2.77,1.57l3.44-.52a2.25,2.25,0,0,0,1.57-2.77A2.31,2.31,0,0,0,227,68Z"/><path class="cls-1" d="M387.93,194.69c5.38-12.9,8.09-26.56,10-40.36,1.84-13.56,3.73-27.32,3.89-41,.28-24.41-9.74-48.95-25.68-67.45-7.86-9.11-18.24-14.22-28.79-19.56-11.71-5.94-23.2-10.16-36.3-12-11.89-1.62-24.84-2.73-36.82-1.59-10.6,1-21,4.19-31.07,7.68s-20,7.32-29.25,12.4c-8.13,4.47-15.26,11.28-21.54,18A70.27,70.27,0,0,0,176.67,76.4,142.45,142.45,0,0,0,169.29,114c-1.78,24.94.1,51.22,8.82,74.84,7.91,21.41,23.08,38.79,42.57,50.56a100.48,100.48,0,0,0,38,13.89c15.14,2,31.18,1.66,46.34,0,25.18-2.76,49.71-12.66,64.44-34,1.1-1.59-1.5-3.09-2.59-1.51C354,236.43,333,246,311,249.48c-13.14,2.07-26.78,2.32-40.06,1.8a98.38,98.38,0,0,1-37.2-8.41c-20.4-9.19-38.51-24.82-48.56-45-10.59-21.27-13.64-46.2-13.48-69.7a175.16,175.16,0,0,1,3.52-35.76c2.3-10.59,5.52-22,12-30.83a108.7,108.7,0,0,1,20.2-20.68c7.46-5.94,16.21-9.67,25-13.23a207.34,207.34,0,0,1,30.14-9.86c10.23-2.41,20.09-2.41,30.54-2,12.65.53,25.38,1.9,37.41,6,5.87,2,11.24,5,16.78,7.76a149.32,149.32,0,0,1,15.13,8.22c11.48,7.53,18.9,19.22,25.12,31.18,6.49,12.46,10.74,24.78,11.2,39s-1.56,28.64-3.37,42.77c-1.9,14.74-4.59,29.37-10.33,43.14-.74,1.78,2.16,2.56,2.89.8Z"/><path class="cls-1" d="M398.35,201c5.95-14.23,8.94-29.34,11-44.57,2-14.77,4-29.76,4.27-44.69C414,85,403.37,59.05,386.54,38.37,378.12,28,367,22.06,355.23,16.19c-13-6.5-25.31-11.57-39.78-13.72C302.23.51,288.08-.58,274.72.32c-11.58.79-23,4.24-34,8a229.73,229.73,0,0,0-33.27,13.84c-9,4.75-16.83,12.13-23.79,19.43a77.77,77.77,0,0,0-17.45,27.37c-5.08,13.65-7.63,28.06-8.7,42.56-2,27,0,55.28,9,81,8.48,24.2,25.08,43.9,46.91,57.28a113.09,113.09,0,0,0,35.91,14.62c15.07,3.07,30.91,2.77,46.19,2,24.39-1.21,52.09-7.22,70.69-24.27a81.37,81.37,0,0,0,11.83-14c1.09-1.59-1.5-3.09-2.59-1.51-6.82,9.89-15.07,17.75-25.81,23.2a121.13,121.13,0,0,1-36.29,11.89c-14.87,2.3-30.39,2.58-45.39,1.87A107.68,107.68,0,0,1,227.76,254c-22.3-10.22-42.07-27.41-53-49.57-11.7-23.61-15-51.24-14.81-77.31a192.32,192.32,0,0,1,4-39.33c2.56-11.72,6.18-24.18,13.33-34A118.42,118.42,0,0,1,201,29.92c8-6.09,17.57-10,26.86-13.68A222.9,222.9,0,0,1,261.48,5.43C273,2.84,284.22,3.08,295.9,3.65c13.72.67,27.55,2.32,40.53,7,6.76,2.43,13,6,19.42,9.18a131.11,131.11,0,0,1,15.91,8.9c12,8.28,19.83,20.86,26.45,33.56,7.19,13.8,11.9,27.57,12.37,43.26.47,15.34-1.67,30.74-3.59,45.93-2.1,16.61-5,33.14-11.53,48.66-.74,1.78,2.16,2.56,2.89.8Z"/><path class="cls-1" d="M387.9,193.22c-3.46-2.9-7-1.26-9.62,1.87-3.15,3.75-6.25,7.78-9.14,11.74-2,2.69-6.43,7.65-4,11.16,1.21,1.75,4,2.95,5.59,4.24,1.84,1.47,3.62,3,5.49,4.48,2.72,2.08,5.9,4.25,8.94,1.65,2.06-1.75,3.67-5.52,5.09-7.78,1.8-2.86,3.57-5.73,5.37-8.59,1.43-2.28,7.31-8.27,4.79-11.25-1.12-1.33-4.08-1.55-5.58-2.12a24.66,24.66,0,0,1-9.85-6.3c-1.29-1.45-3.41.68-2.12,2.12a25,25,0,0,0,8.14,5.79c1.41.67,2.91,1.12,4.33,1.75,2.58,1.14,2,.59,1.34,2.77-1.12,3.64-4.89,7.72-6.93,11-1.79,2.87-4.55,9.7-7.86,10.08s-6.54-3.71-9-5.7c-2.85-2.29-6.18-3.69-3.76-7.75a69.06,69.06,0,0,1,6.06-8.27c1.74-2.12,7.26-11.58,10.63-8.75,1.47,1.23,3.6-.88,2.12-2.12Z"/><path class="cls-1" d="M396.12,211.14a43.09,43.09,0,0,1,17.88,10c1.42,1.31,3.55-.81,2.13-2.12a46.65,46.65,0,0,0-19.21-10.76,1.51,1.51,0,0,0-.8,2.9Z"/><path class="cls-1" d="M386.76,226.88a59.43,59.43,0,0,0,12.78,10.72c1.64,1,3.15-1.57,1.51-2.59a56.62,56.62,0,0,1-12.17-10.25c-1.29-1.44-3.41.69-2.12,2.12Z"/><path class="cls-1" d="M420.68,211.8a194.37,194.37,0,0,0-23.11,31,1.5,1.5,0,0,0,2.59,1.52,189.52,189.52,0,0,1,22.64-30.35c1.3-1.43-.81-3.55-2.12-2.13Z"/><path class="cls-1" d="M421.11,213.69a790.08,790.08,0,0,0,63,53.86c10.75,8.25,21.79,16.07,32.84,23.9,10.84,7.68,21.41,15.9,28.77,27.14,1,1.61,3.65.11,2.59-1.52-6.43-9.8-15.17-17.45-24.53-24.38-11.15-8.24-22.66-16-33.73-24.36a779.21,779.21,0,0,1-66.84-56.76c-1.4-1.33-3.52.78-2.12,2.12Z"/><path class="cls-1" d="M397,244.81c23.34,17.48,47.75,33.48,70.9,51.21,20.2,15.46,38.24,32.9,60.85,45,1.7.91,3.21-1.68,1.51-2.59-22.58-12.09-40.67-29.56-60.84-45-23.16-17.73-47.56-33.73-70.9-51.21-1.55-1.15-3.05,1.45-1.52,2.59Z"/><path class="cls-1" d="M544.39,314.93A29.4,29.4,0,0,0,529,327.14c-2.38,3.89-5,11.77,1.18,13.85,5.93,2,11-6.4,13.54-10.44,2.29-3.61,8.39-12.65,1.61-15-1.82-.63-2.61,2.27-.79,2.9,2.91,1-3.62,11-4.66,12.48a38.41,38.41,0,0,1-3.49,4.43,11.59,11.59,0,0,1-2.85,2.42q-5.5-2.17-3.64-5.67c1.59-6.74,9.25-12.11,15.31-14.28,1.8-.64,1-3.54-.8-2.89Z"/><path class="cls-1" d="M30.71,138.8a56.57,56.57,0,0,0,50.84-3c3.36-1.9.34-7.09-3-5.18-13.85,7.84-30,9.23-44.79,3-3.51-1.49-6.57,3.68-3,5.18Z"/><path class="cls-1" d="M35.4,142.28c1.84,7,5.87,14.56,14.28,14.17s12-8.09,13.81-15c1-3.74-4.8-5.33-5.79-1.59-1.08,4.14-2.6,9.63-7.55,10.55-5.74,1.06-7.85-5.44-9-9.68-1-3.74-6.76-2.15-5.79,1.59Z"/><path class="cls-1" d="M526,121.7c5.79,0,5.8-9,0-9s-5.8,9,0,9Z"/><path class="cls-1" d="M501,121.7c5.79,0,5.8-9,0-9s-5.8,9,0,9Z"/><path class="cls-1" d="M493.54,136.08c1.79,11.53,11.1,21.75,23.51,20.45s18.51-14,16.74-25.22c-.59-3.8-6.38-2.19-5.78,1.6,1.35,8.59-4.3,18.33-13.85,17.72-8.68-.56-13.61-8.28-14.83-16.15-.59-3.8-6.37-2.19-5.79,1.6Z"/><path class="cls-1" d="M497.42,137.91a68.23,68.23,0,0,0,22.67.72c4-.61,10-1.17,12.93-4.4,2.58-2.87-1.65-7.12-4.24-4.24-1.94,2.16-7.55,2.49-10.29,2.85a61.84,61.84,0,0,1-19.48-.72c-3.77-.7-5.39,5.08-1.59,5.79Z"/><path class="cls-1" d="M458.89,88.3v4.54a1.5,1.5,0,0,0,3,0V88.3a1.5,1.5,0,0,0-3,0Z"/><path class="cls-1" d="M458.89,100.27v4.54a1.5,1.5,0,0,0,3,0v-4.54a1.5,1.5,0,0,0-3,0Z"/><path class="cls-1" d="M458.89,113.88v7.43a1.5,1.5,0,0,0,3,0v-7.43a1.5,1.5,0,0,0-3,0Z"/><path class="cls-1" d="M458.89,126.67v8.26a1.5,1.5,0,0,0,3,0v-8.26a1.5,1.5,0,0,0-3,0Z"/><path class="cls-1" d="M458.89,146.48v7.84a1.5,1.5,0,0,0,3,0v-7.84a1.5,1.5,0,0,0-3,0Z"/><path class="cls-1" d="M458.48,163.4v6.18a1.5,1.5,0,0,0,3,0V163.4a1.5,1.5,0,0,0-3,0Z"/><path class="cls-1" d="M458.48,181.55v4.95a1.5,1.5,0,0,0,3,0v-4.95a1.5,1.5,0,0,0-3,0Z"/><path class="cls-1" d="M457.65,195.17v2.88a1.5,1.5,0,0,0,3,0v-2.88a1.5,1.5,0,0,0-3,0Z"/><path class="cls-1" d="M467.66,197.66c2.18-.7,4.44-.93,6.49-2,1.72-.9.2-3.49-1.51-2.59s-3.87,1.09-5.78,1.7-1.05,3.49.8,2.89Z"/><path class="cls-1" d="M481.47,193.16c1.91-.7,4-.72,5.88-1.36s1-3.51-.8-2.89-4,.65-5.87,1.36-1,3.57.79,2.89Z"/><path class="cls-1" d="M494.63,189.63a12.83,12.83,0,0,0,5.61-2.89c1.41-1.33-.72-3.45-2.12-2.12a9.69,9.69,0,0,1-4.29,2.12,1.5,1.5,0,0,0,.8,2.89Z"/><path class="cls-1" d="M510.32,182.7a15.08,15.08,0,0,0,6.93-2.35c1.61-1,.11-3.64-1.52-2.59a11.86,11.86,0,0,1-5.41,1.94c-1.91.18-1.93,3.18,0,3Z"/><path class="cls-1" d="M526,178.51h4.54a1.5,1.5,0,0,0,0-3H526a1.5,1.5,0,0,0,0,3Z"/><path class="cls-1" d="M537.13,176.07a10.63,10.63,0,0,0,7.27-2.93c1.42-1.32-.71-3.43-2.12-2.12a7.48,7.48,0,0,1-5.15,2,1.5,1.5,0,0,0,0,3Z"/><path class="cls-1" d="M550.75,171.55a11.86,11.86,0,0,0,6.81-2.59,1.52,1.52,0,0,0,0-2.12,1.54,1.54,0,0,0-2.12,0,8.42,8.42,0,0,1-4.69,1.71c-1.92.1-1.93,3.1,0,3Z"/><path class="cls-1" d="M562.32,167.68a14.5,14.5,0,0,0,7.41-.73c1.79-.68,1-3.58-.8-2.89a11.54,11.54,0,0,1-5.81.73c-1.89-.27-2.71,2.62-.8,2.89Z"/><path class="cls-1" d="M571.23,158.44v-4.53a1.5,1.5,0,0,0-3,0v4.53a1.5,1.5,0,0,0,3,0Z"/><path class="cls-1" d="M571.64,143.18v-5a1.5,1.5,0,0,0-3,0v5a1.5,1.5,0,0,0,3,0Z"/><path class="cls-1" d="M572.05,126.67V124.2a1.51,1.51,0,0,0-1.5-1.5,1.53,1.53,0,0,0-1.5,1.5v2.47a1.5,1.5,0,0,0,3,0Z"/><path class="cls-1" d="M572.05,115.53v-6.18a1.5,1.5,0,0,0-3,0v6.18a1.5,1.5,0,0,0,3,0Z"/><path class="cls-1" d="M572.05,101.92V95.73a1.5,1.5,0,0,0-3,0v6.19a1.5,1.5,0,0,0,3,0Z"/><path class="cls-1" d="M571.67,88.71l-.07-1.33a1.53,1.53,0,0,0-1.5-1.5L566,86c-1.92.06-1.93,3.06,0,3l4.09-.12-1.5-1.5.07,1.33c.1,1.92,3.1,1.94,3,0Z"/><path class="cls-1" d="M561,85.49a9.38,9.38,0,0,1-5.47-.4c-1.81-.67-2.6,2.23-.8,2.89a12.35,12.35,0,0,0,7.07.4c1.88-.43,1.09-3.32-.8-2.89Z"/><path class="cls-1" d="M545,86.39a22.29,22.29,0,0,0-8.19,1c-1.84.58-1,3.48.79,2.89a20,20,0,0,1,7.4-.9c1.93.12,1.92-2.88,0-3Z"/><path class="cls-1" d="M526,87.22h-7a1.5,1.5,0,0,0,0,3h7a1.5,1.5,0,0,0,0-3Z"/><path class="cls-1" d="M512.38,86h-3.72a1.5,1.5,0,0,0,0,3h3.72a1.5,1.5,0,0,0,0-3Z"/><path class="cls-1" d="M500.41,86H493a1.5,1.5,0,0,0,0,3h7.43a1.5,1.5,0,0,0,0-3Z"/><path class="cls-1" d="M487.21,85.57h-5.78a1.5,1.5,0,0,0,0,3h5.78a1.5,1.5,0,0,0,0-3Z"/><path class="cls-1" d="M475.24,85.61a35,35,0,0,0-7.45.21c-1.88.25-1.91,3.25,0,3a35,35,0,0,1,7.45-.21c1.92.14,1.91-2.86,0-3Z"/><path class="cls-1" d="M462.47,85.66l-2.88.44a1.51,1.51,0,0,0-1,1.84,1.54,1.54,0,0,0,1.84,1l2.89-.44a1.51,1.51,0,0,0,1.05-1.84,1.54,1.54,0,0,0-1.85-1Z"/><path class="cls-1" d="M1.2,87.62V92a1.5,1.5,0,0,0,3,0V87.62a1.5,1.5,0,0,0-3,0Z"/><path class="cls-1" d="M1.2,99.26v4.41a1.5,1.5,0,0,0,3,0V99.26a1.5,1.5,0,0,0-3,0Z"/><path class="cls-1" d="M1.2,112.5v7.22a1.5,1.5,0,0,0,3,0V112.5a1.5,1.5,0,0,0-3,0Z"/><path class="cls-1" d="M1.2,124.93v8a1.5,1.5,0,0,0,3,0v-8a1.5,1.5,0,0,0-3,0Z"/><path class="cls-1" d="M1.2,144.19v7.62a1.5,1.5,0,0,0,3,0v-7.62a1.5,1.5,0,0,0-3,0Z"/><path class="cls-1" d="M.8,160.64v6a1.5,1.5,0,0,0,3,0v-6a1.5,1.5,0,0,0-3,0Z"/><path class="cls-1" d="M.8,178.29v4.82a1.5,1.5,0,0,0,3,0v-4.82a1.5,1.5,0,0,0-3,0Z"/><path class="cls-1" d="M0,191.53v2.81a1.5,1.5,0,0,0,3,0v-2.81a1.5,1.5,0,0,0-3,0Z"/><path class="cls-1" d="M9.78,194c2.13-.68,4.33-.91,6.33-1.95,1.71-.9.2-3.49-1.51-2.59s-3.76,1-5.61,1.65-1,3.48.79,2.89Z"/><path class="cls-1" d="M23.22,189.63c1.85-.69,3.84-.7,5.71-1.33s1-3.51-.8-2.89-3.86.64-5.71,1.32-1,3.57.8,2.9Z"/><path class="cls-1" d="M36,186.19a12.55,12.55,0,0,0,5.48-2.82c1.4-1.33-.72-3.45-2.12-2.12a9.52,9.52,0,0,1-4.16,2.05,1.5,1.5,0,0,0,.8,2.89Z"/><path class="cls-1" d="M51.25,179.45A14.65,14.65,0,0,0,58,177.16c1.62-1,.12-3.64-1.51-2.59a11.51,11.51,0,0,1-5.25,1.88c-1.9.18-1.92,3.18,0,3Z"/><path class="cls-1" d="M66.5,175.38h4.41a1.5,1.5,0,0,0,0-3H66.5a1.5,1.5,0,0,0,0,3Z"/><path class="cls-1" d="M77.33,173a10.44,10.44,0,0,0,7.1-2.86c1.41-1.32-.71-3.44-2.12-2.12a7.27,7.27,0,0,1-5,2,1.5,1.5,0,0,0,0,3Z"/><path class="cls-1" d="M90.57,168.61a11.65,11.65,0,0,0,6.65-2.53,1.51,1.51,0,0,0,0-2.12,1.54,1.54,0,0,0-2.12,0,8.11,8.11,0,0,1-4.53,1.65c-1.92.1-1.93,3.1,0,3Z"/><path class="cls-1" d="M101.81,164.85a14.23,14.23,0,0,0,7.23-.71c1.79-.68,1-3.58-.8-2.89a11.28,11.28,0,0,1-5.63.71c-1.89-.28-2.7,2.61-.8,2.89Z"/><path class="cls-1" d="M110.52,155.83v-4.42a1.5,1.5,0,0,0-3,0v4.42a1.5,1.5,0,0,0,3,0Z"/><path class="cls-1" d="M110.92,141v-4.81a1.5,1.5,0,0,0-3,0V141a1.5,1.5,0,0,0,3,0Z"/><path class="cls-1" d="M111.33,124.93v-2.4a1.5,1.5,0,0,0-3,0v2.4a1.5,1.5,0,0,0,3,0Z"/><path class="cls-1" d="M111.33,114.1v-6a1.5,1.5,0,0,0-3,0v6a1.5,1.5,0,0,0,3,0Z"/><path class="cls-1" d="M111.33,100.86v-6a1.5,1.5,0,0,0-3,0v6a1.5,1.5,0,0,0,3,0Z"/><path class="cls-1" d="M111,88l-.07-1.29a1.51,1.51,0,0,0-1.5-1.5l-4,.11c-1.92.06-1.93,3.06,0,3l4-.11-1.5-1.5L108,88c.11,1.92,3.11,1.93,3,0Z"/><path class="cls-1" d="M100.57,84.84a9.06,9.06,0,0,1-5.3-.39c-1.82-.66-2.6,2.23-.8,2.9a12.11,12.11,0,0,0,6.9.39c1.88-.43,1.08-3.32-.8-2.9Z"/><path class="cls-1" d="M85,85.72a21.79,21.79,0,0,0-8,1c-1.83.59-1,3.48.8,2.9A19.2,19.2,0,0,1,85,88.72c1.93.12,1.92-2.88,0-3Z"/><path class="cls-1" d="M66.5,86.52H59.68a1.5,1.5,0,0,0,0,3H66.5a1.5,1.5,0,0,0,0-3Z"/><path class="cls-1" d="M53.26,85.32H49.64a1.5,1.5,0,0,0,0,3h3.62a1.5,1.5,0,0,0,0-3Z"/><path class="cls-1" d="M41.62,85.32H34.4a1.5,1.5,0,0,0,0,3h7.22a1.5,1.5,0,0,0,0-3Z"/><path class="cls-1" d="M28.78,84.92H23.17a1.5,1.5,0,0,0,0,3h5.61a1.5,1.5,0,0,0,0-3Z"/><path class="cls-1" d="M17.14,85a34.38,34.38,0,0,0-7.24.2c-1.88.26-1.91,3.26,0,3a34.38,34.38,0,0,1,7.24-.2c1.93.14,1.92-2.86,0-3Z"/><path class="cls-1" d="M4.72,85l-2.81.42a1.51,1.51,0,0,0-1,1.85,1.53,1.53,0,0,0,1.84,1l2.81-.43a1.5,1.5,0,0,0,1-1.84,1.53,1.53,0,0,0-1.84-1Z"/></g></g></svg>